<svg width="96" height="96" xmlns="http://www.w3.org/2000/svg" xmlns:xlink="http://www.w3.org/1999/xlink" xml:space="preserve" overflow="hidden"><g><path d="M75 25.923C74.9597 25.401 74.5236 24.9984 74 25L66 25 66 17.9C65.9917 10.779 60.221 5.00827 53.1 5L52.9 5C50.3823 4.99901 47.92 5.73909 45.82 7.128 45.2501 7.04731 44.6755 7.00454 44.1 7L43.9 7C36.779 7.00827 31.0083 12.779 31 19.9L31 25 22 25C21.471 24.999 21.0328 25.4101 21 25.938L17 89.938C16.9658 90.4892 17.3849 90.9638 17.9361 90.9981 17.9574 90.9994 17.9787 91 18 91L66 91C66.264 90.9975 66.5161 90.8894 66.7 90.7L66.7 90.7 78.7 78.7C78.9065 78.4935 79.0124 78.2071 78.99 77.916ZM52.9 7 53.1 7C59.1169 7.00716 63.9928 11.8831 64 17.9L64 25 57 25 57 19.9C56.991 14.5464 53.6787 9.7539 48.674 7.853 50.0113 7.28851 51.4484 6.99843 52.9 7ZM46.322 9.229C51.3732 10.2879 54.993 14.739 55 19.9L55 25 42 25 42 17.9C42.0031 14.4923 43.6028 11.2829 46.322 9.229ZM33 19.9C33.0065 14.0132 37.6859 9.19522 43.57 9.017 41.2794 11.4071 40.0004 14.5895 40 17.9L40 25 33 25ZM19.064 89 22.939 27 31 27 31 38C31 38.5523 31.4477 39 32 39 32.5523 39 33 38.5523 33 38L33 27 55 27 55 38C55 38.5523 55.4477 39 56 39 56.5523 39 57 38.5523 57 38L57 27 68.936 27 65.061 89ZM67.164 87.4 70.939 27 73.074 27 76.968 77.618 67.182 87.4C67.171 87.414 67.164 87.411 67.165 87.4Z" fill="#196B24"/></g></svg>