<svg width="96" height="96" xmlns="http://www.w3.org/2000/svg" xmlns:xlink="http://www.w3.org/1999/xlink" xml:space="preserve" overflow="hidden"><g><path d="M86.144 56.1816C85.1304 53.8057 82.9951 52.3926 80.5225 50.7568 76.6035 48.1641 71.7261 44.9368 68.0679 36.2197 66.2956 31.8653 62.187 28.9099 57.4951 28.6143 56.2062 28.5422 54.9139 28.672 53.6651 28.999 53.5119 29.0352 53.36 29.0835 53.2073 29.125 53.4908 29.7325 53.7298 30.3598 53.9222 31.002 53.9896 30.9849 54.0566 30.962 54.1241 30.9463 55.0299 30.7229 55.9583 30.6039 56.8912 30.5918 57.1671 30.5918 57.3277 30.6055 57.358 30.6084 61.2959 30.8531 64.7438 33.336 66.2242 36.9932 70.1163 46.2695 75.4933 49.8271 79.419 52.4248 80.4761 53.09 81.4914 53.8195 82.459 54.6093 82.4777 54.6254 82.4737 54.6328 82.4499 54.6261 80.9216 54.2281 79.3439 54.0525 77.7655 54.1045 72.6385 54.3826 67.6044 55.5888 62.9081 57.6645 59.2123 59.1803 55.7246 61.1605 52.5291 63.5575 52.5631 64.5061 52.4717 65.4551 52.2573 66.3798 54.6821 64.3037 57.355 62.5363 60.2148 61.1181 60.0803 61.9412 60.1792 62.7855 60.5004 63.5551 61.486 65.8366 64.1346 66.8871 66.416 65.9014 68.6634 64.9305 69.7223 62.3411 68.7992 60.0736 68.4735 59.3044 67.938 58.6423 67.2539 58.163 70.651 56.961 74.2071 56.2675 77.807 56.1049 81.347 56.0149 83.77 56.8232 84.5238 58.276 84.4399 62.0744 78.7438 68.2025 69.0976 72.4203 59.3315 76.3478 50.971 76.1191 48.2017 73.518 48.0196 72.8604 48.0536 72.1616 48.2987 71.5248 47.3775 72.0186 46.3975 72.394 45.3821 72.642 45.4421 72.8307 45.495 73.0204 45.5721 73.2074 46.7195 75.9874 50.3982 77.4018 55.3187 77.4018 60.1797 77.2772 64.9772 76.2673 69.4759 74.4218L70.2659 74.0907C81.2256 69.1875 88.3091 61.2568 86.144 56.1816ZM64.645 59.3135C66.0244 59.3121 67.1438 60.4293 67.1451 61.8088 67.1465 63.1882 66.0293 64.3075 64.6499 64.3089 63.2704 64.3102 62.1511 63.1931 62.1497 61.8136 62.1488 60.8065 62.7528 59.8973 63.6816 59.5078 63.9868 59.3801 64.3142 59.3141 64.645 59.3135Z" fill="#196B24"/><path d="M49.9751 66.998C50.9609 64.6094 50.4731 62.0957 49.9082 59.1855 49.0127 54.5723 47.8982 48.8311 51.5566 40.1143 53.4222 35.7944 52.6493 30.7877 49.5679 27.2314 49.265 26.8815 48.9353 26.5557 48.5817 26.2571 49.9473 23.8608 49.1117 20.8112 46.7154 19.4456 44.3191 18.08 41.2695 18.9155 39.9039 21.3118 39.8035 21.488 39.7139 21.6701 39.6357 21.8571 39.5645 22.0385 39.5038 22.2239 39.4539 22.4123 39.0143 22.3745 38.5725 22.3701 38.1323 22.3991 33.4117 22.673 29.268 25.6336 27.479 30.0107 23.8208 38.7275 18.9434 41.9551 15.0239 44.5479 12.5513 46.1836 10.416 47.5967 9.4023 49.9727 7.2378 55.0479 14.3218 62.98 25.2817 67.8818L26.0708 68.2129C30.5696 70.0589 35.3673 71.0687 40.2285 71.1929 45.1479 71.1924 48.8276 69.7783 49.9751 66.998ZM41.5351 22.508C42.2414 21.0092 44.029 20.3669 45.5278 21.0732 46.9361 21.737 47.6027 23.3678 47.0624 24.828 47.0358 24.9015 47.004 24.973 46.9672 25.042 46.6308 24.8193 46.2725 24.5927 45.8652 24.3632 44.618 23.654 43.277 23.1244 41.8818 22.79 41.7332 22.7551 41.5984 22.7305 41.457 22.7009 41.479 22.6353 41.5049 22.571 41.5346 22.5085ZM16.1274 46.2158C20.0537 43.6182 25.4307 40.0605 29.3228 30.7842 30.8187 27.1055 34.2998 24.6176 38.2646 24.3936 39.3286 24.3514 40.3929 24.4672 41.4229 24.7373 42.6349 25.0281 43.7998 25.4887 44.8829 26.1055 46.0705 26.7325 47.1436 27.5556 48.0571 28.54 50.6413 31.5217 51.2851 35.722 49.7124 39.3408 45.8198 48.6162 47.0479 54.9453 47.9448 59.5664 48.2152 60.803 48.4065 62.0555 48.5176 63.3164 48.519 63.3408 48.511 63.3431 48.4993 63.3217 46.2873 59.2695 40.4247 54.7225 32.6393 51.4562 27.9429 49.3804 22.9089 48.174 17.7818 47.8956 16.2057 47.8413 14.6301 48.0149 13.1036 48.4109 13.0798 48.4176 13.0758 48.4102 13.0945 48.3941 14.0602 47.607 15.0731 46.8795 16.1274 46.2158ZM33.2119 54.6592C33.737 55.9399 33.1245 57.4038 31.8438 57.929 30.5631 58.4541 29.0992 57.8416 28.574 56.5609 28.0489 55.2802 28.6614 53.8163 29.9421 53.2911 30.5588 53.0382 31.2509 53.0414 31.8652 53.3 32.4766 53.5566 32.961 54.0455 33.2119 54.6592ZM26.4438 66.2092C16.8005 61.9915 11.1073 55.8652 11.023 52.0671 11.7755 50.613 14.1924 49.8022 17.7397 49.8955 21.3379 50.0579 24.8924 50.7509 28.2881 51.9521 26.2673 53.3927 25.797 56.1987 27.2376 58.2194 28.0799 59.4009 29.4407 60.1029 30.8916 60.1045 32.7058 60.1052 34.3434 59.0179 35.0469 57.3457 35.3674 56.5773 35.4665 55.7344 35.3329 54.9126 43.6813 59.1694 48.252 64.5126 47.3443 67.3093 44.5727 69.91 36.2109 70.1377 26.4438 66.209Z" fill="#196B24"/></g></svg>