<svg width="96" height="96" xmlns="http://www.w3.org/2000/svg" xmlns:xlink="http://www.w3.org/1999/xlink" xml:space="preserve" overflow="hidden"><g><path d="M86.85 57.66C84.56 52.12 75.09 52.79 68.59 37.09 68.59 37.09 64.75 27.85 53.97 31.32 54.4649 32.4657 54.8014 33.6734 54.97 34.91 55.2975 37.3664 55.0194 39.8656 54.16 42.19 50.44 51.19 51.59 56.59 52.51 60.94 53.1576 63.2138 53.3312 65.5964 53.02 67.94 55.6042 65.9312 58.409 64.2235 61.38 62.85 61.1294 65.0449 62.7055 67.0274 64.9004 67.278 67.0953 67.5286 69.0777 65.9525 69.3283 63.7576 69.4851 62.3849 68.9224 61.0286 67.84 60.17 75.65 57.43 82.19 56.91 83.12 59.17 84.12 61.73 77.59 66.88 68.4 70.68 59.21 74.48 51 75.52 49.9 73 49.9 73 49.9 72.93 49.9 72.89 48.78 73.6411 47.5332 74.1832 46.22 74.49 46.22 74.49 46.22 74.49 46.22 74.49 48.09 79.01 58.7 79.33 70.09 74.61 81.48 69.89 88.73 62.18 86.85 57.66Z" fill="#0F9ED5"/><path d="M49.26 29.6C51.8144 26.6981 51.5327 22.2749 48.6308 19.7205 48.0546 19.2133 47.3989 18.8044 46.69 18.51 43.1176 17.0323 39.0236 18.7303 37.5459 22.3027 37.2551 23.0056 37.0809 23.7511 37.03 24.51 30.03 24.74 27.41 31.06 27.41 31.06 20.91 46.76 11.41 46.06 9.15 51.63 7.27 56.15 14.55 63.88 25.93 68.63 37.31 73.38 47.93 73.03 49.8 68.51 52.09 63 44.93 56.74 51.43 41 51.43 41 54 34.72 49.26 29.6ZM46.1 67C45 69.52 36.74 68.51 27.56 64.7 18.38 60.89 11.78 55.7 12.84 53.19 13.77 50.95 20.31 51.47 28.12 54.19 26.3893 55.5629 26.0991 58.0789 27.472 59.8096 28.8449 61.5404 31.3609 61.8305 33.0917 60.4576 34.174 59.599 34.7367 58.2426 34.58 56.87 42 60.47 47 64.73 46.1 67ZM46.78 26.15C46.6236 26.526 46.3922 26.8663 46.1 27.15 45.3076 26.6807 44.4821 26.2696 43.63 25.92 42.7751 25.5543 41.8964 25.2469 41 25 40.9894 24.5923 41.0644 24.187 41.22 23.81 41.7877 22.2534 43.5097 21.4517 45.0663 22.0194 46.6228 22.587 47.4245 24.3091 46.8569 25.8657 46.8279 25.9451 46.7956 26.0233 46.76 26.1Z" fill="#0F9ED5"/></g></svg>