<svg width="96" height="96" xmlns="http://www.w3.org/2000/svg" xmlns:xlink="http://www.w3.org/1999/xlink" xml:space="preserve" overflow="hidden"><g><path d="M78.27 51.43C82.79 47.56 85.48 41.24 85.48 34.52 85.48 27.8 82.79 21.47 78.27 17.6 77.6138 17.0431 76.7807 16.7382 75.92 16.74 66.6816 16.9148 57.8119 20.3953 50.92 26.55 49.9899 26.1846 48.9993 25.998 48 26L48 26C46.9894 26.0005 45.9881 26.194 45.05 26.57 38.1581 20.4153 29.2884 16.9348 20.05 16.76 19.1893 16.7582 18.3562 17.0631 17.7 17.62 13.18 21.49 10.49 27.81 10.49 34.54 10.49 41.27 13.18 47.54 17.7 51.45 18.3544 52.01 19.1887 52.3154 20.05 52.31 21.8127 52.2961 23.5716 52.1423 25.31 51.85L17.41 70.85 30.23 67.85 36.45 79.26 48 52 59.52 79.26 65.74 67.85 78.56 70.85 70.66 51.85C72.3984 52.1423 74.1573 52.2961 75.92 52.31 76.7842 52.3116 77.6194 51.9988 78.27 51.43ZM20.21 48.29C16.64 45.16 14.52 40.02 14.52 34.52 14.52 29.02 16.64 23.88 20.21 20.74 28.0764 20.9833 35.6334 23.8604 41.67 28.91 39.5735 31.2679 38.4356 34.3252 38.48 37.48 38.478 39.0195 38.7384 40.548 39.25 42 33.6612 45.9258 27.0376 48.1139 20.21 48.29ZM36 70 32.31 63.23 24.13 65.15 30.13 50.71C34.0718 49.5731 37.8083 47.818 41.2 45.51 42.2101 46.7942 43.5369 47.7936 45.05 48.41ZM48 45 48 45C45 45 42.5 41.63 42.5 37.5 42.5 33.37 45 30 48 30L48 30C51 30 53.5 33.36 53.5 37.5 53.5 41.64 51.05 45 48 45ZM71.85 65.2 63.67 63.28 60 70 51 48.41C52.5131 47.7936 53.8399 46.7942 54.85 45.51 58.2398 47.8285 61.9763 49.5938 65.92 50.74ZM56.75 42C57.2605 40.5512 57.5208 39.0261 57.52 37.49 57.5644 34.3352 56.4265 31.2779 54.33 28.92 60.3666 23.8704 67.9236 20.9933 75.79 20.75 79.36 23.89 81.48 29.02 81.48 34.53 81.48 40.04 79.36 45.17 75.79 48.3 68.9614 48.121 62.3377 45.9293 56.75 42Z" fill="#0F9ED5"/></g></svg>