<svg width="96" height="96" xmlns="http://www.w3.org/2000/svg" xmlns:xlink="http://www.w3.org/1999/xlink" xml:space="preserve" overflow="hidden"><g><path d="M81.311 25.857C79.9918 20.6353 76.6203 16.1673 71.961 13.466 62.5912 8.05095 50.6057 11.2569 45.1906 20.6267 45.1831 20.6398 45.1755 20.6529 45.168 20.666L45.125 20.751 15.267 72.3C14.1161 74.2783 13.8005 76.6335 14.39 78.845 15.3793 82.6042 18.7768 85.2252 22.664 85.228 25.7533 85.2221 28.6061 83.573 30.153 80.899L58.6 31.789 59.033 31.06 60.083 29.238C60.746 28.0902 62.2139 27.6972 63.3616 28.3602 63.3621 28.3605 63.3625 28.3607 63.363 28.361 63.6396 28.524 63.8818 28.7394 64.076 28.995L64.141 29.081C64.6615 29.8449 64.7003 30.8389 64.241 31.641 61.9169 35.7832 63.3908 41.0252 67.5331 43.3492 71.5964 45.6291 76.7364 44.2584 79.125 40.258 81.7858 35.9562 82.5754 30.7546 81.311 25.857ZM36.844 65.357 19.863 68.357 28.385 53.647 45.365 50.647ZM46.675 48.386 29.694 51.386 38.747 35.759 55.728 32.759ZM28.42 79.894C27.2314 81.9498 25.0387 83.218 22.664 83.223 19.019 83.2018 16.0813 80.2298 16.1025 76.5847 16.1092 75.4302 16.4187 74.2976 17 73.3L18.555 70.615 35.536 67.615ZM58.351 28.239 57.312 30.039 57.042 30.495 40.057 33.495 46.857 21.758 46.886 21.709 46.911 21.658 46.928 21.624C48.9385 18.1808 52.0527 15.5173 55.766 14.065 59.1717 17.1683 61.1054 21.5676 61.089 26.175 59.9323 26.4592 58.9427 27.2052 58.351 28.239ZM64.358 26.627C63.9616 26.401 63.5325 26.2381 63.086 26.144 63.0647 21.386 61.2305 16.815 57.957 13.362 62.364 12.2559 67.0287 12.9147 70.957 15.198 73.2762 16.5495 75.2624 18.4045 76.769 20.626 74.7061 23.4275 72.0842 25.7703 69.069 27.506 68.1634 28.0261 67.2285 28.4936 66.269 28.906 66.1479 28.5677 65.9849 28.2459 65.784 27.948L65.756 27.907 65.725 27.867 65.644 27.76C65.2933 27.3021 64.8564 26.9172 64.358 26.627ZM77.424 39.2 77.411 39.222 77.398 39.244C75.5482 42.3848 71.5025 43.4314 68.3617 41.5816 65.2564 39.7528 64.1922 35.7712 65.971 32.637 66.2634 32.1265 66.4498 31.5622 66.519 30.978 67.7453 30.4769 68.9358 29.8922 70.082 29.228 73.0867 27.4899 75.7337 25.1966 77.882 22.47 78.528 23.697 79.0278 24.9955 79.371 26.339 80.5014 30.7122 79.7982 35.3573 77.424 39.2Z" fill="#FCE11C"/></g></svg>