<svg width="96" height="96" xmlns="http://www.w3.org/2000/svg" xmlns:xlink="http://www.w3.org/1999/xlink" xml:space="preserve" overflow="hidden"><g><path d="M54.6 69.7 54.6 36.5C54.6 35.4 51.7 33.7 47.9 33.7 44.1 33.7 41.2 35.4 41.2 36.5L41.2 69.7 17 69.7 17 75.7C17 81.8 21.9 86.7 28 86.7L68 86.7C74.1 86.7 79 81.8 79 75.7L79 69.7 54.6 69.7ZM68 80.7 28 80.7C25.2 80.7 23 78.5 23 75.7L73 75.7C73 78.4 70.8 80.7 68 80.7Z" fill="#BF0000"/><path d="M47.8 30.7C51.8 30.7 54.9 27.6 54.9 23.6 54.9 19.6 51.8 9.3 47.8 9.3 43.8 9.3 48.8 14.1 43 18.8 42.8 19 42.8 19 42.5 19.3 41.5 20.5 40.6 21.7 40.6 23.6 40.7 27.6 43.8 30.7 47.8 30.7Z" fill="#BF0000"/></g></svg>