<svg width="96" height="96" xmlns="http://www.w3.org/2000/svg" xmlns:xlink="http://www.w3.org/1999/xlink" xml:space="preserve" overflow="hidden"><g><path d="M81.31 25.83C80.0053 20.6131 76.6478 16.1448 72 13.44 62.6281 8.02306 50.6394 11.2292 45.2224 20.6011 45.2149 20.6141 45.2075 20.627 45.2 20.64L45.2 20.72 15.27 72.27C14.1229 74.2477 13.8065 76.5994 14.39 78.81 15.3742 82.5747 18.7788 85.1981 22.67 85.19 25.7599 85.1844 28.6133 83.5349 30.16 80.86L58.6 31.76 59 31 60.05 29.18C60.4865 28.4273 61.3003 27.9744 62.17 28 62.5908 28.0018 63.0041 28.112 63.37 28.32 63.6475 28.4831 63.889 28.7008 64.08 28.96L64.14 29.04C64.6617 29.8035 64.7006 30.7981 64.24 31.6 61.8596 35.7118 63.2632 40.9747 67.375 43.355 71.4868 45.7353 76.7496 44.3318 79.13 40.22 81.7866 35.9206 82.574 30.7234 81.31 25.83ZM31.91 71.83 17.49 74.53C17.5907 74.2566 17.7145 73.9923 17.86 73.74L21.36 67.74 35.88 65ZM42 54.36 27.52 57.1 31.52 50.24 46 47.5ZM56 30.23 52.34 36.54 37.84 39.28 41.84 32.42 56.36 29.68ZM62.16 25C60.6822 24.9938 59.2674 25.5981 58.25 26.67 57.62 22.17 56.15 19.55 54.75 18.04 54.2391 17.4782 53.6497 16.9932 53 16.6 54.8986 15.3387 57.0362 14.481 59.28 14.08 61.8 16.83 63.43 20.61 64.16 25.38 63.5244 25.1243 62.8451 24.9952 62.16 25ZM66.22 37.1C65.9818 36.0249 66.0724 34.903 66.48 33.88 66.5773 33.6133 66.6978 33.3557 66.84 33.11 67.4458 32.0538 67.6783 30.8244 67.5 29.62 67.66 29.53 67.82 29.44 67.97 29.34 72.82 26.44 75.24 23.84 76.46 21.93 77.3344 23.3677 77.9883 24.9284 78.4 26.56 78.5684 27.2181 78.6953 27.886 78.78 28.56 75.1033 32.0926 70.8571 34.9798 66.22 37.1Z" fill="#196B24"/></g></svg>