<svg width="96" height="96" xmlns="http://www.w3.org/2000/svg" xmlns:xlink="http://www.w3.org/1999/xlink" xml:space="preserve" overflow="hidden"><g><path d="M54.47 70.541 54.47 36.541C54.47 35.441 51.57 33.741 47.77 33.741 43.97 33.741 41.07 35.441 41.07 36.541L41.07 70.541 16.77 70.541 16.77 73.541C16.77 79.6161 21.6949 84.541 27.77 84.541L67.77 84.541C73.8451 84.541 78.77 79.6161 78.77 73.541L78.77 70.541ZM43.07 36.988C44.4775 36.1136 46.1141 35.6794 47.77 35.741 49.4259 35.6792 51.0625 36.1134 52.47 36.988L52.47 70.541 43.07 70.541ZM76.77 73.541C76.77 78.5116 72.7406 82.541 67.77 82.541L27.77 82.541C22.7994 82.541 18.77 78.5116 18.77 73.541L18.77 72.541 76.77 72.541Z" fill="#196B24"/><path d="M47.82 30.741C51.6856 30.7966 54.8644 27.708 54.92 23.8424 54.921 23.7753 54.921 23.7081 54.92 23.641 54.92 19.641 51.82 9.341 47.82 9.341 43.82 9.341 48.82 14.141 43.02 18.841L42.52 19.341C41.3614 20.4795 40.6817 22.0178 40.62 23.641 40.6464 27.5886 43.868 30.7674 47.8156 30.741 47.8171 30.741 47.8185 30.741 47.82 30.741ZM44 20.69 44.364 20.326C46.9979 18.3057 48.4037 15.07 48.083 11.766 48.083 11.653 48.077 11.527 48.075 11.403 48.0739 11.3982 48.0769 11.3933 48.0817 11.3922 48.0838 11.3917 48.0861 11.392 48.088 11.393 49.937 12.087 52.92 19.48 52.92 23.641 52.9826 26.3951 50.8007 28.6784 48.0466 28.741 47.9711 28.7427 47.8955 28.7427 47.82 28.741 44.9814 28.7742 42.6534 26.5001 42.6202 23.6615 42.6201 23.6547 42.62 23.6478 42.62 23.641 42.6864 22.5172 43.1801 21.4614 44 20.69Z" fill="#196B24"/></g></svg>