<svg width="96" height="96" xmlns="http://www.w3.org/2000/svg" xmlns:xlink="http://www.w3.org/1999/xlink" xml:space="preserve" overflow="hidden"><g><path d="M67.1885 14C69.8444 14.0028 71.9968 16.1549 72 18.8108L72 77.1892C71.9968 79.8451 69.8444 81.9972 67.1885 82L28.8116 82C26.1557 81.9972 24.0033 79.8451 24 77.1892L24 18.8108C24.0033 16.1549 26.1557 14.0028 28.8116 14L67.1885 14M67.1885 12 28.8116 12C25.0516 12.0039 22.0044 15.0508 22 18.8108L22 77.1892C22.0044 80.9492 25.0516 83.9961 28.8116 84L67.1885 84C70.9485 83.9961 73.9957 80.9492 74 77.1892L74 18.8108C73.9957 15.0508 70.9485 12.0039 67.1885 12Z" fill="#C00000"/><path d="M35.047 21.6271C34.7954 21.5624 34.5354 21.5362 34.2759 21.5492 34.2672 21.5492 34.2639 21.5437 34.2684 21.5361 34.8336 20.5871 34.5225 19.3596 33.5735 18.7944 32.6245 18.2291 31.397 18.5403 30.8318 19.4893 30.4516 20.1276 30.4566 20.924 30.8447 21.5575L30.8363 21.57C29.7433 21.407 28.725 22.1609 28.562 23.2539 28.3989 24.3469 29.1528 25.3652 30.2459 25.5282 30.8702 25.6213 31.5018 25.4144 31.95 24.97 31.9905 25.9032 31.6922 26.8196 31.11 27.55L33.99 27.55C33.4079 26.8195 33.1095 25.9032 33.15 24.97 33.9286 25.7485 35.1909 25.7484 35.9694 24.9698 36.7479 24.1912 36.7478 22.9289 35.9691 22.1504 35.7146 21.8959 35.396 21.7151 35.047 21.6271Z" fill="#C00000"/><path d="M65.8974 71.5272C65.6456 71.4624 65.3855 71.4362 65.1259 71.4492 65.1172 71.4492 65.1139 71.4437 65.1184 71.4361 65.6836 70.4871 65.3725 69.2596 64.4235 68.6944 63.4745 68.1291 62.247 68.4402 61.6818 69.3893 61.3016 70.0276 61.3066 70.824 61.6947 71.4575L61.6863 71.47C60.5933 71.307 59.575 72.0609 59.412 73.1539 59.2489 74.2469 60.0028 75.2652 61.0959 75.4282 61.7202 75.5213 62.3518 75.3144 62.8 74.87 62.8405 75.8032 62.5422 76.7196 61.96 77.45L64.84 77.45C64.2578 76.7196 63.9595 75.8032 64 74.87 64.7786 75.6485 66.0409 75.6484 66.8194 74.8698 67.5979 74.0911 67.5977 72.8289 66.8191 72.0504 66.5647 71.796 66.2462 71.6152 65.8974 71.5272Z" fill="#C00000"/><path d="M59.1621 45.2632C57.9091 43.9035 56.1703 43.0928 54.3233 43.0073 55.9863 39.516 54.5041 35.3377 51.0128 33.6747 47.5216 32.0118 43.3432 33.4939 41.6803 36.9852 41.2402 37.909 41.008 38.9181 41 39.9414 40.989 41.0021 41.223 42.0511 41.6836 43.0066 37.8213 43.1744 34.8263 46.4415 34.9941 50.3039 35.1567 54.0466 38.2372 56.9978 41.9834 57L41.9922 57C43.058 56.9964 44.1089 56.7494 45.0647 56.2778 44.513 59.3572 43.5872 61.8608 42.0747 63L53.9247 63C52.4142 61.8623 51.4889 59.363 50.9369 56.2886 51.8034 56.7129 52.7485 56.953 53.7125 56.9937 53.8131 56.998 53.9137 57.0001 54.0143 57 57.8803 56.9964 61.0114 53.8595 61.0078 49.9935 61.0062 48.2413 60.3474 46.5533 59.1617 45.2632ZM57.3907 53.6814C55.3578 55.5499 52.1951 55.4166 50.3266 53.3837 50.3265 53.3836 50.3263 53.3834 50.3262 53.3833 49.9524 52.9769 49.32 52.95 48.9131 53.3233 48.6746 53.5581 48.5659 53.8947 48.622 54.2247 48.622 54.2247 48.672 54.746 48.7063 54.9996 48.9383 57.0536 49.4301 59.0699 50.17 61L45.83 61C46.5693 59.0716 47.0609 57.0572 47.2929 55.0051 47.3271 54.7498 47.3779 54.2251 47.3779 54.2251 47.4797 53.6899 47.1284 53.1735 46.5932 53.0717 46.2533 53.0071 45.9044 53.1252 45.6737 53.3831 44.7259 54.4121 43.3912 54.9982 41.9922 55L41.9854 55C39.224 54.9989 36.9863 52.7595 36.9874 49.9981 36.9884 47.2366 39.2279 44.9989 41.9893 45L41.9951 45C42.5048 45.0021 43.0115 45.0785 43.4991 45.2268 43.9348 45.3461 44.3955 45.1512 44.6133 44.7554 44.8386 44.3452 44.7671 43.8357 44.4375 43.5034 42.5 41.5358 42.5243 38.3701 44.4919 36.4325 46.4595 34.495 49.6253 34.5194 51.5628 36.487 53.5002 38.4544 53.476 41.6198 51.5088 43.5574 51.1153 43.9449 51.1104 44.578 51.4979 44.9716 51.7588 45.2365 52.1452 45.3349 52.501 45.2268 52.9873 45.0788 53.4926 45.0024 54.001 45L54.0078 45C56.7688 44.9993 59.0077 47.2369 59.0084 49.998 59.0088 51.3982 58.422 52.7343 57.3907 53.6814Z" fill="#C00000"/></g></svg>