<svg width="96" height="96" xmlns="http://www.w3.org/2000/svg" xmlns:xlink="http://www.w3.org/1999/xlink" xml:space="preserve" overflow="hidden"><g><path d="M68 85 28 85C24.134 85 21 81.866 21 78L21 18C21 14.134 24.134 11 28 11L68 11C71.866 11 75 14.134 75 18L75 78C75 81.866 71.866 85 68 85ZM28 17C27.4477 17 27 17.4477 27 18L27 78C27 78.5523 27.4477 79 28 79L68 79C68.5523 79 69 78.5523 69 78L69 18C69 17.4477 68.5523 17 68 17Z" fill="#0F9ED5"/><path d="M54 44C53.3934 44.0027 52.7904 44.0936 52.21 44.27 54.571 41.9449 54.6002 38.146 52.275 35.785 49.9499 33.4239 46.151 33.3948 43.79 35.7199 41.429 38.0451 41.3998 41.8439 43.725 44.205 43.7465 44.2268 43.7682 44.2485 43.79 44.27 43.2096 44.0936 42.6066 44.0027 42 44 38.6863 43.9957 35.9965 46.6786 35.9923 49.9923 35.988 53.306 38.6708 55.9957 41.9845 56 43.6664 56.0022 45.2719 55.2983 46.41 54.06 46.19 57.6 45.54 60.84 44 62L52 62C50.46 60.84 49.81 57.6 49.59 54.06 51.8323 56.4998 55.6279 56.66 58.0677 54.4177 60.5076 52.1754 60.6677 48.3798 58.4255 45.94 57.2874 44.7017 55.6819 43.9978 54 44Z" fill="#0F9ED5"/><path d="M36 23C35.9034 22.9946 35.8066 22.9946 35.71 23 36.2829 22.0556 35.9817 20.8256 35.0373 20.2527 34.0928 19.6799 32.8629 19.9811 32.29 20.9255 31.9033 21.5629 31.9033 22.3626 32.29 23 32.1934 22.9946 32.0966 22.9946 32 23 30.8954 23 30 23.8954 30 25 30 26.1046 30.8954 27 32 27 32.5247 26.9978 33.0275 26.7895 33.4 26.42 33.4405 27.3532 33.1422 28.2696 32.56 29L35.44 29C34.8578 28.2696 34.5595 27.3532 34.6 26.42 34.9725 26.7895 35.4753 26.9978 36 27 37.1046 27 38 26.1046 38 25 38 23.8954 37.1046 23 36 23Z" fill="#0F9ED5"/><path d="M64 70C63.9034 69.9946 63.8066 69.9946 63.71 70 64.2829 69.0556 63.9817 67.8256 63.0373 67.2527 62.0928 66.6799 60.8629 66.9811 60.29 67.9255 59.9033 68.5629 59.9033 69.3625 60.29 70 60.1934 69.9946 60.0966 69.9946 60 70 58.8954 70 58 70.8954 58 72 58 73.1046 58.8954 74 60 74 60.5247 73.9978 61.0275 73.7895 61.4 73.42 61.4405 74.3532 61.1422 75.2696 60.56 76L63.44 76C62.8578 75.2696 62.5595 74.3532 62.6 73.42 62.9725 73.7895 63.4753 73.9978 64 74 65.1046 74 66 73.1046 66 72 66 70.8954 65.1046 70 64 70Z" fill="#0F9ED5"/></g></svg>