<svg width="96" height="96" xmlns="http://www.w3.org/2000/svg" xmlns:xlink="http://www.w3.org/1999/xlink" xml:space="preserve" overflow="hidden"><g><path d="M58.04 56.623 58.04 15.69C58.04 10.1672 53.5628 5.69 48.04 5.69 42.5172 5.69 38.04 10.1672 38.04 15.69L38.04 56.623C32.758 60.0421 29.5605 65.898 29.54 72.19 29.54 82.4022 37.8148 90.6828 48.027 90.69 48.379 90.69 48.733 90.68 49.087 90.661 59.288 90.0853 67.091 81.3491 66.5153 71.1481 66.1812 65.2279 63.0296 59.8267 58.04 56.623ZM64.481 73.613C63.6965 82.6919 55.7007 89.4158 46.6218 88.6313 42.9061 88.3102 39.4087 86.7398 36.7 84.176 30.0792 77.9145 29.788 67.4713 36.0495 60.8505 37.0838 59.7569 38.2629 58.8099 39.554 58.036L40.039 57.744 40.039 15.69C40.039 11.2717 43.6207 7.69 48.039 7.69 52.4573 7.69 56.039 11.2717 56.039 15.69L56.039 57.744 56.524 58.035C61.9455 61.2709 65.0372 67.3238 64.481 73.613Z" fill="#FCE11C"/><path d="M49.04 63.754 49.04 37.69 47.04 37.69 47.04 63.754C42.3782 64.3063 39.0467 68.5331 39.599 73.195 40.1513 77.8568 44.3782 81.1882 49.04 80.6359 53.7018 80.0837 57.0333 75.8568 56.481 71.195 56.0187 67.2929 52.9421 64.2163 49.04 63.754ZM48.04 78.69C44.4501 78.69 41.54 75.7799 41.54 72.19 41.54 68.6002 44.4501 65.69 48.04 65.69 51.6299 65.69 54.54 68.6002 54.54 72.19 54.5356 75.778 51.628 78.6856 48.04 78.69Z" fill="#FCE11C"/></g></svg>