<svg width="96" height="96" xmlns="http://www.w3.org/2000/svg" xmlns:xlink="http://www.w3.org/1999/xlink" xml:space="preserve" overflow="hidden"><g><path d="M83 40.348C84.2452 35.8957 87.3402 32.1912 91.5 30.174 87.3349 28.1634 84.2377 24.4563 83 20 81.7545 24.4522 78.6597 28.1565 74.5 30.174 78.6598 32.1912 81.7548 35.8957 83 40.348Z" fill="#FCE11C"/><path d="M17.848 63C16.9917 66.0635 14.8623 68.6124 12 70 14.8623 71.3876 16.9917 73.9365 17.848 77 18.7061 73.9363 20.8369 71.3876 23.7 70 20.8329 68.6175 18.7005 66.0667 17.848 63Z" fill="#FCE11C"/><path d="M66 18.463C66.5258 16.5817 67.8328 15.0162 69.59 14.163 67.8315 13.3145 66.5235 11.75 66 9.869 65.4742 11.7502 64.1672 13.3158 62.41 14.169 64.1658 15.0209 65.4727 16.584 66 18.463Z" fill="#FCE11C"/><path d="M89 58.25C87.3083 58.2557 85.7482 59.1633 84.907 60.631L59.448 58.385C58.6567 56.1455 56.319 54.8483 54 55.362L45.909 44.688C47.398 42.5335 46.8585 39.5799 44.704 38.091 43.9093 37.5418 42.9659 37.2484 42 37.25 41.4821 37.2558 40.9687 37.3477 40.481 37.522L34.461 29.576C35.339 27.118 34.0583 24.4136 31.6003 23.5356 29.7966 22.8913 27.7824 23.3993 26.5 24.822L11.333 24.064C10.2702 21.6589 7.45891 20.5708 5.05385 21.6337 2.64879 22.6965 1.56069 25.5078 2.62351 27.9128 3.68633 30.3179 6.4976 31.406 8.90266 30.3431 9.93464 29.8871 10.7711 29.0794 11.263 28.064L25.333 28.764C25.7229 31.323 28.1134 33.0815 30.6724 32.6916 30.9968 32.6422 31.3151 32.5589 31.622 32.443L37.58 40.306C37.3664 40.8455 37.2545 41.4198 37.25 42 37.2533 44.622 39.378 46.7467 42 46.75 42.144 46.75 42.28 46.72 42.42 46.708L50.82 57.794C50.4515 58.4713 50.2557 59.229 50.25 60 50.2552 61.8499 51.3348 63.5282 53.016 64.3L53.7 73.87C51.4086 75.1268 50.57 78.0032 51.8268 80.2946 53.0837 82.5859 55.96 83.4246 58.2514 82.1677 58.8124 81.86 59.3052 81.4416 59.7 80.938L75.022 84.586C76.4356 86.7887 79.3672 87.4284 81.5699 86.0148 83.7726 84.6011 84.4123 81.6696 82.9986 79.4669 82.746 79.0732 82.4364 78.719 82.08 78.416L88.512 67.7C88.6737 67.7253 88.8366 67.742 89 67.75 91.6234 67.75 93.75 65.6234 93.75 63 93.75 60.3766 91.6234 58.25 89 58.25ZM74.559 80.363 60.659 77.052C60.3287 75.463 59.2108 74.1522 57.694 73.575L57.03 64.275C57.8964 63.8621 58.6171 63.1961 59.097 62.365L84.557 64.611C84.6853 64.9806 84.8593 65.3326 85.075 65.659L78.061 77.345C76.4498 77.6768 75.125 78.8185 74.559 80.363Z" fill="#FCE11C"/></g></svg>