<svg width="96" height="96" xmlns="http://www.w3.org/2000/svg" xmlns:xlink="http://www.w3.org/1999/xlink" xml:space="preserve" overflow="hidden"><g><path d="M89.0667 57.9692C86.862 57.9771 84.9236 59.4306 84.2985 61.5449L60.0093 59.4016C59.7282 56.687 57.2997 54.7143 54.5851 54.9954 54.0049 55.0555 53.4399 55.2178 52.9163 55.4749L45.4536 45.6243C47.4837 43.7692 47.6255 40.6196 45.7703 38.5895 44.1525 36.8191 41.5024 36.4535 39.4656 37.7197L34.203 30.7731C35.7573 28.4979 35.173 25.3935 32.8978 23.8392 30.6226 22.2849 27.5182 22.8693 25.9639 25.1444 25.8329 25.3362 25.7154 25.537 25.6123 25.7452L11.9751 25.0635C11.4736 22.3493 8.86687 20.5556 6.15271 21.057 3.43854 21.5585 1.64479 24.1653 2.14624 26.8794 2.6477 29.5936 5.25447 31.3873 7.96863 30.8859 9.93795 30.5221 11.4999 29.0177 11.9375 27.0635L25.0917 27.7215C25.0874 27.8052 25.0667 27.8843 25.0667 27.969 25.0575 30.7212 27.2812 32.9598 30.0335 32.969 30.9982 32.9722 31.9432 32.6953 32.7536 32.1719L37.9936 39.0885C36.3835 41.3084 36.8778 44.4132 39.0976 46.0233 40.4389 46.9962 42.1771 47.2359 43.7316 46.6624L51.3256 56.6866C49.5007 58.7342 49.6812 61.8735 51.7288 63.6984 52.4064 64.3024 53.2367 64.7091 54.1293 64.8743L54.7219 73.1761C52.068 73.9143 50.515 76.6641 51.2532 79.3179 51.9913 81.9718 54.7411 83.5248 57.395 82.7867 58.8055 82.3943 59.9724 81.4021 60.5864 80.073L74.28 83.334C75.0231 85.9855 77.775 87.5326 80.4265 86.7895 83.0781 86.0464 84.6251 83.2945 83.882 80.643 83.5176 79.3424 82.641 78.2453 81.4529 77.6028L87.4148 67.6666C87.9442 67.8611 88.503 67.9634 89.0669 67.9692 91.8283 67.9692 94.0669 65.7306 94.0669 62.9692 94.0669 60.2078 91.8283 57.9692 89.0669 57.9692ZM7.0667 28.9692C5.40985 28.9692 4.0667 27.6261 4.0667 25.9692 4.0667 24.3123 5.40985 22.9692 7.0667 22.9692 8.72355 22.9692 10.0667 24.3123 10.0667 25.9692 10.0649 27.6253 8.7228 28.9674 7.0667 28.9692ZM27.0667 27.9692C27.0667 26.3123 28.4098 24.9692 30.0667 24.9692 31.7236 24.9692 33.0667 26.3123 33.0667 27.9692 33.0667 29.6261 31.7236 30.9692 30.0667 30.9692 28.4106 30.9674 27.0685 29.6253 27.0667 27.9692ZM39.0667 41.9692C39.0667 40.3123 40.4098 38.9692 42.0667 38.9692 43.7236 38.9692 45.0667 40.3123 45.0667 41.9692 45.0667 43.6261 43.7236 44.9692 42.0667 44.9692 40.4106 44.9674 39.0685 43.6253 39.0667 41.9692ZM52.0667 59.9692C52.0667 58.3123 53.4098 56.9692 55.0667 56.9692 56.7236 56.9692 58.0667 58.3123 58.0667 59.9692 58.0667 61.6261 56.7236 62.9692 55.0667 62.9692 53.4106 62.9674 52.0685 61.6253 52.0667 59.9692ZM56.0667 80.9692C54.4098 80.9692 53.0667 79.6261 53.0667 77.9692 53.0667 76.3123 54.4098 74.9692 56.0667 74.9692 57.7236 74.9692 59.0667 76.3123 59.0667 77.9692 59.0649 79.6253 57.7228 80.9674 56.0667 80.9692ZM79.0667 84.9692C77.4099 84.9692 76.0667 83.6261 76.0667 81.9692 76.0667 80.3123 77.4099 78.9692 79.0667 78.9692 80.7236 78.9692 82.0667 80.3123 82.0667 81.9692 82.0649 83.6253 80.7228 84.9674 79.0667 84.9692ZM79.4757 77.0106C79.3385 76.9993 79.2068 76.9692 79.0667 76.9692 76.5919 76.9764 74.4959 78.7953 74.14 81.2444L61.0506 78.1279C61.0523 78.074 61.0667 78.0237 61.0667 77.9692 61.0589 75.4664 59.1987 73.3565 56.7167 73.0349L56.1316 64.8492C57.9016 64.4546 59.3189 63.1321 59.8348 61.3936L84.124 63.5367C84.2572 64.7272 84.8162 65.8293 85.6981 66.64ZM89.0667 65.9692C87.4099 65.9692 86.0667 64.6261 86.0667 62.9692 86.0667 61.3123 87.4099 59.9692 89.0667 59.9692 90.7236 59.9692 92.0667 61.3123 92.0667 62.9692 92.0649 64.6253 90.7228 65.9674 89.0667 65.9692Z" fill="#C00000"/><path d="M83.0667 40.3169C84.3121 35.8647 87.407 32.1604 91.5667 30.1431 87.4014 28.133 84.304 24.4258 83.0667 19.9694 81.8212 24.4215 78.7263 28.1257 74.5667 30.1431 78.7263 32.1605 81.8212 35.8648 83.0667 40.3169ZM83.0647 24.9077C84.2401 26.9388 85.8035 28.7188 87.6659 30.1465 85.8057 31.5746 84.2432 33.3533 83.0667 35.382 81.8893 33.3516 80.3252 31.5717 78.463 30.1431 80.3241 28.7153 81.8875 26.9366 83.0647 24.9077Z" fill="#C00000"/><path d="M17.9151 62.9694C17.0581 66.0326 14.9287 68.5813 12.0667 69.9694 14.9287 71.3574 17.0581 73.9061 17.9151 76.9694 18.7719 73.9061 20.9013 71.3574 23.7634 69.9694 20.8975 68.5863 18.7665 66.0356 17.9151 62.9694ZM17.9151 72.4137C17.2957 71.51 16.564 70.6887 15.7376 69.9694 16.5631 69.2508 17.2941 68.4304 17.9131 67.5278 18.5319 68.4316 19.2632 69.2529 20.0894 69.972 19.2643 70.6907 18.5337 71.5111 17.9151 72.4137Z" fill="#C00000"/><path d="M66.0667 18.4326C66.5927 16.5522 67.8998 14.9876 69.6567 14.1354 67.8975 13.2862 66.5893 11.7203 66.0667 9.838 65.5407 11.7185 64.2336 13.2832 62.4767 14.1354 64.2336 14.9876 65.5407 16.5522 66.0667 18.4326Z" fill="#C00000"/></g></svg>