<svg width="96" height="96" xmlns="http://www.w3.org/2000/svg" xmlns:xlink="http://www.w3.org/1999/xlink" xml:space="preserve" overflow="hidden"><g><path d="M78.481 40.27C78.0616 38.5502 77.3583 36.9124 76.4 35.424 75.2445 33.5652 73.2107 32.4353 71.022 32.436 67.0574 32.5883 63.767 35.5501 63.2 39.477 62.8231 40.8949 62.0723 42.1855 61.026 43.214 60.7006 43.5542 60.3455 43.8648 59.965 44.142L56.993 46.08C56.269 46.513 55.005 47.123 55.005 47.123 55.005 47.123 55.031 45.466 55.014 44.861 54.794 36.951 50.863 32.171 42.994 30.355 33.42 28.146 31.665 28.779 22.862 24.505 19.311 22.781 14.353 20.274 10.817 16.285 10.2741 15.6636 9.33032 15.6 8.70895 16.1429 8.40938 16.4046 8.22655 16.775 8.201 17.172 7.718 24.987 7.928 35.679 11.085 41.442 16.43 51.202 22.248 52.208 30.44 55.442 32.81 56.326 34.67 56.961 37.349 57.961 35.097 59.5 32.992 61.074 31.005 62.248 25.1705 65.5838 18.8144 67.9099 12.205 69.128 11.8111 69.211 11.5 69.5128 11.405 69.904 11.1206 71.0077 11.2903 72.1793 11.876 73.157 12.6 74.3327 13.8359 75.0984 15.211 75.223 14.3226 77.4765 15.4294 80.0236 17.6829 80.9119 18.0728 81.0656 18.4826 81.1626 18.9 81.2 18.359 82.5809 18.5531 84.1417 19.416 85.348 20.1739 86.3533 21.3467 86.9608 22.605 87L22.685 87C23.0105 87.0002 23.3171 86.8467 23.512 86.586 28.04 80.367 30.844 72.213 38.765 71.986 41.665 71.903 44.565 71.655 47.455 71.655 47.816 71.655 48.178 71.655 48.539 71.668 48.724 71.668 48.91 71.674 49.095 71.674 57.468 71.674 65.278 67.262 68.531 59.759 70.308 55.659 69.305 51.659 70.106 47.232 70.716 43.859 71.672 42.962 74.739 42.072 75.6286 41.8453 76.552 41.7826 77.464 41.887L80 42.711C80 42.711 80.615 41.984 78.481 40.27ZM52.745 50.6C52.6953 51.15 53.1008 51.6363 53.6509 51.686 53.6509 51.686 53.651 51.686 53.651 51.686 53.682 51.686 53.712 51.686 53.742 51.686 54.2613 51.6881 54.6958 51.2923 54.742 50.775L54.865 49.414 55.879 48.924C55.934 48.898 57.233 48.27 58.024 47.797L58.057 47.777 58.09 47.756 61.064 45.818 61.108 45.79 61.15 45.759C61.6182 45.4177 62.0559 45.0362 62.458 44.619 63.7483 43.3422 64.6745 41.7442 65.141 39.99L65.167 39.89 65.183 39.79C65.6007 36.8382 68.0472 34.5936 71.024 34.431 72.5358 34.4244 73.9402 35.2113 74.724 36.504 75.3938 37.5417 75.9218 38.6643 76.294 39.842 75.6048 39.8652 74.9202 39.9628 74.252 40.133L74.189 40.15C70.289 41.283 68.873 42.85 68.146 46.875 67.8619 48.6474 67.7222 50.44 67.728 52.235 67.8392 54.5249 67.4897 56.8137 66.7 58.966 63.879 65.473 56.97 69.677 49.1 69.677 48.931 69.677 48.76 69.677 48.591 69.671 48.214 69.663 47.837 69.658 47.46 69.658 45.673 69.658 43.879 69.75 42.144 69.84 41.016 69.897 39.844 69.957 38.713 69.99 31.5 70.2 28.04 75.76 24.694 81.141 23.899 82.42 23.079 83.741 22.23 84.941 21.7498 84.8279 21.3234 84.5524 21.023 84.161 20.5649 83.5079 20.465 82.6684 20.757 81.926L21.728 79.445 19.075 79.205C17.7628 79.0837 16.7975 77.9216 16.9189 76.6094 16.9396 76.3847 16.9922 76.164 17.075 75.954L18.055 73.469 15.395 73.228C14.6564 73.1618 13.9909 72.7551 13.595 72.128 13.3843 71.7742 13.274 71.3697 13.276 70.958 19.8653 69.6668 26.1987 67.3056 32.025 63.968 33.477 63.11 34.941 62.082 36.491 60.994 37.141 60.538 37.804 60.072 38.48 59.61L39.621 58.831 42.788 59.982C43.3105 60.1608 43.8791 59.8822 44.0579 59.3597 44.2319 58.8514 43.9731 58.2965 43.472 58.103L38.051 56.085C36.651 55.563 35.476 55.14 34.335 54.73 33.29 54.354 32.274 53.988 31.177 53.58 30.095 53.153 29.054 52.764 28.05 52.389 21.475 49.934 17.131 48.312 12.842 40.479 10.6 36.4 9.625 28.426 10.129 18.5 10.129 18.488 10.137 18.485 10.146 18.494 14.032 22.44 19.146 24.925 21.988 26.303 26.4433 28.6251 31.2467 30.2068 36.21 30.986 37.968 31.324 39.961 31.708 42.544 32.304 49.493 33.904 52.82 37.915 53.015 44.917 53.028 45.377 53.015 46.643 53.005 47.092Z" fill="#0F9ED5"/><path d="M79.291 38.9 81.245 39.328C81.7382 37.003 81.9928 34.6337 82.005 32.257L80.005 32.237C79.9951 34.4766 79.7559 36.7092 79.291 38.9Z" fill="#0F9ED5"/><path d="M72.982 49.575 73.466 50.449 73.947 51.326C74.071 51.258 77.02 49.605 79.314 44.954L77.52 44.069C76.5426 46.2868 74.9724 48.1921 72.982 49.575Z" fill="#0F9ED5"/><path d="M86.739 33.464C87.6504 32.5319 87.9937 31.1835 87.639 29.929 85.6884 29.4337 83.7056 30.6135 83.2103 32.5642 83.0517 33.1888 83.0616 33.8444 83.239 34.464 84.5005 34.779 85.8343 34.3979 86.739 33.464Z" fill="#0F9ED5"/><path d="M83.647 36.963C82.5656 37.6983 81.9653 38.9601 82.077 40.263 83.9 41.1286 86.0795 40.3526 86.9451 38.5296 87.2177 37.9557 87.3359 37.3206 87.288 36.687 86.1134 36.1153 84.722 36.2208 83.647 36.963Z" fill="#0F9ED5"/><path d="M76.54 33.791C77.1302 34.032 77.7732 34.1141 78.405 34.029 79.1736 32.1696 78.2893 30.0392 76.4299 29.2706 75.8316 29.0233 75.1782 28.9399 74.537 29.029 73.7751 30.8971 74.6719 33.0291 76.54 33.791Z" fill="#0F9ED5"/><path d="M81.038 30.7C82.828 29.7682 83.5238 27.5617 82.592 25.7716 82.2984 25.2077 81.8627 24.73 81.328 24.386 79.5385 25.3068 78.8342 27.5039 79.755 29.2935 80.0505 29.8677 80.4932 30.3531 81.038 30.7Z" fill="#0F9ED5"/><path d="M42.31 29.012C42.854 29.1074 43.3723 28.7437 43.4677 28.1998 43.4678 28.1992 43.4679 28.1986 43.468 28.198 44.737 20.918 49.92 15.947 55.404 11.698 55.415 11.689 55.423 11.693 55.42 11.707 55.21 12.886 55.001 14.307 54.857 15.307 53.9133 22.2877 54.462 29.3892 56.467 36.142L56.767 37.192C57.073 38.258 57.511 39.784 57.941 41.392 58.0581 41.8288 58.4538 42.1326 58.906 42.133 58.9938 42.133 59.0812 42.1215 59.166 42.099 59.6995 41.956 60.016 41.4077 59.8731 40.8742 59.873 40.8742 59.873 40.8741 59.873 40.874 59.439 39.254 58.998 37.715 58.689 36.64L58.389 35.597C56.4607 29.1132 55.9314 22.2937 56.836 15.59 56.973 14.629 57.174 13.261 57.377 12.118 57.5113 11.4481 57.313 10.7547 56.845 10.257 56.1149 9.50601 54.9349 9.42953 54.114 10.08 48.381 14.612 42.883 19.905 41.5 27.854 41.4043 28.3974 41.7668 28.9155 42.31 29.012Z" fill="#0F9ED5"/></g></svg>