<svg width="96" height="96" xmlns="http://www.w3.org/2000/svg" xmlns:xlink="http://www.w3.org/1999/xlink" xml:space="preserve" overflow="hidden"><g><path d="M78.476 40.27C78.056 38.5499 77.3516 36.912 76.392 35.424 72.606 29.731 64.274 32.776 63.198 39.477 62.8212 40.8949 62.0704 42.1856 61.024 43.214 60.6987 43.5544 60.3437 43.865 59.963 44.142 59.75 42.991 59.454 41.959 59.454 41.959 58.824 39.606 57.954 36.59 57.694 35.659 55.7094 28.749 55.2061 21.4979 56.217 14.38 56.398 13.122 56.638 11.873 56.902 10.57 57.0765 9.76016 56.5615 8.96218 55.7517 8.78766 55.3124 8.69299 54.8537 8.80027 54.502 9.08 48.253 13.959 43.436 20.08 42.039 28.09 42.487 28.19 42.948 28.29 43.439 28.404 51.846 30.345 56.39 35.504 56.958 43.757 56.958 43.757 57.028 44.894 56.988 46.08 56.264 46.513 55 47.123 55 47.123 55 47.123 55.026 45.466 55.009 44.861 54.789 36.951 50.858 32.171 42.989 30.355 33.415 28.146 31.66 28.779 22.857 24.505 19.306 22.781 14.348 20.274 10.812 16.285 10.2691 15.6636 9.32532 15.6 8.70395 16.1429 8.40438 16.4046 8.22155 16.775 8.196 17.172 7.713 24.987 7.923 35.679 11.08 41.442 16.425 51.202 22.243 52.208 30.435 55.442 32.805 56.326 34.665 56.961 37.344 57.961 35.092 59.5 32.987 61.074 31 62.248 25.1655 65.5836 18.8094 67.9097 12.2 69.128 11.806 69.2108 11.4947 69.5127 11.4 69.904 11.1161 71.0077 11.2857 72.1791 11.871 73.157 12.595 74.3327 13.8309 75.0984 15.206 75.223 14.3174 77.4764 15.4238 80.0236 17.6773 80.9122 18.0658 81.0654 18.4741 81.1623 18.89 81.2 18.3493 82.5809 18.5435 84.1416 19.406 85.348 20.1649 86.3547 21.3398 86.9624 22.6 87 22.9528 87.0276 23.2951 86.8724 23.507 86.589 28.035 80.37 30.839 72.216 38.76 71.989 42.019 71.896 45.281 71.594 48.534 71.671 57.115 71.871 65.201 67.431 68.526 59.762 70.303 55.662 69.3 51.662 70.101 47.235 70.711 43.862 71.667 42.965 74.734 42.075 75.6234 41.8476 76.547 41.7849 77.459 41.89L79.993 42.711C79.993 42.711 80.61 41.984 78.476 40.27Z" fill="#BF0000"/><path d="M79.286 38.9 81.24 39.328C81.7337 37.0031 81.9883 34.6337 82 32.257L80 32.237C79.9901 34.4766 79.7508 36.7092 79.286 38.9Z" fill="#BF0000"/><path d="M72.977 49.575 73.461 50.449 73.942 51.326C74.066 51.258 77.015 49.605 79.309 44.954L77.515 44.069C76.538 46.2871 74.9677 48.1924 72.977 49.575Z" fill="#BF0000"/><path d="M86.734 33.464C87.6454 32.5319 87.9887 31.1835 87.634 29.929 85.6834 29.4337 83.7006 30.6135 83.2053 32.5642 83.0467 33.1888 83.0566 33.8444 83.234 34.464 84.4955 34.7792 85.8294 34.3981 86.734 33.464Z" fill="#BF0000"/><path d="M83.642 36.963C82.5608 37.6984 81.9605 38.9601 82.072 40.263 83.8941 41.1293 86.0734 40.3544 86.9396 38.5324 87.2129 37.9577 87.3312 37.3215 87.283 36.687 86.1084 36.1153 84.717 36.2208 83.642 36.963Z" fill="#BF0000"/><path d="M78.4 34.029C79.1686 32.1696 78.2843 30.0392 76.4249 29.2706 75.8266 29.0233 75.1732 28.9399 74.532 29.029 73.7702 30.8971 74.667 33.0291 76.5351 33.791 77.1254 34.0316 77.7683 34.1137 78.4 34.029Z" fill="#BF0000"/><path d="M81.033 30.7C82.823 29.7682 83.5188 27.5617 82.587 25.7716 82.2934 25.2077 81.8577 24.73 81.323 24.386 79.5335 25.3068 78.8292 27.5039 79.75 29.2935 80.0455 29.8677 80.4882 30.3531 81.033 30.7Z" fill="#BF0000"/></g></svg>