<svg width="96" height="96" xmlns="http://www.w3.org/2000/svg" xmlns:xlink="http://www.w3.org/1999/xlink" xml:space="preserve" overflow="hidden"><g><path d="M89 17.4141 89 9 7 9 7 17.4141 12 22.4141 12 75 10 75C8.34315 75 7 76.3431 7 78L7 87 89 87 89 78C89 76.3431 87.6569 75 86 75L84 75 84 22.4141ZM9 11 87 11 87 16.5859 82.5859 21 13.4141 21 9 16.5859ZM86 77C86.5523 77 87 77.4477 87 78L87 85 9 85 9 78C9 77.4477 9.44771 77 10 77L86 77ZM65.9258 75 62.8163 75C63.3846 73.4606 62.5973 71.752 61.0579 71.1837 60.7193 71.0587 60.3609 70.9965 60 71L36 71C34.3591 70.984 33.016 72.3012 33 73.9421 32.9965 74.303 33.0587 74.6615 33.1837 75L30.0737 75 30.0737 53.0808C29.9928 43.1808 37.9528 35.0897 47.8528 35.0089 57.7527 34.928 65.8438 42.8879 65.9247 52.7879 65.9251 52.834 65.9253 52.8802 65.9253 52.9263ZM35.0023 73.9315C35.0502 73.3989 35.5002 72.9929 36.0349 73L59.9649 73C60.4996 72.9929 60.9496 73.3989 60.9975 73.9315 61.0348 74.4831 60.6179 74.9604 60.0663 74.9977 60.0442 74.9992 60.0221 75 60 75L36 75C35.4472 74.9994 34.9995 74.5508 35 73.998 35 73.9758 35.0008 73.9536 35.0023 73.9315ZM67.9258 75 67.9258 53.0981C68.0243 42.0936 59.1833 33.0928 48.1788 32.9943 37.1743 32.8957 28.1735 41.7367 28.075 52.7412 28.0744 52.8029 28.0742 52.8646 28.0742 52.9263L28.0742 75 14 75 14 23 82 23 82 75Z" fill="#0F9ED5"/><path d="M55.42 54.9683C54.9895 55.169 54.7597 55.6449 54.87 56.1069 55.0366 56.8838 54.7548 57.6886 54.14 58.1919 53.5786 58.6913 52.7793 58.8216 52.0883 58.5264 51.4862 58.3285 51.014 57.8564 50.8158 57.2544 50.6126 56.54 50.7557 55.7716 51.2025 55.1782 52.7114 53.0977 53.1792 50.4388 52.4711 47.9682 51.6477 44.8957 49.474 42.3632 46.5619 41.0834 46.056 40.8625 45.4668 41.0936 45.246 41.5995 45.1241 41.8786 45.1362 42.1981 45.2787 42.4672 47.4115 46.5033 43.5228 50.1806 42.2826 51.2099 40.608 52.4916 39.2329 54.1231 38.2533 55.9906 35.9717 61.502 39.291 66.7119 41.79 68.08 42.2743 68.3455 42.8821 68.1681 43.1476 67.6838 43.2972 67.4109 43.3112 67.0839 43.1855 66.7992 42.2876 64.87 42.2219 62.6566 43.0039 60.6776 43.1547 62.1422 43.7209 63.5332 44.6357 64.6869 45.7416 65.8857 46.464 67.3877 46.71 69 46.71 69.5523 47.1577 70 47.71 70 51.8238 70.018 55.5372 67.5387 57.0977 63.7324 58.1865 61.3924 58.3977 57.6343 56.6455 55.2778 56.3618 54.8976 55.8503 54.7684 55.42 54.9683ZM55.2657 62.9326C54.135 65.7186 51.557 67.6515 48.5657 67.9561 48.1239 66.2857 47.3107 64.7366 46.1868 63.4243 44.25 61.0659 45.127 57.4536 45.1357 57.42 45.2724 56.8849 44.9493 56.3403 44.4142 56.2037 44.0655 56.1146 43.6959 56.2198 43.4463 56.4791 41.5066 58.3588 40.4285 60.9556 40.4663 63.6564 39.3411 61.5159 39.2097 58.9899 40.1069 56.7442 40.9715 55.1904 42.1466 53.8312 43.5591 52.7511 44.8267 51.6993 48.3101 48.3995 47.895 44.2618 49.1793 45.3696 50.1002 46.8385 50.5376 48.4772 51.1023 50.3684 50.7488 52.4149 49.5825 54.0072 48.7686 55.1178 48.5204 56.5449 48.9116 57.8651 49.2929 59.0441 50.2016 59.9783 51.3696 60.392 52.7445 60.9635 54.3251 60.6994 55.4396 59.712 55.6061 59.5699 55.7617 59.4155 55.905 59.2501 55.9139 59.2401 55.9217 59.2425 55.9224 59.256 55.9957 60.5161 55.7707 61.7758 55.2656 62.9326Z" fill="#0F9ED5"/></g></svg>