<svg width="96" height="96" xmlns="http://www.w3.org/2000/svg" xmlns:xlink="http://www.w3.org/1999/xlink" xml:space="preserve" overflow="hidden"><g><path d="M13 23 13 72 29.074 72 29.074 52.926C29.074 42.4735 37.5475 34 48 34 58.4525 34 66.926 42.4735 66.926 52.926L66.926 72 83 72 83 23Z" fill="#196B24"/><path d="M10 76 86 76C87.1046 76 88 76.8954 88 78L88 86 88 86 8 86 8 86 8 78C8 76.8954 8.89543 76 10 76Z" fill="#196B24"/><path d="M83 19 13 19 8 14 8 10 88 10 88 14 83 19Z" fill="#196B24"/><path d="M41.2 63C40.5265 59.8278 41.5489 56.5335 43.9 54.3 43.9 54.3 42.774 58.7 45.24 61.7 45.5787 62.1156 45.8942 62.5496 46.185 63L55.6 63C56.0921 62.3498 56.5009 61.6407 56.817 60.889 57.888 58.589 57.996 54.989 56.441 52.902 56.8383 54.7016 55.7015 56.4826 53.9019 56.8799 52.1022 57.2772 50.3212 56.1404 49.9239 54.3408 49.7036 53.3428 49.9527 52.2989 50.6 51.508 53.869 47.167 51.457 40.359 46.044 38 48.51 42.664 44.758 46.9 42.561 48.721 40.8985 49.9869 39.5278 51.5956 38.542 53.438 37.2742 56.6191 37.7244 60.2279 39.735 63Z" fill="#196B24"/><path d="M36 72C34.3431 72 33 70.6569 33 69 33 67.3431 34.3431 66 36 66L60 66C61.6569 66 63 67.3431 63 69 63 70.6569 61.6569 72 60 72Z" fill="#196B24"/></g></svg>