<svg width="96" height="96" xmlns="http://www.w3.org/2000/svg" xmlns:xlink="http://www.w3.org/1999/xlink" xml:space="preserve" overflow="hidden"><g><path d="M73.14 48 76.06 46.73 76.25 46.65C80.0173 44.9281 81.6754 40.4783 79.9536 36.711 78.2837 33.0575 74.0318 31.3684 70.31 32.88L70.31 32.88 67.31 34.19 57.95 38.25C63.7239 32.3094 63.5888 22.8129 57.6482 17.0389 51.7076 11.265 42.2111 11.4001 36.4372 17.3407 30.8091 23.1312 30.775 32.3379 36.36 38.17L27.19 34.17 24.19 32.86 24.19 32.86C20.3958 31.1976 15.9724 32.9258 14.31 36.72 12.6476 40.5142 14.3758 44.9376 18.17 46.6L18.36 46.68 21.28 48 32.91 53C33.234 55.5792 32.8682 58.1982 31.85 60.59 30.5814 62.4122 29.0823 64.0626 27.39 65.5 25.9505 66.7183 24.3137 67.6822 22.55 68.35 21.61 68.77 20.45 69.28 18.92 70.03 16.74 71.1 15.64 72.83 15.82 74.89 16.12 78.36 20.05 82.05 24.97 83.48 25.9896 83.7815 27.0468 83.9363 28.11 83.94L28.11 83.94C33.31 83.94 36.74 80.07 39.24 77.24 39.63 76.8 43.43 72.18 47.24 67.56 51.02 72.18 54.82 76.8 55.24 77.24 57.74 80.07 61.17 83.94 66.37 83.94L66.37 83.94C67.4332 83.9363 68.4904 83.7815 69.51 83.48 74.43 82.05 78.36 78.36 78.66 74.89 78.84 72.83 77.74 71.1 75.56 70.03 74.03 69.28 72.87 68.77 71.93 68.35 70.1346 67.6914 68.4667 66.7272 67 65.5 65.1822 63.9546 63.5841 62.1681 62.25 60.19 61.3539 57.9272 61.041 55.4754 61.34 53.06ZM68.52 36.88 71.52 35.6C71.343 37.9976 72.2537 40.3477 74 42 74.6152 42.5498 75.3228 42.9865 76.09 43.29 75.92 43.42 72.83 44.88 72.83 44.88 72.5384 44.6867 72.261 44.4729 72 44.24 69.9302 42.3584 68.6898 39.7337 68.55 36.94ZM22.45 44.19C22.189 44.4229 21.9116 44.6367 21.62 44.83 21.62 44.83 18.53 43.37 18.36 43.24 19.1253 42.9489 19.8355 42.5296 20.46 42 22.1923 40.3591 23.1017 38.0306 22.94 35.65L25.94 36.93 25.94 36.93C25.7741 39.7141 24.5207 42.3216 22.45 44.19ZM30.33 80.58C29.7123 78.6466 28.6896 76.867 27.33 75.36 25.9466 73.7989 24.2406 72.5569 22.33 71.72L23.71 71.1C24.47 70.76 25.13 70.47 25.71 70.16 29.0555 72.2706 31.6002 75.4382 32.94 79.16 32.1483 79.765 31.268 80.244 30.33 80.58ZM52.15 21.72C53.2546 21.72 54.15 22.6154 54.15 23.72 54.15 24.8246 53.2546 25.72 52.15 25.72 51.0454 25.72 50.15 24.8246 50.15 23.72 50.15 22.6154 51.0454 21.72 52.15 21.72ZM42.15 21.72C43.2546 21.72 44.15 22.6154 44.15 23.72 44.15 24.8246 43.2546 25.72 42.15 25.72 41.0454 25.72 40.15 24.8246 40.15 23.72 40.15 22.6154 41.0454 21.72 42.15 21.72ZM47 62.06C45.8954 62.06 45 61.1646 45 60.06 45 58.9554 45.8954 58.06 47 58.06 48.1046 58.06 49 58.9554 49 60.06 49 61.1646 48.1046 62.06 47 62.06ZM47 54C45.8954 54 45 53.1046 45 52 45 50.8954 45.8954 50 47 50 48.1046 50 49 50.8954 49 52 49 53.1046 48.1046 54 47 54ZM47 45.92C45.8954 45.92 45 45.0246 45 43.92 45 42.8154 45.8954 41.92 47 41.92 48.1046 41.92 49 42.8154 49 43.92 48.9945 45.0207 48.1007 45.91 47 45.91ZM54.89 31.26C52.3864 35.554 46.8759 37.0054 42.5819 34.5019 41.2395 33.7192 40.1226 32.6024 39.34 31.26 39.0608 30.7835 39.2207 30.1709 39.6972 29.8916 39.6981 29.8911 39.6991 29.8905 39.7 29.89 40.1765 29.6108 40.7891 29.7707 41.0684 30.2472 41.0689 30.2481 41.0695 30.2491 41.07 30.25 43.0146 33.5913 47.2997 34.7236 50.641 32.779 51.6888 32.1692 52.5602 31.2978 53.17 30.25 53.3974 29.7467 53.9898 29.5231 54.4931 29.7506 54.9964 29.978 55.22 30.5704 54.9925 31.0737 54.9644 31.1358 54.9301 31.1949 54.89 31.25ZM64.82 73.37C65.9225 72.1301 67.1952 71.0527 68.6 70.17 69.23 70.48 69.88 70.77 70.6 71.11L71.98 71.73C68.1825 73.422 65.2769 76.64 63.98 80.59 63.0134 80.2585 62.1055 79.7758 61.29 79.16 62.0949 77.0146 63.3072 75.0451 64.86 73.36Z" fill="#FBE01B"/></g></svg>