<svg width="96" height="96" xmlns="http://www.w3.org/2000/svg" xmlns:xlink="http://www.w3.org/1999/xlink" xml:space="preserve" overflow="hidden"><g><path d="M75.3105 70.0027C73.7842 69.2537 72.6191 68.7361 71.6836 68.3201 69.9191 67.6483 68.2808 66.6832 66.8379 65.4656 65.0186 63.9207 63.4215 62.1319 62.0917 60.15 61.1824 57.8731 60.8725 55.4009 61.1917 52.97L72.8217 47.9234 75.7417 46.6534 75.9317 46.5734C79.7299 44.9233 81.4713 40.5065 79.8212 36.7082 78.1771 32.9239 73.7845 31.1789 69.9917 32.8034 69.9817 32.8034 69.9717 32.8134 69.9617 32.8134L66.9517 34.1234 57.83 38.0788C57.8253 38.081 57.8198 38.0789 57.8177 38.0743 57.816 38.0707 57.8168 38.0666 57.8195 38.0638 60.5153 35.2406 61.9986 31.4741 61.9516 27.5708 61.8559 19.2871 55.0631 12.6493 46.7794 12.745 38.5639 12.8399 31.9536 19.5262 31.9526 27.7422 31.9505 31.5875 33.4317 35.2855 36.0877 38.0662 36.0912 38.0699 36.091 38.0757 36.0873 38.0792 36.0848 38.0816 36.081 38.0824 36.0777 38.0811L26.9509 34.124 23.9409 32.814C23.9309 32.814 23.9209 32.804 23.9109 32.804 20.1042 31.1736 15.6965 32.9378 14.066 36.7445 12.4416 40.5373 14.1866 44.9299 17.9709 46.574L18.1609 46.654 21.0809 47.924 32.7137 52.9718C33.0411 55.5549 32.6707 58.1785 31.6411 60.57 30.3768 62.3875 28.8819 64.033 27.1937 65.4653 25.7508 66.683 24.1125 67.6482 22.348 68.32 21.4125 68.736 20.2474 69.2536 18.7211 70.0026 16.5433 71.07 15.4427 72.7965 15.6211 74.8639 15.9211 78.3268 19.8545 82.0172 24.7711 83.4489 25.7901 83.7515 26.8468 83.908 27.9097 83.9137L27.9107 83.9137C33.1138 83.9137 36.5396 80.0407 39.0416 77.2125 39.4296 76.7741 43.226 72.1525 47.0151 67.5302 50.8039 72.152 54.6003 76.7741 54.9885 77.2125 57.4904 80.0407 60.9162 83.9137 66.1193 83.9137L66.1203 83.9137C67.1836 83.9081 68.2407 83.7516 69.26 83.449 74.177 82.0173 78.1106 78.3269 78.41 74.864 78.5889 72.7966 77.4883 71.07 75.3105 70.0027ZM77.5305 36.6392C79.2133 39.1742 78.5224 42.5934 75.9874 44.2762 75.898 44.3355 75.8068 44.3923 75.7141 44.4463 71.7795 42.717 70.1988 39.4917 70.8927 34.6063 72.4762 33.9451 74.2808 34.0836 75.7448 34.9787 76.461 35.3857 77.0723 35.9543 77.53 36.6392ZM16.3937 36.6073C16.8571 35.924 17.4738 35.3586 18.1946 34.956 19.6531 34.0808 21.4407 33.9508 23.0104 34.606 23.7033 39.4901 22.1236 42.7149 18.1921 44.4444 15.5629 42.9152 14.6713 39.5442 16.2005 36.915 16.2614 36.8103 16.3257 36.7077 16.3933 36.6073ZM27.9105 81.9138C27.0366 81.908 26.168 81.7784 25.3305 81.5288 20.8159 80.2141 17.8097 76.9563 17.6136 74.6917 17.5502 73.4494 18.299 72.3092 19.4643 71.8738 22.0516 72.4377 24.385 73.8285 26.1119 75.8359 27.6405 77.5146 28.6852 79.5764 29.1346 81.8019 29.1357 81.8073 29.1322 81.8126 29.1268 81.8137 29.1266 81.8137 29.1263 81.8138 29.1261 81.8138 28.724 81.8779 28.3176 81.9113 27.9105 81.9138ZM56.4868 75.887C56.314 75.6917 55.0547 74.1819 48.5626 66.2622 48.0724 65.6646 47.2819 65.4026 46.5318 65.5892 46.1032 65.7001 45.722 65.9466 45.4449 66.2919 38.9713 74.1883 37.7162 75.6934 37.5435 75.8884 35.8021 77.8568 33.746 80.1734 31.0779 81.2717 31.0728 81.2738 31.0669 81.2714 31.0648 81.2663 31.0646 81.2657 31.0644 81.2651 31.0643 81.2645 30.5281 78.746 29.3351 76.4143 27.6064 74.5059 26.1133 72.8104 24.2526 71.4783 22.1664 70.6112 22.1546 70.6064 22.1547 70.5982 22.1664 70.593 22.5208 70.433 22.8586 70.2817 23.165 70.1455 25.0969 69.3981 26.8915 68.3354 28.4756 67.0007 30.2949 65.4585 31.9064 63.6868 33.27 61.73L33.5012 61.3044C34.6545 58.6017 35.0677 55.6408 34.6982 52.7256 34.6062 52.0252 34.156 51.4232 33.51 51.1372L20.5211 45.5C20.5162 45.4974 20.5143 45.4914 20.5169 45.4865 20.5177 45.4851 20.5188 45.4838 20.5201 45.4829 23.8795 43.4079 25.4439 40.0137 25.1164 35.5229 25.116 35.5174 25.1202 35.5126 25.1257 35.5123 25.1272 35.5122 25.1286 35.5124 25.1299 35.5129L35.3236 39.9345C36.3382 40.3745 37.5173 39.9087 37.9572 38.8941 37.9791 38.8436 37.9989 38.7922 38.0166 38.7401 38.2386 37.9756 38.0207 37.1509 37.4501 36.5958 32.5505 31.3478 32.8329 23.1215 38.0809 18.2219 43.3289 13.3222 51.5552 13.6046 56.4549 18.8527 61.1138 23.8429 61.119 31.5868 56.4666 36.5832 55.9295 37.1678 55.7157 37.98 55.8956 38.7532 56.2588 39.7976 57.4 40.3498 58.4444 39.9866 58.4914 39.9703 58.5377 39.9522 58.5833 39.9324L68.7722 35.513C68.7774 35.5111 68.7831 35.5137 68.7851 35.5188 68.7856 35.5202 68.7858 35.5216 68.7857 35.523 68.4577 40.0138 70.0221 43.408 73.3819 45.483 73.3865 45.4861 73.3876 45.4923 73.3845 45.4969 73.3836 45.4982 73.3823 45.4993 73.3809 45.5001L60.3955 51.1359C59.7457 51.4255 59.2942 52.0333 59.2045 52.7391 58.8484 55.4835 59.1967 58.2734 60.2166 60.8461L60.443 61.2826C61.8756 63.4154 63.5963 65.3398 65.5563 67.001 67.1474 68.3404 68.9498 69.4066 70.89 70.156 71.1692 70.28 71.4782 70.4183 71.8026 70.5646 71.8143 70.5698 71.8143 70.5781 71.8026 70.5828 69.6893 71.4488 67.8048 72.7914 66.2961 74.5059 64.5798 76.4014 63.391 78.7141 62.8486 81.213 62.8474 81.2184 62.842 81.2218 62.8366 81.2205 62.8361 81.2204 62.8355 81.2202 62.835 81.22 60.225 80.1024 58.2031 77.8271 56.4868 75.887ZM76.4176 74.6914C76.2216 76.9563 73.2155 80.2141 68.7006 81.5288 67.8629 81.7784 66.9941 81.908 66.1201 81.9138 65.6705 81.9119 65.2219 81.8724 64.7789 81.7959 64.7734 81.7951 64.7697 81.79 64.7705 81.7845 64.7705 81.7843 64.7706 81.7842 64.7706 81.784 65.2222 79.5653 66.2655 77.51 67.79 75.8359 69.5364 73.8023 71.9054 72.4022 74.5291 71.853 75.7136 72.2818 76.4797 73.4332 76.4176 74.6914Z" fill="#0F9ED5"/><path d="M53.9525 23.6926C53.9525 24.7972 53.0571 25.6926 51.9525 25.6926 50.8479 25.6926 49.9525 24.7972 49.9525 23.6926 49.9525 22.588 50.8479 21.6926 51.9525 21.6926 53.0571 21.6926 53.9525 22.588 53.9525 23.6926Z" fill="#0F9ED5"/><path d="M43.9525 23.6943C43.9525 24.7989 43.0571 25.6943 41.9525 25.6943 40.8479 25.6943 39.9525 24.7989 39.9525 23.6943 39.9525 22.5897 40.8479 21.6943 41.9525 21.6943 43.0571 21.6943 43.9525 22.5897 43.9525 23.6943Z" fill="#0F9ED5"/><path d="M54.373 29.8506C53.8964 29.5727 53.2847 29.7338 53.0068 30.2104 53.0065 30.2109 53.0062 30.2114 53.0059 30.2119 51.0619 33.555 46.7758 34.6892 43.4327 32.7452 42.3891 32.1384 41.5202 31.2722 40.9102 30.2305 40.6205 29.7603 40.0045 29.6139 39.5343 29.9036 39.0784 30.1845 38.9246 30.7746 39.1855 31.2422 41.6982 35.532 47.2127 36.9726 51.5025 34.4599 52.8412 33.6758 53.9545 32.559 54.7344 31.2178 55.0121 30.7405 54.8503 30.1284 54.373 29.8506Z" fill="#0F9ED5"/><path d="M48.9525 44.6243C48.9525 45.7289 48.0571 46.6243 46.9525 46.6243 45.8479 46.6243 44.9525 45.7289 44.9525 44.6243 44.9525 43.5197 45.8479 42.6243 46.9525 42.6243 48.0571 42.6243 48.9525 43.5197 48.9525 44.6243Z" fill="#0F9ED5"/><path d="M48.9525 52C48.9525 53.1046 48.0571 54 46.9525 54 45.8479 54 44.9525 53.1046 44.9525 52 44.9525 50.8954 45.8479 50 46.9525 50 48.0571 50 48.9525 50.8954 48.9525 52Z" fill="#0F9ED5"/><path d="M48.9525 59.3757C48.9525 60.4803 48.0571 61.3757 46.9525 61.3757 45.8479 61.3757 44.9525 60.4803 44.9525 59.3757 44.9525 58.2711 45.8479 57.3757 46.9525 57.3757 48.0571 57.3757 48.9525 58.2711 48.9525 59.3757Z" fill="#0F9ED5"/></g></svg>