<svg width="96" height="96" xmlns="http://www.w3.org/2000/svg" xmlns:xlink="http://www.w3.org/1999/xlink" xml:space="preserve" overflow="hidden"><g><path d="M60.8 36.7C60.7 36.7 60.7 36.7 60.6 36.7L61.9 44.6 64.3 40.6 63.6 36.5C62.7 36.7 61.8 36.7 60.8 36.7Z" fill="#C00000"/><path d="M53.4 35.3 56.4 53.9 58.8 49.9 56.6 36.2C55.5 36 54.5 35.7 53.4 35.3Z" fill="#C00000"/><path d="M45.7 30.8 50.9 63.1 53.3 59.1 49.2 33.3C47.9 32.7 46.8 31.8 45.7 30.8Z" fill="#C00000"/><path d="M37.3 21.9 45.4 72.4 47.8 68.4 40.9 25.3C39.8 24 38.6 22.9 37.3 21.9Z" fill="#C00000"/><path d="M78.8 24.6C78.6 24.5 78.4 24.5 78.2 24.5 74.2 24.2 66.3 29.3 59.9 28.6 50.9 27.6 48.9 12.1 36.9 7.6 32.1 5.8 24.4 5.6 21.3 5.6L21.2 4.7C21 3.2 19.8 2.1 18.4 2 16.7 1.9 15.3 3.2 15.3 4.9 15.3 5.1 15.3 5.3 15.3 5.5L27.7 83 26 83C24.9 83 24 83.9 24 85L24 90 23 90C21.9 90 21 90.9 21 92L21 94 54 94 54 92C54 90.9 53.1 90 52 90L51 90 51 85C51 83.9 50.1 83 49 83L48.4 83 80.6 29C80.9 28.5 81 28 81.1 27.5 81.2 26.2 80.2 24.9 78.8 24.6L78.8 24.6ZM69.2 36.4 41.5 82.8C41.5 82.9 41.5 82.9 41.4 83L33.8 83 23.3 17.3C25.8 17.1 31.8 17 36.1 19 45 23 43.6 31.6 57.8 34.5 60.9 35 64.1 34.8 67.1 33.8 68.1 33.5 69.1 34.1 69.4 35.1 69.5 35.5 69.4 36 69.2 36.4Z" fill="#C00000"/><path d="M28.9 19.3 38.8 81 40.3 81 41.5 79 32 19.8C31 19.6 29.9 19.4 28.9 19.3Z" fill="#C00000"/></g></svg>