<svg width="96" height="96" xmlns="http://www.w3.org/2000/svg" xmlns:xlink="http://www.w3.org/1999/xlink" xml:space="preserve" overflow="hidden"><g><path d="M79.3 24.9C79.2 24.8 79.1 24.8 79 24.8L78.9 24.8C78.8 24.7 78.6 24.7 78.5 24.7 78.4 24.7 78.1 24.6 78.1 24.6 77.9 24.6 77.7 24.6 77.5 24.6 73.7 24.6 66.9 28.7 61 28.7 60.6 28.7 60.2 28.7 59.7 28.6 50.7 27.6 48.7 12.1 36.7 7.6 31.9 5.8 24.2 5.6 21 5.6L21 4.6C20.8 3.2 19.6 2.1 18.1 2L18 2C16.3 2 15 3.3 15 5 15 5.2 15 5.3 15 5.5L27.5 83 25.8 83C24.1 83 22.8 84.3 22.8 86L22.8 88 21.8 88C20.1 88 18.8 89.3 18.8 91L18.8 94 56.8 94 56.8 91C56.8 89.3 55.5 88 53.8 88L52.8 88 52.8 86C52.8 84.3 51.5 83 49.8 83L48.2 83 80.4 29C81.2 27.6 80.7 25.8 79.3 24.9L79.3 24.9ZM17 5.2C16.9 4.7 17.3 4.1 17.8 4.1 17.9 4.1 17.9 4.1 18 4.1L18 4.1C18.5 4.2 18.9 4.6 18.9 5.1L19 6 19.1 6.4 19.1 6.4 21.1 19.1 21.1 19.1 31.5 83 29.5 83 17 5.2ZM51.5 65.6 47.6 72.2 39.4 21.3C41.8 23.3 43.4 25.8 45.5 28.1L45.5 28.1 51.5 65.6ZM57.1 56.3 53.2 62.9 48 30.3C49.6 31.6 51.5 32.6 53.5 33.3L57.1 56.3ZM55.5 34C56.2 34.2 56.8 34.3 57.6 34.5 58.6 34.7 59.6 34.8 60.6 34.8L60.6 34.8 62.6 47.1 58.7 53.7 55.5 34ZM46 74.8 41.3 82.7C41.3 82.7 41.3 82.7 41.3 82.7L30.9 17.6C32.6 17.8 34.3 18.3 35.9 19 36.4 19.2 36.8 19.4 37.2 19.7L46 74.8ZM39.3 83 33.5 83 23 17.3C23.7 17.3 24.6 17.2 25.6 17.2 26.6 17.2 27.7 17.2 28.8 17.3L39.3 83ZM52.7 90 53.7 90C54.3 90 54.7 90.4 54.7 91L54.7 92 20.7 92 20.7 91C20.7 90.4 21.1 90 21.7 90L52.7 90ZM49.7 85C50.3 85 50.7 85.4 50.7 86L50.7 88 24.7 88 24.7 86C24.7 85.4 25.1 85 25.7 85L49.7 85ZM78.6 28 45.8 83 43.5 83 72.8 33.9C73.4 32.9 73.1 31.5 72 30.9 71.7 30.7 71.3 30.6 70.9 30.6L70.7 30.6 70.5 30.6C69.5 30.8 68.5 31.1 67.5 31.4 65.3 32.2 63 32.6 60.6 32.7 59.7 32.7 58.9 32.6 58 32.4 50.3 30.8 47.7 27.6 45 24.2 42.9 21.6 40.8 19 36.7 17.1 33.2 15.7 29.4 15.1 25.6 15.1 24.7 15.1 23.8 15.1 22.9 15.2L22.7 15.2 21.4 7.4C24.6 7.4 31.7 7.7 36 9.3 41.5 11.4 44.7 16.1 47.8 20.6 51 25.3 54.1 29.8 59.4 30.4 59.9 30.5 60.4 30.5 60.9 30.5 64.5 30.5 68.3 29.2 71.6 28 73.5 27.2 75.4 26.7 77.4 26.4 77.5 26.4 77.6 26.4 77.8 26.4L77.9 26.4 77.9 26.4 77.9 26.4 78 26.4 78.1 26.4 78.2 26.5C78.7 27 78.9 27.6 78.6 28ZM62.6 34.6C66 34.2 68.8 33 70.8 32.6L70.8 32.6C70.9 32.6 71 32.7 71 32.8L71 32.9 64.1 44.4 62.6 34.6Z" fill="#196B24"/></g></svg>