<svg width="96" height="96" xmlns="http://www.w3.org/2000/svg" xmlns:xlink="http://www.w3.org/1999/xlink" xml:space="preserve" overflow="hidden"><g><path d="M74 67 22 67C20.9 67 20 67.9 20 69L20 80C20 81.1 20.9 82 22 82L74 82C75.1 82 76 81.1 76 80L76 69C76 67.9 75.1 67 74 67Z" fill="#196B24"/><path d="M30.9 33.9C31.5 33.3 32.4 33.3 33 33.9L35.9 36.8 38.8 33.9C39.4 33.3 40.3 33.3 40.9 33.9L43.8 36.8 46.7 33.9C47.3 33.3 48.2 33.3 48.8 33.9L51.7 36.8 54.6 33.9C55.2 33.3 56.1 33.3 56.7 33.9L59.6 36.8 62.5 33.9C63.1 33.3 64 33.3 64.6 33.9L67.5 36.8 70.1 34.2C66.6 28 60.7 23.4 53.6 21.7 53.5 21.4 53.3 21 53.1 20.8L52.8 20 54 20C55.1 20 56 19.1 56 18 56 16.9 55.1 16 54 16L52.8 16 53.6 15.2C54.4 14.4 54.4 13.2 53.6 12.4 52.8 11.6 51.6 11.6 50.8 12.4L50 13.2 50 12C50 10.9 49.1 10 48 10 46.9 10 46 10.9 46 12L46 13.2 45.2 12.4C44.4 11.6 43.2 11.6 42.4 12.4 41.6 13.2 41.6 14.4 42.4 15.2L43.2 16 42 16C40.9 16 40 16.9 40 18 40 19.1 40.9 20 42 20L43.2 20 42.4 20.8C42.1 21.1 42 21.4 41.9 21.7 34.8 23.4 28.9 28 25.4 34.2L28 36.8 30.9 33.9Z" fill="#196B24"/><path d="M70.1 52.9C70.7 53.5 70.7 54.4 70.1 55 69.8 55.3 69.4 55.4 69 55.4 68.6 55.4 68.2 55.3 67.9 55L66 53.1 64.1 55C63.8 55.3 63.4 55.4 63 55.4 62.6 55.4 62.2 55.3 61.9 55 61.3 54.4 61.3 53.5 61.9 52.9L63.8 51 61.9 49.1C61.3 48.5 61.3 47.6 61.9 47 62.5 46.4 63.4 46.4 64 47L65.9 48.9 67.8 47C68.4 46.4 69.3 46.4 69.9 47 70.5 47.6 70.5 48.5 69.9 49.1L68.1 51 70.1 52.9ZM57 53C55.9 53 55 52.1 55 51 55 49.9 55.9 49 57 49 58.1 49 59 49.9 59 51 59 52.1 58.1 53 57 53ZM52.1 52.9C52.7 53.5 52.7 54.4 52.1 55 51.8 55.3 51.4 55.4 51 55.4 50.6 55.4 50.2 55.3 49.9 55L48 53.1 46.1 55C45.8 55.3 45.4 55.4 45 55.4 44.6 55.4 44.2 55.3 43.9 55 43.3 54.4 43.3 53.5 43.9 52.9L45.8 51 43.9 49.1C43.3 48.5 43.3 47.6 43.9 47 44.5 46.4 45.4 46.4 46 47L47.9 48.9 49.8 47C50.4 46.4 51.3 46.4 51.9 47 52.5 47.6 52.5 48.5 51.9 49.1L50.1 51 52.1 52.9ZM39 53C37.9 53 37 52.1 37 51 37 49.9 37.9 49 39 49 40.1 49 41 49.9 41 51 41 52.1 40.1 53 39 53ZM34.1 52.9C34.7 53.5 34.7 54.4 34.1 55 33.8 55.3 33.4 55.4 33 55.4 32.6 55.4 32.2 55.3 31.9 55L30 53.1 28.1 55C27.8 55.3 27.4 55.4 27 55.4 26.6 55.4 26.2 55.3 25.9 55 25.3 54.4 25.3 53.5 25.9 52.9L27.8 51 25.9 49.1C25.3 48.5 25.3 47.6 25.9 47 26.5 46.4 27.4 46.4 28 47L29.9 48.9 31.8 47C32.4 46.4 33.3 46.4 33.9 47 34.5 47.6 34.5 48.5 33.9 49.1L32.1 51 34.1 52.9ZM74 47C74 43.5 73.3 40.2 72.1 37.2L72 37.1 69.1 40C68.5 40.6 67.6 40.6 67 40L64 37.1 61.1 40C60.5 40.6 59.6 40.6 59 40L56 37.1 53.1 40C52.5 40.6 51.6 40.6 51 40L48 37.1 45.1 40C44.5 40.6 43.6 40.6 43 40L40 37.1 37.1 40C36.5 40.6 35.6 40.6 35 40L32 37.1 29.1 40C28.5 40.6 27.6 40.6 27 40L24 37.1 23.9 37.2C22.7 40.2 22 43.5 22 47L22 63 74 63 74 47Z" fill="#196B24"/></g></svg>