<svg width="96" height="96" xmlns="http://www.w3.org/2000/svg" xmlns:xlink="http://www.w3.org/1999/xlink" xml:space="preserve" overflow="hidden"><g><path d="M74 65.556 74 47C73.9825 34.0623 64.4676 23.1001 51.661 21.263L50.414 20.016 54.984 20.016C55.5363 20.016 55.984 19.5683 55.984 19.016 55.984 18.4637 55.5363 18.016 54.984 18.016L50.414 18.016 53.646 14.785C54.0365 14.3943 54.0362 13.761 53.6455 13.3705 53.2548 12.98 52.6215 12.9803 52.231 13.371L49 16.6 49 12.03C49 11.4777 48.5523 11.03 48 11.03 47.4477 11.03 47 11.4777 47 12.03L47 16.6 43.769 13.369C43.3785 12.9783 42.7452 12.978 42.3545 13.3685 41.9638 13.759 41.9635 14.3923 42.354 14.783L45.586 18.014 41.016 18.014C40.4637 18.014 40.016 18.4617 40.016 19.014 40.016 19.5663 40.4637 20.014 41.016 20.014L45.586 20.014 44.339 21.261C31.5316 23.0982 22.0165 34.0615 22 47L22 65.556C20.7666 66.265 20.0045 67.5774 20 69L20 78C20 80.2091 21.7909 82 24 82L72 82C74.2091 82 76 80.2091 76 78L76 69C75.9955 67.5774 75.2334 66.265 74 65.556ZM48 23C57.0487 23.0089 65.3247 28.102 69.41 36.176L68 37.586 64.707 34.293C64.3165 33.9026 63.6835 33.9026 63.293 34.293L60 37.586 56.707 34.293C56.3165 33.9026 55.6835 33.9026 55.293 34.293L52 37.586 48.707 34.293C48.3165 33.9026 47.6835 33.9026 47.293 34.293L44 37.586 40.707 34.293C40.3165 33.9026 39.6835 33.9026 39.293 34.293L36 37.586 32.707 34.293C32.3165 33.9026 31.6835 33.9026 31.293 34.293L28 37.586 26.59 36.176C30.6753 28.102 38.9513 23.0088 48 23ZM24 47C23.9991 43.9592 24.5791 40.9461 25.709 38.123L27.293 39.707C27.6835 40.0974 28.3165 40.0974 28.707 39.707L32 36.414 35.293 39.707C35.6835 40.0974 36.3165 40.0974 36.707 39.707L40 36.414 43.293 39.707C43.6835 40.0974 44.3165 40.0974 44.707 39.707L48 36.414 51.293 39.707C51.6835 40.0974 52.3165 40.0974 52.707 39.707L56 36.414 59.293 39.707C59.6835 40.0974 60.3165 40.0974 60.707 39.707L64 36.414 67.293 39.707C67.6835 40.0974 68.3165 40.0974 68.707 39.707L70.291 38.123C71.4209 40.9461 72.0009 43.9592 72 47L72 65 24 65ZM74 78C74 79.1046 73.1046 80 72 80L24 80C22.8954 80 22 79.1046 22 78L22 69C22 67.8954 22.8954 67 24 67L72 67C73.1046 67 74 67.8954 74 69Z" fill="#C00000"/><path d="M51.707 47.293C51.3165 46.9026 50.6835 46.9026 50.293 47.293L48 49.586 45.707 47.293C45.3097 46.9093 44.6767 46.9203 44.293 47.3176 43.9187 47.7051 43.9187 48.3195 44.293 48.707L46.586 51 44.293 53.293C43.8957 53.6767 43.8847 54.3097 44.2684 54.707 44.6521 55.1043 45.2852 55.1153 45.6824 54.7316 45.6908 54.7235 45.699 54.7153 45.707 54.707L48 52.414 50.293 54.707C50.6903 55.0907 51.3233 55.0797 51.707 54.6824 52.0813 54.2949 52.0813 53.6805 51.707 53.293L49.414 51 51.707 48.707C52.0974 48.3165 52.0974 47.6835 51.707 47.293Z" fill="#C00000"/><path d="M33.707 47.293C33.3165 46.9026 32.6835 46.9026 32.293 47.293L30 49.586 27.707 47.293C27.3097 46.9093 26.6767 46.9203 26.293 47.3176 25.9187 47.7051 25.9187 48.3195 26.293 48.707L28.586 51 26.293 53.293C25.8957 53.6767 25.8847 54.3097 26.2684 54.707 26.6521 55.1043 27.2852 55.1153 27.6824 54.7316 27.6908 54.7235 27.6989 54.7153 27.707 54.707L30 52.414 32.293 54.707C32.6903 55.0907 33.3233 55.0797 33.707 54.6824 34.0813 54.2949 34.0813 53.6805 33.707 53.293L31.414 51 33.707 48.707C34.0974 48.3165 34.0974 47.6835 33.707 47.293Z" fill="#C00000"/><path d="M69.707 47.293C69.3165 46.9026 68.6835 46.9026 68.293 47.293L66 49.586 63.707 47.293C63.3097 46.9093 62.6767 46.9203 62.293 47.3176 61.9187 47.7051 61.9187 48.3195 62.293 48.707L64.586 51 62.293 53.293C61.8957 53.6767 61.8847 54.3097 62.2684 54.707 62.6521 55.1043 63.2852 55.1153 63.6824 54.7316 63.6908 54.7235 63.699 54.7153 63.707 54.707L66 52.414 68.293 54.707C68.6903 55.0907 69.3233 55.0797 69.707 54.6824 70.0813 54.2949 70.0813 53.6805 69.707 53.293L67.414 51 69.707 48.707C70.0974 48.3165 70.0974 47.6835 69.707 47.293Z" fill="#C00000"/><path d="M41 51C41 52.1046 40.1046 53 39 53 37.8954 53 37 52.1046 37 51 37 49.8954 37.8954 49 39 49 40.1046 49 41 49.8954 41 51Z" fill="#C00000"/><path d="M59 51C59 52.1046 58.1046 53 57 53 55.8954 53 55 52.1046 55 51 55 49.8954 55.8954 49 57 49 58.1046 49 59 49.8954 59 51Z" fill="#C00000"/></g></svg>