<svg width="96" height="96" xmlns="http://www.w3.org/2000/svg" xmlns:xlink="http://www.w3.org/1999/xlink" xml:space="preserve" overflow="hidden"><g><path d="M65 15.77C59.19 15.77 52.924 19.43 48 29.2 43.077 19.432 36.809 15.77 31 15.77 21.943 15.77 14 24.67 14 33.2 14 54.2 48 80.2 48 80.2 48 80.2 82 54.2 82 33.2 82 24.671 74.056 15.77 65 15.77ZM48 77.647C42.015 72.813 16 50.783 16 33.2 16.1572 29.2434 17.7813 25.487 20.556 22.662 23.227 19.6786 26.9982 17.9121 31 17.77 36.888 17.77 42.149 22.034 46.214 30.1L48 33.644 49.786 30.1C53.851 22.034 59.112 17.77 65 17.77 72.57 17.77 80 25.413 80 33.2 80 50.783 53.985 72.813 48 77.647Z" fill="#196B24"/></g></svg>