<svg width="96" height="96" xmlns="http://www.w3.org/2000/svg" xmlns:xlink="http://www.w3.org/1999/xlink" xml:space="preserve" overflow="hidden"><g><path d="M36.25 60.006C32.1282 56.8749 27.7067 54.1593 23.05 51.899 22.3214 51.5048 22.0502 50.5946 22.4444 49.866 22.8125 49.1855 23.6378 48.8966 24.35 49.199 29.6759 51.779 34.7094 54.9233 39.364 58.578 39.399 58.568 39.432 58.553 39.464 58.544 40.1695 58.3504 40.8923 58.2261 41.622 58.173 39.8407 54.7301 39.8077 50.6443 41.533 47.173 40.9294 46.9609 40.3494 46.6871 39.802 46.356 36.869 44.6229 35.1949 41.357 35.5 37.964 35.5264 37.673 35.3118 37.4158 35.0209 37.3894 34.9201 37.3803 34.8188 37.4003 34.729 37.447 31.2393 39.2902 27.0291 39.1195 23.7 37 22.0005 35.9627 20.5998 34.5017 19.635 32.76 19.5159 32.506 19.2134 32.3966 18.9594 32.5157 18.8424 32.5706 18.7507 32.6679 18.703 32.788 18.4769 33.4799 18.1701 34.1428 17.789 34.763 15.2025 38.7188 10.3178 40.4959 5.794 39.127 5.55373 39.0445 5.29205 39.1723 5.20952 39.4126 5.15198 39.5801 5.19573 39.7658 5.322 39.89 8.56801 43.3479 9.16827 48.5229 6.8 52.632 6.41816 53.2517 5.96471 53.8243 5.449 54.338 5.26263 54.547 5.28095 54.8675 5.48992 55.0538 5.58838 55.1417 5.71719 55.1876 5.849 55.182 7.83541 55.2603 9.76758 55.8522 11.457 56.9 14.8515 58.9164 16.9028 62.5994 16.83 66.547 16.8261 66.8386 17.0594 67.0781 17.3509 67.082 17.4528 67.0833 17.5528 67.0552 17.639 67.001 20.5303 65.201 24.1992 65.2247 27.067 67.062 28.4156 67.8774 29.5625 68.987 30.422 70.308 30.5619 70.5461 30.8683 70.6257 31.1064 70.4858 31.1747 70.4456 31.2325 70.3898 31.275 70.323 30.9227 66.2331 32.8304 62.277 36.25 60.006Z" fill="#196B24"/><path d="M90.627 32.613C89.8215 32.3557 89.0494 32.0035 88.327 31.564 83.727 28.764 81.696 22.918 83.181 17.508 83.2777 17.23 83.1307 16.9262 82.8527 16.8295 82.6544 16.7605 82.4341 16.8143 82.29 16.967 78.183 20.778 72.123 21.686 67.523 18.881 66.8009 18.4404 66.1339 17.9154 65.536 17.317 65.2814 17.1049 64.9031 17.1393 64.691 17.3938 64.5987 17.5046 64.5493 17.6449 64.552 17.789 64.4586 20.1247 63.7668 22.3973 62.543 24.389 60.2043 28.378 55.916 30.8174 51.292 30.789 50.9468 30.7899 50.6677 31.0705 50.6686 31.4156 50.6689 31.5305 50.7009 31.6431 50.761 31.741 52.3805 34.3278 52.7458 37.5074 51.755 40.394 51.999 40.379 52.241 40.345 52.485 40.345 56.6263 40.356 60.4812 42.4604 62.73 45.938 64.4639 42.8541 66.3984 39.8874 68.521 37.057 69.0181 36.3943 69.9583 36.2599 70.621 36.757 71.2837 37.2541 71.4181 38.1943 70.921 38.857 68.4269 42.1895 66.206 45.7179 64.28 49.408 65.0899 52.4261 64.7086 55.6401 63.215 58.385 65.0412 58.5495 66.8074 59.1208 68.384 60.057 68.401 60.065 68.417 60.077 68.435 60.086 68.453 60.095 68.488 60.115 68.514 60.131 68.8766 60.3056 69.2262 60.5061 69.56 60.731 70.4972 61.3613 71.3178 62.1497 71.985 63.061 72.285 63.471 72.948 63.214 73 62.679 73.2043 60.8394 73.8161 59.0684 74.791 57.495 76.797 54.0486 80.597 52.0527 84.573 52.357 84.9167 52.382 85.2156 52.1236 85.2406 51.7799 85.2489 51.6655 85.2255 51.551 85.173 51.449 83.0292 47.3516 83.2335 42.4219 85.709 38.516 86.9185 36.5126 88.6232 34.8541 90.659 33.7 90.955 33.5511 91.0743 33.1904 90.9255 32.8944 90.8621 32.7684 90.7565 32.6688 90.627 32.613Z" fill="#196B24"/><path d="M60.696 52.567C60.696 57.1046 57.0176 60.783 52.48 60.783 47.9424 60.783 44.264 57.1046 44.264 52.567 44.264 48.0294 47.9424 44.351 52.48 44.351 57.0176 44.351 60.696 48.0294 60.696 52.567Z" fill="#196B24"/><path d="M49.626 69.344C49.626 73.321 46.402 76.545 42.425 76.545 38.448 76.545 35.224 73.321 35.224 69.344 35.224 65.367 38.448 62.143 42.425 62.143 46.402 62.143 49.626 65.367 49.626 69.344Z" fill="#196B24"/><path d="M70.451 70.67C70.451 75.2694 66.7224 78.998 62.123 78.998 57.5236 78.998 53.795 75.2694 53.795 70.67 53.795 66.0706 57.5236 62.342 62.123 62.342 66.7224 62.342 70.451 66.0706 70.451 70.67Z" fill="#196B24"/></g></svg>