<svg width="96" height="96" xmlns="http://www.w3.org/2000/svg" xmlns:xlink="http://www.w3.org/1999/xlink" xml:space="preserve" overflow="hidden"><g><path d="M23.105 50.259C22.858 50.753 23.0583 51.3537 23.5523 51.6006 23.5525 51.6008 23.5528 51.6009 23.553 51.601 28.0148 54.0451 32.2596 56.866 36.241 60.033 36.8459 59.6307 37.4886 59.2884 38.16 59.011 33.8799 55.5315 29.2897 52.4519 24.447 49.811 23.953 49.564 23.3523 49.7643 23.1054 50.2583 23.1052 50.2585 23.1051 50.2588 23.105 50.259Z" fill="#FBE01B"/><path d="M72.06 36.29C71.6535 35.9161 71.0209 35.9424 70.647 36.3489 70.6467 36.3493 70.6463 36.3496 70.646 36.35 67.8461 39.6361 65.3968 43.2054 63.338 47 63.7383 47.779 64.0528 48.5991 64.276 49.446 66.4513 45.2547 69.0815 41.3156 72.119 37.7 72.4909 37.2939 72.4645 36.6636 72.06 36.29Z" fill="#FBE01B"/><path d="M31.263 68.529C30.4453 67.5998 29.4931 66.7982 28.438 66.151 25.2755 64.1433 21.3531 63.7396 17.848 65.061 17.8433 65.0627 17.8382 65.0602 17.8365 65.0555 17.8362 65.0547 17.836 65.0539 17.836 65.053 17.4287 61.3448 15.3016 58.044 12.093 56.141 10.5478 55.1871 8.81251 54.5833 7.009 54.372 7 54.371 7 54.365 7 54.359 7.28648 54.0046 7.54938 53.6318 7.787 53.243 10.0853 49.2821 9.8485 44.3419 7.182 40.619 7.175 40.609 7.182 40.603 7.191 40.605 11.7046 41.2779 16.1975 39.2651 18.7 35.449 18.9323 35.0714 19.1394 34.6789 19.32 34.274 19.32 34.267 19.332 34.269 19.336 34.274 20.3384 35.7795 21.657 37.0483 23.2 37.992 26.346 39.9871 30.2482 40.3832 33.731 39.061 33.7355 39.0588 33.7409 39.0606 33.7431 39.0651 33.7437 39.0663 33.744 39.0676 33.744 39.069 34.1627 42.7841 36.3019 46.0868 39.521 47.988 39.9638 48.2568 40.4231 48.4976 40.896 48.709 41.1061 48.0762 41.368 47.4618 41.679 46.872 41.2926 46.6949 40.9172 46.4945 40.555 46.272 37.6912 44.5867 35.862 41.579 35.683 38.261 35.6465 37.4334 34.946 36.7921 34.1183 36.8286 33.9271 36.837 33.7393 36.882 33.565 36.961 30.5456 38.3141 27.0486 38.0605 24.256 36.286 22.7291 35.3588 21.4658 34.0552 20.587 32.5 20.2323 31.7502 19.3385 31.428 18.587 31.779 18.2229 31.9539 17.9425 32.2655 17.807 32.646 17.6084 33.2527 17.3399 33.8343 17.007 34.379 14.6767 37.9288 10.3001 39.5387 6.225 38.345 5.46425 38.0811 4.63358 38.4838 4.36966 39.2446 4.18928 39.7645 4.31704 40.3417 4.7 40.737 7.6509 43.8395 8.20767 48.5142 6.068 52.223 5.71781 52.7905 5.30157 53.3145 4.828 53.784 4.27973 54.4072 4.33688 55.3561 4.956 55.909 5.22254 56.1572 5.57481 56.2927 5.939 56.287 7.75197 56.3571 9.51575 56.8963 11.058 57.852 13.909 59.5398 15.7253 62.5433 15.896 65.852L15.896 65.852C15.9328 66.6796 16.6335 67.3207 17.4611 67.284 17.6518 67.2755 17.8391 67.2307 18.013 67.152 21.0565 65.7994 24.5753 66.0622 27.384 67.852 28.9073 68.7742 30.1698 70.0702 31.052 71.617 31.1762 71.8713 31.3714 72.0842 31.614 72.23 31.3586 71.2895 31.2275 70.3196 31.224 69.345 31.224 69.069 31.244 68.8 31.263 68.529Z" fill="#FBE01B"/><path d="M91.552 33.3C91.3693 32.9224 91.0464 32.631 90.652 32.488 89.952 32.2607 89.2808 31.9526 88.652 31.57 84.5695 28.8901 82.7207 23.855 84.099 19.17 84.3676 18.3757 83.9446 17.5136 83.152 17.24 82.6118 17.0525 82.0121 17.1865 81.603 17.586 78.0367 20.9764 72.6639 21.6142 68.403 19.153 67.7527 18.7515 67.1519 18.2749 66.613 17.733 65.962 17.1559 64.9666 17.2154 64.389 17.866 64.133 18.1477 63.9924 18.5154 63.995 18.896 63.9131 20.9767 63.2929 23.0006 62.195 24.77 60.2547 28.0457 56.8023 30.1315 53 30.325 52.1349 30.365 51.4661 31.0987 51.5061 31.9638 51.5153 32.1622 51.5621 32.357 51.644 32.538 52.7372 35.0049 52.918 37.7801 52.154 40.368 52.264 40.368 52.371 40.351 52.481 40.351 53.0544 40.3555 53.6268 40.4003 54.194 40.485 54.8964 37.7683 54.726 34.8995 53.707 32.285 53.7048 32.2805 53.7066 32.2751 53.7111 32.2729 53.7123 32.2723 53.7136 32.272 53.715 32.272 57.9499 31.8638 61.7358 29.4594 63.906 25.8 65.0225 23.9902 65.7126 21.95 65.924 19.834 65.924 19.827 65.931 19.821 65.937 19.826 66.3901 20.2092 66.8719 20.5572 67.378 20.867 71.9334 23.5099 77.6292 23.1647 81.832 19.991 81.842 19.983 81.849 19.991 81.847 20 80.9405 25.1668 83.1952 30.3776 87.582 33.254 88.0773 33.5595 88.5951 33.827 89.131 34.054 89.139 34.054 89.137 34.066 89.131 34.07 87.3462 35.2148 85.8448 36.7501 84.74 38.56 82.4658 42.1486 82.0429 46.6078 83.602 50.56 83.6037 50.5653 83.6009 50.5709 83.5956 50.5726 83.5951 50.5728 83.5946 50.5729 83.594 50.573 79.3503 50.9952 75.5619 53.4145 73.394 57.087 72.3599 58.7801 71.6973 60.6736 71.45 62.642 72.0555 63.3408 72.5807 64.1053 73.016 64.921 73.2178 64.6593 73.3236 64.3363 73.316 64.006 73.3927 61.9225 74.0085 59.8945 75.103 58.12 77.0401 54.8293 80.4961 52.7271 84.309 52.52 85.1745 52.4775 85.8417 51.7415 85.7992 50.876 85.7896 50.6794 85.743 50.4864 85.662 50.307 84.1077 46.8386 84.3984 42.8215 86.436 39.613 87.5045 37.8552 89.0073 36.4019 90.8 35.393 91.5833 35.0205 91.9191 34.0858 91.552 33.3Z" fill="#FBE01B"/><path d="M61.7 52.567C61.7 47.4771 57.5739 43.351 52.484 43.351 47.3941 43.351 43.268 47.4771 43.268 52.567 43.268 57.6569 47.3941 61.783 52.484 61.783 57.5718 61.778 61.695 57.6548 61.7 52.567ZM52.48 59.783C48.4947 59.7808 45.2658 56.5483 45.268 52.563 45.2702 48.5777 48.5027 45.3488 52.488 45.351 56.4717 45.3532 59.7 48.5833 59.7 52.567 59.6956 56.552 56.465 59.7808 52.48 59.783Z" fill="#FBE01B"/><path d="M42.425 61.143C37.8963 61.143 34.225 64.8143 34.225 69.343 34.225 73.8717 37.8963 77.543 42.425 77.543 46.9537 77.543 50.625 73.8717 50.625 69.343 50.6195 64.8166 46.9515 61.1485 42.425 61.143ZM42.425 75.543C39.0008 75.543 36.225 72.7672 36.225 69.343 36.225 65.9188 39.0008 63.143 42.425 63.143 45.8492 63.143 48.625 65.9188 48.625 69.343 48.6217 72.7661 45.8481 75.5406 42.425 75.545Z" fill="#FBE01B"/><path d="M62.123 61.342C56.9713 61.342 52.795 65.5183 52.795 70.67 52.795 75.8217 56.9713 79.998 62.123 79.998 67.2747 79.998 71.451 75.8217 71.451 70.67 71.4455 65.5206 67.2724 61.3475 62.123 61.342ZM62.123 77.998C58.0759 77.998 54.795 74.7171 54.795 70.67 54.795 66.6229 58.0759 63.342 62.123 63.342 66.1701 63.342 69.451 66.6229 69.451 70.67 69.4471 74.7159 66.1689 77.995 62.123 78Z" fill="#FBE01B"/></g></svg>