<svg width="96" height="96" xmlns="http://www.w3.org/2000/svg" xmlns:xlink="http://www.w3.org/1999/xlink" xml:space="preserve" overflow="hidden"><g><path d="M77 70 20 70 20 77 12 85 69 85C76.22 85 82.24 81.43 83.67 76.67ZM68 80 28 80 28 74 68 74C68.6728 74.8529 69.0265 75.914 69 77 69.0379 78.0877 68.6829 79.1526 68 80Z" fill="#BF0000"/><path d="M78.61 58.51C76.95 54.86 68.88 52.75 64.88 51.25 60.88 49.75 54.39 47.46 51 44.62 46.1354 40.3545 43.317 34.2195 43.25 27.75 43.2309 23.4884 43.4814 19.2299 44 15 42.9746 14.7085 41.9158 14.5505 40.85 14.53 39.9873 14.4871 39.1302 14.6919 38.38 15.12 36.5 16.37 33 21 33 21L25.18 21C25.3116 19.111 25.1804 17.2129 24.79 15.36L24.79 15.36C24.79 15.16 24.7 14.97 24.65 14.79 23.9377 12.5953 21.8667 11.1305 19.56 11.19 18.6605 11.1713 17.7759 11.422 17.02 11.91 16.2 12.49 18.77 15.79 19.4 22.66 20.03 29.53 21 32.75 18.08 39.75 15.16 46.75 13.38 50.75 14.5 56.12 15.88 62.75 19.13 66 19.13 66L76.75 66C76.75 66 80.67 63 78.61 58.51ZM18.17 53C18.1759 51.3681 18.4565 49.7488 19 48.21L32.83 62 27.17 62ZM48.43 47.7C48.9994 48.1696 49.5972 48.6038 50.22 49L42 49C41.4477 49 41 48.5523 41 48 41 47.4477 41.4477 47 42 47L47.66 47C47.91 47.23 48.17 47.47 48.43 47.69ZM38 43C37.4477 43 37 42.5523 37 42 37 41.4477 37.4477 41 38 41L42.89 41C43.29 41.69 43.71 42.35 44.16 43ZM35 37C34.4477 37 34 36.5523 34 36 34 35.4477 34.4477 35 35 35L40.35 35C40.55 35.68 40.77 36.34 41.02 37ZM39.51 31 33 31C32.4477 31 32 30.5523 32 30 32 29.4477 32.4477 29 33 29L39.31 29C39.35 29.67 39.42 30.34 39.51 31Z" fill="#BF0000"/></g></svg>