<svg width="96" height="96" xmlns="http://www.w3.org/2000/svg" xmlns:xlink="http://www.w3.org/1999/xlink" xml:space="preserve" overflow="hidden"><g><path d="M82.287 71.389C81.7582 71.2304 81.2009 71.5303 81.042 72.059 80.009 75.5 75.485 78 70.286 78L64.286 78 64.286 69.019 78.04 69.019C78.04 69.019 81.96 66.019 79.9 61.526 78.24 57.875 70.169 55.765 66.169 54.264 62.169 52.763 55.678 50.473 52.288 47.633 47.423 43.3656 44.6047 37.229 44.538 30.758 44.5186 26.4938 44.7691 22.2326 45.288 18 44.2625 17.7089 43.2038 17.551 42.138 17.53 42.063 17.53 41.988 17.53 41.913 17.53 41.1257 17.5298 40.3519 17.7349 39.668 18.125 37.788 19.376 34.287 24.007 34.287 24.007L26.467 24.007C26.5991 22.1173 26.4679 20.2185 26.077 18.365 26.0564 18.1695 26.0093 17.9778 25.937 17.795 25.2392 15.6486 23.239 14.1953 20.982 14.195L20.847 14.195 20.753 14.195C19.8853 14.1949 19.0359 14.4453 18.307 14.916 17.487 15.496 20.057 18.797 20.687 25.669 21.317 32.541 22.287 35.762 19.367 42.769 16.447 49.776 14.667 53.769 15.787 59.144 17.167 65.776 20.417 69.027 20.417 69.027L27.286 69.027 27.286 78 14.712 78C14.1597 78 13.712 78.4477 13.712 79 13.712 79.5523 14.1597 80 14.712 80L70.286 80C76.444 80 81.655 76.971 82.958 72.635 83.117 72.1061 82.8172 71.5484 82.2883 71.3894 82.2879 71.3893 82.2874 71.3891 82.287 71.389ZM21.213 43.531C23.905 37.074 23.508 33.37 22.959 28.243 22.867 27.385 22.769 26.472 22.678 25.484 22.3856 22.4198 21.6792 19.4094 20.578 16.535 20.54 16.43 20.5 16.32 20.461 16.209 20.5579 16.1978 20.6554 16.1921 20.753 16.192L20.982 16.192C22.364 16.1893 23.5915 17.0741 24.026 18.386 24.045 18.451 24.067 18.517 24.089 18.586 24.096 18.6512 24.1063 18.7159 24.12 18.78 24.4723 20.4522 24.5907 22.1652 24.472 23.87 24.3952 24.9719 25.2263 25.9274 26.3282 26.0042 26.3744 26.0074 26.4207 26.009 26.467 26.009L34.287 26.009C34.9155 26.0104 35.508 25.7164 35.887 25.215 37.3076 23.2572 38.9283 21.4528 40.723 19.831 41.0903 19.6343 41.5004 19.5312 41.917 19.531L42.042 19.531 42.103 19.531C42.436 19.537 42.768 19.56 43.103 19.598 42.7163 23.3113 42.5307 27.0427 42.547 30.776 42.547 31.204 42.568 31.632 42.595 32.058 42.4989 32.0219 42.3976 32.0013 42.295 31.997L34.295 31.997C33.7427 31.997 33.295 32.4447 33.295 32.997 33.295 33.5493 33.7427 33.997 34.295 33.997L42.295 33.997C42.4664 33.993 42.6338 33.9436 42.78 33.854 42.9685 35.26 43.278 36.6472 43.705 38L36.286 38C35.7337 38 35.286 38.4477 35.286 39 35.286 39.5523 35.7337 40 36.286 40L44.286 40C44.3323 39.9942 44.3781 39.9849 44.423 39.972 45.0037 41.3767 45.7123 42.7251 46.54 44L39.286 44C38.7337 44 38.286 44.4477 38.286 45 38.286 45.5523 38.7337 46 39.286 46L47.986 46C48.8959 47.1417 49.9044 48.2011 51 49.166 51.34 49.451 51.712 49.728 52.1 50L43.286 50C42.7337 50 42.286 50.4477 42.286 51 42.286 51.5523 42.7337 52 43.286 52L55.286 52C55.3312 51.9942 55.376 51.9852 55.42 51.973 58.3835 53.4176 61.4271 54.6916 64.536 55.789L65.467 56.137C66.186 56.407 67.022 56.692 67.908 56.995 71.332 58.164 77.063 60.12 78.082 62.36 78.8285 63.9294 78.499 65.7993 77.261 67.019L63.378 67.019C63.3477 67.0111 63.317 67.0048 63.286 67 63.254 67 63.226 67.016 63.194 67.019L38.857 67.019C38.818 66.9369 38.7675 66.8608 38.707 66.793L19.529 47.615C19.949 46.56 20.421 45.428 20.939 44.186ZM31.643 67.019C31.604 66.9369 31.5535 66.8608 31.493 66.793L17.765 53.064C18.0148 51.9092 18.3446 50.7731 18.752 49.664L36.1 67.019ZM17.743 58.728C17.5242 57.6966 17.4288 56.6429 17.459 55.589L28.889 67.019 28.376 67.019C28.3463 67.0112 28.3163 67.0049 28.286 67 28.254 67 28.226 67.016 28.194 67.019L21.343 67.019C19.5433 64.5566 18.3142 61.7244 17.745 58.728ZM29.286 69.019 62.286 69.019 62.286 78 29.286 78Z" fill="#BF0000"/></g></svg>