<svg width="96" height="96" xmlns="http://www.w3.org/2000/svg" xmlns:xlink="http://www.w3.org/1999/xlink" xml:space="preserve" overflow="hidden"><g><path d="M47.8 53.3 46.4 49.8C45.8 48.5 44.7 47.5 43.3 47.1L42.4 45.4 47.5 32.7C48.7 29.8 47.4 26.4 44.5 25.2 44.5 25.2 44.5 25.2 44.4 25.2 43 24.6 41.4 24.6 40 25.2 38.6 25.8 37.4 26.9 36.8 28.3L36.7 28.5 35.3 24C32.3 16.5 24 13 16.6 16 9.2 19 5.7 27.4 8.7 34.8 8.7 34.9 8.8 35 8.8 35.1L20.3 57C19.8 58.2 19.7 59.5 20.2 60.7L21.6 64.2C22.1 65.4 23 66.3 24.2 66.8 24.8 67.1 25.4 67.2 26.1 67.2 26.7 67.2 27.3 67.1 27.8 66.9L45.2 59.7C46.4 59.2 47.4 58.3 47.9 57.1 48.3 55.7 48.3 54.4 47.8 53.3ZM17.2 17.9C23.5 15.3 30.8 18.3 33.4 24.6L36.4 34.2 38.6 29C39 28.1 39.7 27.3 40.7 26.9 41.6 26.5 42.7 26.5 43.6 26.9 45.5 27.7 46.4 29.8 45.7 31.8 45.7 31.8 45.7 31.9 45.7 31.9L40.9 43.8 40.6 44.7C40.4 45.2 40.4 45.8 40.7 46.3L41 47C40.7 47.1 40.5 47.1 40.2 47.2L22.8 54.4C22.4 54.6 22 54.8 21.6 55.1L10.6 34.1C8 27.8 11 20.6 17.2 17.9ZM46 56.1C45.7 56.8 45.2 57.3 44.4 57.6L27 64.8C26.3 65.1 25.6 65 24.9 64.8 24.2 64.5 23.7 64 23.4 63.3L22 59.8C21.5 58.4 22.1 56.8 23.5 56.2L41 49.1C41.3 49 41.6 48.9 42 48.9 43.1 48.9 44.2 49.6 44.6 50.6L46 54.1 46 54.1C46.2 54.7 46.3 55.5 46 56.1L46 56.1Z" fill="#0F9ED5"/><path d="M79.1 29.1C71.7 26.1 63.3 29.6 60.2 37 60.2 37 60.2 37 60.2 37L58.8 41.4 58.7 41.2C58.1 39.8 57 38.6 55.5 38 54.1 37.4 52.5 37.4 51.1 38 49.7 38.6 48.5 39.7 47.9 41.1 47.3 42.5 47.3 44.1 47.9 45.5L52.7 57.4 53 58.3 52.1 60C50.7 60.4 49.6 61.4 49 62.7L47.6 66.2C47.1 67.3 47.1 68.7 47.6 69.8 48.1 71 49 71.9 50.2 72.4L67.6 79.6C68.2 79.8 68.7 79.9 69.3 79.9 69.9 79.9 70.6 79.8 71.2 79.5 72.4 79 73.3 78.1 73.8 76.9L75.2 73.4C75.7 72.2 75.6 70.9 75.1 69.7L86.6 47.8C89.9 40.6 86.5 32.2 79.1 29.1ZM73.6 72.8 72.2 76.3C71.9 77 71.4 77.5 70.7 77.8 70 78.1 69.3 78.1 68.6 77.8L51.2 70.6C50.5 70.3 50 69.8 49.7 69.1 49.4 68.4 49.4 67.7 49.7 67.1L51.1 63.6C51.5 62.6 52.6 61.9 53.7 61.9 54 61.9 54.4 62 54.7 62.1L72.1 69.3C73.5 69.9 74.1 71.4 73.6 72.8ZM85.1 47.1 74 68.1C73.7 67.8 73.3 67.6 72.8 67.4L55.4 60.2C55.1 60.1 54.9 60 54.6 60L54.9 59.3C55.2 58.8 55.2 58.2 55 57.6L49.9 44.8C49.5 43.9 49.5 42.8 49.9 41.9 50.3 41 51 40.2 52 39.9 52.9 39.5 53.9 39.5 54.8 39.9 55.7 40.3 56.5 41 56.9 42L59.1 47.2 62.1 37.7C64.6 31.3 71.8 28.1 78.1 30.6 84.4 33.1 87.7 40.3 85.2 46.6 85.2 46.8 85.2 46.9 85.1 47.1L85.1 47.1Z" fill="#0F9ED5"/></g></svg>