<svg width="96" height="96" xmlns="http://www.w3.org/2000/svg" xmlns:xlink="http://www.w3.org/1999/xlink" xml:space="preserve" overflow="hidden"><g><path d="M47.7 53.9 46.2 50.2C45.4 48.2 43 47.2 41 48L23.4 55.3C21.4 56.1 20.4 58.5 21.2 60.5L22.7 64.2C23.5 66.2 25.9 67.2 27.9 66.4L45.5 59.1C47.6 58.3 48.6 55.9 47.7 53.9Z" fill="#FBE01B"/><path d="M47.4 30.8C48.5 28.2 47.2 25.3 44.7 24.3 42.2 23.2 39.2 24.5 38.2 27L37 29.8 34.7 22.5C31.7 15.4 23.6 12 16.4 14.9 9.3 17.9 5.9 26 8.9 33.2L19.2 52.8 42.4 43.2 47.4 30.8Z" fill="#FBE01B"/><path d="M72.6 70.3 55 63C53 62.2 50.6 63.1 49.8 65.2L48.3 68.9C47.5 70.9 48.4 73.3 50.5 74.1L68 81.4C70 82.2 72.4 81.3 73.2 79.2L74.7 75.5C75.6 73.5 74.6 71.1 72.6 70.3Z" fill="#FBE01B"/><path d="M79.6 29.9C72.5 26.9 64.3 30.3 61.3 37.5L59 44.8 57.8 42C56.7 39.4 53.8 38.2 51.3 39.3 48.7 40.4 47.5 43.3 48.6 45.8L53.7 58.2 76.9 67.8 87.2 48.2C90.1 41 86.7 32.9 79.6 29.9Z" fill="#FBE01B"/></g></svg>