<svg width="96" height="96" xmlns="http://www.w3.org/2000/svg" xmlns:xlink="http://www.w3.org/1999/xlink" xml:space="preserve" overflow="hidden"><g><path d="M41.161 12.287C42.8542 12.8368 44.5066 13.5051 46.106 14.287 63.3601 22.9467 70.3761 43.9192 61.806 61.218 53.2991 78.485 32.4053 85.5864 15.1383 77.0795 15.0921 77.0568 15.046 77.0339 15 77.011 13.3903 76.2046 11.8445 75.2766 10.376 74.235 24.8855 73.9097 38.022 65.5772 44.5 52.59 50.9986 39.5859 49.7111 24.0444 41.161 12.287ZM35.705 9C50.1815 23.4473 50.2052 46.8946 35.7579 61.3711 28.8055 68.3375 19.366 72.2498 9.524 72.244 7.8451 72.2445 6.16814 72.1296 4.505 71.9 7.31807 74.6954 10.5587 77.0247 14.105 78.8 32.4157 87.8801 54.6203 80.3973 63.7004 62.0866 72.7805 43.776 65.2976 21.5714 46.987 12.4913 43.4375 10.7311 39.6283 9.55232 35.705 8.99999Z" fill="#C00000"/><path d="M81.826 50.4 81.826 50.4 82.039 50.714C82.5891 51.5304 83.5066 52.0228 84.491 52.03 84.7311 52.0296 84.9702 51.9997 85.203 51.941L85.617 51.834 85.617 51.834 85.238 52.393C84.5828 53.3777 84.5895 54.6612 85.255 55.639L85.373 55.809C85.383 55.823 85.373 55.83 85.362 55.824L85.085 55.724 84.985 55.689 84.885 55.664C84.6288 55.5985 84.3655 55.5649 84.101 55.564 83.2692 55.5633 82.4716 55.8953 81.886 56.486L81.814 56.559 81.749 56.637 81.402 57.064 81.402 57.064 81.402 56.6C81.4355 55.6672 81.0063 54.778 80.255 54.224L80.104 54.073 79.837 53.932 79.247 53.62 79.247 53.62 79.547 53.553 79.784 53.5 80 53.389C81.048 52.9305 81.7454 51.9176 81.8 50.775ZM80.964 46.368C80.8766 46.3701 80.7897 46.3822 80.705 46.404 80.2997 46.5182 80.0159 46.883 80.005 47.304L79.805 50.704C79.7647 51.1139 79.4923 51.4641 79.105 51.604L76.005 52.304C75.4987 52.4418 75.2001 52.9639 75.3379 53.4702 75.4165 53.759 75.6267 53.9939 75.905 54.104L77.205 54.804 78.905 55.704C79.005 55.804 79.205 55.904 79.305 56.104 79.3858 56.2575 79.4206 56.4312 79.405 56.604L79.405 60C79.3734 60.4025 79.6213 60.7743 80.005 60.9 80.1031 60.925 80.2038 60.9377 80.305 60.938 80.6063 60.9377 80.8948 60.8159 81.105 60.6L83.305 57.9C83.5153 57.6844 83.8038 57.5629 84.105 57.563 84.2061 57.563 84.3069 57.5754 84.405 57.6L87.705 58.8C87.8031 58.8246 87.9039 58.8371 88.005 58.837 88.3062 58.8371 88.5947 58.7156 88.805 58.5 89.0828 58.1979 89.1238 57.7472 88.905 57.4L86.905 54.5C86.7049 54.1967 86.7049 53.8033 86.905 53.5L88.805 50.7C89.1089 50.2548 88.9943 49.6475 88.549 49.3437 88.3816 49.2294 88.1827 49.1701 87.98 49.174 87.9206 49.1731 87.8615 49.1818 87.805 49.2L84.705 50C84.6357 50.0174 84.5645 50.0262 84.493 50.026 84.1764 50.0217 83.882 49.8626 83.705 49.6L81.805 46.8C81.627 46.5394 81.3363 46.3782 81.021 46.365Z" fill="#C00000"/><path d="M73.751 9.677 73.751 9.677 76.789 12.715C77.4541 13.3741 78.3526 13.7439 79.289 13.744 79.8093 13.7468 80.3231 13.6276 80.789 13.396L84.289 11.685 84.289 11.685 82.661 15.637 82.635 15.701 82.613 15.767C82.1588 17.0479 82.4471 18.4749 83.363 19.479L86.271 22.617 86.271 22.617 81.994 21.917C81.8142 21.8912 81.6327 21.8781 81.451 21.878 80.1411 21.8601 78.9355 22.5906 78.345 23.76L76.345 27.39 76.345 27.39 75.688 23.374 75.662 23.216 75.611 23.065C75.4487 22.4746 75.1461 21.9322 74.729 21.484L74.588 21.343 74.423 21.233C74.362 21.192 74.308 21.151 74.256 21.113 73.9229 20.8486 73.5481 20.6414 73.147 20.5L73.118 20.49 73.088 20.481 70.096 19.581 68.755 19.172 68.755 19.172 72.4 17.389C73.7594 16.7151 74.5242 15.2369 74.289 13.738ZM73.119 7C72.9098 6.99343 72.7013 7.02739 72.505 7.1 71.9352 7.42878 71.5901 8.04227 71.605 8.7L72.305 14C72.4287 14.6526 72.1013 15.3074 71.505 15.6L66.805 17.9C66.2087 18.1926 65.8813 18.8474 66.005 19.5 66.1095 20.1341 66.5813 20.6452 67.205 20.8L69.505 21.5 72.505 22.4C72.793 22.5299 73.0621 22.6981 73.305 22.9 73.4967 23.1332 73.6334 23.4067 73.705 23.7L74.605 29.2C74.6865 29.8814 75.2236 30.4186 75.905 30.5 75.9746 30.5098 76.0447 30.5148 76.115 30.515 76.6881 30.492 77.1938 30.1333 77.405 29.6L80.105 24.7C80.3516 24.1876 80.8755 23.8672 81.444 23.881 81.5313 23.881 81.6186 23.8873 81.705 23.9L87.205 24.8C87.2914 24.8127 87.3787 24.819 87.466 24.819 88.0344 24.8323 88.558 24.512 88.805 24 89.1017 23.4135 89.0232 22.7071 88.605 22.2L84.805 18.1C84.4033 17.63 84.2884 16.9791 84.505 16.4L86.605 11.3C86.8216 10.7209 86.7067 10.07 86.305 9.6 85.9984 9.31632 85.5967 9.15789 85.179 9.156 84.9782 9.15122 84.7798 9.20099 84.605 9.3L79.905 11.6C79.7127 11.6957 79.5007 11.745 79.286 11.744 78.8817 11.7421 78.4939 11.5828 78.205 11.3L74.405 7.5C74.0775 7.1862 73.6435 7.00762 73.19 7Z" fill="#C00000"/></g></svg>