<svg width="96" height="96" xmlns="http://www.w3.org/2000/svg" xmlns:xlink="http://www.w3.org/1999/xlink" xml:space="preserve" overflow="hidden"><g><path d="M65.671 30C67.6638 28.0267 68.2219 25.0235 67.071 22.466L66.937 22.166C65.4198 18.7058 61.3848 17.1308 57.9247 18.648 57.1063 19.0068 56.3661 19.5226 55.746 20.166L54.86 21.086C55.5565 17.3816 53.118 13.8139 49.4136 13.1175 49.0058 13.0408 48.5919 13.0015 48.177 13L47.843 13C44.0721 12.9772 40.9967 16.0157 40.9739 19.7867 40.9697 20.4826 41.0719 21.175 41.277 21.84L39.663 20.164C37.0412 17.4435 32.7105 17.3635 29.99 19.9853 29.3466 20.6054 28.8309 21.3456 28.472 22.164L28.338 22.464C27.2001 25.0216 27.7515 28.0156 29.726 30L14 30 14 88 82 88 82 30ZM80 51 52 51 52 32 80 32ZM44 57 16 57 16 53 44 53ZM46 32 50 32 50 86 46 86ZM52 53 80 53 80 57 52 57ZM57.186 21.552C58.0849 20.6028 59.3348 20.0654 60.642 20.066 60.9374 20.0662 61.2323 20.0926 61.523 20.145 63.1181 20.4165 64.4667 21.4782 65.105 22.965L65.239 23.265C66.3127 25.7142 65.1976 28.57 62.7485 29.6436 62.3623 29.8129 61.9557 29.931 61.539 29.995L49.091 29.948ZM43.323 21.661C42.3173 19.1844 43.5097 16.3613 45.9864 15.3556 46.5643 15.1209 47.1822 15.0002 47.806 15L47.832 15 48.167 15C50.84 15.0137 52.9958 17.1917 52.9821 19.8647 52.9789 20.497 52.8518 21.1226 52.608 21.706L51.344 24.731 47.7 28.512 44.938 25.64ZM30.523 27.815C29.6426 26.4576 29.5105 24.7465 30.172 23.27L30.306 22.97C30.9443 21.4832 32.2929 20.4215 33.888 20.15 34.1788 20.0976 34.4736 20.0712 34.769 20.071 36.0765 20.0704 37.3267 20.6078 38.226 21.557L46.319 29.957 33.867 30C32.4846 29.7986 31.2606 28.9996 30.52 27.815ZM44 32 44 51 16 51 16 32ZM16 59 44 59 44 86 16 86ZM52 86 52 59 80 59 80 86Z" fill="#BF0000"/></g></svg>