<svg width="96" height="96" xmlns="http://www.w3.org/2000/svg" xmlns:xlink="http://www.w3.org/1999/xlink" xml:space="preserve" overflow="hidden"><g><path d="M14 30 45 30 45 51 14 51Z" fill="#0F9ED5"/><path d="M51 30 82 30 82 51 51 51Z" fill="#0F9ED5"/><path d="M14 57 45 57 45 88 14 88Z" fill="#0F9ED5"/><path d="M51 57 82 57 82 88 51 88Z" fill="#0F9ED5"/><path d="M68 19.9 57 19.9 63 13.9 58.8 9.6 51 17.4 51 8.9 45 8.9 45 17.4 37.2 9.6 33 13.9 39 19.9 28 19.9 28 25.9 68 25.9Z" fill="#0F9ED5"/></g></svg>