<svg width="96" height="96" xmlns="http://www.w3.org/2000/svg" xmlns:xlink="http://www.w3.org/1999/xlink" xml:space="preserve" overflow="hidden"><g><path d="M86.011 35.581 78.182 27.753C77.0628 26.6295 75.5418 25.9986 73.956 26L73.286 26 72.916 24.518C72.6454 23.4312 73.3071 22.3307 74.3939 22.0601 74.5539 22.0203 74.7181 22.0001 74.883 22L82.006 22C82.5583 22 83.006 21.5523 83.006 21 83.006 20.4477 82.5583 20 82.006 20L75.073 20C74.1069 19.9797 73.162 20.2847 72.39 20.866 71.476 21.5827 70.9225 22.6644 70.876 23.825 70.876 23.862 70.866 23.862 70.858 23.825 70.1638 20.8964 70.6924 17.8114 72.322 15.281 74.3997 12.1677 77.9272 10.3355 81.669 10.426 82.2213 10.426 82.669 9.97829 82.669 9.426 82.669 8.87372 82.2213 8.426 81.669 8.426 77.2516 8.32955 73.0927 10.5031 70.65 14.185 68.3784 17.7033 67.9339 22.0981 69.455 26L64.015 26C63.4627 26.0001 63.0151 26.4479 63.0152 27.0002 63.0153 27.2653 63.1206 27.5195 63.308 27.707L66.668 31.067 60.039 39.167C59.0921 40.329 57.6719 41.0023 56.173 41L18.009 41C14.143 41 11.009 44.134 11.009 48L11.009 58C11.009 58.5523 11.4568 59 12.0091 58.9999 12.1504 58.9999 12.2901 58.9699 12.419 58.912L16.011 57.3 16.011 62.037 13.934 62.077C11.7609 62.1326 10.0243 63.9032 10.011 66.077L10.011 86C10.0108 86.2655 10.1162 86.5203 10.304 86.708L12.304 88.708C12.4916 88.8962 12.7463 89.0019 13.012 89.002L19.012 89.002C19.5643 89.002 20.012 88.5543 20.012 88.002L20.012 86.653C20.012 85.3277 19.4858 84.0565 18.549 83.119L18.014 82.583 18.014 70.998 18.359 70.998C19.6834 70.998 20.9536 70.4725 21.891 69.537L28.341 63.1C31.0683 64.3267 34.0206 64.9737 37.011 65L52.011 65 52.011 86C52.0126 86.2626 52.1175 86.5141 52.303 86.7L54.303 88.7C54.4906 88.8882 54.7453 88.9939 55.011 88.994L61.011 88.994C61.5633 88.994 62.011 88.5463 62.011 87.994L62.011 86.653C62.011 85.3277 61.4848 84.0565 60.548 83.119L60.013 82.583 60.013 63.983C61.3615 63.9456 62.7023 63.766 64.013 63.447L64.013 83C64.0131 83.2647 64.1181 83.5186 64.305 83.706L65.134 84.537C65.6948 85.0992 66.0098 85.8609 66.01 86.655L66.01 87 64.01 87C63.4577 87 63.01 87.4477 63.01 88 63.01 88.5523 63.4577 89 64.01 89L67.01 89C67.5623 89 68.01 88.5523 68.01 88L68.01 86.653C68.01 85.3296 67.4853 84.0602 66.551 83.123L66.013 82.584 66.013 62.735C66.2184 62.6379 66.4163 62.5256 66.605 62.399L70.075 59.86C71.4791 58.8361 72.4522 57.3266 72.805 55.625L75.83 41 83.9 41C85.627 40.9974 87.0249 39.5954 87.0224 37.8684 87.0221 37.698 87.0079 37.528 86.98 37.36 86.8509 36.6803 86.512 36.0582 86.011 35.581ZM53 63 37.017 63C34.081 62.9769 31.1879 62.2934 28.552 61 28.163 60.8238 27.7054 60.9084 27.405 61.212L20.475 68.126C19.9122 68.6863 19.1502 69.0006 18.356 69L17.011 69C16.4587 69 16.011 69.4477 16.011 70L16.011 83C16.0111 83.2647 16.1161 83.5186 16.303 83.706L17.132 84.536C17.6934 85.0983 18.0088 85.8604 18.009 86.655L18.009 87 13.425 87 12.013 85.585 12.013 66.076C12.0202 64.9891 12.8885 64.104 13.975 64.076L17.032 64.017C17.5769 64.0066 18.0131 63.5619 18.013 63.017L18.013 51.921C18.022 50.921 18.346 48.04 19.704 46.721 20.1145 46.3516 20.1478 45.7193 19.7784 45.3087 19.409 44.8982 18.7767 44.8649 18.3661 45.2343 18.3467 45.2518 18.328 45.2701 18.31 45.289 16.081 47.458 16.015 51.726 16.01 51.916L16.01 55.1 13.01 56.46 13.01 48C13.01 45.2386 15.2486 43 18.01 43L56.174 43C58.2726 43.0029 60.2608 42.0604 61.587 40.434L68.787 31.634C69.1121 31.2364 69.0831 30.6572 68.72 30.294L66.445 28.018C66.4404 28.0149 66.4392 28.0087 66.4423 28.0041 66.4446 28.0006 66.4489 27.999 66.453 28L73.953 28C75.0089 27.9992 76.0216 28.4192 76.767 29.167L84.689 37.088C85.127 37.524 85.1285 38.2325 84.6925 38.6705 84.4826 38.8813 84.1975 38.9999 83.9 39L75.016 39C74.5407 38.9999 74.1311 39.3343 74.036 39.8L70.846 55.22C70.5937 56.4361 69.8979 57.5148 68.894 58.246L65.45 60.767C65.432 60.779 63.55 61.998 59.009 61.998 58.4567 61.998 58.009 62.4457 58.009 62.998L58.009 83C58.0088 83.2655 58.1142 83.5203 58.302 83.708L59.13 84.537C59.6914 85.0993 60.0068 85.8614 60.007 86.656L60.007 87 55.425 87 54.013 85.585 54.013 64.015C54.0125 63.4554 53.5596 63.0017 53 63Z" fill="#0F9ED5"/><path d="M24.014 82.584 24.014 71.997C24.014 71.4447 23.5663 70.997 23.014 70.997 22.4617 70.997 22.014 71.4447 22.014 71.997L22.014 82.997C22.0141 83.2617 22.1191 83.5156 22.306 83.703L23.135 84.534C23.6958 85.0962 24.0108 85.8579 24.011 86.652L24.011 87 22.011 87C21.4587 87 21.011 87.4477 21.011 88 21.011 88.5523 21.4587 89 22.011 89L25.011 89C25.5633 89 26.011 88.5523 26.011 88L26.011 86.653C26.011 85.3296 25.4863 84.0602 24.552 83.123Z" fill="#0F9ED5"/><path d="M77.004 32.5C77.004 33.3284 76.3324 34 75.504 34 74.6756 34 74.004 33.3284 74.004 32.5 74.004 31.6716 74.6756 31 75.504 31 76.3324 31 77.004 31.6716 77.004 32.5Z" fill="#0F9ED5"/></g></svg>