<svg width="96" height="96" xmlns="http://www.w3.org/2000/svg" xmlns:xlink="http://www.w3.org/1999/xlink" xml:space="preserve" overflow="hidden"><g><path d="M86 39.991C85.7161 52.2179 75.7302 61.9859 63.5 62L60.5 62 60.5 58 56.5 58 56.5 49 67.5 49C69.433 49 71 47.433 71 45.5 71 43.567 69.433 42 67.5 42L9.5 42C7.567 42 6 43.567 6 45.5 6 47.433 7.567 49 9.5 49L20.5 49 20.5 58 16.5 58 16.5 62 9.708 62 2.708 69 63.5 69C79.5942 68.9819 92.7118 56.0827 93 39.991ZM58.5 62 52.5 62 52.5 60 58.5 60ZM8 45.5C8 44.6716 8.67157 44 9.5 44L67.5 44C68.3284 44 69 44.6716 69 45.5 69 46.3284 68.3284 47 67.5 47L9.5 47C8.67157 47 8 46.3284 8 45.5ZM22.5 49 54.5 49 54.5 58 50.5 58 50.5 62 26.5 62 26.5 58 22.5 58ZM18.5 60 24.5 60 24.5 62 18.5 62ZM63.5 67 7.534 67 10.534 64 16.5 64 16.5 64 26.5 64 26.5 64 50.5 64 50.5 64 60.5 64 60.5 64 63.5 64C76.0393 63.9282 86.5282 54.4578 87.876 41.991L90.891 41.991C89.5387 56.1249 77.6983 66.9356 63.5 67Z" fill="#FBE01B"/></g></svg>