<svg width="96" height="96" xmlns="http://www.w3.org/2000/svg" xmlns:xlink="http://www.w3.org/1999/xlink" xml:space="preserve" overflow="hidden"><g><path d="M47 35C47 36.1046 46.1046 37 45 37 43.8954 37 43 36.1046 43 35 43 33.8954 43.8954 33 45 33 46.1046 33 47 33.8954 47 35Z" fill="#FBE01B"/><path d="M53 35C53 36.1046 52.1046 37 51 37 49.8954 37 49 36.1046 49 35 49 33.8954 49.8954 33 51 33 52.1046 33 53 33.8954 53 35Z" fill="#FBE01B"/><path d="M50 58C50 59.1046 49.1046 60 48 60 46.8954 60 46 59.1046 46 58 46 56.8954 46.8954 56 48 56 49.1046 56 50 56.8954 50 58Z" fill="#FBE01B"/><path d="M50 66C50 67.1046 49.1046 68 48 68 46.8954 68 46 67.1046 46 66 46 64.8954 46.8954 64 48 64 49.1046 64 50 64.8954 50 66Z" fill="#FBE01B"/><path d="M50 73C50 74.1046 49.1046 75 48 75 46.8954 75 46 74.1046 46 73 46 71.8954 46.8954 71 48 71 49.1046 71 50 71.8954 50 73Z" fill="#FBE01B"/><path d="M48 82C38.6 82 31 74.4 31 65 31 58.4 34.8 52.7 40.3 49.9 42.6 51.3 45.2 52 48 52 50.8 52 53.4 51.2 55.7 49.9 61.2 52.7 65 58.4 65 65 65 74.4 57.4 82 48 82ZM53.6 30C55.6 31.7 57 34.2 57 37 57 42 53 46 48 46 43 46 39 42 39 37 39 34.2 40.3 31.7 42.4 30L53.6 30ZM81.3 37.5C80.5 36.8 79.2 36.9 78.5 37.7L72.7 44.5 65.2 49.7C63.8 48.1 62.1 46.7 60.3 45.5 62 43.1 63 40.2 63 37 63 34.5 62.4 32.1 61.3 30L62 30C63.7 30 65 28.7 65 27 65 25.3 63.7 24 62 24L58 24 58 10C58 8.9 57.1 8 56 8L40 8C38.9 8 38 8.9 38 10L38 24 34 24C32.3 24 31 25.3 31 27 31 28.7 32.3 30 34 30L34.7 30C33.6 32.1 33 34.5 33 37 33 40.2 34 43.1 35.7 45.6 33.9 46.8 32.2 48.2 30.8 49.8L23.3 44.6 17.5 37.8C16.8 37 15.5 36.9 14.7 37.6 13.9 38.3 13.8 39.6 14.5 40.4L19 45.6 16 47.4C15.1 48 14.7 49.2 15.3 50.1 15.7 50.7 16.3 51.1 17 51.1 17.4 51.1 17.7 51 18 50.8L21.9 48.5 28.4 53.1C26.3 56.5 25 60.6 25 65 25 77.7 35.3 88 48 88 60.7 88 71 77.7 71 65 71 60.6 69.7 56.5 67.6 52.9L74.1 48.3 78 50.6C78.3 50.8 78.7 50.9 79 50.9 79.7 50.9 80.3 50.6 80.7 49.9 81.3 49 81 47.7 80 47.2L77 45.4 81.5 40.2C82.2 39.5 82.1 38.2 81.3 37.5Z" fill="#FBE01B"/><path d="M46 40C46 41.1 46.9 42 48 42 48.4 42 48.7 41.9 49 41.7L52 40 49 38.3C48.7 38.1 48.4 38 48 38 46.9 38 46 38.9 46 40Z" fill="#FBE01B"/></g></svg>