<svg width="96" height="96" xmlns="http://www.w3.org/2000/svg" xmlns:xlink="http://www.w3.org/1999/xlink" xml:space="preserve" overflow="hidden"><g><path d="M76.626 31.573C76.3509 31.0942 75.7398 30.9291 75.261 31.204L68.681 34.98 70.268 29.12C70.4124 28.5868 70.0972 28.0374 69.564 27.893 69.0308 27.7486 68.4814 28.0638 68.337 28.597L66.228 36.388 60.876 39.46 63.94 28.14C64.0786 27.6054 63.7576 27.0596 63.223 26.921 62.697 26.7847 62.1584 27.0933 62.01 27.616L58.423 40.868 53.508 43.688C52.3992 42.2724 50.7876 41.3383 49.008 41.08L49.008 35.414 58.715 25.707C59.1055 25.3163 59.1052 24.683 58.7145 24.2925 58.3238 23.902 57.6905 23.9023 57.3 24.293L49.007 32.586 49.007 26.414 54.714 20.707C55.0977 20.3097 55.0867 19.6767 54.6894 19.293 54.3019 18.9187 53.6875 18.9187 53.3 19.293L49.007 23.586 49.007 16C49.007 15.4477 48.5593 15 48.007 15 47.4547 15 47.007 15.4477 47.007 16L47.007 23.586 42.714 19.293C42.3167 18.9093 41.6837 18.9203 41.3 19.3176 40.9257 19.7051 40.9257 20.3195 41.3 20.707L47.007 26.414 47.007 32.586 38.714 24.293C38.3167 23.9093 37.6837 23.9203 37.3 24.3176 36.9257 24.7051 36.9257 25.3195 37.3 25.707L47.007 35.414 47.007 41.08C45.255 41.3326 43.664 42.2403 42.555 43.62L37.677 40.741 34.25 27.447C34.1119 26.9121 33.5664 26.5904 33.0315 26.7285 32.4966 26.8666 32.1749 27.4121 32.313 27.947L35.239 39.3 29.924 36.163 27.911 28.35C27.7729 27.8151 27.2274 27.4934 26.6925 27.6315 26.1576 27.7696 25.8359 28.3151 25.974 28.85L27.489 34.728 20.956 30.872C20.4788 30.5912 19.8643 30.7503 19.5835 31.2275 19.3027 31.7047 19.4618 32.3192 19.939 32.6L26.472 36.456 20.593 37.97C20.0578 38.1064 19.7346 38.6509 19.8711 39.1861 19.9842 39.6297 20.3841 39.9399 20.842 39.939 20.9264 39.9391 21.0104 39.9283 21.092 39.907L28.907 37.893 34.223 41.03 22.865 43.951C22.3298 44.0874 22.0066 44.6319 22.1431 45.1671 22.2562 45.6107 22.6561 45.9209 23.114 45.92 23.1983 45.92 23.2823 45.9096 23.364 45.889L36.658 42.463 41.533 45.341C40.8395 47.0161 40.8287 48.896 41.503 50.579L36.592 53.4 23.34 49.811C22.8131 49.6454 22.2518 49.9383 22.0862 50.4652 21.9206 50.992 22.2135 51.5534 22.7403 51.719 22.7659 51.727 22.7918 51.734 22.818 51.74L34.139 54.805 28.786 57.878 21 55.77C20.4731 55.6044 19.9118 55.8973 19.7462 56.4242 19.5806 56.951 19.8735 57.5124 20.4003 57.678 20.4259 57.686 20.4518 57.693 20.478 57.699L26.337 59.286 19.758 63.062C19.2792 63.3381 19.1149 63.9502 19.391 64.429 19.6671 64.9078 20.2792 65.0721 20.758 64.796L27.338 61.02 25.752 66.88C25.6078 67.4117 25.9208 67.9599 26.452 68.106 26.5369 68.1301 26.6247 68.1423 26.713 68.142 27.1646 68.1418 27.5601 67.839 27.678 67.403L29.787 59.612 35.14 56.54 32.069 67.86C31.9243 68.3932 32.2393 68.9428 32.7725 69.0875 33.3057 69.2322 33.8553 68.9172 34 68.384L37.587 55.132 42.502 52.312C43.6107 53.7278 45.2224 54.6619 47.002 54.92L47.002 60.586 37.3 70.293C36.9163 70.6903 36.9273 71.3233 37.3246 71.707 37.7121 72.0813 38.3265 72.0813 38.714 71.707L47.007 63.414 47.007 69.586 41.3 75.293C40.9163 75.6903 40.9273 76.3233 41.3246 76.707 41.7121 77.0813 42.3265 77.0813 42.714 76.707L47.007 72.414 47.007 80C47.007 80.5523 47.4547 81 48.007 81 48.5593 81 49.007 80.5523 49.007 80L49.007 72.414 53.3 76.707C53.6837 77.1043 54.3167 77.1153 54.714 76.7316 55.1113 76.3479 55.1223 75.7148 54.7386 75.3176 54.7305 75.3092 54.7223 75.301 54.714 75.293L49.007 69.586 49.007 63.414 57.3 71.707C57.6837 72.1043 58.3167 72.1153 58.714 71.7316 59.1113 71.3479 59.1223 70.7148 58.7386 70.3176 58.7305 70.3092 58.7223 70.301 58.714 70.293L49.007 60.586 49.007 54.92C50.759 54.6674 52.35 53.7597 53.459 52.38L58.337 55.259 61.76 68.553C61.8735 68.9945 62.2712 69.3033 62.727 69.304 62.8114 69.3042 62.8954 69.2934 62.977 69.272 63.5114 69.1343 63.8332 68.5896 63.696 68.055L60.77 56.7 66.085 59.837 68.1 67.65C68.214 68.0914 68.6121 68.3999 69.068 68.4 69.1523 68.4004 69.2363 68.39 69.318 68.369 69.8529 68.2314 70.1749 67.6863 70.0374 67.1514 70.0372 67.1509 70.0371 67.1505 70.037 67.15L68.522 61.272 75.055 65.128C75.5308 65.4086 76.1439 65.2503 76.4245 64.7745 76.7051 64.2987 76.5468 63.6856 76.071 63.405L69.539 59.549 75.418 58.035C75.9529 57.8969 76.2746 57.3514 76.1365 56.8165 75.9984 56.2816 75.4529 55.9599 74.918 56.098L67.1 58.112 61.785 54.975 73.142 52.049C73.6772 51.9109 73.9991 51.3652 73.861 50.83 73.7229 50.2948 73.1772 49.9729 72.642 50.111L59.351 53.537 54.477 50.659C55.1708 48.9839 55.1812 47.1037 54.506 45.421L59.417 42.6 72.669 46.186C72.7542 46.2101 72.8424 46.2222 72.931 46.222 73.4833 46.2213 73.9304 45.773 73.9297 45.2208 73.9292 44.7699 73.627 44.3752 73.192 44.257L61.87 41.194 67.224 38.122 75.015 40.23C75.0999 40.2541 75.1877 40.2663 75.276 40.266 75.8283 40.2653 76.2754 39.817 76.2747 39.2648 76.2742 38.8139 75.972 38.4192 75.537 38.301L69.677 36.714 76.256 32.938C76.7351 32.6633 76.9008 32.0522 76.626 31.5731 76.626 31.573 76.626 31.573 76.626 31.573ZM48.005 53C45.2436 53 43.005 50.7614 43.005 48 43.005 45.2386 45.2436 43 48.005 43 50.7664 43 53.005 45.2386 53.005 48 53.0017 50.7601 50.7651 52.9967 48.005 53Z" fill="#0F9ED5"/></g></svg>