<svg width="96" height="96" xmlns="http://www.w3.org/2000/svg" xmlns:xlink="http://www.w3.org/1999/xlink" xml:space="preserve" overflow="hidden"><g><path d="M46.005 35C46.005 36.1046 45.1096 37 44.005 37 42.9004 37 42.005 36.1046 42.005 35 42.005 33.8954 42.9004 33 44.005 33 45.1096 33 46.005 33.8954 46.005 35Z" fill="#196B24"/><path d="M48.005 43C49.105 43 52.005 41 52.005 41 52.005 41 49.105 39 48.005 39 46.9004 39 46.005 39.8954 46.005 41 46.005 42.1046 46.9004 43 48.005 43Z" fill="#196B24"/><path d="M54.005 35C54.005 36.1046 53.1096 37 52.005 37 50.9004 37 50.005 36.1046 50.005 35 50.005 33.8954 50.9004 33 52.005 33 53.1096 33 54.005 33.8954 54.005 35Z" fill="#196B24"/><path d="M50.005 58C50.005 59.1046 49.1096 60 48.005 60 46.9004 60 46.005 59.1046 46.005 58 46.005 56.8954 46.9004 56 48.005 56 49.1096 56 50.005 56.8954 50.005 58Z" fill="#196B24"/><path d="M50.005 66C50.005 67.1046 49.1096 68 48.005 68 46.9004 68 46.005 67.1046 46.005 66 46.005 64.8954 46.9004 64 48.005 64 49.1096 64 50.005 64.8954 50.005 66Z" fill="#196B24"/><path d="M50.005 73C50.005 74.1046 49.1096 75 48.005 75 46.9004 75 46.005 74.1046 46.005 73 46.005 71.8954 46.9004 71 48.005 71 49.1096 71 50.005 71.8954 50.005 73Z" fill="#196B24"/><path d="M80.656 38.241C80.2368 37.8815 79.6056 37.9298 79.246 38.349L73.328 45.249 64.186 51.649C62.2809 49.3438 59.9083 47.4692 57.225 46.149 62.2062 41.1477 62.2707 33.0803 57.37 28L63.005 28C63.5573 28 64.005 27.5523 64.005 27 64.005 26.4477 63.5573 26 63.005 26L58.005 26 58.005 12C58.005 10.8954 57.1096 10 56.005 10L40.005 10C38.9004 10 38.005 10.8954 38.005 12L38.005 26 33.005 26C32.4527 26 32.005 26.4477 32.005 27 32.005 27.5523 32.4527 28 33.005 28L38.639 28C33.7379 33.0813 33.8024 41.1496 38.784 46.152 36.1008 47.472 33.7285 49.3466 31.824 51.652L22.682 45.252 16.764 38.352C16.3892 37.9464 15.7565 37.9213 15.3509 38.2961 14.9667 38.6511 14.921 39.2422 15.246 39.652L20.475 45.752 16.49 48.143C16.0084 48.4134 15.8373 49.023 16.1077 49.5046 16.3781 49.9861 16.9877 50.1573 17.4693 49.8869 17.4861 49.8774 17.5027 49.8674 17.519 49.857L21.99 47.175 30.616 53.246C24.1139 62.85 26.6285 75.9065 36.2324 82.4086 45.8364 88.9107 58.8929 86.3961 65.395 76.7922 70.209 69.6816 70.209 60.3566 65.395 53.246L74.047 47.189 78.49 49.855C78.9551 50.1529 79.5736 50.0173 79.8714 49.5523 80.1693 49.0872 80.0338 48.4687 79.5687 48.1708 79.5524 48.1604 79.5359 48.1505 79.519 48.141L75.511 45.736 80.764 39.649C81.1222 39.2301 81.0739 38.6004 80.656 38.241ZM40.005 12 56.005 12 56.005 26 40.005 26ZM41.715 28 54.294 28C59.2781 31.4736 60.5026 38.3299 57.029 43.314 53.5554 48.2981 46.6991 49.5227 41.715 46.0491 36.7309 42.5755 35.5064 35.7191 38.98 30.735 39.7229 29.669 40.6489 28.743 41.715 28ZM48.005 84C37.5226 84.0107 29.0164 75.5216 29.0057 65.0393 28.998 57.4493 33.5128 50.5845 40.485 47.585 44.9813 50.8049 51.0287 50.8049 55.525 47.585 65.1541 51.7275 69.6018 62.8916 65.4593 72.5207 62.4598 79.4929 55.595 84.0077 48.005 84Z" fill="#196B24"/></g></svg>