<svg width="96" height="96" xmlns="http://www.w3.org/2000/svg" xmlns:xlink="http://www.w3.org/1999/xlink" xml:space="preserve" overflow="hidden"><g><path d="M48.607 11.206 48 10.741 47.393 11.206C46.151 12.154 17.006 34.66 17.006 53.464 17.006 59.906 21.778 66.551 28.106 68.92 29.6547 69.5093 31.297 69.8142 32.954 69.82 36.5485 69.7426 39.9894 68.3476 42.623 65.9 42.633 65.891 42.641 65.894 42.639 65.908 41.679 74.608 39.639 82.031 35.683 84.998L60.335 84.998C56.384 82.035 54.344 74.627 53.383 65.942 53.383 65.929 53.389 65.925 53.399 65.934 57.719 69.693 62.874 70.795 67.885 68.922 74.222 66.558 79 59.912 79 53.464 79 34.66 49.849 12.154 48.607 11.206ZM67.186 67.05C62.098 68.95 57.002 67.35 52.839 62.555 52.4771 62.1383 51.8461 62.0935 51.429 62.455 51.1879 62.6695 51.0675 62.9887 51.107 63.309 51.107 63.309 51.133 63.82 51.157 64.074 51.941 72.6 53.561 79.03 55.981 83L40.037 83C42.457 79.03 44.037 72.6 44.82 64.068 44.843 63.815 44.873 63.306 44.873 63.306 44.8997 62.9973 44.7797 62.6939 44.549 62.487 44.1319 62.125 43.5003 62.1696 43.1383 62.5867 43.1382 62.5868 43.1381 62.5869 43.138 62.587 38.976 67.365 33.891 68.953 28.808 67.05 23.22 64.958 19.008 59.119 19.008 53.467 19.008 37.087 43.775 16.644 48.002 13.275 52.23 16.644 77.002 37.087 77.002 53.467 77 59.12 72.78 64.961 67.186 67.05Z" fill="#0F9ED5"/></g></svg>