<svg width="96" height="96" xmlns="http://www.w3.org/2000/svg" xmlns:xlink="http://www.w3.org/1999/xlink" xml:space="preserve" overflow="hidden"><g><path d="M24 24 72 24 72 72 24 72Z" fill="#BF0000"/><path d="M76 76 20 76 20 20 76 20 76 76ZM80 36C80 33.8 81.8 32 84 32L84 28C81.8 28 80 26.2 80 24 80 21.8 81.8 20 84 20L84 12 76 12C76 14.2 74.2 16 72 16 69.8 16 68 14.2 68 12L64 12C64 14.2 62.2 16 60 16 57.8 16 56 14.2 56 12L52 12C52 14.2 50.2 16 48 16 45.8 16 44 14.2 44 12L40 12C40 14.2 38.2 16 36 16 33.8 16 32 14.2 32 12L28 12C28 14.2 26.2 16 24 16 21.8 16 20 14.2 20 12L12 12 12 20C14.2 20 16 21.8 16 24 16 26.2 14.2 28 12 28L12 32C14.2 32 16 33.8 16 36 16 38.2 14.2 40 12 40L12 44C14.2 44 16 45.8 16 48 16 50.2 14.2 52 12 52L12 56C14.2 56 16 57.8 16 60 16 62.2 14.2 64 12 64L12 68C14.2 68 16 69.8 16 72 16 74.2 14.2 76 12 76L12 84 20 84C20 81.8 21.8 80 24 80 26.2 80 28 81.8 28 84L32 84C32 81.8 33.8 80 36 80 38.2 80 40 81.8 40 84L44 84C44 81.8 45.8 80 48 80 50.2 80 52 81.8 52 84L56 84C56 81.8 57.8 80 60 80 62.2 80 64 81.8 64 84L68 84C68 81.8 69.8 80 72 80 74.2 80 76 81.8 76 84L84 84 84 76C81.8 76 80 74.2 80 72 80 69.8 81.8 68 84 68L84 64C81.8 64 80 62.2 80 60 80 57.8 81.8 56 84 56L84 52C81.8 52 80 50.2 80 48 80 45.8 81.8 44 84 44L84 40C81.8 40 80 38.2 80 36Z" fill="#BF0000"/></g></svg>