<svg width="96" height="96" xmlns="http://www.w3.org/2000/svg" xmlns:xlink="http://www.w3.org/1999/xlink" xml:space="preserve" overflow="hidden"><g><path d="M70.881 30.937C70.3793 29.7096 69.4069 28.7343 68.181 28.229L43.715 18.1C43.9754 17.3112 44.1077 16.4857 44.107 15.655 44.107 12.291 42.13 9.655 39.607 9.655 37.084 9.655 35.107 12.291 35.107 15.655 35.1094 15.9894 35.1325 16.3234 35.176 16.655 34.2018 17.1948 33.4378 18.0469 33.007 19.074L30.328 25.542C29.2789 28.093 30.4883 31.0122 33.034 32.074L33.991 32.474 24.43 55.594C23.9995 56.8932 23.7902 58.2555 23.811 59.624 23.858 62.7204 25.1049 65.6777 27.289 67.873L42.594 83.5C47.2697 88.1875 54.86 88.1972 59.5476 83.5215 63.0598 80.0182 64.0514 74.7135 62.042 70.178 61.455 68.8145 60.6121 67.5762 59.559 66.53 59.559 66.53 53.203 59.297 53.759 57.957 53.872 57.684 57.565 48.747 59.867 43.186L61.675 43.935C64.2263 44.9853 67.1466 43.7757 68.208 41.229L70.887 34.762C71.396 33.5374 71.3939 32.16 70.881 30.937ZM52.444 55.9 51.91 57.19C51.525 58.121 50.879 59.68 58.057 67.848L58.101 67.898 58.148 67.946C59.025 68.8171 59.7261 69.8488 60.213 70.985 61.864 74.7581 61.047 79.1566 58.151 82.085 54.2414 85.9617 47.9391 85.9671 44.023 82.097L28.7 66.458C26.8819 64.6318 25.8446 62.1706 25.807 59.594 25.7916 58.474 25.9605 57.3591 26.307 56.294L35.833 33.253 58.005 42.458C56.205 46.8 53.566 53.187 52.444 55.9ZM37.107 15.65C37.107 13.482 38.252 11.65 39.607 11.65 40.962 11.65 42.107 13.482 42.107 15.65 42.1069 16.2177 42.0237 16.7824 41.86 17.326L39.54 16.365C38.7799 16.0568 37.9553 15.9421 37.14 16.031 37.135 15.9 37.107 15.78 37.107 15.65ZM69.038 34 66.359 40.467C65.7201 41.9925 63.9706 42.7174 62.44 42.091L33.8 30.224C32.2741 29.5855 31.5493 27.8354 32.177 26.305L34.855 19.837C35.1593 19.102 35.7447 18.5191 36.481 18.218 36.8472 18.065 37.2401 17.9858 37.637 17.985 38.0276 17.9858 38.4142 18.0632 38.775 18.213L67.415 30.076C68.9428 30.7153 69.6679 32.4682 69.038 34Z" fill="#0F9ED5"/></g></svg>