<svg width="96" height="96" xmlns="http://www.w3.org/2000/svg" xmlns:xlink="http://www.w3.org/1999/xlink" xml:space="preserve" overflow="hidden"><g><path d="M71.77 30.73C71.161 29.2582 69.9918 28.089 68.52 27.48L44.87 17.68C45.0023 17.0722 45.0694 16.452 45.07 15.83 45.07 11.9 42.65 8.83 39.57 8.83 36.49 8.83 34.07 11.9 34.07 15.83 34.07 15.99 34.07 16.15 34.07 16.31 33.1776 16.9559 32.4846 17.8394 32.07 18.86L29.39 25.33C28.1207 28.3897 29.571 31.8991 32.63 33.17L33.63 33.57 24.43 55.77C24.0037 57.0599 23.7942 58.4116 23.81 59.77 23.8622 62.866 25.109 65.822 27.29 68.02 27.29 68.02 27.29 68.02 27.29 68.02L42.59 83.62C47.3514 88.2299 54.9484 88.1071 59.5583 83.3456 62.9008 79.8933 63.8615 74.78 62 70.35 61.4158 68.9881 60.5737 67.7521 59.52 66.71 59.52 66.71 53.16 59.47 53.72 58.13L59.45 44.29 61.25 45.03C64.3097 46.2993 67.8191 44.849 69.09 41.79L71.77 35.32C72.3783 33.8505 72.3783 32.1995 71.77 30.73ZM39.57 12.83C40.17 12.83 41.07 14.02 41.07 15.83 41.075 15.9199 41.075 16.0101 41.07 16.1L39.9 15.62C39.3352 15.3859 38.7386 15.2376 38.13 15.18 38.29 13.74 39 12.83 39.57 12.83ZM68.08 33.83 65.4 40.26C64.9775 41.2806 63.8077 41.7654 62.7871 41.343 62.7847 41.342 62.7824 41.341 62.78 41.34L34.14 29.48C33.1194 29.0575 32.6346 27.8877 33.057 26.8671 33.058 26.8647 33.059 26.8624 33.06 26.86L35.74 20.4C35.943 19.9113 36.3313 19.5229 36.82 19.32 37.0667 19.2149 37.3319 19.1605 37.6 19.16 37.8573 19.1613 38.112 19.2122 38.35 19.31L67 31.18C67.4925 31.3772 67.8828 31.7675 68.08 32.26 68.2828 32.7498 68.2828 33.3002 68.08 33.79Z" fill="#BF0000"/></g></svg>