<svg width="96" height="96" xmlns="http://www.w3.org/2000/svg" xmlns:xlink="http://www.w3.org/1999/xlink" xml:space="preserve" overflow="hidden"><g><path d="M71 74.1 71.4 77.6C71.5 78.1 72 78.5 72.5 78.5L82.4 77.5C82.9 77.4 83.3 76.9 83.3 76.4L82.9 72.9 71 74.1Z" fill="#196B24"/><path d="M68.4 49.3 70.6 71.1 82.5 70 78.3 28.5C77.5 20.3 70.6 14.1 62.4 14.3L58.1 14.3C57.3 14.3 56.6 14.8 56.3 15.5 55.2 18.2 51.8 20.1 47.9 20.1 44 20.1 40.6 18.2 39.5 15.5 39.2 14.8 38.5 14.3 37.7 14.3L34 14.3C25.8 14.1 18.8 20.3 18 28.5L13.5 70 25.4 71.2 27.7 49.3 27.7 48.1 28.5 47.3C28.7 47.1 29 46.9 29.4 46.9 29.7 46.9 30.1 47 30.3 47.2L33.5 50.3 36.7 47.2C37.2 46.7 37.9 46.7 38.4 47.2L41.6 50.3 44.8 47.2C45.3 46.7 46.1 46.7 46.6 47.2 46.6 47.2 46.6 47.2 46.6 47.2L49.3 50.1 52 47.2C52.2 47 52.5 46.8 52.9 46.8 53.2 46.8 53.6 46.9 53.8 47.1L57 50.2 60.2 47.1C60.7 46.6 61.4 46.6 61.9 47.1L65.1 50.2 68.3 47.1C68.3 47.1 68.4 47.1 68.4 47.1L68.4 49.3Z" fill="#196B24"/><path d="M68.3 50.5 66 52.9C65.5 53.4 64.8 53.4 64.3 52.9L61 49.8 57.8 52.9C57.3 53.4 56.6 53.4 56.1 52.9L52.9 49.9 50.1 52.9C49.6 53.4 48.8 53.4 48.3 52.9 48.3 52.9 48.3 52.9 48.3 52.9L45.5 49.9 42.3 52.9C41.8 53.4 41.1 53.4 40.6 52.9L37.4 49.8 34.2 52.9C33.7 53.4 33 53.4 32.5 52.9L29.3 49.9 27.5 51.8 27.5 72.8 68.2 72.8 68.3 50.5ZM36.7 64.1C37.2 64.6 37.2 65.4 36.7 65.9 36.2 66.4 35.4 66.4 34.9 65.9L33.3 64.3 31.7 65.9C31.2 66.4 30.4 66.4 29.9 65.9 29.4 65.4 29.4 64.6 29.9 64.1L31.5 62.5 29.9 60.9C29.4 60.4 29.4 59.6 29.9 59.1 30.4 58.6 31.2 58.6 31.7 59.1L33.3 60.7 34.9 59.1C35.4 58.6 36.2 58.6 36.7 59.1 37.2 59.6 37.2 60.4 36.7 60.9L35.1 62.5 36.7 64.1ZM46.7 64.1C47.2 64.6 47.2 65.4 46.7 65.9 46.2 66.4 45.4 66.4 44.9 65.9L43.3 64.3 41.7 65.9C41.2 66.4 40.4 66.4 39.9 65.9 39.4 65.4 39.4 64.6 39.9 64.1L41.5 62.5 39.9 60.9C39.4 60.4 39.4 59.6 39.9 59.1 40.4 58.6 41.2 58.6 41.7 59.1L43.3 60.7 44.9 59.1C45.4 58.6 46.2 58.6 46.7 59.1 47.2 59.6 47.2 60.4 46.7 60.9L45.1 62.5 46.7 64.1ZM56.7 64.1C57.2 64.6 57.2 65.4 56.7 65.9 56.2 66.4 55.4 66.4 54.9 65.9L53.3 64.3 51.7 65.9C51.2 66.4 50.4 66.4 49.9 65.9 49.4 65.4 49.4 64.6 49.9 64.1L51.5 62.5 49.9 60.9C49.4 60.4 49.4 59.6 49.9 59.1 50.4 58.6 51.2 58.6 51.7 59.1L53.3 60.7 54.9 59.1C55.4 58.6 56.2 58.6 56.7 59.1 57.2 59.6 57.2 60.4 56.7 60.9L55.1 62.5 56.7 64.1ZM66.7 64.1C67.2 64.6 67.2 65.4 66.7 65.9 66.2 66.4 65.4 66.4 64.9 65.9L63.3 64.3 61.7 65.9C61.2 66.4 60.4 66.4 59.9 65.9 59.4 65.4 59.4 64.6 59.9 64.1L61.5 62.5 59.9 60.9C59.4 60.4 59.4 59.6 59.9 59.1 60.4 58.6 61.2 58.6 61.7 59.1L63.3 60.7 64.9 59.1C65.4 58.6 66.2 58.6 66.7 59.1 67.2 59.6 67.2 60.4 66.7 60.9L65.1 62.5 66.7 64.1Z" fill="#196B24"/><path d="M13.2 72.9 12.8 76.4C12.7 76.9 13.1 77.4 13.7 77.5 13.7 77.5 13.7 77.5 13.7 77.5L23.6 78.5C24.1 78.6 24.6 78.2 24.7 77.6 24.7 77.6 24.7 77.6 24.7 77.6L25.1 74.1 13.2 72.9Z" fill="#196B24"/><path d="M27.7 75.3 27.7 81C27.7 81.6 28.1 82 28.7 82L67.4 82C68 82 68.4 81.6 68.4 81L68.4 75.2 27.7 75.2Z" fill="#196B24"/></g></svg>