<svg width="96" height="96" xmlns="http://www.w3.org/2000/svg" xmlns:xlink="http://www.w3.org/1999/xlink" xml:space="preserve" overflow="hidden"><g><path d="M87.516 74C87.41 73.408 87.245 72.577 87.029 71.774 85.9728 68.3334 84.4743 65.0446 82.571 61.99 82.8998 61.4146 83.1856 60.8156 83.426 60.198L83.426 60.193 83.426 60.193C84.0668 58.6444 84.2866 56.9539 84.063 55.293L86.663 53.761 86.674 53.778C87.8483 55.5981 90.2758 56.1217 92.0959 54.9473 93.916 53.773 94.4395 51.3456 93.2652 49.5255 92.7014 48.6516 91.8136 48.0374 90.797 47.818 90.726 47.803 90.655 47.79 90.584 47.778 90.604 47.709 90.621 47.639 90.636 47.568 91.094 45.4509 89.749 43.3634 87.6319 42.9054 85.5148 42.4474 83.4273 43.7924 82.9693 45.9095 82.7549 46.901 82.9329 47.937 83.466 48.8L80.8 50.376C80.2625 50.0502 79.6903 49.7856 79.094 49.587 80.6167 48.0495 80.6047 45.5688 79.0672 44.0462 78.5364 43.5205 77.8663 43.1575 77.136 43 77.065 42.985 76.995 42.972 76.923 42.96 76.942 42.891 76.959 42.821 76.975 42.75 77.4316 40.6326 76.0853 38.546 73.9679 38.0894 71.8505 37.6328 69.7638 38.9791 69.3073 41.0965 69.0934 42.0883 69.2722 43.1243 69.806 43.987L67.147 45.557C61.875 42.01 56.966 44.28 54.218 46.257 49.6924 44.3848 44.8627 43.3555 39.967 43.22 25.967 42.958 13.712 54.72 10.108 71.874 9.983 72.482 9.863 73.387 9.787 74.005L1.987 74.005 1.987 78.075C1.99359 80.2814 3.7806 82.0684 5.987 82.075L89.987 82.075C92.1934 82.0684 93.9804 80.2814 93.987 78.075L93.987 74ZM12.066 72.275C15.466 56.084 26.909 44.946 39.927 45.215 47.644 45.368 53.427 47.947 60.757 51.21L61.38 51.488C61.8845 51.7128 62.4757 51.486 62.7005 50.9815 62.9253 50.477 62.6985 49.8858 62.194 49.661L61.571 49.384C59.803 48.596 58.123 47.849 56.48 47.162 59.18 45.571 62.753 44.748 66.499 47.546 66.8221 47.7874 67.2587 47.8111 67.606 47.606L71.873 45.088C72.3479 44.8061 72.5044 44.1926 72.2225 43.7177 72.1579 43.6088 72.0732 43.5133 71.973 43.436 71.7972 43.305 71.645 43.1451 71.523 42.963 70.9479 42.0708 71.2049 40.8813 72.0971 40.3062 72.9893 39.7311 74.1788 39.9881 74.7539 40.8803 75.329 41.7725 75.072 42.9618 74.18 43.537 73.7236 43.848 73.6058 44.4701 73.9169 44.9265 74.2169 45.3667 74.8093 45.4944 75.264 45.217 76.1636 44.6061 77.3882 44.8402 77.9991 45.7398 78.61 46.6394 78.3759 47.864 77.4763 48.4749 76.5766 49.0858 75.3521 48.8517 74.7412 47.9521 74.6014 47.7463 74.502 47.5158 74.448 47.273 74.3226 46.7351 73.7849 46.4006 73.247 46.526 72.7091 46.6514 72.3746 47.1891 72.5 47.727 72.5982 48.1637 72.771 48.5802 73.011 48.958 73.06 49.035 73.117 49.102 73.17 49.174 72.1489 49.3397 71.1449 49.5971 70.17 49.943 68.7921 50.4114 67.4757 51.044 66.249 51.827 64.8489 52.7114 63.5781 53.7856 62.473 55.019 61.4913 56.1027 60.6861 57.3341 60.087 58.668 59.565 59.8047 59.2871 61.0382 59.271 62.289 59.2737 62.8393 59.7207 63.284 60.271 63.284L60.276 63.284C60.8263 63.2813 61.271 62.8343 61.271 62.284 61.289 61.3128 61.5098 60.356 61.919 59.475 62.4344 58.3335 63.1258 57.28 63.968 56.353 64.9504 55.2576 66.0798 54.3035 67.324 53.518 68.4188 52.8192 69.594 52.2552 70.824 51.838 74.459 50.556 78.033 50.757 80.15 52.364 80.4736 52.6093 80.9134 52.6346 81.263 52.428L85.53 49.91C86.0052 49.6285 86.1622 49.0151 85.8807 48.54 85.8159 48.4306 85.7308 48.3345 85.63 48.257 84.7975 47.6083 84.6484 46.4076 85.2971 45.575 85.9458 44.7425 87.1465 44.5934 87.9791 45.2421 88.8116 45.8908 88.9606 47.0916 88.312 47.9241 88.1795 48.0941 88.0193 48.2405 87.838 48.357 87.3665 48.6446 87.2175 49.26 87.5051 49.7315 87.7928 50.2029 88.4081 50.352 88.8796 50.0643 88.894 50.0556 88.9081 50.0465 88.922 50.037 89.824 49.4774 91.0089 49.7551 91.5684 50.6571 92.1142 51.5368 91.865 52.6907 91.005 53.267 90.1139 53.8399 88.9274 53.5852 88.35 52.697 88.2348 52.5125 88.1523 52.3095 88.106 52.097 87.9808 51.5591 87.4432 51.2246 86.9053 51.3498 86.806 51.3729 86.7108 51.4111 86.623 51.463L82.428 53.939C82.042 54.1669 81.8549 54.6238 81.97 55.057 82.3081 56.5734 82.1485 58.1584 81.515 59.577 80.7589 61.3268 79.5203 62.8252 77.944 63.897 77.4594 64.1619 77.2813 64.7695 77.5462 65.2541 77.8112 65.7387 78.4188 65.9168 78.9034 65.6519 78.9324 65.636 78.9607 65.6187 78.988 65.6 79.8156 65.0582 80.5692 64.4111 81.23 63.675 82.8652 66.3943 84.1673 69.3005 85.108 72.331 85.261 72.898 85.387 73.5 85.482 74.001L11.8 74.001C11.874 73.441 11.97 72.744 12.066 72.275ZM91.989 78.07C91.989 79.1746 91.0936 80.07 89.989 80.07L5.989 80.07C4.88443 80.07 3.989 79.1746 3.989 78.07L3.989 76 91.989 76Z" fill="#FCE11C"/><path d="M36.727 37.429 35.977 38.429C35.6622 38.8487 35.7473 39.4442 36.167 39.759 36.5867 40.0738 37.1822 39.9887 37.497 39.569L38.248 38.569C40.0894 36.1266 40.0024 32.7367 38.038 30.392 36.6389 28.7231 36.5771 26.3093 37.889 24.571L38.64 23.571C38.9548 23.151 38.8695 22.5553 38.4495 22.2405 38.0295 21.9257 37.4338 22.011 37.119 22.431L36.369 23.431C34.5262 25.8728 34.6128 29.2635 36.578 31.608 37.9771 33.2769 38.0389 35.6907 36.727 37.429Z" fill="#FCE11C"/><path d="M57.727 37.429 56.977 38.429C56.6622 38.8487 56.7473 39.4442 57.167 39.759 57.5867 40.0738 58.1822 39.9887 58.497 39.569L59.248 38.569C61.0894 36.1266 61.0024 32.7367 59.038 30.392 57.6389 28.7231 57.5771 26.3093 58.889 24.571L59.64 23.571C59.9548 23.151 59.8695 22.5553 59.4495 22.2405 59.0295 21.9257 58.4338 22.011 58.119 22.431L57.369 23.431C55.5262 25.8728 55.6128 29.2635 57.578 31.608 58.9771 33.2769 59.0389 35.6907 57.727 37.429Z" fill="#FCE11C"/><path d="M46.727 31.429 45.977 32.429C45.6622 32.8487 45.7473 33.4442 46.167 33.759 46.5867 34.0738 47.1822 33.9887 47.497 33.569L48.248 32.569C50.0894 30.1266 50.0024 26.7367 48.038 24.392 46.6389 22.7231 46.5771 20.3093 47.889 18.571L48.64 17.571C48.9548 17.151 48.8695 16.5553 48.4495 16.2405 48.0295 15.9257 47.4338 16.011 47.119 16.431L46.369 17.431C44.5262 19.8728 44.6128 23.2635 46.578 25.608 47.9771 27.2769 48.0389 29.6907 46.727 31.429Z" fill="#FCE11C"/></g></svg>