<svg width="96" height="96" xmlns="http://www.w3.org/2000/svg" xmlns:xlink="http://www.w3.org/1999/xlink" xml:space="preserve" overflow="hidden"><g><path d="M82.17 48.77 79.31 43 78.72 36.61 74 32.32 71.14 26.58 67.9 25.33C68.1586 23.9749 68.2959 22.5995 68.31 21.22 68.31 20.52 68.23 14.22 65.31 11.34 62.54 8.57 56.9 12 52.12 15.9 49.8735 14.5003 47.0265 14.5003 44.78 15.9 40 12 34.37 8.57 31.6 11.34 28.68 14.26 28.6 20.52 28.6 21.22 28.6326 22.4886 28.7664 23.7526 29 25L24.93 26.58 22 32.32 17.26 36.64 16.69 43 13.83 48.74 15.58 54.91 15 61.33 18.87 66.45 20.62 72.62 26.07 76 29.93 81.12 36.24 82.3 41.69 85.68 48 84.49 54.31 85.67 59.76 82.29 66.07 81.11 69.93 76 75.39 72.63 77.14 66.46 81 61.33 80.41 54.94ZM62.6 14.31 62.6 14.31C63.83 15.74 64.3 19.31 64.3 21.22 64.3 23.13 63.83 26.7 62.6 28.13L62.6 28.13C61.46 28.13 58.3 26.27 55.16 23.83 55.6482 22.2006 55.5164 20.4481 54.79 18.91 58.05 16.32 61.41 14.31 62.6 14.31ZM53 27.21C56.36 29.85 60 32.11 62.76 32.11 63.5428 32.126 64.3102 31.8912 64.95 31.44L66.2 32.19 56.34 41.34 51.44 28.17C52.0002 27.9205 52.5248 27.5977 53 27.21ZM48.5 18.85C50.1569 18.85 51.5 20.1931 51.5 21.85 51.5 23.5069 50.1569 24.85 48.5 24.85 46.8431 24.85 45.5 23.5069 45.5 21.85 45.4998 20.2125 46.8127 18.8773 48.45 18.85ZM34.3 14.31 34.3 14.31C35.48 14.31 38.85 16.31 42.1 18.91 41.6655 19.8292 41.4401 20.8333 41.44 21.85 41.4419 22.527 41.5395 23.2003 41.73 23.85 38.6 26.29 35.44 28.15 34.3 28.15L34.3 28.15C33.08 26.72 32.61 23.15 32.6 21.24 32.59 19.33 33.07 15.74 34.3 14.31ZM32 31.44C32.6398 31.8912 33.4072 32.126 34.19 32.11 36.93 32.11 40.59 29.85 43.94 27.21 44.4025 27.606 44.9132 27.942 45.46 28.21L40.61 41.34 30.76 32.19ZM23.5 61.94C22.6716 61.94 22 61.2684 22 60.44 22 59.6116 22.6716 58.94 23.5 58.94 24.3284 58.94 25 59.6116 25 60.44 25 61.2684 24.3284 61.94 23.5 61.94ZM22.5 51.94C21.1193 51.94 20 50.8207 20 49.44 20 48.0593 21.1193 46.94 22.5 46.94 23.8807 46.94 25 48.0593 25 49.44 25 50.8207 23.8807 51.94 22.5 51.94ZM24.5 39.94C23.6716 39.94 23 39.2684 23 38.44 23 37.6116 23.6716 36.94 24.5 36.94 25.3284 36.94 26 37.6116 26 38.44 26 39.2684 25.3284 39.94 24.5 39.94ZM28.5 72.94C27.1193 72.94 26 71.8207 26 70.44 26 69.0593 27.1193 67.94 28.5 67.94 29.8807 67.94 31 69.0593 31 70.44 31 71.8207 29.8807 72.94 28.5 72.94ZM37.5 77.94C36.6716 77.94 36 77.2684 36 76.44 36 75.6116 36.6716 74.94 37.5 74.94 38.3284 74.94 39 75.6116 39 76.44 39 77.2684 38.3284 77.94 37.5 77.94ZM49.5 80.94C48.1193 80.94 47 79.8207 47 78.44 47 77.0593 48.1193 75.94 49.5 75.94 50.8807 75.94 52 77.0593 52 78.44 52 79.8207 50.8807 80.94 49.5 80.94ZM48 70.94C37.5066 70.9182 29.0178 62.3939 29.0396 51.9005 29.0486 47.5685 30.5377 43.3697 33.26 40L42.26 48.38 48.42 31.66 54.58 48.38 63.09 40.48C69.4192 48.8497 67.7651 60.7656 59.3954 67.0948 56.1135 69.5766 52.1146 70.926 48 70.94ZM60.39 76.82C59.5616 76.82 58.89 76.1484 58.89 75.32 58.89 74.4916 59.5616 73.82 60.39 73.82 61.2184 73.82 61.89 74.4916 61.89 75.32 61.89 76.1484 61.2184 76.82 60.39 76.82ZM67.5 71.94C66.1193 71.94 65 70.8207 65 69.44 65 68.0593 66.1193 66.94 67.5 66.94 68.8807 66.94 70 68.0593 70 69.44 70 70.8207 68.8807 71.94 67.5 71.94ZM70.5 38.94C69.6716 38.94 69 38.2684 69 37.44 69 36.6116 69.6716 35.94 70.5 35.94 71.3284 35.94 72 36.6116 72 37.44 72 38.2684 71.3284 38.94 70.5 38.94ZM73.5 60.94C72.6716 60.94 72 60.2684 72 59.44 72 58.6116 72.6716 57.94 73.5 57.94 74.3284 57.94 75 58.6116 75 59.44 75 60.2684 74.3284 60.94 73.5 60.94ZM75.5 51.94C74.1193 51.94 73 50.8207 73 49.44 73 48.0593 74.1193 46.94 75.5 46.94 76.8807 46.94 78 48.0593 78 49.44 78 50.8207 76.8807 51.94 75.5 51.94Z" fill="#BF0000"/></g></svg>