<svg width="96" height="96" xmlns="http://www.w3.org/2000/svg" xmlns:xlink="http://www.w3.org/1999/xlink" xml:space="preserve" overflow="hidden"><g><path d="M82.081 48.71 79.221 42.967 78.629 36.58 73.888 32.258 71.029 26.515 67.018 24.961C67.3087 23.66 67.4665 22.3329 67.489 21 67.489 17.019 65.495 11 62.489 11 59.505 11 52.909 15.711 51.222 16.953 49.254 15.6822 46.724 15.6822 44.756 16.953 43.069 15.711 36.473 11 33.489 11 30.483 11 28.489 17.019 28.489 21 28.5117 22.312 28.6655 23.6185 28.948 24.9L24.79 26.515 21.931 32.258 17.19 36.58 16.6 42.967 13.74 48.71 15.496 54.88 14.9 61.268 18.766 66.387 20.522 72.557 25.976 75.934 29.842 81.053 36.148 82.232 41.6 85.609 47.906 84.431 54.211 85.609 59.665 82.232 65.971 81.053 69.837 75.934 75.3 72.557 77.056 66.387 80.922 61.268 80.33 54.88ZM65.489 21C65.489 25.293 63.383 30 62.489 30 61.08 30 55.052 25.926 53.432 24.509 54.3775 22.4805 54.1047 20.093 52.726 18.33 56.865 15.307 61.067 13 62.489 13 63.426 13 65.489 16.868 65.489 21ZM33.489 32C35.758 32 41.775 27.685 43.671 26.156 44.3549 26.8678 45.2035 27.4001 46.142 27.706L40.089 43.27 29.05 33.08 31.675 31.11C32.1345 31.6397 32.7889 31.9607 33.489 32ZM52.307 26.156C54.2 27.685 60.221 32 62.489 32 63.1892 31.9609 63.8436 31.6398 64.303 31.11L66.929 33.08 55.889 43.27 49.837 27.706C50.7752 27.4001 51.6235 26.8678 52.307 26.156ZM46.9 18.144C49.0355 17.5489 51.2491 18.7977 51.8441 20.9333 52.0402 21.6371 52.0405 22.381 51.845 23.085 51.4778 24.4335 50.4251 25.4874 49.077 25.856 46.9415 26.451 44.7279 25.2023 44.1329 23.0667 43.9368 22.3629 43.9365 21.619 44.132 20.915 44.4988 19.5663 45.5517 18.5123 46.9 18.144ZM33.489 13C34.911 13 39.114 15.307 43.253 18.33 41.8735 20.0926 41.6003 22.4804 42.546 24.509 40.926 25.926 34.9 30 33.489 30 32.595 30 30.489 25.293 30.489 21 30.489 16.868 32.552 13 33.489 13ZM78.333 55.065 78.854 60.681 75.454 65.181 75.229 65.481 75.129 65.841 73.586 71.266 68.786 74.235 68.469 74.435 68.243 74.735 64.843 79.235 59.3 80.266 58.932 80.335 58.614 80.535 53.814 83.504 48.27 82.468 47.91 82.4 47.542 82.469 42 83.5 37.2 80.531 36.883 80.331 36.515 80.262 30.973 79.23 27.573 74.73 27.347 74.43 27.03 74.23 22.23 71.261 20.692 65.84 20.592 65.48 20.367 65.18 16.967 60.68 17.487 55.064 17.522 54.691 17.422 54.332 15.878 48.907 18.392 43.858 18.559 43.523 18.593 43.151 19.114 37.535 23.282 33.735 23.558 33.483 23.725 33.148 26.235 28.1 29.453 26.854C29.7243 27.7607 30.0795 28.6402 30.514 29.481L25.929 32.92 40.889 46.73 47.98 28.5C47.985 28.487 47.993 28.487 47.999 28.5L55.089 46.733 70.05 32.92 65.464 29.481C65.891 28.6576 66.2411 27.7967 66.51 26.909L69.584 28.1 72.1 33.149 72.267 33.484 72.543 33.736 76.711 37.536 77.232 43.152 77.266 43.524 77.433 43.859 79.947 48.908 78.4 54.333 78.3 54.692Z" fill="#FBE01B"/><path d="M74 59.44C74 60.2684 73.3284 60.94 72.5 60.94 71.6716 60.94 71 60.2684 71 59.44 71 58.6116 71.6716 57.94 72.5 57.94 73.3284 57.94 74 58.6116 74 59.44Z" fill="#FBE01B"/><path d="M77 49.44C77 50.8207 75.8807 51.94 74.5 51.94 73.1193 51.94 72 50.8207 72 49.44 72 48.0593 73.1193 46.94 74.5 46.94 75.8807 46.94 77 48.0593 77 49.44Z" fill="#FBE01B"/><path d="M69 69.44C69 70.8207 67.8807 71.94 66.5 71.94 65.1193 71.94 64 70.8207 64 69.44 64 68.0593 65.1193 66.94 66.5 66.94 67.8807 66.94 69 68.0593 69 69.44Z" fill="#FBE01B"/><path d="M60.89 75.32C60.89 76.1484 60.2184 76.82 59.39 76.82 58.5616 76.82 57.89 76.1484 57.89 75.32 57.89 74.4916 58.5616 73.82 59.39 73.82 60.2184 73.82 60.89 74.4916 60.89 75.32Z" fill="#FBE01B"/><path d="M73 38.44C73 39.2684 72.3284 39.94 71.5 39.94 70.6716 39.94 70 39.2684 70 38.44 70 37.6116 70.6716 36.94 71.5 36.94 72.3284 36.94 73 37.6116 73 38.44Z" fill="#FBE01B"/><path d="M37.929 75.32C37.929 76.1484 37.2574 76.82 36.429 76.82 35.6006 76.82 34.929 76.1484 34.929 75.32 34.929 74.4916 35.6006 73.82 36.429 73.82 37.2574 73.82 37.929 74.4916 37.929 75.32Z" fill="#FBE01B"/><path d="M24.819 59.44C24.819 60.2684 24.1474 60.94 23.319 60.94 22.4906 60.94 21.819 60.2684 21.819 59.44 21.819 58.6116 22.4906 57.94 23.319 57.94 24.1474 57.94 24.819 58.6116 24.819 59.44Z" fill="#FBE01B"/><path d="M31.819 69.44C31.819 70.8207 30.6997 71.94 29.319 71.94 27.9383 71.94 26.819 70.8207 26.819 69.44 26.819 68.0593 27.9383 66.94 29.319 66.94 30.6997 66.94 31.819 68.0593 31.819 69.44Z" fill="#FBE01B"/><path d="M23.819 49.44C23.819 50.8207 22.6997 51.94 21.319 51.94 19.9383 51.94 18.819 50.8207 18.819 49.44 18.819 48.0593 19.9383 46.94 21.319 46.94 22.6997 46.94 23.819 48.0593 23.819 49.44Z" fill="#FBE01B"/><path d="M25.819 38.44C25.819 39.2684 25.1474 39.94 24.319 39.94 23.4906 39.94 22.819 39.2684 22.819 38.44 22.819 37.6116 23.4906 36.94 24.319 36.94 25.1474 36.94 25.819 37.6116 25.819 38.44Z" fill="#FBE01B"/><path d="M50.409 77.44C50.409 78.8207 49.2897 79.94 47.909 79.94 46.5283 79.94 45.409 78.8207 45.409 77.44 45.409 76.0593 46.5283 74.94 47.909 74.94 49.2897 74.94 50.409 76.0593 50.409 77.44Z" fill="#FBE01B"/><path d="M65.254 40.069 63.766 41.443C69.5512 50.1976 67.1441 61.9844 58.3895 67.7697 49.6349 73.5549 37.8481 71.1477 32.0628 62.3932 27.8442 56.0093 27.8668 47.7178 32.12 41.357L30.629 39.981C24.0403 49.5257 26.4367 62.6045 35.9814 69.1932 45.5261 75.7819 58.6049 73.3855 65.1936 63.8408 70.1284 56.692 70.1524 47.2428 65.254 40.069Z" fill="#FBE01B"/></g></svg>