<svg width="96" height="96" xmlns="http://www.w3.org/2000/svg" xmlns:xlink="http://www.w3.org/1999/xlink" xml:space="preserve" overflow="hidden"><g><path d="M61 51 72 51C58.93 41.2 58 34 58 34L70 34C54.38 18 48 4.63 48 4.63 42.8287 15.8672 35.33 25.878 26 34L38 34C38 34 36.29 38.84 24 51L35 51C35 51 35 56.56 17.5 75L43 75 43 91 52 91 52 75 78.5 75C64.48 61.63 61 51 61 51ZM45.28 21.08C46.484 21.08 47.46 22.056 47.46 23.26 47.46 24.464 46.484 25.44 45.28 25.44 44.076 25.44 43.1 24.464 43.1 23.26 43.1055 22.0583 44.0783 21.0855 45.28 21.08ZM57 24.16 59.67 27.8C54.0339 32.8975 47.0677 36.2922 39.58 37.59 40.2318 36.1283 40.6794 34.5838 40.91 33 53.17 29.62 57 24.16 57 24.16ZM43.34 68.16C38.8144 68.1277 34.3186 67.4234 30 66.07L32.82 62.43C39.27 64.2 49.58 65.36 59.82 59.43 48.13 56.18 40.91 47.92 37.18 42.28 37.75 41.22 38.7 39.43 39.45 37.77 42 42.24 48 50.77 58.76 54.58L58.99 55.27C59.6 57.13 62.24 61.01 63.24 62.46 57.2636 66.2066 50.3436 68.1733 43.29 68.13ZM38.2 56.48C38.2 55.276 39.176 54.3 40.38 54.3 41.584 54.3 42.56 55.276 42.56 56.48 42.56 57.684 41.584 58.66 40.38 58.66 39.176 58.66 38.2 57.684 38.2 56.48ZM52.2 42.06C52.2 40.856 53.176 39.88 54.38 39.88 55.584 39.88 56.56 40.856 56.56 42.06 56.56 43.264 55.584 44.24 54.38 44.24 53.176 44.2455 52.1955 43.274 52.19 42.07 52.19 42.0667 52.19 42.0633 52.19 42.06Z" fill="#FBE01B"/></g></svg>