<svg width="96" height="96" xmlns="http://www.w3.org/2000/svg" xmlns:xlink="http://www.w3.org/1999/xlink" xml:space="preserve" overflow="hidden"><g><path d="M61.1 51 72.07 51C72.0862 51 72.0884 50.9916 72.0754 50.9819 59.0289 41.1911 58.1 34 58.1 34L70.0765 34C70.0894 34 70.0924 33.9922 70.0834 33.983 66.6549 30.47 63.6768 27.087 61.1093 23.9419 61.013 23.8239 60.8161 23.5813 60.8161 23.5813 52.027 12.7455 48.2058 4.85 48.1022 4.6345 48.0991 4.6281 48.0976 4.6353 48.0946 4.6418 42.9272 15.8662 35.4375 25.8666 26.12 33.9828 26.1091 33.9928 26.112 34 26.1264 34L38.1 34C38.1 34 36.3917 38.8353 24.1176 50.9826 24.1081 50.9919 24.1109 51 24.1242 51L35.1 51C35.1 51 35.1 56.5566 17.6162 74.9829 17.6075 74.9921 17.6104 75 17.6232 75L43.1 75 43.1 91 52.1 91 52.1 75 78.5753 75C78.5889 75 78.5917 74.9921 78.5819 74.9827 64.577 61.6208 61.1 51 61.1 51ZM31.2369 31.9831C38.0951 25.2927 43.8217 17.5334 48.1934 9.0079 51.1881 14.1021 54.5475 18.973 58.2453 23.5823 54.299 27.9767 46.9369 31.1553 38.5413 32L31.2437 32C31.2305 32 31.2274 31.9924 31.2369 31.9831ZM39.9857 34.6663 40.2899 33.8054C48.4799 32.708 55.4279 29.5685 59.5142 25.1587 61.2885 27.3314 63.2542 29.6156 65.4326 31.9832 65.4411 31.9923 65.438 32 65.4255 32L57.7428 32 57.6469 31.4873C57.5455 30.9442 57.023 30.5861 56.4799 30.6875 55.9368 30.7889 55.5787 31.3114 55.6801 31.8545L56.0443 33.8008C56.048 33.8201 56.0597 33.8351 56.0643 33.854L56.1163 34.2562C56.1535 34.5444 57.0463 40.6115 66.4575 48.9824 66.4681 48.9924 66.4656 49 66.4514 49L60.3949 49 60.1664 48.3457C59.9841 47.8242 59.4136 47.5491 58.8921 47.7313 58.3705 47.9136 58.0954 48.4841 58.2777 49.0057L59.1156 51.4041C59.1232 51.4255 59.1992 51.622 59.1992 51.622 59.8163 53.3218 60.5709 54.9684 61.4556 56.5455 50.9213 54.0712 41.7205 47.0129 37.862 38.3621 38.7154 37.2197 39.4284 35.9788 39.9857 34.6663ZM28.8944 48.9828C31.5966 46.2102 34.139 43.2861 36.5092 40.2247 41.0578 49.4047 50.864 56.4818 62.2345 58.7479 62.247 58.7504 62.2489 58.7585 62.2387 58.766 56.7868 62.7343 49.2746 65 41.45 65 37.6508 65.1309 33.8565 64.6257 30.2239 63.5054 35.0933 57.1547 36.5339 53.6823 36.9427 52.0454 36.9498 52.0247 36.9637 52.0085 36.9695 51.9873L37.8172 48.8887C37.9628 48.3557 37.6489 47.8056 37.1159 47.66 36.5829 47.5144 36.0328 47.8283 35.8872 48.3613L35.7123 49 28.9013 49C28.8884 49 28.8856 48.9921 28.8944 48.9828ZM50.1 89 45.1 89 45.1 75 50.1 75ZM22.21 72.983C24.9056 70.0267 27.1113 67.4369 28.9213 65.1704 32.9527 66.5321 37.1975 67.152 41.45 67 49.7918 67 57.8213 64.5345 63.629 60.2251 66.5778 64.7983 69.968 69.0714 73.7508 72.983 73.7595 72.9922 73.7566 73 73.7439 73L22.2168 73C22.2044 73 22.2014 72.9922 22.21 72.983Z" fill="#BF0000"/><path d="M44.8043 25.3662C45.9703 25.6814 47.171 24.9916 47.4862 23.8256 47.587 23.4525 47.5872 23.0594 47.4867 22.6862 47.2406 21.9468 46.6534 21.3712 45.9092 21.14 44.7304 20.8554 43.5441 21.5802 43.2595 22.759 43.1778 23.0973 43.1777 23.4502 43.2592 23.7885 43.4901 24.5326 44.0652 25.1199 44.8043 25.3662Z" fill="#BF0000"/><path d="M51.8444 43.2863C53.0105 43.6013 54.2112 42.9114 54.5262 41.7453 54.627 41.3723 54.6271 40.9793 54.5267 40.6063 54.2808 39.8667 53.6934 39.291 52.949 39.06 51.7703 38.7753 50.584 39.5 50.2993 40.6787 50.2175 41.0172 50.2174 41.3702 50.299 41.7087 50.53 42.4528 51.1053 43.04 51.8444 43.2863Z" fill="#BF0000"/><path d="M41.8444 59.2863C43.0105 59.6013 44.2112 58.9114 44.5262 57.7453 44.627 57.3723 44.6271 56.9793 44.5267 56.6063 44.2808 55.8667 43.6934 55.291 42.949 55.06 41.7703 54.7753 40.584 55.5 40.2993 56.6787 40.2175 57.0172 40.2174 57.3702 40.299 57.7087 40.53 58.4528 41.1053 59.04 41.8444 59.2863Z" fill="#BF0000"/></g></svg>