<svg width="624" height="624" xmlns="http://www.w3.org/2000/svg" xmlns:xlink="http://www.w3.org/1999/xlink" xml:space="preserve" overflow="hidden"><g><path d="M288.86 297.81C288.507 296.215 286.913 295.209 285.291 295.407 280.559 295.987 275.819 296.492 271.075 296.932 266.648 291.858 258.16 285.871 244.633 279.267 220.88 267.671 196.438 268.426 194.556 268.503 194.504 268.505 194.477 268.56 194.507 268.601 195.513 270.006 207.858 286.879 228.392 298.595 228.398 298.598 228.396 298.607 228.389 298.607 215.16 298.331 201.956 297.218 188.876 295.206 185.355 289.527 178.73 282.385 168.259 273.827 147.791 257.1 123.826 252.237 121.977 251.882 121.926 251.872 121.887 251.919 121.907 251.967 122.51 253.432 129.369 269.629 143.747 284.697 143.752 284.702 143.747 284.71 143.741 284.708 142.102 284.2 140.464 283.687 138.832 283.155 130.976 280.604 123.2 277.79 115.499 274.769L113.985 274.168C105.205 269.899 96.2591 265.955 87.1585 262.36 62.1068 263.566 42.2025 274.477 40.6276 275.361 40.5827 275.387 40.584 275.449 40.6302 275.472 42.3013 276.34 64.1166 287.386 90.5463 286.957 106.139 286.703 116.553 284.755 122.633 281.874 127.544 283.757 132.487 285.561 137.472 287.253 151.372 291.986 165.596 295.861 180.043 298.686 183.877 299.514 187.343 299.932 191.199 300.642 191.279 300.656 191.416 300.68 191.482 300.687 195.161 301.258 198.851 301.752 202.55 302.185 202.555 302.186 202.558 302.192 202.554 302.196 201.614 303.068 200.644 304 199.643 304.996 187.722 316.846 183.002 331.656 182.569 333.078 182.554 333.127 182.597 333.171 182.647 333.156 184.07 332.731 198.898 328.109 210.819 316.259 215.725 311.382 219.125 307.234 221.268 303.799 226.192 304.074 231.121 304.248 236.049 304.296 252.804 304.466 269.537 303.424 286.148 301.605 286.155 301.605 286.181 301.601 286.189 301.601 288.004 301.378 289.265 299.641 288.86 297.81Z" fill="#D1D1D1"/><path d="M94.3345 274.723 69.3082 274.723C68.6172 274.723 68.0569 274.163 68.0569 273.472 68.0569 272.781 68.6172 272.221 69.3082 272.221L94.3345 272.221C95.0254 272.221 95.5857 272.781 95.5857 273.472 95.5857 274.163 95.0254 274.723 94.3345 274.723Z" fill="#E5E5E5"/><path d="M502.741 281.972C524.51 293.208 577.098 282.365 584.786 275.479 584.82 275.449 584.811 275.396 584.772 275.374 583.359 274.579 563.387 263.572 538.22 262.361 529.151 265.943 520.237 269.872 511.488 274.123 503.524 277.242 495.466 280.188 487.354 282.837 485.477 283.457 483.592 284.056 481.703 284.641 481.697 284.643 481.692 284.635 481.697 284.63 496.108 269.5 502.943 253.258 503.481 251.946 503.498 251.904 503.472 251.857 503.427 251.855 493.529 251.246 448.844 273.479 436.396 295.017 418.478 297.725 400.325 298.856 382.19 298.327 378.062 298.167 378.031 304.605 382.086 304.581 391.279 304.822 400.426 304.539 409.52 303.814 421.452 326.329 460.906 349.871 470.536 350.551 470.558 350.553 470.58 350.548 470.594 350.531 471.739 349.173 455.357 314.43 437.567 300.292 437.562 300.289 437.564 300.282 437.57 300.281 440.174 299.775 442.773 299.242 445.368 298.681 464.862 294.696 484.024 288.922 502.741 281.972Z" fill="#E5E5E5"/><path d="M450.548 331.298C450.217 331.298 449.886 331.168 449.64 330.908L427.117 307.132C426.642 306.631 426.663 305.839 427.164 305.363 427.666 304.888 428.457 304.909 428.934 305.412L451.457 329.187C451.932 329.688 451.911 330.48 451.409 330.956 451.168 331.185 450.858 331.298 450.548 331.298Z" fill="#D1D1D1"/><path d="M456.841 290.638C456.372 290.638 455.922 290.373 455.709 289.919 455.415 289.294 455.683 288.549 456.308 288.254 456.518 288.155 477.481 278.18 489.666 263.559 490.108 263.028 490.896 262.956 491.428 263.398 491.958 263.841 492.03 264.63 491.588 265.16 479.042 280.216 458.253 290.104 457.373 290.517 457.202 290.6 457.02 290.638 456.841 290.638Z" fill="#D1D1D1"/><path d="M549.815 274.723 531.045 274.723C530.354 274.723 529.794 274.163 529.794 273.472 529.794 272.781 530.354 272.221 531.045 272.221L549.815 272.221C550.506 272.221 551.067 272.781 551.067 273.472 551.067 274.163 550.507 274.723 549.815 274.723Z" fill="#D1D1D1"/><path d="M115.317 254.221C115.317 257.251 112.861 259.707 109.831 259.707 106.801 259.707 104.345 257.251 104.345 254.221 104.345 251.192 106.801 248.735 109.831 248.735 112.861 248.735 115.317 251.192 115.317 254.221Z" fill="#0E9DD4"/><path d="M228.666 318.347C227.379 319.972 225.018 320.247 223.393 318.96 221.768 317.673 221.494 315.312 222.781 313.686 224.068 312.061 226.429 311.787 228.054 313.074 229.679 314.361 229.952 316.722 228.666 318.347Z" fill="#0E9DD4"/><path d="M179.648 269.296C181.529 266.921 184.98 266.52 187.355 268.401 189.73 270.282 190.13 273.731 188.25 276.107 186.369 278.482 182.918 278.883 180.544 277.002 178.168 275.121 177.767 271.671 179.648 269.296Z" fill="#0E9DD4"/><path d="M179.648 253.319C181.529 250.944 184.98 250.542 187.355 252.424 189.73 254.305 190.13 257.754 188.25 260.13 186.369 262.505 182.918 262.906 180.544 261.025 178.168 259.144 177.767 255.694 179.648 253.319Z" fill="#0E9DD4"/><path d="M158.592 250.776C157.305 252.401 154.944 252.675 153.319 251.388 151.694 250.101 151.42 247.74 152.707 246.115 153.994 244.49 156.355 244.215 157.98 245.502 159.605 246.789 159.879 249.151 158.592 250.776Z" fill="#0E9DD4"/><path d="M532.968 249.506C532.968 252.536 530.512 254.992 527.482 254.992 524.452 254.992 521.996 252.536 521.996 249.506 521.996 246.477 524.452 244.02 527.482 244.02 530.512 244.02 532.968 246.477 532.968 249.506Z" fill="#0E9DD4"/><path d="M514.489 261.73C514.489 264.759 512.032 267.216 509.003 267.216 505.973 267.216 503.517 264.759 503.517 261.73 503.517 258.7 505.973 256.244 509.003 256.244 512.032 256.244 514.489 258.7 514.489 261.73Z" fill="#0E9DD4"/><path d="M483.205 243.921C483.205 246.951 480.749 249.407 477.719 249.407 474.69 249.407 472.233 246.951 472.233 243.921 472.233 240.891 474.69 238.435 477.719 238.435 480.749 238.435 483.205 240.891 483.205 243.921Z" fill="#0E9DD4"/><path d="M467.668 258.284C466.381 259.909 464.02 260.183 462.395 258.896 460.77 257.609 460.496 255.248 461.783 253.623 463.07 251.998 465.431 251.724 467.056 253.011 468.681 254.298 468.955 256.658 467.668 258.284Z" fill="#0E9DD4"/><path d="M241.57 266.276 238.453 263.16 238.453 245.655C238.453 245.032 238.027 244.453 237.412 244.353 236.628 244.225 235.95 244.828 235.95 245.588L235.95 260.641C235.95 260.647 235.943 260.649 235.939 260.645L217.733 242.44C217.292 241.999 216.583 241.892 216.077 242.256 215.432 242.72 215.379 243.625 215.916 244.163L239.854 268.1C240.098 268.345 240.419 268.467 240.739 268.467 241.089 268.467 241.44 268.321 241.691 268.027 242.126 267.521 242.041 266.748 241.57 266.276Z" fill="#D1D1D1"/><path d="M215.906 225.092C215.906 225.092 215.906 225.092 215.906 225.092 213.758 223.359 211.03 222.317 208.056 222.317 201.145 222.317 195.543 227.919 195.543 234.83 195.543 237.482 196.373 239.938 197.781 241.962 200.041 245.211 210.145 248.559 216.06 242.644 222.072 236.632 218.747 227.386 215.906 225.092Z" fill="#737373"/><path d="M208.055 247.343C209.572 247.343 211.019 247.059 212.365 246.565 214.5 245.635 216.32 242.45 214.76 239.135 213.764 237.017 210.275 236.287 207.729 236.287 203.561 236.465 199.922 238.673 197.783 241.958 197.782 241.961 197.782 241.963 197.783 241.966 200.044 245.214 203.799 247.343 208.055 247.343Z" fill="#505050"/><path d="M215.909 225.095C215.907 225.094 215.905 225.093 215.903 225.094 211.282 226.793 207.951 231.132 207.73 236.287 207.722 236.467 207.702 236.645 207.702 236.828 207.702 240.764 209.524 244.271 212.365 246.565 214.921 245.627 217.084 243.887 218.545 241.641 219.822 239.68 220.57 237.344 220.57 234.83 220.569 230.895 218.748 227.389 215.909 225.095Z" fill="#D1D1D1"/><path d="M249.428 232.095C249.427 232.095 249.427 232.095 249.428 232.095 249.135 229.351 247.943 226.684 245.839 224.581 240.952 219.695 233.03 219.695 228.143 224.581 226.268 226.457 225.118 228.78 224.683 231.208 223.983 235.104 228.931 244.725 236.991 244.725 245.18 244.725 249.815 235.726 249.428 232.095Z" fill="#0E9DD4"/><path d="M228.142 242.278C229.215 243.35 230.439 244.173 231.74 244.775 234.78 246.155 237.825 243.664 238.03 240.24 238.225 236.99 235.971 234.442 235.73 234.229 232.656 231.407 228.522 230.396 224.687 231.206 224.684 231.207 224.682 231.209 224.682 231.212 223.983 235.107 225.133 239.268 228.142 242.278Z" fill="#505050"/><path d="M249.428 232.099C249.428 232.096 249.426 232.094 249.424 232.093 244.954 230.027 239.532 230.739 235.73 234.228 235.597 234.35 235.458 234.462 235.329 234.591 232.545 237.375 231.353 241.143 231.741 244.774 234.21 245.916 236.969 246.216 239.592 245.661 241.881 245.177 244.062 244.054 245.839 242.276 248.621 239.496 249.814 235.729 249.428 232.099Z" fill="#737373"/><path d="M482.244 302.253C482.244 304.326 480.563 306.006 478.49 306.006 476.417 306.006 474.737 304.326 474.737 302.253 474.737 300.179 476.417 298.499 478.49 298.499 480.563 298.499 482.244 300.179 482.244 302.253Z" fill="#0E9DD4"/><path d="M508.542 331.441C503.42 326.34 497.251 324.23 494.762 326.726 492.012 329.488 487.519 334.001 484.769 336.762 482.282 339.262 484.418 345.423 489.542 350.524 494.627 355.587 503.194 355.243 503.323 355.237 503.326 355.237 503.324 355.239 503.324 355.235 503.327 355.163 503.414 352.698 502.727 349.647 505.782 350.32 508.245 350.223 508.318 350.219 508.321 350.219 508.319 350.221 508.319 350.217 508.322 350.145 508.409 347.681 507.723 344.629 510.778 345.303 513.241 345.205 513.313 345.202 513.317 345.202 513.315 345.204 513.315 345.201 513.32 345.072 513.627 336.504 508.542 331.441Z" fill="#0E9DD4"/><path d="M477.774 316.628C474.059 319.849 477.779 326.007 480.646 328.862 485.038 333.235 489.572 335.882 496.23 337.811 503.951 340.521 511.467 339.81 516.104 335.154 516.578 334.677 517.011 334.171 517.403 333.638 515.643 330.453 513.314 327.337 510.447 324.483 499.863 313.946 485.75 310.71 477.774 316.628Z" fill="#505050"/><path d="M496.229 337.812C494.482 332.903 491.353 327.917 486.959 323.545 484.093 320.69 480.967 318.375 477.773 316.629 477.242 317.023 476.737 317.458 476.263 317.934 475.789 318.41 475.356 318.917 474.964 319.45 469.082 327.452 472.378 341.55 482.963 352.087 485.829 354.942 488.955 357.257 492.149 359.003 492.68 358.609 493.184 358.173 493.658 357.697 498.296 353.04 498.973 345.52 496.229 337.812Z" fill="#737373"/><path d="M473.525 313.358 463.843 303.675C463.839 303.672 463.841 303.664 463.847 303.664L477.171 303.664C477.795 303.664 478.372 303.239 478.473 302.624 478.601 301.84 477.999 301.162 477.239 301.162L460.811 301.162C460.305 301.162 459.849 301.467 459.655 301.934 459.462 302.401 459.568 302.94 459.926 303.298L471.752 315.124C469.656 318.055 469.914 322.151 472.542 324.784 472.545 324.787 472.549 324.787 472.552 324.784L483.161 314.176C483.164 314.173 483.164 314.168 483.161 314.166 480.535 311.545 476.454 311.281 473.525 313.358Z" fill="#D1D1D1"/><path d="M431.357 260.631C430.875 257.323 419.948 256.176 406.951 258.07 405.165 258.33 403.435 258.636 401.777 258.976 401.77 258.977 401.766 258.969 401.771 258.965 403.014 257.881 404.27 256.725 405.526 255.5 414.927 246.329 420.657 236.954 418.322 234.56 415.987 232.167 406.474 237.662 397.072 246.834 395.91 247.967 394.805 249.103 393.763 250.23 393.759 250.234 393.751 250.23 393.753 250.224 394.113 248.644 394.443 247 394.733 245.303 396.948 232.357 396.073 221.406 392.777 220.842 389.482 220.279 385.015 230.316 382.8 243.262 382.526 244.861 382.3 246.431 382.119 247.954 382.119 247.961 382.11 247.962 382.108 247.956 381.471 246.467 380.771 244.942 380.008 243.399 374.191 231.624 367.045 223.278 364.047 224.759 361.05 226.24 363.336 236.986 369.153 248.761 370.662 251.815 372.289 254.619 373.851 257.119 374.705 258.484 383.516 258.682 387.727 262.893 391.938 267.104 392.732 276.727 393.691 277.428 396.249 279.297 399.318 281.072 402.623 282.808 414.251 288.915 424.937 291.466 426.492 288.507 428.046 285.547 419.88 278.197 408.253 272.09 407.196 271.535 406.148 271.01 405.113 270.516 405.107 270.513 405.109 270.505 405.115 270.504 406.287 270.379 407.484 270.229 408.699 270.052 421.693 268.157 431.839 263.94 431.357 260.631Z" fill="#E5E5E5"/><path d="M393.754 277.491C398.882 272.488 398.044 263.932 393.042 258.804 388.04 253.676 378.955 252.061 373.826 257.063L376.528 261.072C379.834 265.699 378.455 268.805 374.524 272.64L373.053 273.932C371.756 275.071 371.68 277.064 372.885 278.299L372.885 278.299C374.009 279.452 375.842 279.516 377.045 278.444L379.344 276.396C382.948 272.88 385.262 271.883 389.813 274.691L393.754 277.491Z" fill="#737373"/><path d="M401.462 236.755C402.906 234.096 404.076 231.318 405.204 228.522 405.746 227.114 406.294 225.709 406.797 224.284L407.17 223.213C407.29 222.854 407.438 222.507 407.506 222.126 407.647 221.366 407.638 220.54 407.164 219.511 406.379 217.806 407.124 215.787 408.829 215.001 410.534 214.216 412.553 214.961 413.339 216.666 414.124 218.371 413.379 220.39 411.674 221.176 411.554 221.231 411.43 221.279 411.308 221.32 410.231 221.672 409.62 222.227 409.158 222.848 408.925 223.157 408.771 223.501 408.589 223.833L408.058 224.835C407.356 226.173 406.697 227.53 406.034 228.885 404.751 231.614 403.51 234.361 402.542 237.228 402.437 237.537 402.102 237.703 401.792 237.599 401.483 237.495 401.317 237.159 401.421 236.85 401.433 236.817 401.447 236.784 401.462 236.755Z" fill="#E5E5E5"/><path d="M415.158 250.931C417.993 249.872 420.699 248.546 423.387 247.177 424.72 246.471 426.055 245.77 427.37 245.026L428.355 244.464C428.68 244.271 429.02 244.107 429.321 243.864 429.927 243.383 430.462 242.754 430.78 241.667 431.307 239.865 433.195 238.831 434.997 239.359 436.799 239.886 437.832 241.773 437.305 243.575 436.778 245.377 434.89 246.41 433.088 245.883 432.962 245.846 432.837 245.801 432.719 245.751 431.675 245.31 430.849 245.328 430.093 245.492 429.714 245.573 429.372 245.731 429.018 245.862L427.959 246.269C426.551 246.817 425.164 247.408 423.773 247.994 421.014 249.211 418.274 250.468 415.662 251.995 415.38 252.159 415.018 252.064 414.853 251.783 414.689 251.501 414.784 251.139 415.065 250.974 415.095 250.957 415.128 250.942 415.158 250.931Z" fill="#E5E5E5"/><path d="M174.893 333.97C173.381 330.91 171.794 328.164 170.207 325.675 169.886 325.171 162.549 324.529 156.716 318.695 151.467 313.446 150.906 305.687 150.29 305.258 147.707 303.46 144.701 301.646 141.423 299.924 129.795 293.816 119.109 291.265 117.554 294.224 116 297.185 124.166 304.535 135.793 310.641 136.922 311.234 138.041 311.792 139.144 312.316 139.15 312.318 139.149 312.327 139.142 312.328 137.875 312.458 136.58 312.617 135.261 312.809 122.264 314.703 112.119 318.92 112.601 322.228 113.083 325.537 124.01 326.683 137.006 324.789 138.763 324.533 140.465 324.234 142.098 323.901 142.105 323.9 142.109 323.907 142.104 323.912 140.917 324.953 139.717 326.061 138.519 327.229 129.117 336.401 123.388 345.776 125.723 348.169 128.058 350.563 137.572 345.067 146.973 335.896 148.134 334.762 149.24 333.626 150.281 332.5 150.286 332.496 150.294 332.5 150.292 332.506 149.932 334.086 149.602 335.73 149.311 337.427 147.096 350.373 147.972 361.325 151.267 361.888 154.563 362.452 159.03 352.414 161.245 339.468 161.518 337.869 161.745 336.3 161.925 334.776 161.926 334.77 161.934 334.768 161.937 334.774 162.574 336.263 163.274 337.788 164.037 339.331 169.854 351.107 177 359.452 179.997 357.971 182.995 356.491 180.71 345.745 174.893 333.97Z" fill="#0E9DD4"/><path d="M150.29 305.24C145.163 310.242 146 318.799 151.002 323.927 156.005 329.055 165.09 330.67 170.218 325.668L167.516 321.659C164.21 317.032 165.589 313.926 169.52 310.091L170.991 308.799C172.288 307.66 172.364 305.667 171.159 304.432L171.159 304.432C170.035 303.279 168.202 303.215 166.999 304.286L164.7 306.335C161.096 309.851 158.783 310.848 154.231 308.04L150.29 305.24Z" fill="#737373"/><path d="M142.842 345.715C141.398 348.375 140.228 351.153 139.1 353.949 138.558 355.357 138.011 356.762 137.507 358.187L137.134 359.258C137.014 359.616 136.867 359.963 136.798 360.344 136.657 361.105 136.666 361.931 137.14 362.96 137.925 364.665 137.18 366.684 135.475 367.47 133.77 368.255 131.751 367.509 130.965 365.804 130.179 364.099 130.926 362.081 132.631 361.295 132.75 361.239 132.874 361.191 132.996 361.151 134.073 360.799 134.685 360.244 135.146 359.623 135.379 359.313 135.533 358.97 135.715 358.637L136.246 357.636C136.949 356.298 137.607 354.941 138.27 353.586 139.553 350.857 140.794 348.109 141.762 345.243 141.867 344.934 142.202 344.768 142.512 344.872 142.821 344.976 142.987 345.312 142.883 345.621 142.872 345.654 142.857 345.687 142.842 345.715Z" fill="#E5E5E5"/><path d="M129.363 331.779C126.528 332.837 123.822 334.164 121.135 335.533 119.801 336.238 118.466 336.939 117.151 337.683L116.167 338.246C115.841 338.438 115.502 338.603 115.2 338.845 114.594 339.326 114.059 339.955 113.741 341.043 113.214 342.844 111.326 343.878 109.524 343.351 107.723 342.824 106.689 340.936 107.216 339.134 107.743 337.332 109.631 336.299 111.433 336.826 111.559 336.863 111.684 336.908 111.803 336.958 112.846 337.399 113.672 337.382 114.428 337.217 114.807 337.137 115.149 336.979 115.504 336.848L116.562 336.441C117.97 335.893 119.358 335.301 120.748 334.715 123.507 333.499 126.247 332.242 128.859 330.715 129.141 330.55 129.503 330.645 129.668 330.927 129.832 331.208 129.737 331.571 129.456 331.735 129.426 331.752 129.393 331.767 129.363 331.779Z" fill="#E5E5E5"/><path d="M402.483 330.264C413.418 341.006 407.391 364.849 389.023 383.518 370.655 402.188 346.9 408.615 335.965 397.873 331.011 393.006 329.543 385.451 331.124 376.906 332.559 369.15 318.25 347.532 315.214 340.256 311.14 330.496 310.375 318.808 316.655 312.426 322.934 306.043 334.644 306.608 344.479 310.512 351.811 313.422 373.686 327.351 381.422 325.785 389.945 324.059 397.53 325.398 402.483 330.264Z" fill="#0E9DD4"/><path d="M364.304 354.316C364.301 354.319 364.302 354.324 364.305 354.327 365.061 354.913 365.83 355.487 366.625 356.035 368.787 357.489 371.046 358.847 373.684 359.826 376.542 360.886 378.321 363.874 377.525 366.816 376.634 370.105 373.155 371.873 370.014 370.743 368.337 370.14 367.104 368.814 366.54 367.26 365.563 364.521 364.176 362.192 362.686 359.963 362.142 359.169 361.571 358.4 360.989 357.644 360.986 357.641 360.981 357.641 360.978 357.644 351.2 368.197 347.101 380.074 351.844 384.818 356.845 389.819 369.774 384.998 380.722 374.05 391.67 363.102 396.491 350.174 391.49 345.173 386.744 340.427 374.861 344.531 364.304 354.316Z" fill="#FFFFFF"/><path d="M295.833 375.954C294.267 368.218 308.196 346.343 311.106 339.011 313.65 332.602 314.774 325.396 313.483 319.417 316.55 319.459 319.63 318.318 321.97 315.978 326.565 311.382 326.565 303.932 321.97 299.337 317.374 294.741 309.924 294.741 305.328 299.337 303.133 301.532 301.998 304.381 301.901 307.257 295.714 305.706 288.081 306.942 281.362 309.746 274.086 312.783 252.468 327.093 244.711 325.658 236.166 324.076 228.611 325.545 223.745 330.498 213.003 341.433 219.43 365.188 238.099 383.557 256.768 401.925 280.611 407.951 291.353 397.017 296.22 392.062 297.559 384.478 295.833 375.954ZM316.978 304.329C318.816 306.168 318.816 309.148 316.978 310.986 315.139 312.824 312.159 312.824 310.321 310.986 308.483 309.148 308.483 306.168 310.321 304.329 312.159 302.491 315.139 302.491 316.978 304.329Z" fill="#D0D0D0"/><path d="M266.696 357.928C266.693 357.924 266.688 357.925 266.685 357.928 266.099 358.684 265.525 359.453 264.977 360.249 263.528 362.403 262.175 364.653 261.197 367.279 260.127 370.152 257.12 371.956 254.166 371.14 250.895 370.236 249.141 366.769 250.268 363.637 250.871 361.961 252.197 360.727 253.751 360.164 256.49 359.187 258.82 357.799 261.048 356.309 261.843 355.765 262.611 355.194 263.367 354.612 263.37 354.609 263.37 354.605 263.368 354.602 252.814 344.823 240.937 340.724 236.193 345.468 231.192 350.469 236.013 363.397 246.961 374.345 257.909 385.293 270.837 390.114 275.839 385.113 280.585 380.368 276.481 368.484 266.696 357.928Z" fill="#FFFFFF"/><path d="M387.288 312.264C373.966 311.355 363.869 307.518 357.276 300.862 355.575 299.144 354.432 297.578 353.327 296.063 351.668 293.79 349.952 291.439 346.772 289.181 343.243 286.675 339.091 285.121 334.361 284.491 334.355 284.49 334.353 284.48 334.36 284.478 342.707 281.694 349.292 281.611 354.03 284.257 355.168 284.893 356.483 285.845 357.875 286.852 362.284 290.041 368.322 294.409 376.989 294.742 377.341 294.755 377.693 294.762 378.046 294.762 381.001 294.762 383.982 294.289 386.922 293.352 388.883 292.726 390.081 290.631 389.487 288.66 388.879 286.639 386.735 285.522 384.736 286.168 382.245 286.974 379.727 287.334 377.276 287.24 370.88 286.994 366.308 283.687 362.275 280.769 360.699 279.629 359.211 278.553 357.69 277.703 353.114 275.147 347.687 274.284 341.338 275.12 343.08 273.192 344.709 271.065 346.132 268.712 360.069 245.659 350.154 237.215 346.782 235.176 342.403 232.527 337.152 232.648 331.994 235.514 326.955 238.315 322.041 243.636 317.391 251.33 314.101 256.773 312.361 262.628 311.502 268.028 308.74 261.162 304.621 253.883 298.464 247.725 290.222 239.483 282.423 234.319 275.283 232.378 268.2 230.454 261.843 231.848 257.383 236.308 253.904 239.788 244.444 253.034 268.8 277.391 282.467 291.059 301.658 294.715 309.561 295.667L309.561 304.598C309.561 306.653 311.145 308.446 313.199 308.508 315.325 308.571 317.068 306.867 317.068 304.755L317.068 293.452C328.087 290.563 336.61 291.174 342.424 295.303 344.607 296.852 345.778 298.458 347.261 300.489 348.47 302.147 349.842 304.026 351.94 306.145 359.876 314.159 371.635 318.739 386.891 319.762 386.976 319.768 387.061 319.771 387.146 319.771 389.258 319.771 391.01 318.004 390.89 315.795 390.789 313.893 389.188 312.394 387.288 312.264ZM323.818 255.214C328.757 247.043 332.974 243.56 335.642 242.077 337.193 241.215 338.637 240.784 339.964 240.784 341.018 240.784 341.998 241.056 342.898 241.6 347.8 244.565 346.577 253.466 339.708 264.828 334.036 274.21 324.099 279.592 318.464 282.032 318.46 282.034 318.455 282.031 318.454 282.027 317.998 275.899 318.145 264.597 323.818 255.214ZM262.693 241.617C264.415 239.894 266.608 239.03 269.24 239.03 270.499 239.03 271.858 239.227 273.314 239.623 279.093 241.194 285.954 245.831 293.155 253.033 304.363 264.242 307.965 280.325 309.083 288.003 309.084 288.008 309.081 288.011 309.076 288.01 301.397 286.892 285.316 283.289 274.11 272.083 261.193 259.165 256.819 247.491 262.693 241.617Z" fill="#0E9DD4"/></g></svg>