<svg width="624" height="624" xmlns="http://www.w3.org/2000/svg" xmlns:xlink="http://www.w3.org/1999/xlink" xml:space="preserve" overflow="hidden"><g><path d="M482.456 433.457C482.462 433.457 482.465 433.452 482.462 433.447 482.171 432.9 481.816 432.398 481.379 431.961L477.578 428.161C474.204 424.786 474.232 419.394 477.491 415.906 477.54 415.854 477.589 415.8 477.637 415.747 482.156 410.747 481.75 403.003 476.984 398.237L473.398 394.652C470.027 391.282 470.025 385.877 473.288 382.402 473.584 382.088 473.851 381.759 474.246 381.38 478.477 377.309 478.701 370.627 474.549 366.475L469.223 361.15C465.882 357.809 465.76 352.391 469.019 348.969 469.078 348.906 469.137 348.843 469.197 348.778 473.754 343.814 473.515 336.112 468.75 331.348L464.208 326.806C461.089 323.687 461.375 318.697 464.595 315.683 465.229 315.089 465.687 314.351 466.644 313.806 471.081 311.281 472.09 305.359 468.48 301.749L460.82 294.089C457.446 290.715 457.473 285.323 460.731 281.837 460.781 281.783 460.831 281.729 460.881 281.674 465.397 276.673 464.99 268.931 460.225 264.166L456.63 260.571C453.255 257.197 453.284 251.804 456.542 248.318 456.592 248.265 456.641 248.212 456.689 248.158 461.207 243.158 460.802 235.414 456.035 230.649L452.401 227.014C449.067 223.68 449.028 218.309 452.272 214.886 453.012 214.105 453.667 213.285 454.236 211.146 455.755 205.431 454.05 199.334 449.868 195.152L448.26 193.545C444.89 190.174 444.889 184.77 448.151 181.295 448.447 180.979 448.714 180.652 449.108 180.273 453.34 176.202 453.563 169.52 449.411 165.368L444.061 160.018C440.686 156.643 440.715 151.251 443.973 147.764 444.023 147.712 444.072 147.659 444.12 147.605 448.638 142.604 448.233 134.861 443.466 130.096L405.964 92.5931C401.056 87.685 393.097 87.685 388.188 92.5931L350.686 130.096C345.92 134.861 345.514 142.605 350.033 147.605 350.081 147.659 350.13 147.712 350.179 147.764 353.438 151.251 353.465 156.644 350.091 160.018L346.495 163.614C341.73 168.38 341.324 176.122 345.842 181.122 345.89 181.176 345.94 181.229 345.988 181.282 349.247 184.768 349.276 190.161 345.901 193.536L342.16 197.277C337.395 202.042 337.156 209.744 341.713 214.707 341.773 214.772 341.832 214.835 341.892 214.898 345.15 218.319 345.028 223.737 341.687 227.078L338.116 230.649C333.351 235.415 332.944 243.158 337.463 248.159 337.511 248.212 337.56 248.266 337.609 248.318 340.868 251.805 340.896 257.198 337.522 260.572L333.926 264.168C329.16 268.934 328.754 276.676 333.273 281.677 333.321 281.73 333.37 281.783 333.419 281.836 336.678 285.323 336.706 290.716 333.332 294.091L327.912 299.51C323.826 303.596 324.031 310.157 328.159 314.2 328.617 314.649 328.952 315.065 329.321 315.451 332.593 318.862 332.456 324.293 329.114 327.636L327.525 329.226C323.343 333.408 321.638 339.503 323.158 345.219 323.727 347.358 324.381 348.178 325.122 348.959 328.366 352.382 328.327 357.753 324.992 361.087L321.357 364.723C316.592 369.489 316.186 377.231 320.704 382.232 320.752 382.285 320.801 382.338 320.85 382.391 324.109 385.878 324.137 391.271 320.763 394.646L313.102 402.305C309.492 405.915 310.501 411.837 314.938 414.362 315.895 414.907 316.353 415.644 316.987 416.239 320.208 419.253 320.493 424.243 317.374 427.362L312.772 431.963C311.791 432.945 311.201 434.245 310.887 435.697 309.318 442.949 315.084 449.739 322.503 449.739L365.122 449.089C371.394 446.921 377.755 444.94 384.591 443.162 384.846 443.096 385.313 443.68 385.569 443.614 411.166 437.033 440.432 433.298 471.524 433.298 475.196 433.296 478.839 433.355 482.456 433.457Z" fill="#505050"/><path d="M387.943 436.337C387.993 436.285 388.042 436.231 388.09 436.178 392.608 431.177 392.203 423.434 387.436 418.668L383.841 415.074C380.467 411.7 380.494 406.307 383.752 402.821 383.802 402.767 383.851 402.713 383.901 402.659 388.419 397.658 388.011 389.915 383.245 385.15L379.651 381.556C376.277 378.181 376.304 372.789 379.563 369.301 379.612 369.249 379.661 369.196 379.71 369.142 384.229 364.142 383.822 356.398 379.057 351.632L375.461 348.037C372.087 344.662 372.115 339.27 375.374 335.784 375.423 335.731 375.472 335.678 375.52 335.624 380.039 330.623 379.632 322.88 374.867 318.115L371.272 314.519C367.897 311.145 367.924 305.753 371.182 302.267 371.233 302.214 371.283 302.159 371.332 302.104 375.849 297.103 375.441 289.361 370.676 284.596L367.082 281.001C363.707 277.627 363.735 272.234 366.994 268.748 367.043 268.695 367.092 268.642 367.14 268.588 371.659 263.588 371.253 255.845 366.487 251.079L362.892 247.484C359.518 244.109 359.546 238.717 362.805 235.23 362.854 235.177 362.903 235.124 362.951 235.071 367.47 230.07 367.064 222.327 362.298 217.561L358.702 213.966C355.328 210.592 355.354 205.199 358.613 201.713 358.663 201.659 358.713 201.605 358.762 201.551 363.28 196.55 362.872 188.807 358.106 184.042L354.512 180.448C351.137 177.073 351.166 171.681 354.424 168.194 354.474 168.141 354.522 168.088 354.57 168.035 359.089 163.034 358.684 155.291 353.917 150.525L316.415 113.023C311.507 108.114 303.548 108.114 298.639 113.023L261.137 150.525C256.371 155.291 255.965 163.034 260.484 168.035 260.532 168.088 260.581 168.141 260.63 168.194 263.888 171.681 263.916 177.074 260.542 180.448L256.946 184.044C252.18 188.809 251.775 196.552 256.293 201.552 256.341 201.606 256.391 201.659 256.439 201.711 259.698 205.198 259.726 210.591 256.352 213.966L252.756 217.561C247.991 222.327 247.584 230.069 252.103 235.071 252.152 235.124 252.201 235.177 252.249 235.23 255.508 238.716 255.536 244.109 252.162 247.484L248.566 251.079C243.801 255.845 243.394 263.588 247.913 268.588 247.961 268.642 248.01 268.695 248.059 268.748 251.318 272.234 251.347 277.627 247.972 281.001L244.376 284.597C239.61 289.363 239.205 297.105 243.723 302.106 243.771 302.16 243.82 302.213 243.87 302.266 247.128 305.753 247.157 311.145 243.782 314.52L240.187 318.115C235.421 322.881 235.015 330.624 239.533 335.624 239.582 335.678 239.631 335.731 239.68 335.784 242.939 339.27 242.967 344.663 239.592 348.038L235.997 351.632C231.232 356.398 230.825 364.142 235.344 369.142 235.392 369.196 235.441 369.249 235.49 369.301 238.749 372.788 238.777 378.181 235.403 381.556L231.808 385.152C227.042 389.917 226.636 397.66 231.154 402.661 231.202 402.714 231.251 402.767 231.301 402.82 234.559 406.307 234.588 411.7 231.213 415.074L227.618 418.669C222.852 423.435 222.446 431.178 226.964 436.179 227.013 436.232 227.062 436.285 227.111 436.338 230.369 439.824 230.397 445.217 227.023 448.592L223.222 452.392C222.241 453.374 221.651 454.674 221.337 456.126 219.768 463.378 225.534 470.168 232.954 470.168L322.855 470.168C339.124 459.152 360.604 450.027 385.579 443.609 385.249 441.055 386.041 438.372 387.943 436.337Z" fill="#D1D1D1"/><path d="M308.541 435.274 304.741 431.473C301.366 428.098 301.395 422.706 304.653 419.219 304.702 419.166 304.751 419.113 304.799 419.06 309.318 414.059 308.912 406.316 304.146 401.55L300.551 397.955C297.177 394.581 297.203 389.189 300.461 385.703 300.511 385.649 300.561 385.595 300.611 385.54 305.128 380.539 304.721 372.797 299.955 368.032L296.36 364.437C292.986 361.063 293.014 355.67 296.273 352.183 296.322 352.13 296.371 352.078 296.419 352.024 300.938 347.023 300.531 339.28 295.766 334.514L292.17 330.919C288.796 327.544 288.824 322.152 292.083 318.665 292.132 318.612 292.181 318.559 292.229 318.506 296.748 313.505 296.341 305.762 291.576 300.996L287.981 297.401C284.606 294.027 284.633 288.634 287.891 285.148 287.942 285.095 287.991 285.041 288.041 284.986 292.558 279.985 292.15 272.243 287.385 267.478L283.791 263.883C280.416 260.508 280.444 255.116 283.703 251.629 283.752 251.577 283.801 251.523 283.849 251.47 288.368 246.47 287.962 238.726 283.196 233.96L279.601 230.366C276.227 226.991 276.255 221.599 279.514 218.111 279.563 218.059 279.612 218.006 279.66 217.952 284.179 212.952 283.773 205.208 279.007 200.442L275.411 196.847C272.037 193.473 272.063 188.081 275.322 184.595 275.372 184.541 275.421 184.487 275.471 184.432 279.989 179.431 279.581 171.689 274.815 166.924L271.221 163.329C267.846 159.955 267.875 154.562 271.133 151.076 271.183 151.023 271.231 150.97 271.279 150.916 275.798 145.915 275.393 138.172 270.626 133.407L233.124 95.9042C228.216 90.9961 220.257 90.9961 215.348 95.9042L177.846 133.407C173.08 138.172 172.674 145.916 177.193 150.916 177.241 150.97 177.29 151.023 177.339 151.076 180.597 154.562 180.625 159.955 177.251 163.329L173.655 166.925C168.889 171.691 168.484 179.433 173.002 184.434 173.05 184.488 173.1 184.54 173.148 184.593 176.407 188.079 176.435 193.472 173.061 196.847L169.465 200.442C164.7 205.208 164.293 212.951 168.812 217.952 168.861 218.006 168.91 218.059 168.958 218.111 172.217 221.598 172.245 226.991 168.871 230.365L165.275 233.96C160.51 238.726 160.103 246.47 164.622 251.47 164.67 251.523 164.719 251.577 164.768 251.629 168.027 255.116 168.056 260.509 164.681 263.883L161.085 267.479C156.319 272.245 155.914 279.987 160.432 284.988 160.48 285.041 160.529 285.095 160.579 285.147 163.837 288.634 163.866 294.027 160.491 297.402L156.896 300.997C152.13 305.763 151.724 313.505 156.242 318.506 156.291 318.56 156.34 318.612 156.389 318.665 159.648 322.152 159.676 327.545 156.301 330.92L152.706 334.514C147.941 339.28 147.534 347.023 152.053 352.024 152.101 352.078 152.15 352.13 152.199 352.183 155.458 355.67 155.486 361.063 152.112 364.437L148.517 368.033C143.751 372.799 143.345 380.541 147.863 385.542 147.911 385.596 147.96 385.649 148.01 385.702 151.268 389.188 151.297 394.581 147.922 397.956L144.327 401.551C139.561 406.316 139.155 414.06 143.673 419.06 143.722 419.113 143.771 419.167 143.82 419.219 147.078 422.706 147.106 428.099 143.732 431.473L139.931 435.274C138.95 436.255 138.36 437.555 138.046 439.007 136.477 446.259 142.243 453.049 149.662 453.049L298.806 453.049C306.225 453.049 311.991 446.259 310.422 439.007 310.112 437.556 309.523 436.256 308.541 435.274Z" fill="#E5E5E5"/><path d="M221.955 404.065C201.299 396.668 182.479 384.133 170.47 365.787 170.466 365.782 170.473 365.774 170.479 365.778 182.252 374.852 196.049 383.026 210.5 386.625 211.607 386.901 212.761 386.989 213.891 386.833 225.599 385.215 228.78 367.622 216.91 362.676 196.162 355.126 177.323 342.07 166.233 322.834 166.229 322.827 166.237 322.821 166.243 322.825 174.86 330.126 184.66 336.056 195.124 340.233 203.149 344.586 212.997 347.419 217.985 337.168 226.285 314.063 183.715 323.507 162.51 280.298 162.507 280.292 162.515 280.285 162.521 280.29 172.295 289.361 184.978 295.526 197.387 300.741 211.121 306.673 220.41 286.293 206.747 279.87 186.262 272.235 167.997 258.574 159.405 238.191 159.403 238.185 159.411 238.179 159.416 238.184 166.638 244.841 174.993 250.325 184.22 254.327 187.18 255.42 193.939 259.463 197.162 259.143 208.347 259.548 212.197 242.836 201.642 238.456 182.994 231.386 166.096 218.923 158.295 200.221 158.293 200.214 158.3 200.208 158.306 200.213 164.348 205.672 171.228 210.244 178.762 213.698 186.103 217.295 196.455 223.259 201.555 212.907 209.274 192.432 168.528 201.786 154.865 158.43 152.249 149.103 137.998 149.081 135.383 158.431 129.512 178.452 112.738 192.251 93.7222 199.365 81.6296 204.974 90.0432 223.456 102.235 217.937 112.635 213.433 123.679 208.037 131.886 200.264 131.891 200.258 131.899 200.265 131.897 200.271 114.6 240.529 75.1972 231.561 82.873 252.686 88.1888 263.125 97.8757 258.149 105.733 254.24 115.084 250.242 123.544 244.726 130.846 238.01 130.851 238.006 130.859 238.012 130.857 238.018 122.143 258.586 103.553 272.081 82.8607 279.683 69.2289 286.013 78.2971 306.459 92.1427 300.59 104.761 295.333 117.72 289.225 127.663 280.038 127.668 280.033 127.676 280.039 127.673 280.046 105.725 323.526 63.0662 313.56 71.2146 336.848 76.2807 347.231 85.9774 344.319 94.2402 339.972 105.071 335.8 115.212 329.763 124.099 322.259 124.104 322.254 124.112 322.261 124.108 322.267 99.92 364.845 57.1941 354.834 65.3711 378.895 70.1389 389.164 80.1495 387.336 88.489 382.838 99.9914 378.583 110.602 372.479 119.976 364.907 119.982 364.903 119.99 364.91 119.986 364.916 107.652 383.766 88.0724 396.276 66.7355 403.585 50.7228 410.497 60.5936 434.496 76.8397 428.129 98.397 420.495 118.437 408.606 133.076 391.316L133.076 451.478 156.907 451.478 156.907 391.754C172.195 409.304 193.054 423.462 215.629 429.27 216.459 429.483 217.32 429.58 218.174 429.509 231.078 428.441 234.734 409.271 221.955 404.065Z" fill="#737373"/><path d="M557.929 409.821 551.444 407.003C551.274 406.93 551.104 406.86 550.931 406.793 532.586 399.76 517.179 386.564 507.21 369.917 507.206 369.91 507.214 369.904 507.22 369.909 518.478 379.532 531.716 386.872 545.746 390.883 548.347 391.627 551.168 391.481 553.563 390.222 561.558 386.016 562.708 372.596 552.856 368.421L545.68 365.248C545.536 365.185 545.393 365.124 545.247 365.067 526.987 357.831 512.311 344.438 503.487 327.369 503.484 327.362 503.492 327.356 503.498 327.361 513.825 336.562 526.142 343.721 539.259 347.796 547.015 350.206 555.062 344.202 554.356 336.11 554.03 332.375 551.954 328.813 547.766 327.014 547.766 327.014 539.898 323.485 539.899 323.484 515.866 313.876 507.116 298.343 501.429 286.188 501.427 286.181 501.434 286.176 501.439 286.181 511.477 295.179 523.574 302.104 536.36 305.786 538.217 306.321 540.21 306.365 542.023 305.696 550.114 302.711 551.872 289.424 542.661 285.6 542.661 285.6 534.101 281.716 534.102 281.715 495.523 265.813 501.865 231.758 486.141 232.164 468.195 232.815 480.736 266.472 429.304 285.507 416.402 291.402 425.32 311.002 438.214 305.24 450.12 300.573 461.495 294.218 471.015 285.895 471.02 285.89 471.027 285.895 471.024 285.902 465.258 298.559 455.552 315.324 423.88 326.828 410.218 333.176 419.353 353.595 433.161 347.734 446.21 342.761 458.575 335.902 468.941 326.911 468.946 326.906 468.954 326.913 468.95 326.919 458.557 346.635 439.751 360.801 418.477 368.139 404.035 374.717 413.497 396.302 428.087 390.235 441.559 385.262 454.415 378.265 465.397 369.091 465.403 369.087 465.411 369.093 465.407 369.1 453.811 388.29 434.735 402.214 413.098 409.441 406.662 412.172 403.659 419.604 406.39 426.039 411.122 436.318 421.233 434.459 429.507 429.982 446.766 423.598 462.022 413.054 474.094 399.623L474.094 441.706 497.924 441.706 497.924 399.914C511.949 415.711 530.469 427.822 550.592 433.481 553.078 434.18 555.758 434.126 558.115 433.067 567.109 429.027 568.6 414.264 557.929 409.821Z" fill="#E5E5E5"/><path d="M428.633 218.895C412.978 218.895 397.634 222.548 383.727 229.508L383.727 220.466C383.727 192.912 394.456 167.007 413.915 147.549L426.464 135.564 424.293 133.291 411.719 145.302C409.332 147.688 407.077 150.171 404.949 152.737L404.949 145.211C404.949 119.106 395.595 94.4417 378.485 75.0314 389.306 65.4264 404.439 52.1313 413.437 44.1044L409.212 39.2652C397.434 49.2089 385.262 59.2527 373.691 69.9237L370.404 66.6367 368.182 68.859 371.39 72.0668C352.932 89.3555 336.202 108.354 325.354 131.257 320.438 140.737 316.252 150.618 312.829 160.77 312.794 160.874 313.241 163.227 312.53 165.677 311.693 168.569 309.943 170.015 309.913 170.12 305.172 186.654 302.419 203.782 301.792 220.963 301.791 220.992 301.786 220.992 301.781 220.964 298.64 204.42 293.344 188.276 286.028 173.156L285.436 171.933C277.144 154.796 264.236 140.392 248.107 130.278 231.978 120.165 213.39 114.819 194.352 114.819L169.979 114.819 169.979 119.533 194.352 119.533C212.503 119.533 230.225 124.63 245.602 134.272 260.98 143.914 273.287 157.647 281.193 173.986L281.784 175.209C293.831 200.106 300.269 227.848 300.435 255.508 299.365 281.79 297.775 320.391 296.226 357.967 296.223 358.051 296.738 359.081 296.679 360.261 296.601 361.848 296.036 362.572 296.033 362.635 295.924 365.279 295.816 367.916 295.708 370.539 295.701 370.707 297.025 373.87 297.025 377.611 297.025 381.854 295.132 384.504 295.127 384.621 294.575 398.018 294.048 410.842 293.572 422.421 293.569 422.505 294.008 423.489 294.008 424.767 294.008 426.128 293.383 427.03 293.38 427.092 292.369 451.71 291.628 469.905 291.455 474.614 296.678 479.994 300.32 485.796 302.093 491.885 302.094 491.889 302.1 491.891 302.103 491.887 308.259 484.378 316.536 477.381 326.573 471.058 326.335 465.827 325.538 446.512 324.49 420.794 324.484 420.659 322.861 418.407 322.673 413.693 322.492 409.17 323.923 406.872 323.916 406.714 323.77 403.106 323.619 399.413 323.467 395.65 323.463 395.561 322.861 394.693 322.861 393.325 322.861 391.487 323.281 391.078 323.277 391 323.192 388.89 323.105 386.763 323.019 384.619 323.013 384.483 321.102 381.696 321.102 377.265 321.102 373.336 322.458 370.79 322.452 370.633 322.244 365.501 322.034 360.315 321.823 355.113 322.514 328.561 328.932 302.054 340.495 278.156L341.087 276.933C349.057 260.461 361.464 246.617 376.967 236.896 392.47 227.175 410.337 222.037 428.635 222.037L472.525 222.037 472.525 218.894 428.633 218.894ZM375.296 234.234C359.291 244.269 346.484 258.561 338.256 275.565L337.665 276.788C329.421 293.825 323.751 312.168 320.854 330.914 320.848 330.948 320.843 330.948 320.841 330.914 320.411 320.284 319.988 309.817 319.584 299.831 319.583 299.796 318.952 298.889 318.952 297.443 318.952 296.028 319.396 295.186 319.394 295.127 317.864 257.299 316.652 227.328 316.475 223.229 316.322 215.743 316.597 208.259 317.29 200.816 317.296 200.76 316.815 199.925 317.036 198.144 317.219 196.658 317.779 196.166 317.785 196.111 318.809 187.363 320.412 178.686 322.581 170.143 322.607 170.039 322.148 168.044 322.798 165.194 323.383 162.626 325.178 160.85 325.202 160.772 326.259 157.32 327.409 153.895 328.652 150.502 328.667 150.462 328.403 149.417 328.905 147.95 329.414 146.466 330.407 145.887 330.424 145.844 331.757 142.468 333.184 139.125 334.702 135.821 344.173 115.354 357.006 96.0765 372.974 79.9363 373.955 79.0582 375.014 78.1144 376.135 77.1173 392.733 95.9517 401.805 119.882 401.805 145.21L401.805 156.715C388.036 175.01 380.583 197.164 380.583 220.466L380.583 231.152C378.796 232.127 377.029 233.147 375.296 234.234Z" fill="#FFFFFF"/><path d="M295.124 384.689 323.02 384.689C322.832 380.04 322.64 375.316 322.446 370.546L295.706 370.546C295.51 375.311 295.316 380.034 295.124 384.689Z" fill="#D1D1D1"/><path d="M309.086 420.833 324.49 420.833C324.306 416.304 324.113 411.575 323.914 406.69L309.086 406.69 309.086 420.833Z" fill="#D1D1D1"/><path d="M309.896 170.178 322.573 170.178C323.375 167.015 324.258 163.871 325.214 160.749L312.839 160.749C311.786 163.868 310.803 167.012 309.896 170.178Z" fill="#D1D1D1"/><path d="M312.229 395.689 323.467 395.689C323.403 394.129 323.339 392.558 323.275 390.975L312.228 390.975 312.228 395.689Z" fill="#D1D1D1"/><path d="M305.943 357.973 296.225 357.973C296.16 359.547 296.095 361.119 296.031 362.688L305.943 362.688 305.943 357.973Z" fill="#D1D1D1"/><path d="M301.228 318.685 312.229 318.685 312.229 323.4 301.228 323.4Z" fill="#D1D1D1"/><path d="M313.8 200.823 317.29 200.823C317.437 199.249 317.606 197.678 317.79 196.108L313.801 196.108 313.801 200.823Z" fill="#D1D1D1"/><path d="M324.801 150.534 328.646 150.534C329.224 148.956 329.82 147.384 330.438 145.82L324.801 145.82 324.801 150.534Z" fill="#D1D1D1"/><path d="M309.086 299.827 319.585 299.827C319.521 298.243 319.457 296.672 319.394 295.113L309.087 295.113 309.087 299.827Z" fill="#D1D1D1"/><path d="M304.371 422.405 293.571 422.405C293.506 424.001 293.441 425.573 293.378 427.12L304.37 427.12 304.37 422.405Z" fill="#D1D1D1"/><path d="M260.369 295.899C262.412 287.316 267.442 266.185 283.942 258.183 297.231 251.737 303.882 257.494 316.944 250.325 330.617 242.82 327.938 233.682 340.517 229.895 350.949 226.754 363.097 232.099 368.804 234.61 373.579 236.71 370.99 235.936 373.519 237.752 374.542 236.538 388.466 223.609 403.377 223.609 426.831 223.609 428.505 248.5 428.521 248.751 428.521 248.755 428.518 248.753 428.514 248.753L408.091 248.753C408.091 248.753 371.431 245.406 352.657 248.339 338.089 250.615 320.723 256.134 307.146 265.94 295.285 274.506 288.025 283.639 279.228 299.042 267.305 319.916 265.179 332.581 261.941 332.043 258.108 331.407 256.329 312.869 260.369 295.899Z" fill="#FFFFFF"/><path d="M142.506 288.041 109.999 288.323C109.996 288.323 109.994 288.325 109.994 288.322 109.956 288.129 105.397 264.75 133.567 264.75 146.66 264.75 148.235 277.565 164.997 278.894 178.885 279.995 187.409 271.308 197.999 272.607 208.51 273.897 219.51 284.898 214.796 310.042 201.954 301.657 192.633 297.367 185.427 294.609 159.801 284.798 142.506 288.041 142.506 288.041Z" fill="#FFFFFF"/><path d="M364.918 243.846C354.711 243.846 344.636 245.387 334.99 248.349 332.476 212.512 349.846 179.624 377.246 157.294L372.932 152.777C343.504 176.687 325.87 212.255 328.743 250.491 297.661 261.698 275.543 288.896 265.297 319.703 256.461 183.836 257.48 123.278 358.545 44.1044L354.32 39.2652C325.489 63.9704 293.227 88.7425 275.084 122.811 275.134 92.4248 262.26 64.0257 240.088 43.3556L235.671 47.773C260.104 69.8549 270.989 101.993 268.839 134.482 235.977 209.046 249.885 234.198 241.854 344.939 230.286 318.05 207 296.635 179.032 287.894 177.318 256.587 188.965 226.173 212.201 204.929L207.784 200.511C183.92 222.531 171.338 253.711 172.785 286.108 158.887 282.051 138.151 283.182 123.648 283.059L123.648 289.306C138.236 289.436 158.856 288.231 172.785 292.575L172.785 292.577C205.815 300.824 230.713 327.946 241.266 359.7 238.719 423.931 236.25 441.325 235.453 458.784L272.934 458.784C272.464 440.575 268.997 409.387 266.044 337.942 287.42 259.195 333.949 245.658 408.808 250.092L408.808 243.846 364.918 243.846Z" fill="#505050"/><path d="M160.25 533.25C160.25 530.383 166.007 532.212 173.749 532.212 181.491 532.212 188.287 530.382 188.287 533.25 188.287 536.117 182.01 538.442 174.268 538.442 166.526 538.442 160.25 536.118 160.25 533.25Z" fill="#E5E5E5"/><path d="M122.912 520.819C122.912 518.625 127.317 520.025 133.241 520.025 139.165 520.025 144.365 518.625 144.365 520.819 144.365 523.013 140.34 523.875 134.416 523.875 128.492 523.875 122.912 523.013 122.912 520.819Z" fill="#E5E5E5"/><path d="M461.02 475.559C461.02 473.365 465.425 474.765 471.349 474.765 477.274 474.765 482.474 473.366 482.474 475.559 482.474 477.753 478.449 478.615 472.525 478.615 466.601 478.615 461.02 477.753 461.02 475.559Z" fill="#E5E5E5"/><path d="M204.372 141.379C206.022 143.029 205.613 145.649 204.365 146.985 203.054 148.387 200.385 149 198.567 147.182 196.928 145.543 197.293 143.17 198.364 141.82 199.626 140.232 202.335 139.341 204.372 141.379Z" fill="#FFFFFF"/><path d="M202.801 168.029C204.547 169.774 204.025 172.408 202.7 173.732 201.375 175.057 198.743 175.578 196.997 173.832 195.27 172.105 195.749 169.609 196.964 168.269 198.266 166.834 201.026 166.254 202.801 168.029Z" fill="#FFFFFF"/><path d="M143.084 190.078C144.726 191.721 144.327 194.333 143.089 195.671 141.781 197.083 139.04 197.643 137.279 195.881 135.693 194.295 136.03 191.665 137.241 190.325 138.542 188.885 141.371 188.365 143.084 190.078Z" fill="#FFFFFF"/><path d="M158.173 362.029C158.582 364.707 156.309 366.979 153.633 366.569 151.965 366.313 150.601 364.95 150.346 363.281 149.936 360.604 152.209 358.331 154.886 358.741 156.554 358.997 157.917 360.361 158.173 362.029Z" fill="#FFFFFF"/><path d="M157.353 219.889C159.035 221.571 158.592 224.172 157.335 225.507 156.023 226.9 153.42 227.564 151.549 225.692 149.869 224.012 150.281 221.627 151.388 220.278 152.661 218.728 155.431 217.967 157.353 219.889Z" fill="#FFFFFF"/><path d="M141.512 372.325C143.215 374.028 142.74 376.68 141.432 378.007 140.11 379.348 137.485 379.905 135.708 378.128 134.143 376.564 134.447 374 135.597 372.654 136.883 371.15 139.632 370.445 141.512 372.325Z" fill="#FFFFFF"/><path d="M369.315 383.326C371.14 385.151 370.543 387.679 369.236 389.006 367.915 390.349 365.273 390.892 363.511 389.129 361.769 387.388 362.263 384.903 363.481 383.563 364.784 382.13 367.463 381.474 369.315 383.326Z" fill="#FFFFFF"/><path d="M424.384 179.095C426.128 180.839 425.599 183.519 424.242 184.838 422.912 186.131 420.402 186.722 418.579 184.898 416.913 183.232 417.312 180.816 418.43 179.469 419.708 177.931 422.466 177.178 424.384 179.095Z" fill="#FFFFFF"/><path d="M405.526 293.75C407.428 295.652 406.771 297.998 405.538 299.336 404.231 300.754 401.467 301.299 399.721 299.553 397.979 297.81 398.471 295.349 399.673 294.008 400.972 292.558 403.704 291.928 405.526 293.75Z" fill="#FFFFFF"/><path d="M354.678 354.171C355.087 356.849 352.814 359.121 350.137 358.711 348.47 358.455 347.106 357.092 346.85 355.423 346.441 352.746 348.714 350.473 351.391 350.884 353.059 351.14 354.422 352.503 354.678 354.171Z" fill="#FFFFFF"/><path d="M477.711 336.243C479.252 337.783 479.243 340.29 477.691 341.841 476.14 343.393 473.633 343.402 472.093 341.861 470.552 340.32 470.561 337.814 472.112 336.263 473.664 334.711 476.171 334.702 477.711 336.243Z" fill="#FFFFFF"/><path d="M507.048 382.524C507.458 385.202 505.185 387.474 502.508 387.064 500.84 386.809 499.476 385.445 499.221 383.776 498.811 381.099 501.084 378.826 503.761 379.237 505.43 379.493 506.793 380.856 507.048 382.524Z" fill="#FFFFFF"/><path d="M289.168 226.175C290.774 227.78 290.449 230.116 289.425 231.466 288.182 233.108 285.331 233.945 283.364 231.978 281.653 230.268 282.093 227.932 283.187 226.583 284.456 225.019 287.191 224.197 289.168 226.175Z" fill="#FFFFFF"/><path d="M271.955 555.383 271.955 511.269 249.233 511.269 249.233 536.262 260.022 568.024C266.725 568.071 270.365 561.831 271.955 555.383Z" fill="#E5E5E5"/><path d="M280.091 583.977 296.949 583.977 296.949 583.977C296.949 572.683 287.793 563.528 276.5 563.528L271.955 563.528 271.955 555.383C266.848 558.337 262.684 562.736 260.023 568.025L260.729 570.105C263.546 578.399 271.333 583.977 280.091 583.977Z" fill="#D1D1D1"/><path d="M286.987 584.735C286.569 584.735 286.23 584.396 286.23 583.978 286.23 580.278 283.221 577.268 279.521 577.268 279.102 577.268 278.764 576.929 278.764 576.511 278.764 576.093 279.103 575.754 279.521 575.754 284.056 575.754 287.745 579.443 287.745 583.978 287.745 584.395 287.405 584.735 286.987 584.735Z" fill="#E5E5E5"/><path d="M292.588 584.735C292.169 584.735 291.83 584.396 291.83 583.978 291.83 577.19 286.308 571.667 279.52 571.667 279.102 571.667 278.763 571.328 278.763 570.91 278.763 570.492 279.102 570.153 279.52 570.153 287.143 570.153 293.346 576.354 293.346 583.978 293.345 584.395 293.006 584.735 292.588 584.735Z" fill="#E5E5E5"/><path d="M357.378 518.844 325.721 563.528 325.721 563.528C325.721 574.822 334.877 583.977 346.171 583.977L362.075 583.977 362.075 581.704C362.075 572.92 354.955 565.8 346.171 565.8L377.979 521.03 357.378 518.844Z" fill="#E5E5E5"/><path d="M357.531 584.735C357.113 584.735 356.774 584.396 356.774 583.978 356.774 577.19 351.252 571.667 344.464 571.667 344.046 571.667 343.706 571.328 343.706 570.91 343.706 570.492 344.046 570.153 344.464 570.153 352.087 570.153 358.289 576.354 358.289 583.978 358.289 584.395 357.949 584.735 357.531 584.735Z" fill="#D1D1D1"/><path d="M308.309 511.269C308.309 511.269 335.566 523.302 358.287 525.574 376.921 527.437 394.527 522.172 400.261 520.216 419.653 518.467 429.48 508.912 429.48 508.912 429.48 508.912 436.454 457.485 473.408 452.866 485.522 451.352 513.999 446.072 517.043 438.502 517.044 438.498 517.042 438.493 517.039 438.493 440.05 418.315 315.258 486.605 308.309 511.269Z" fill="#F1F1F1"/><path d="M474.923 411.968 474.923 379.895C474.923 378.783 473.578 378.225 472.79 379.012L461.328 395.345C458.346 399.593 456.746 404.657 456.746 409.848L456.746 413.234C456.746 413.234 458.475 419.524 465.625 419.524 472.775 419.524 474.923 411.968 474.923 411.968Z" fill="#FBE01B"/><path d="M490.071 425.6C487.617 424.987 486.156 422.386 485.288 419.508 483.628 414.005 478.544 410.243 472.8 410.022L461.29 409.579 461.29 379.895C461.29 378.782 459.945 378.225 459.157 379.012L447.695 395.345C444.712 399.593 443.113 404.657 443.113 409.848L443.113 410.506C435.352 418.107 396.875 450.859 310.024 450.859L116.492 450.14C110.378 450.14 103.582 458.646 102.599 465.415 101.039 476.161 106.911 489.551 111.541 492.221 157.788 516.903 217.065 489.124 249.036 469.797 245.426 484.118 237.947 497.315 227.242 507.853L214.539 520.358 214.539 565.801C216.618 575.157 225.902 583.978 235.487 583.978L255.437 583.978C255.437 573.94 247.298 565.801 237.26 565.801L232.716 565.801C232.716 551.997 243.905 540.808 257.709 540.808L263.559 540.808C279.074 540.808 298.054 528.856 304.229 519.431 306.96 515.263 308.209 511.204 308.612 510.81 311.437 508.057 325.719 498.415 373.435 520.359L373.435 527.175 401.239 570.296C412.151 575.353 415.618 560.62 413.509 551.804L398.035 518.006C395.773 503.198 411.438 466.822 437.054 449.923 458.335 435.885 516.134 438.466 516.81 438.496 516.814 438.496 516.813 438.498 516.814 438.495 516.817 438.442 516.816 437.369 516.816 437.369 516.816 433.322 514.108 429.874 510.112 429.231 510.072 429.224 510.032 429.218 509.991 429.211 503.337 428.137 493.836 426.542 490.071 425.6Z" fill="#FBE01B"/><path d="M509.762 430.987C509.762 434.669 511.943 437.735 514.832 438.417 515.843 438.446 516.99 438.492 517.043 438.494 517.047 438.494 517.045 438.491 517.045 438.487L517.046 430.323C517.046 430.323 514.023 429.859 509.944 429.201 509.83 429.775 509.762 430.371 509.762 430.987Z" fill="#505050"/><path d="M475.68 422.95C475.68 424.832 474.155 426.358 472.272 426.358 470.39 426.358 468.865 424.832 468.865 422.95 468.865 421.068 470.39 419.542 472.272 419.542 474.155 419.542 475.68 421.068 475.68 422.95Z" fill="#505050"/><path d="M458.739 408.938 456.737 408.938C452.726 408.938 449.814 405.099 450.926 401.244 452.106 397.16 454.374 392.097 458.739 387.732L458.739 408.938Z" fill="#FFFFFF"/><path d="M498.402 432.88C498.402 433.508 497.893 434.017 497.266 434.017 496.638 434.017 496.129 433.508 496.129 432.88 496.129 432.253 496.638 431.744 497.266 431.744 497.893 431.744 498.402 432.253 498.402 432.88Z" fill="#505050"/><path d="M501.431 441.212C501.431 441.839 500.923 442.348 500.295 442.348 499.668 442.348 499.159 441.839 499.159 441.212 499.159 440.584 499.668 440.075 500.295 440.075 500.923 440.075 501.431 440.584 501.431 441.212Z" fill="#D1D1D1"/><path d="M506.733 435.152C506.733 435.78 506.224 436.288 505.597 436.288 504.969 436.288 504.46 435.78 504.46 435.152 504.46 434.525 504.969 434.016 505.597 434.016 506.224 434.016 506.733 434.525 506.733 435.152Z" fill="#505050"/><path d="M122.654 468.339C122.654 461.794 120.427 455.616 116.492 450.139L75.0282 450.188C82.5493 470.273 95.5194 483.669 111.542 492.22 118.525 485.514 122.654 477.266 122.654 468.339Z" fill="#F1F1F1"/><path d="M269.726 541.716C269.379 541.716 269.066 541.476 268.988 541.123 268.897 540.715 269.154 540.311 269.562 540.22 269.664 540.197 279.813 537.892 289.815 531.771 303.121 523.628 309.867 512.958 309.867 500.06 309.867 499.642 310.207 499.303 310.625 499.303 311.043 499.303 311.382 499.642 311.382 500.06 311.382 513.344 304.186 524.764 290.57 533.084 280.356 539.326 269.994 541.675 269.89 541.698 269.835 541.709 269.78 541.716 269.726 541.716Z" fill="#FFFFFF"/><path d="M401.24 570.294 406.449 578.371C410.247 581.97 415.282 583.977 420.515 583.977L443.872 583.977C443.872 572.683 434.717 563.528 423.423 563.528L418.879 563.528 413.51 551.802C407.883 556.76 403.601 563.113 401.24 570.294Z" fill="#D1D1D1"/><path d="M433.163 584.735C432.745 584.735 432.405 584.396 432.405 583.978 432.405 580.278 429.395 577.268 425.695 577.268 425.277 577.268 424.938 576.929 424.938 576.511 424.938 576.093 425.277 575.754 425.695 575.754 430.23 575.754 433.921 579.443 433.921 583.978 433.921 584.395 433.581 584.735 433.163 584.735Z" fill="#737373"/><path d="M438.763 584.735C438.345 584.735 438.006 584.396 438.006 583.978 438.006 577.19 432.483 571.667 425.695 571.667 425.277 571.667 424.938 571.328 424.938 570.91 424.938 570.492 425.277 570.153 425.695 570.153 433.319 570.153 439.521 576.354 439.521 583.978 439.52 584.395 439.181 584.735 438.763 584.735Z" fill="#737373"/><path d="M245.905 584.735C245.487 584.735 245.148 584.396 245.148 583.978 245.148 580.278 242.138 577.268 238.438 577.268 238.02 577.268 237.681 576.929 237.681 576.511 237.681 576.093 238.02 575.754 238.438 575.754 242.973 575.754 246.663 579.443 246.663 583.978 246.663 584.395 246.324 584.735 245.905 584.735Z" fill="#505050"/><path d="M251.506 584.735C251.087 584.735 250.749 584.396 250.749 583.978 250.749 577.19 245.226 571.667 238.438 571.667 238.02 571.667 237.681 571.328 237.681 570.91 237.681 570.492 238.02 570.153 238.438 570.153 246.061 570.153 252.264 576.354 252.264 583.978 252.264 584.395 251.924 584.735 251.506 584.735Z" fill="#505050"/></g></svg>