<svg width="624" height="624" xmlns="http://www.w3.org/2000/svg" xmlns:xlink="http://www.w3.org/1999/xlink" xml:space="preserve" overflow="hidden"><g><path d="M448.024 314.7 441.271 309.556C439.664 308.332 439.733 305.851 441.449 304.785 443.891 303.267 445.634 300.596 445.665 297.269 445.692 294.384 444.278 291.675 441.982 289.927L435.547 285.025C433.886 283.76 434.081 281.23 435.893 280.191 438.504 278.693 440.389 275.91 440.389 272.414 440.389 269.612 439.081 266.972 436.852 265.274L428.939 259.134C427.376 257.922 427.483 255.515 429.162 254.469 431.59 252.955 434.31 250.633 434.358 247.806 434.407 244.889 432.969 242.144 430.648 240.376L412.175 226.305C410.748 225.218 408.77 225.218 407.343 226.305L388.87 240.376C386.549 242.144 385.111 244.889 385.16 247.806 385.208 250.62 387.905 252.936 390.326 254.45 392.016 255.507 392.153 257.912 390.579 259.134L382.666 265.274C380.437 266.971 379.129 269.612 379.129 272.414 379.129 275.909 381.014 278.693 383.625 280.191 385.437 281.23 385.632 283.76 383.971 285.025L377.536 289.926C375.241 291.674 373.827 294.384 373.854 297.268 373.885 300.596 375.627 303.267 378.071 304.785 379.786 305.85 379.855 308.331 378.249 309.555L371.491 314.701C369.246 316.412 367.845 319.047 367.824 321.87 367.787 326.951 371.726 330.544 376.114 330.903L443.402 330.903C447.797 330.543 451.742 326.939 451.691 321.845 451.667 319.032 450.264 316.406 448.024 314.7Z" fill="#737373"/><path d="M232.758 366.759C232.819 366.759 232.842 366.687 232.796 366.648 230.826 365.004 230.963 361.854 233.169 360.483 236.328 358.52 238.595 355.093 238.711 350.82 238.817 346.929 236.913 343.253 233.816 340.894L225.406 334.488C223.245 332.842 223.433 329.501 225.798 328.164 229.266 326.203 231.776 322.524 231.776 317.897 231.776 314.211 230.055 310.738 227.124 308.504L216.714 300.427C214.659 298.832 214.799 295.666 217.007 294.289 220.202 292.298 223.78 289.242 223.843 285.524 223.908 281.687 222.016 278.076 218.962 275.751L194.661 257.24C192.783 255.81 190.182 255.81 188.304 257.24L164.003 275.751C160.95 278.077 159.057 281.687 159.122 285.525 159.185 289.241 162.759 292.295 165.952 294.286 168.163 295.665 168.31 298.83 166.251 300.427L155.841 308.505C152.91 310.738 151.189 314.212 151.189 317.897 151.189 322.525 153.699 326.203 157.167 328.164 159.531 329.501 159.719 332.842 157.559 334.488L149.149 340.894C146.052 343.253 144.148 346.929 144.254 350.821 144.37 355.094 146.638 358.522 149.796 360.484 152.003 361.854 152.139 365.004 150.17 366.648 150.124 366.687 150.147 366.759 150.207 366.759L232.758 366.759Z" fill="#737373"/><path d="M283.884 323.487 276.506 317.866C274.75 316.529 274.826 313.818 276.701 312.654 279.37 310.996 281.273 308.077 281.307 304.442 281.337 301.291 279.791 298.33 277.284 296.421L270.253 291.065C268.438 289.683 268.652 286.918 270.631 285.784 273.484 284.147 275.543 281.106 275.543 277.287 275.543 274.226 274.114 271.341 271.679 269.487L263.034 262.779C261.327 261.454 261.444 258.825 263.277 257.682 265.931 256.028 268.902 253.49 268.954 250.402 269.008 247.215 267.437 244.217 264.9 242.286L244.718 226.912C243.159 225.724 240.999 225.724 239.439 226.912L219.257 242.286C216.721 244.217 215.149 247.215 215.203 250.402 215.255 253.477 218.202 256.006 220.847 257.661 222.693 258.815 222.843 261.444 221.123 262.779L212.478 269.487C210.043 271.341 208.614 274.227 208.614 277.287 208.614 281.106 210.673 284.147 213.527 285.784 215.506 286.918 215.719 289.683 213.905 291.065L206.874 296.42C204.367 298.33 202.821 301.291 202.851 304.442 202.886 308.078 204.789 310.997 207.458 312.655 209.332 313.819 209.408 316.529 207.653 317.866L200.27 323.489C197.817 325.357 196.286 328.236 196.264 331.321 196.223 336.872 200.526 340.798 205.321 341.19L278.837 341.19C283.639 340.797 287.949 336.859 287.894 331.294 287.864 328.219 286.331 325.35 283.884 323.487Z" fill="#505050"/><path d="M410.324 284.8 403.571 279.656C401.964 278.432 402.033 275.951 403.749 274.885 406.191 273.367 407.934 270.696 407.965 267.369 407.992 264.484 406.578 261.775 404.282 260.027L397.847 255.125C396.186 253.86 396.381 251.33 398.193 250.291 400.804 248.793 402.689 246.01 402.689 242.514 402.689 239.712 401.381 237.072 399.152 235.374L391.239 229.234C389.676 228.022 389.783 225.615 391.462 224.569 393.89 223.055 396.61 220.733 396.658 217.906 396.707 214.989 395.269 212.244 392.948 210.476L374.475 196.405C373.048 195.318 371.07 195.318 369.643 196.405L351.17 210.476C348.849 212.244 347.411 214.989 347.46 217.906 347.508 220.72 350.205 223.036 352.626 224.55 354.316 225.607 354.453 228.012 352.879 229.234L344.966 235.374C342.737 237.071 341.429 239.712 341.429 242.514 341.429 246.009 343.314 248.793 345.925 250.291 347.737 251.33 347.932 253.86 346.271 255.125L339.836 260.026C337.541 261.774 336.127 264.484 336.154 267.368 336.185 270.696 337.927 273.367 340.371 274.885 342.086 275.95 342.155 278.431 340.549 279.655L333.791 284.801C331.546 286.512 330.145 289.147 330.124 291.97 330.087 297.051 334.026 300.644 338.414 301.003L405.702 301.003C410.097 300.643 414.042 297.039 413.991 291.945 413.967 289.132 412.564 286.506 410.324 284.8Z" fill="#D0D0D0"/><path d="M526.927 412.394 517.051 404.871C514.701 403.081 514.803 399.452 517.312 397.894 520.885 395.674 523.431 391.768 523.477 386.901 523.517 382.683 521.449 378.721 518.093 376.164L508.682 368.996C506.252 367.146 506.538 363.446 509.187 361.926 513.007 359.736 515.763 355.666 515.763 350.553 515.763 346.456 513.85 342.594 510.591 340.112L499.019 331.133C496.735 329.36 496.891 325.84 499.345 324.31 502.897 322.096 506.875 318.7 506.944 314.566 507.016 310.3 504.913 306.286 501.518 303.701L474.503 283.123C472.416 281.533 469.524 281.533 467.436 283.123L440.421 303.701C437.027 306.286 434.923 310.3 434.995 314.566 435.064 318.683 439.009 322.068 442.55 324.282 445.021 325.828 445.222 329.347 442.92 331.133L431.348 340.112C428.089 342.594 426.176 346.456 426.176 350.553 426.176 355.666 428.932 359.736 432.752 361.926 435.401 363.446 435.687 367.146 433.257 368.997L423.847 376.164C420.491 378.721 418.422 382.684 418.462 386.902 418.507 391.769 421.055 395.675 424.628 397.894 427.136 399.452 427.238 403.081 424.889 404.87L415.007 412.397C411.723 414.898 409.674 418.752 409.644 422.88 409.589 430.311 415.349 435.566 421.767 436.091L520.171 436.091C526.599 435.566 532.367 430.294 532.294 422.845 532.254 418.727 530.202 414.888 526.927 412.394Z" fill="#737373"/><path d="M428.28 220.753 454.28 220.753 454.28 237.441 428.28 237.441Z" fill="#2F2F2F"/><path d="M428.405 233.299C428.466 233.086 429.669 229.167 433.605 228.099 435.317 227.634 437.118 227.824 438.695 228.567 440.494 229.416 442.502 229.618 444.482 229.417 444.744 229.391 445.019 229.382 445.305 229.399 447.533 229.521 449.549 231.045 450.505 233.299 450.505 233.299 450.115 237.484 439.325 237.484 428.535 237.484 428.405 233.299 428.405 233.299Z" fill="#FFFFFF"/><path d="M462.331 362.08 432.18 362.08 432.18 238.94 441.279 233.29 457.005 233.29Z" fill="#E4E4E4"/><path d="M441.28 362.08 419.305 362.08 425.805 233.29 441.28 233.29Z" fill="#D0D0D0"/><path d="M457.006 245.64 457.006 244.34 425.806 244.34 425.806 245.64 432.956 245.64 432.956 250.84 425.806 250.84 425.806 252.14 448.556 252.14 448.556 257.34 425.806 257.34 425.806 258.64 436.678 258.64 436.678 263.84 425.806 263.84 425.806 265.14 457.006 265.14 457.006 263.84 437.978 263.84 437.978 258.64 457.006 258.64 457.006 257.34 449.856 257.34 449.856 252.14 457.006 252.14 457.006 250.84 434.256 250.84 434.256 245.64Z" fill="#F2F2F2"/><path d="M443.567 213.73C443.548 213.764 443.502 213.771 443.47 213.749 436.534 209.103 435.44 205.744 435.44 203.387 435.44 182.933 456.661 179.269 453.935 174.489 448.864 165.598 429.285 174.618 421.569 165.242 415.237 157.546 424.435 146.619 418.101 138.656 411.302 130.107 399.593 125.69 390.359 119.006 375.513 108.258 371.186 71.8224 400.763 56.587 427.266 42.9351 455.647 56.9517 460.87 77.3935 464.448 91.3965 459.67 108.137 465.494 123.63 471.024 138.343 489.945 132.798 499.015 147.904 506.202 159.876 505.159 179.496 495.547 188.361 485.131 197.968 473.371 185.364 455.114 194.492 443.63 200.234 445.369 210.657 443.567 213.73Z" fill="#E8E8E8"/><path d="M262.005 365.24 473.905 365.24 473.905 449.09 262.005 449.09Z" fill="#505050"/><path d="M408.905 390.59 428.405 390.59 428.405 410.09 408.905 410.09Z" fill="#FBE01B"/><path d="M408.905 416.59 428.405 416.59 428.405 436.09 408.905 436.09Z" fill="#FBE01B"/><path d="M315.305 390.59 334.805 390.59 334.805 410.09 315.305 410.09Z" fill="#737373"/><path d="M315.305 416.59 334.805 416.59 334.805 436.09 315.305 436.09Z" fill="#737373"/><path d="M289.305 390.59 308.805 390.59 308.805 410.09 289.305 410.09Z" fill="#737373"/><path d="M289.305 416.59 308.805 416.59 308.805 436.09 289.305 436.09Z" fill="#737373"/><path d="M340.005 390.59 359.505 390.59 359.505 410.09 340.005 410.09Z" fill="#737373"/><path d="M340.005 416.59 359.505 416.59 359.505 436.09 340.005 436.09Z" fill="#737373"/><path d="M480.405 436.09 256.664 436.09 256.577 447.676 275.006 458.169C297.138 460.124 302.829 475.182 330.906 477.69 367.527 480.96 378.847 459.457 416.706 462.09 437.167 463.512 453.751 471.177 465.191 478.091L479.838 478.091 480.405 436.09Z" fill="#E4E4E4"/><path d="M372.395 449.74 372.395 448.44 340.545 448.44 340.545 443.24 356.795 443.24 356.795 441.94 278.905 441.94 278.905 443.24 295.068 443.24 295.068 448.44 289.305 448.44 289.305 449.74 309.455 449.74 309.455 454.94 295.805 454.94 295.805 456.24 314.655 456.24 314.655 461.44 306.094 461.44 306.094 462.74 345.094 462.74 345.094 461.44 340.544 461.44 340.544 456.24 371.094 456.24 371.094 454.94 330.343 454.94 330.343 449.74 372.395 449.74ZM296.367 448.44 296.367 443.24 314.656 443.24 314.656 448.44 296.367 448.44ZM310.756 454.94 310.756 449.74 329.044 449.74 329.044 454.94 310.756 454.94ZM339.245 456.24 339.245 461.44 315.956 461.44 315.956 456.24 339.245 456.24ZM315.956 448.44 315.956 443.24 339.245 443.24 339.245 448.44 315.956 448.44Z" fill="#F0F0F0"/><path d="M438.793 436.545C438.798 436.545 438.803 436.543 438.801 436.539 438.579 436.217 430.521 424.588 423.862 424.092 418.632 423.702 417.166 427.249 411.408 429.074 396.902 433.672 387.397 416.081 371.558 419.112 362.444 420.855 363.618 427.058 354.124 429.074 345.313 430.944 328.88 421.09 319.255 419.112 311.557 417.529 286.884 419.111 281.897 436.537 281.896 436.541 281.899 436.546 281.904 436.546L438.793 436.546Z" fill="#FFFFFF"/><path d="M215.985 280.784 158.005 358.09 158.005 459.854C158.005 459.857 158.007 459.859 158.01 459.86 174.881 463.417 187.425 473.328 211.305 472.49 236.664 471.6 239.622 460.215 264.605 458.19 268.468 457.877 271.898 457.894 275.005 458.169L275.005 436.09 275.005 358.09 217.025 280.784C216.765 280.437 216.245 280.437 215.985 280.784Z" fill="#737373"/><path d="M205.558 390.59 225.058 390.59 225.058 410.09 205.558 410.09Z" fill="#FBE01B"/><path d="M230.805 390.59 250.305 390.59 250.305 410.09 230.805 410.09Z" fill="#FBE01B"/><path d="M205.558 416.59 225.058 416.59 225.058 436.09 205.558 436.09Z" fill="#FBE01B"/><path d="M180.105 390.59 199.605 390.59 199.605 410.09 180.105 410.09Z" fill="#FBE01B"/><path d="M180.105 416.59 199.605 416.59 199.605 436.09 180.105 436.09Z" fill="#FBE01B"/><path d="M230.805 416.59 250.305 416.59 250.305 436.09 230.805 436.09Z" fill="#FBE01B"/><path d="M211.303 280.094 152.805 358.09 152.805 373.69 211.305 296.99 269.825 373.69 477.736 373.69 477.736 358.095C477.736 358.093 477.734 358.09 477.731 358.089L211.31 280.091C211.307 280.091 211.305 280.091 211.303 280.094Z" fill="#D0D0D0"/><path d="M418.009 280.09 411.398 280.09C408.502 278.907 403.508 277.119 397.098 276.19 383.471 274.215 377.564 278.17 363.298 276.19 353.445 274.823 355.462 272.824 347.698 272.29 332.793 271.264 327.95 280.234 316.498 276.19 310.058 273.916 307.306 270.256 300.898 269.69 292.014 268.906 284.173 274.784 278.798 280.09L211.321 280.09C211.316 280.09 211.312 280.096 211.316 280.101L269.578 358.09 269.87 358.09C280.433 358.09 290.991 359.412 301.096 362.49 304.131 363.414 306.703 363.52 308.808 363.29 315.713 362.537 321.378 357.8 327.008 360.69 329.104 361.766 329.928 363.248 332.208 363.29 335.76 363.356 336.463 359.811 340.009 359.39 344.437 358.865 346.24 364.05 350.409 363.29 353.415 362.742 353.735 359.815 356.909 359.39 359.601 359.029 361.451 360.857 363.409 361.99 371.751 366.819 378.78 357.144 393.309 359.39 397.821 360.088 400.219 361.496 405.009 360.69 405.531 360.602 406.037 360.495 406.526 360.373 412.939 358.769 419.546 358.09 426.156 358.09L477.73 358.09C477.737 358.09 477.74 358.086 477.735 358.08L418.009 280.09Z" fill="#FFFFFF"/><path d="M304.899 348.981 274.726 309.99 320.624 309.99 304.91 348.98C304.908 348.984 304.901 348.985 304.899 348.981Z" fill="#737373"/><path d="M343.905 348.99 304.912 348.99C304.908 348.99 304.905 348.988 304.905 348.984L304.905 309.99 324.405 283.99 343.905 309.99 343.905 348.99Z" fill="#D0D0D0"/><path d="M315.025 319.09 334.525 319.09 334.525 338.59 315.025 338.59Z" fill="#FFFFFF"/><path d="M398.499 348.982 368.325 309.99 416.303 309.99 398.509 348.98C398.508 348.985 398.502 348.986 398.499 348.982Z" fill="#737373"/><path d="M437.505 348.99 398.512 348.99C398.509 348.99 398.505 348.988 398.505 348.984L398.505 309.99 418.005 283.99 437.505 309.99 437.505 348.99Z" fill="#D0D0D0"/><path d="M408.905 319.09 428.405 319.09 428.405 338.59 408.905 338.59Z" fill="#FFFFFF"/><path d="M172.494 438.633C165.169 439.674 157.524 437.982 151.04 434.214 144.278 430.284 143.152 425.003 143.097 424.723 143.096 424.717 143.103 424.717 143.107 424.72 149.139 428.922 156.279 431.627 163.564 432.488 176.79 435.387 182.217 419.334 173.537 413.261 171.341 411.724 168.609 411.197 165.944 411.481 160.438 412.069 154.688 411.13 149.793 408.756 145.333 406.593 142.481 402.091 142.341 397.136 142.341 397.131 142.347 397.128 142.351 397.13 147.634 400.321 153.77 402.184 159.907 402.411 169.842 402.287 171.917 389.639 165.062 385.246 163.378 384.166 161.329 383.791 159.344 384.047 154.725 384.64 149.911 383.933 145.86 381.963 143.389 380.762 141.831 378.243 141.751 375.497 141.751 375.492 141.757 375.489 141.761 375.491 145.307 377.423 149.274 378.615 153.271 378.838 163.144 379.775 164.912 365.269 155.752 363.39 155.241 363.286 154.716 363.253 154.197 363.29 150.262 363.563 146.208 364.066 142.631 361.815 139.5 360.085 137.017 356.999 136.44 353.155 136.142 351.058 134.415 350.046 132.681 350.05 132.656 350.049 132.63 350.05 132.605 350.05 132.579 350.05 132.553 350.049 132.528 350.05 130.794 350.046 129.069 351.058 128.77 353.155 128.193 356.999 125.709 360.085 122.579 361.815 119.169 363.96 115.326 363.603 111.566 363.329 110.384 363.243 109.183 363.362 108.081 363.797 100.511 366.779 102.595 379.725 111.939 378.838 115.452 378.641 118.944 377.697 122.146 376.161 122.151 376.159 122.156 376.162 122.156 376.167 122.091 378.405 120.864 380.464 118.898 381.534 114.564 383.893 109.229 384.729 104.164 383.991 103.432 383.884 102.685 383.853 101.961 384.004 91.6032 386.17 92.8024 402.273 104.018 402.412 110.154 402.186 116.29 400.323 121.573 397.132 121.578 397.129 121.584 397.132 121.583 397.138 121.443 402.092 118.591 406.595 114.131 408.757 109.236 411.13 103.487 412.07 97.9803 411.482 95.3147 411.198 92.5834 411.726 90.3871 413.262 81.7063 419.336 87.1344 435.388 100.36 432.489 107.645 431.629 114.784 428.924 120.815 424.723 120.82 424.72 120.827 424.723 120.825 424.729 120.719 425.085 118.814 431.232 112.884 434.216 106.184 437.585 98.7545 439.676 91.429 438.634 83.746 437.482 76.7104 444.107 77.4605 451.862 79.4404 468.018 99.1484 463.098 109.429 458.492 113.214 456.884 116.804 454.738 120.079 452.176L119.757 480.292 144.166 480.292 143.844 452.176C147.12 454.738 150.71 456.884 154.494 458.492 164.775 463.097 184.483 468.018 186.463 451.862 187.213 444.105 180.178 437.481 172.494 438.633Z" fill="#D0D0D0"/><path d="M493.405 399.69C493.405 408.306 486.421 415.29 477.805 415.29 469.19 415.29 462.205 408.306 462.205 399.69 462.205 391.075 469.19 384.09 477.805 384.09 486.421 384.09 493.405 391.075 493.405 399.69Z" fill="#FFFFFF"/><path d="M519.405 452.34C519.405 475.674 500.489 494.59 477.155 494.59 453.821 494.59 434.905 475.674 434.905 452.34 434.905 429.006 453.821 410.09 477.155 410.09 500.489 410.09 519.405 429.006 519.405 452.34Z" fill="#FFFFFF"/><path d="M479.182 398.39 503.232 398.39C503.591 398.39 503.882 398.681 503.882 399.04L503.882 399.164C503.882 399.471 503.667 399.736 503.367 399.8L479.105 404.968 479.182 398.39Z" fill="#FBE01B"/><path d="M476.505 395.79C476.505 396.508 475.923 397.09 475.205 397.09 474.487 397.09 473.905 396.508 473.905 395.79 473.905 395.072 474.487 394.49 475.205 394.49 475.923 394.49 476.505 395.072 476.505 395.79Z" fill="#505050"/><path d="M484.305 395.79C484.305 396.508 483.723 397.09 483.005 397.09 482.287 397.09 481.705 396.508 481.705 395.79 481.705 395.072 482.287 394.49 483.005 394.49 483.723 394.49 484.305 395.072 484.305 395.79Z" fill="#505050"/><path d="M525.906 408.79 517.344 408.79 520.975 405.159C521.483 404.652 521.483 403.829 520.975 403.321 520.467 402.813 519.644 402.813 519.137 403.321L510.306 412.152 510.306 406.19C510.306 405.473 509.723 404.89 509.006 404.89 508.288 404.89 507.706 405.473 507.706 406.19L507.706 414.752 497.687 424.771C497.179 425.279 497.179 426.102 497.687 426.609 497.941 426.863 498.273 426.99 498.606 426.99 498.939 426.99 499.271 426.863 499.525 426.609L514.9 411.234C515.081 411.33 515.286 411.39 515.506 411.39L525.906 411.39C526.623 411.39 527.206 410.808 527.206 410.09 527.206 409.373 526.623 408.79 525.906 408.79Z" fill="#505050"/><path d="M459.225 424.771 449.527 415.073 451.634 411.385C451.99 410.762 451.774 409.967 451.151 409.611 450.528 409.255 449.733 409.471 449.377 410.095L447.621 413.167 437.775 403.321C437.267 402.813 436.444 402.813 435.937 403.321 435.429 403.829 435.429 404.652 435.937 405.159L439.568 408.79 431.006 408.79C430.288 408.79 429.706 409.373 429.706 410.09 429.706 410.808 430.288 411.39 431.006 411.39L442.168 411.39 457.387 426.609C457.641 426.863 457.973 426.99 458.306 426.99 458.639 426.99 458.971 426.863 459.225 426.609 459.733 426.102 459.733 425.279 459.225 424.771ZM442.011 411.234 442.047 411.271C442.004 411.259 441.987 411.247 442.011 411.234Z" fill="#2F2F2F"/><path d="M263.195 490.29C263.195 493.522 255.919 496.14 246.945 496.14 237.97 496.14 230.695 493.522 230.695 490.29 230.695 487.059 237.32 488.34 246.295 488.34 255.269 488.34 263.195 487.06 263.195 490.29Z" fill="#E4E4E4"/><path d="M308.695 501.99C308.695 505.222 301.419 507.84 292.445 507.84 283.47 507.84 276.195 505.222 276.195 501.99 276.195 498.759 282.82 500.04 291.795 500.04 300.769 500.04 308.695 498.76 308.695 501.99Z" fill="#E4E4E4"/><path d="M165.041 482.597C165.041 484.108 161.637 485.334 157.438 485.334 153.239 485.334 149.836 484.109 149.836 482.597 149.836 481.085 152.936 481.684 157.134 481.684 161.333 481.684 165.041 481.085 165.041 482.597Z" fill="#E4E4E4"/><path d="M183.895 487.953C183.895 489.464 180.491 490.69 176.292 490.69 172.093 490.69 168.69 489.465 168.69 487.953 168.69 486.442 171.79 487.04 175.988 487.04 180.187 487.041 183.895 486.442 183.895 487.953Z" fill="#E4E4E4"/><path d="M450.395 290.49C450.395 291.926 449.231 293.09 447.795 293.09 446.359 293.09 445.195 291.926 445.195 290.49 445.195 289.054 446.359 287.89 447.795 287.89 449.231 287.89 450.395 289.054 450.395 290.49Z" fill="#FFFFFF"/><path d="M484.195 333.39C484.195 334.826 483.031 335.99 481.595 335.99 480.159 335.99 478.995 334.826 478.995 333.39 478.995 331.954 480.159 330.79 481.595 330.79 483.031 330.79 484.195 331.954 484.195 333.39Z" fill="#FFFFFF"/><path d="M498.495 352.89C498.495 354.326 497.331 355.49 495.895 355.49 494.459 355.49 493.295 354.326 493.295 352.89 493.295 351.454 494.459 350.29 495.895 350.29 497.331 350.29 498.495 351.454 498.495 352.89Z" fill="#FFFFFF"/><path d="M246.295 267.09C246.295 268.526 245.131 269.69 243.695 269.69 242.259 269.69 241.095 268.526 241.095 267.09 241.095 265.654 242.259 264.49 243.695 264.49 245.131 264.49 246.295 265.654 246.295 267.09Z" fill="#FFFFFF"/><path d="M241.205 374.99C241.205 376.426 240.041 377.59 238.605 377.59 237.169 377.59 236.005 376.426 236.005 374.99 236.005 373.554 237.169 372.39 238.605 372.39 240.041 372.39 241.205 373.554 241.205 374.99Z" fill="#FFFFFF"/><path d="M376.833 395.274C377.844 396.286 377.838 397.931 376.819 398.949 375.801 399.967 374.156 399.972 373.145 398.961 372.134 397.95 372.14 396.305 373.159 395.287 374.177 394.269 375.822 394.263 376.833 395.274Z" fill="#FFFFFF"/><path d="M404.134 386.175C405.145 387.186 405.139 388.831 404.12 389.849 403.102 390.867 401.457 390.873 400.446 389.862 399.435 388.85 399.441 387.206 400.46 386.188 401.478 385.17 403.123 385.164 404.134 386.175Z" fill="#FFFFFF"/><path d="M330.511 408.218C332.63 411 329.484 414.146 326.701 412.026 324.582 409.243 327.729 406.097 330.511 408.218Z" fill="#FFFFFF"/><path d="M396.399 452.386C398.519 455.168 395.372 458.314 392.59 456.194 390.471 453.411 393.617 450.266 396.399 452.386Z" fill="#FFFFFF"/><path d="M211.195 337.29C211.195 338.726 210.031 339.89 208.595 339.89 207.159 339.89 205.995 338.726 205.995 337.29 205.995 335.854 207.159 334.69 208.595 334.69 210.031 334.69 211.195 335.854 211.195 337.29Z" fill="#FFFFFF"/><path d="M203.395 447.79C203.395 449.226 202.231 450.39 200.795 450.39 199.359 450.39 198.195 449.226 198.195 447.79 198.195 446.354 199.359 445.19 200.795 445.19 202.231 445.19 203.395 446.354 203.395 447.79Z" fill="#FFFFFF"/><path d="M202.095 374.99C202.095 376.426 200.931 377.59 199.495 377.59 198.059 377.59 196.895 376.426 196.895 374.99 196.895 373.554 198.059 372.39 199.495 372.39 200.931 372.39 202.095 373.554 202.095 374.99Z" fill="#FFFFFF"/><path d="M196.895 339.89C196.895 341.326 195.731 342.49 194.295 342.49 192.859 342.49 191.695 341.326 191.695 339.89 191.695 338.454 192.859 337.29 194.295 337.29 195.731 337.29 196.895 338.454 196.895 339.89Z" fill="#FFFFFF"/><path d="M176.095 302.19C176.095 303.626 174.931 304.79 173.495 304.79 172.059 304.79 170.895 303.626 170.895 302.19 170.895 300.754 172.059 299.59 173.495 299.59 174.931 299.59 176.095 300.754 176.095 302.19Z" fill="#FFFFFF"/><path d="M194.295 282.69C194.295 284.126 193.131 285.29 191.695 285.29 190.259 285.29 189.095 284.126 189.095 282.69 189.095 281.254 190.259 280.09 191.695 280.09 193.131 280.09 194.295 281.254 194.295 282.69Z" fill="#FFFFFF"/><path d="M374.995 252.79C374.995 254.226 373.831 255.39 372.395 255.39 370.959 255.39 369.795 254.226 369.795 252.79 369.795 251.354 370.959 250.19 372.395 250.19 373.831 250.19 374.995 251.354 374.995 252.79Z" fill="#FFFFFF"/><path d="M390.595 234.59C390.595 236.026 389.431 237.19 387.995 237.19 386.559 237.19 385.395 236.026 385.395 234.59 385.395 233.154 386.559 231.99 387.995 231.99 389.431 231.99 390.595 233.154 390.595 234.59Z" fill="#FFFFFF"/><path d="M368.495 216.39C368.495 217.826 367.331 218.99 365.895 218.99 364.459 218.99 363.295 217.826 363.295 216.39 363.295 214.954 364.459 213.79 365.895 213.79 367.331 213.79 368.495 214.954 368.495 216.39Z" fill="#FFFFFF"/><path d="M129.295 376.29C129.295 377.726 128.131 378.89 126.695 378.89 125.259 378.89 124.095 377.726 124.095 376.29 124.095 374.854 125.259 373.69 126.695 373.69 128.131 373.69 129.295 374.854 129.295 376.29Z" fill="#FFFFFF"/><path d="M135.795 403.59C135.795 405.026 134.631 406.19 133.195 406.19 131.759 406.19 130.595 405.026 130.595 403.59 130.595 402.154 131.759 400.99 133.195 400.99 134.631 400.99 135.795 402.154 135.795 403.59Z" fill="#FFFFFF"/><path d="M108.495 446.49C108.495 447.926 107.331 449.09 105.895 449.09 104.459 449.09 103.295 447.926 103.295 446.49 103.295 445.054 104.459 443.89 105.895 443.89 107.331 443.89 108.495 445.054 108.495 446.49Z" fill="#FFFFFF"/><path d="M378.895 290.49C378.895 291.926 377.731 293.09 376.295 293.09 374.859 293.09 373.695 291.926 373.695 290.49 373.695 289.054 374.859 287.89 376.295 287.89 377.731 287.89 378.895 289.054 378.895 290.49Z" fill="#F0F0F0"/><path d="M363.295 308.69C363.295 310.126 362.131 311.29 360.695 311.29 359.259 311.29 358.095 310.126 358.095 308.69 358.095 307.254 359.259 306.09 360.695 306.09 362.131 306.09 363.295 307.254 363.295 308.69Z" fill="#F0F0F0"/><path d="M348.995 299.59C348.995 301.026 347.831 302.19 346.395 302.19 344.959 302.19 343.795 301.026 343.795 299.59 343.795 298.154 344.959 296.99 346.395 296.99 347.831 296.99 348.995 298.154 348.995 299.59Z" fill="#F0F0F0"/><path d="M269.695 312.59C269.695 314.026 268.531 315.19 267.095 315.19 265.659 315.19 264.495 314.026 264.495 312.59 264.495 311.154 265.659 309.99 267.095 309.99 268.531 309.99 269.695 311.154 269.695 312.59Z" fill="#F0F0F0"/><path d="M469.895 267.09C469.895 268.526 468.731 269.69 467.295 269.69 465.859 269.69 464.695 268.526 464.695 267.09 464.695 265.654 465.859 264.49 467.295 264.49 468.731 264.49 469.895 265.654 469.895 267.09Z" fill="#FFFFFF"/><path d="M329.605 260.59C329.605 262.026 328.441 263.19 327.005 263.19 325.569 263.19 324.405 262.026 324.405 260.59 324.405 259.154 325.569 257.99 327.005 257.99 328.441 257.99 329.605 259.154 329.605 260.59Z" fill="#FFFFFF"/></g></svg>