<svg width="624" height="624" xmlns="http://www.w3.org/2000/svg" xmlns:xlink="http://www.w3.org/1999/xlink" xml:space="preserve" overflow="hidden"><g><path d="M435.473 160.915C434.953 159.314 433.231 158.44 431.634 158.958L397.808 169.949C397.787 169.956 397.784 169.951 397.803 169.937L426.47 149.11C427.757 148.174 428.223 146.398 427.414 145.027 426.486 143.455 424.436 143.057 422.995 144.102L394.22 165.008C394.202 165.021 394.198 165.017 394.211 164.999L415.117 136.225C416.163 134.784 415.764 132.734 414.192 131.805 412.822 130.996 411.046 131.461 410.11 132.749L389.282 161.416C389.269 161.435 389.264 161.432 389.271 161.411L400.261 127.586C400.781 125.986 399.905 124.266 398.304 123.746 396.705 123.228 394.985 124.102 394.465 125.703L383.475 159.528C383.468 159.549 383.462 159.548 383.462 159.526L383.462 124.091C383.462 122.5 382.299 121.079 380.715 120.927 378.897 120.754 377.369 122.179 377.369 123.96L377.369 159.526C377.369 159.548 377.363 159.549 377.356 159.528L366.365 125.703C365.846 124.102 364.123 123.228 362.526 123.746 360.926 124.266 360.051 125.986 360.57 127.586L371.561 161.411C371.567 161.433 371.563 161.435 371.549 161.417L350.72 132.749C349.785 131.461 348.009 130.996 346.638 131.805 345.067 132.734 344.668 134.784 345.714 136.225L366.62 164.999C366.632 165.017 366.629 165.021 366.61 165.008L337.942 144.179C336.655 143.244 334.821 143.35 333.768 144.543 332.561 145.911 332.814 147.985 334.255 149.033L363.029 169.938C363.047 169.951 363.044 169.956 363.023 169.949L329.197 158.959C327.504 158.41 325.677 159.421 325.279 161.202 324.933 162.756 325.926 164.302 327.439 164.794L379.475 181.702C379.475 181.702 380.013 181.852 380.416 181.852 380.828 181.852 381.357 181.702 381.357 181.702L433.516 164.754C435.117 164.234 435.993 162.515 435.473 160.915Z" fill="#0F9ED5"/><path d="M263.575 178.519 497.575 178.519 497.575 217.665C497.575 217.665 493.805 224.409 493.805 237.409 493.805 250.409 497.575 256.519 497.575 256.519L497.575 295.391 484.575 328.019 276.575 328.019 263.575 295.391 263.575 256.519C263.575 256.519 267.865 251.189 267.865 237.929 267.865 224.669 263.575 217.665 263.575 217.665L263.575 178.519Z" fill="#D1D1D1"/><path d="M263.575 295.519 497.575 295.519 497.575 335.169 263.575 335.169Z" fill="#E5E5E5"/><path d="M477.909 198.019 458.578 217.35 458.569 217.35 438.909 198.019 419.578 217.35 419.569 217.35 399.909 198.019 380.578 217.35 380.569 217.35 360.909 198.019 341.578 217.35 341.569 217.35 321.908 198.019 302.578 217.35 302.569 217.35 282.908 198.019 263.575 217.353 263.575 256.519 497.575 256.519 497.575 217.355Z" fill="#E5E5E5"/><path d="M477.909 237.019 458.578 217.69C458.576 217.687 458.572 217.687 458.569 217.689L438.909 237.019 419.578 217.69C419.576 217.687 419.572 217.687 419.569 217.689L399.909 237.019 380.578 217.69C380.576 217.687 380.572 217.687 380.569 217.689L360.909 237.019 341.578 217.69C341.576 217.687 341.572 217.687 341.569 217.689L321.908 237.019 302.578 217.69C302.576 217.687 302.572 217.687 302.569 217.689L282.908 237.019 263.575 217.686 263.575 217.519 497.575 217.519 497.575 217.683 477.909 237.019Z" fill="#F1F1F1"/><path d="M555.425 489.869 440.942 489.869C440.942 489.869 440.301 488.959 438.448 488.959 436.596 488.959 435.74 489.869 435.74 489.869L320.775 489.869 320.775 333.869 435.746 333.869C435.746 333.869 436.801 334.693 438.361 334.693 439.921 334.693 440.94 333.869 440.94 333.869L555.424 333.869 555.424 489.869 555.425 489.869Z" fill="#737373"/><path d="M527.634 363.271C527.266 362.75 525.204 363.715 524.812 363.206 523.632 361.676 522.574 360.102 521.172 358.7 518.887 356.415 518.405 355.542 515.798 353.846 515.419 353.599 514.5 350.865 514.114 350.631 510.323 348.323 506.265 346.618 502.079 345.519 501.463 345.357 500.3 347.569 499.678 347.433 496.362 346.709 493.871 345.851 490.491 345.873 489.963 345.876 489.088 344.035 488.559 344.057 484.49 344.225 480.439 344.933 476.525 346.184 475.978 346.359 475.26 348.624 474.718 348.82 470.937 350.189 469.602 350.925 466.224 353.326 465.856 353.588 463.367 352.929 463.005 353.202 461.358 354.449 459.776 355.82 458.275 357.321L450.971 364.625C450.971 364.625 450.538 368.666 446.118 373.086 441.698 377.506 437.451 378.145 437.451 378.145L425.417 390.179C425.417 390.179 424.884 394.666 420.464 399.086 416.044 403.506 411.897 403.699 411.897 403.699L399.862 415.733C399.862 415.733 397.931 421.099 393.945 425.086 389.958 429.072 386.342 429.253 386.342 429.253L374.308 441.288C374.308 441.288 371.845 447.186 368.638 450.392 365.432 453.599 362.274 453.322 362.274 453.322L353.482 462.114 362.274 470.962 362.274 470.962C365.513 474.221 370.782 474.23 374.03 470.981L374.308 470.703 386.343 458.669C386.343 458.669 388.485 452.559 392.732 448.313 396.978 444.066 399.863 445.149 399.863 445.149L411.897 433.115C411.897 433.115 415.005 425.346 418.558 421.793 422.112 418.239 425.417 419.595 425.417 419.595L437.451 407.561C437.451 407.561 440.312 399.866 443.865 396.313 447.418 392.759 450.971 394.041 450.971 394.041L463.005 382.007C463.005 382.007 465.531 374.646 469.865 371.006 474.198 367.366 475.278 369.95 476.525 369.098 480.167 366.61 484.328 365.206 488.559 364.885 489.029 364.849 490.541 362.175 491.011 362.166 494.627 362.096 496.147 362.049 499.505 363.553 500.015 363.781 501.583 367.44 502.079 367.706 504.178 368.824 506.148 370.263 507.914 372.029 510.918 375.032 512.984 378.624 514.114 382.436 514.334 383.178 516.342 383.25 516.492 384.006 517.136 387.274 517.347 391.665 516.665 394.926 516.527 395.587 514.307 395.903 514.115 396.553 512.984 400.366 510.919 403.957 507.915 406.96L502.08 412.795C502.08 412.795 501.152 417.373 497.426 421.1 493.699 424.826 488.56 426.315 488.56 426.315L482.536 432.339 488.56 438.363 494.132 440.513C496.803 443.184 499.409 444.881 502.08 442.21L502.08 442.21 514.115 430.176 516.146 425.086 520.826 419.886C522.323 418.389 523.221 417.196 524.465 415.553 524.774 415.146 527.342 416.133 527.635 415.717 538.689 400.059 538.689 378.93 527.634 363.271Z" fill="#0F9ED5"/><path d="M514.114 396.553 514.114 430.175 522.622 421.667C524.49 419.799 526.159 417.806 527.634 415.717L527.634 363.271C526.159 361.182 524.49 359.189 522.622 357.321 520.005 354.704 517.144 352.476 514.114 350.631L514.114 382.436C515.477 387.034 515.477 391.955 514.114 396.553Z" fill="#FFFFFF"/><path d="M488.56 426.314 488.56 438.363 497.243 447.047 502.08 442.21 502.08 412.794Z" fill="#FFFFFF"/><path d="M502.08 367.705 502.08 345.518C497.66 344.357 493.099 343.87 488.56 344.057L488.56 364.884C493.184 364.533 497.888 365.471 502.08 367.705Z" fill="#FFFFFF"/><path d="M472.984 372.029C474.09 370.923 475.279 369.949 476.526 369.097L476.526 346.184C471.742 347.713 467.163 350.054 463.006 353.202L463.006 382.006 472.984 372.029Z" fill="#FFFFFF"/><path d="M450.971 394.041 450.971 364.625 437.451 378.145 437.451 407.561Z" fill="#FFFFFF"/><path d="M425.417 419.595 425.417 390.179 411.897 403.699 411.897 433.115Z" fill="#FFFFFF"/><path d="M399.863 445.149 399.863 415.733 386.343 429.253 386.343 458.669Z" fill="#FFFFFF"/><path d="M362.274 470.963 368.143 476.869 374.308 470.703 374.308 441.288 362.274 453.322Z" fill="#FFFFFF"/><path d="M490.796 388.454C486.124 385.247 480.286 385.017 475.439 387.774L440.944 407.401 440.944 333.869 435.744 333.869 435.744 407.399 400.763 387.495C395.917 384.738 390.081 384.968 385.41 388.171 382.085 390.451 379.851 394.089 379.324 398.086 378.16 406.909 385.027 414.469 393.626 414.469L432.555 414.469 395.557 451.467 399.233 455.144 435.745 418.632 435.745 489.869 440.945 489.869 440.945 418.146 477.701 454.902 481.377 451.225 444.902 414.749 482.576 414.749C491.172 414.749 498.037 407.194 496.879 398.375 496.354 394.377 494.12 390.737 490.796 388.454ZM393.625 409.269C388.068 409.269 383.641 404.332 384.501 398.614 384.871 396.152 386.262 393.917 388.305 392.492 389.928 391.359 391.776 390.792 393.625 390.792 395.191 390.792 396.759 391.199 398.19 392.014L428.495 409.256C428.501 409.259 428.498 409.269 428.492 409.269L393.625 409.269 393.625 409.269ZM482.334 409.549 447.708 409.549C447.702 409.549 447.699 409.54 447.705 409.537L478.009 392.294C480.901 390.65 484.34 390.667 487.216 392.338 490.149 394.044 491.876 397.117 491.804 400.524 491.696 405.582 487.392 409.549 482.334 409.549Z" fill="#505050"/><path d="M68.575 315.426 68.575 334.926C68.575 334.926 71.175 338.046 71.175 344.286 71.175 350.526 68.575 354.426 68.575 354.426L68.575 373.926C68.575 373.926 71.175 377.436 71.175 383.806 71.175 390.176 68.575 393.426 68.575 393.426L68.575 412.926C68.575 412.926 71.175 416.74 71.175 422.633 71.175 428.526 68.575 432.426 68.575 432.426L68.575 451.926C68.575 451.926 71.175 455.436 71.175 461.806 71.175 468.176 68.575 471.425 68.575 471.425L68.575 490.926 88.086 490.926C88.086 490.926 91.975 488.326 97.825 488.326 103.675 488.326 107.575 490.926 107.575 490.926L127.075 490.926C127.075 490.926 131.321 488.326 136.999 488.326 142.675 488.326 146.575 490.926 146.575 490.926L166.075 490.926C166.075 490.926 170.669 488.326 176.171 488.326 181.674 488.326 185.575 490.926 185.575 490.926L205.064 490.926C205.064 490.926 209.321 488.326 214.998 488.326 220.674 488.326 224.564 490.926 224.564 490.926L244.064 490.926C244.064 490.926 247.628 488.326 253.825 488.326 259.947 488.326 263.489 490.864 263.574 490.925 263.577 490.927 263.577 490.924 263.579 490.92L268.775 485.379 268.775 320.019 263.579 315.43C263.577 315.427 263.577 315.425 263.574 315.426 263.498 315.477 259.575 318.026 253.825 318.026 248.019 318.026 244.075 315.426 244.075 315.426L224.574 315.426C224.574 315.426 221.975 318.026 214.825 318.026 207.675 318.026 205.075 315.426 205.075 315.426L185.576 315.426C185.576 315.426 182.975 318.026 175.825 318.026 168.675 318.026 166.075 315.426 166.075 315.426L146.575 315.426C146.575 315.426 143.325 318.026 136.825 318.026 130.325 318.026 127.075 315.426 127.075 315.426L107.575 315.426C107.575 315.426 104.325 318.026 97.825 318.026 91.325 318.026 88.075 315.426 88.075 315.426L68.575 315.426Z" fill="#0F9ED5"/><path d="M263.575 315.426C263.575 315.426 260.975 319.326 260.975 325.176 260.975 331.026 263.575 334.926 263.575 334.926 263.575 334.926 266.175 338.176 266.175 344.676 266.175 351.176 263.575 354.426 263.575 354.426 263.575 354.426 260.975 358.326 260.975 364.176 260.975 370.026 263.575 373.926 263.575 373.926 263.575 373.926 266.175 377.176 266.175 383.676 266.175 390.176 263.575 393.426 263.575 393.426 263.575 393.426 260.975 396.676 260.975 403.176 260.975 409.676 263.575 412.926 263.575 412.926 263.575 412.926 266.175 416.176 266.175 422.676 266.175 429.176 263.575 432.426 263.575 432.426 263.575 432.426 260.975 436.326 260.975 442.176 260.975 448.026 263.575 451.926 263.575 451.926 263.575 451.926 266.175 455.176 266.175 461.676 266.175 468.176 263.575 471.426 263.575 471.426 263.575 471.426 260.975 475.976 260.975 481.826 260.975 487.676 263.575 490.926 263.575 490.926L283.075 490.926C283.075 490.926 286.975 488.326 292.825 488.326 298.675 488.326 302.575 490.926 302.575 490.926L322.075 490.926 322.075 471.426C322.075 471.426 319.475 468.826 319.475 461.676 319.475 454.526 322.075 451.926 322.075 451.926L322.075 432.426C322.075 432.426 319.475 429.176 319.475 422.676 319.475 416.176 322.075 412.926 322.075 412.926L322.075 393.426C322.075 393.426 319.475 390.826 319.475 383.676 319.475 376.526 322.075 373.926 322.075 373.926L322.075 354.426C322.075 354.426 319.475 350.526 319.475 344.026 319.475 337.526 322.075 334.926 322.075 334.926L322.075 315.426 302.575 315.426C302.575 315.426 299.975 318.026 292.825 318.026 285.675 318.026 283.075 315.426 283.075 315.426L263.575 315.426Z" fill="#737373"/><path d="M88.075 315.426 107.575 315.426 107.575 334.926 88.075 334.926Z" fill="#505050"/><path d="M127.075 315.426 146.575 315.426 146.575 334.926 127.075 334.926Z" fill="#505050"/><path d="M88.075 354.426 107.575 354.426 107.575 373.926 88.075 373.926Z" fill="#505050"/><path d="M127.075 354.426 146.575 354.426 146.575 373.926 127.075 373.926Z" fill="#505050"/><path d="M88.075 393.426 107.575 393.426 107.575 412.926 88.075 412.926Z" fill="#505050"/><path d="M127.075 393.426 146.575 393.426 146.575 412.926 127.075 412.926Z" fill="#505050"/><path d="M88.075 432.426 107.575 432.426 107.575 451.926 88.075 451.926Z" fill="#505050"/><path d="M244.075 315.426 263.575 315.426 263.575 334.926 244.075 334.926Z" fill="#505050"/><path d="M244.075 354.426 263.575 354.426 263.575 373.926 244.075 373.926Z" fill="#505050"/><path d="M244.075 393.426 263.575 393.426 263.575 412.926 244.075 412.926Z" fill="#505050"/><path d="M244.075 432.426 263.575 432.426 263.575 451.926 244.075 451.926Z" fill="#505050"/><path d="M283.075 315.426 302.575 315.426 302.575 334.926 283.075 334.926Z" fill="#505050"/><path d="M283.075 354.426 302.575 354.426 302.575 373.926 283.075 373.926Z" fill="#505050"/><path d="M283.075 393.426 302.575 393.426 302.575 412.926 283.075 412.926Z" fill="#505050"/><path d="M283.075 432.426 302.575 432.426 302.575 451.926 283.075 451.926Z" fill="#505050"/><path d="M127.075 432.426 146.575 432.426 146.575 451.926 127.075 451.926Z" fill="#505050"/><path d="M166.075 315.426 185.575 315.426 185.575 334.926 166.075 334.926Z" fill="#505050"/><path d="M205.075 315.426 224.575 315.426 224.575 334.926 205.075 334.926Z" fill="#505050"/><path d="M166.075 354.426 185.575 354.426 185.575 373.926 166.075 373.926Z" fill="#505050"/><path d="M205.075 354.426 224.575 354.426 224.575 373.926 205.075 373.926Z" fill="#505050"/><path d="M166.075 393.426 185.575 393.426 185.575 412.926 166.075 412.926Z" fill="#505050"/><path d="M205.075 393.426 224.575 393.426 224.575 412.926 205.075 412.926Z" fill="#505050"/><path d="M166.075 432.426 185.575 432.426 185.575 451.926 166.075 451.926Z" fill="#505050"/><path d="M205.075 432.426 224.575 432.426 224.575 451.926 205.075 451.926Z" fill="#505050"/><path d="M88.075 471.426 107.575 471.426 107.575 490.926 88.075 490.926Z" fill="#505050"/><path d="M244.075 471.426 263.575 471.426 263.575 490.926 244.075 490.926Z" fill="#505050"/><path d="M283.075 471.426 302.575 471.426 302.575 490.926 283.075 490.926Z" fill="#505050"/><path d="M127.075 471.426 146.575 471.426 146.575 490.926 127.075 490.926Z" fill="#505050"/><path d="M166.075 471.426 185.575 471.426 185.575 490.926 166.075 490.926Z" fill="#505050"/><path d="M205.075 471.426 224.575 471.426 224.575 490.926 205.075 490.926Z" fill="#505050"/><path d="M146.575 373.926 166.075 373.926 166.075 393.426 146.575 393.426Z" fill="#F1F1F1"/><path d="M224.575 412.926 244.075 412.926 244.075 432.426 224.575 432.426Z" fill="#F1F1F1"/><path d="M263.575 412.926 283.075 412.926 283.075 432.426 263.575 432.426Z" fill="#F1F1F1"/><path d="M185.575 412.926 205.075 412.926 205.075 432.426 185.575 432.426Z" fill="#F1F1F1"/><path d="M185.575 373.926 205.075 373.926 205.075 393.426 185.575 393.426Z" fill="#F1F1F1"/><path d="M224.575 373.926 244.075 373.926 244.075 393.426 224.575 393.426Z" fill="#F1F1F1"/><path d="M146.575 412.926 166.075 412.926 166.075 432.426 146.575 432.426Z" fill="#F1F1F1"/><path d="M107.575 451.926 127.075 451.926 127.075 471.426 107.575 471.426Z" fill="#F1F1F1"/><path d="M107.575 412.926 127.075 412.926 127.075 432.426 107.575 432.426Z" fill="#F1F1F1"/><path d="M263.575 373.926 283.075 373.926 283.075 393.426 263.575 393.426Z" fill="#F1F1F1"/><path d="M107.575 334.926 127.075 334.926 127.075 354.426 107.575 354.426Z" fill="#F1F1F1"/><path d="M107.575 373.926 127.075 373.926 127.075 393.426 107.575 393.426Z" fill="#F1F1F1"/><path d="M263.575 334.926 283.075 334.926 283.075 354.426 263.575 354.426Z" fill="#F1F1F1"/><path d="M302.575 373.926 322.075 373.926 322.075 393.426 302.575 393.426Z" fill="#F1F1F1"/><path d="M302.575 412.926 322.075 412.926 322.075 432.426 302.575 432.426Z" fill="#F1F1F1"/><path d="M263.575 451.926 283.075 451.926 283.075 471.426 263.575 471.426Z" fill="#F1F1F1"/><path d="M302.575 451.926 322.075 451.926 322.075 471.426 302.575 471.426Z" fill="#F1F1F1"/><path d="M302.575 334.926 322.075 334.926 322.075 354.426 302.575 354.426Z" fill="#F1F1F1"/><path d="M68.575 334.926 88.075 334.926 88.075 354.426 68.575 354.426Z" fill="#F1F1F1"/><path d="M68.575 373.926 88.075 373.926 88.075 393.426 68.575 393.426Z" fill="#F1F1F1"/><path d="M68.575 412.926 88.075 412.926 88.075 432.426 68.575 432.426Z" fill="#F1F1F1"/><path d="M68.575 451.926 88.075 451.926 88.075 471.426 68.575 471.426Z" fill="#F1F1F1"/><path d="M146.575 451.926 166.075 451.926 166.075 471.426 146.575 471.426Z" fill="#F1F1F1"/><path d="M185.575 334.926 205.075 334.926 205.075 354.426 185.575 354.426Z" fill="#F1F1F1"/><path d="M146.575 334.926 166.075 334.926 166.075 354.426 146.575 354.426Z" fill="#F1F1F1"/><path d="M224.575 334.926 244.075 334.926 244.075 354.426 224.575 354.426Z" fill="#F1F1F1"/><path d="M185.575 451.926 205.075 451.926 205.075 471.426 185.575 471.426Z" fill="#F1F1F1"/><path d="M224.575 451.926 244.075 451.926 244.075 471.426 224.575 471.426Z" fill="#F1F1F1"/><path d="M278.395 288.367C276.965 283.965 272.407 281.124 265.564 280.369 259.972 279.751 253.222 280.571 246.457 282.647 255.859 269.253 257.783 255.556 250.859 250.525 247.114 247.804 241.758 248.184 235.776 251.597 230.894 254.383 225.909 259 221.657 264.653 221.386 248.3 214.894 236.096 206.338 236.096 197.776 236.096 191.281 248.318 191.019 264.691 186.772 259.051 181.797 254.446 176.922 251.664 170.941 248.252 165.584 247.871 161.84 250.592 158.094 253.313 156.801 258.525 158.198 265.268 159.34 270.777 162.193 276.949 166.262 282.745 159.507 280.676 152.772 279.861 147.191 280.478 140.347 281.233 135.789 284.073 134.359 288.475 131.658 296.789 141.732 306.992 157.792 312.211 166.684 315.1 183.12 315.654 194.433 315.654 201.094 315.654 213.007 315.546 218.319 315.546 229.632 315.546 246.07 314.991 254.962 312.102 271.023 306.884 281.096 296.68 278.395 288.367ZM239.32 257.808C241.517 256.554 243.563 255.885 245.038 255.885 245.71 255.885 246.263 256.024 246.656 256.311 247.915 257.225 248.245 260.146 247.499 263.751 246.518 268.481 243.81 274.148 240.068 279.299 236.697 283.938 229.859 289.886 223.062 295.223 219.632 297.525 216.373 299.832 213.551 301.887 213.546 301.891 213.539 301.885 213.541 301.879 214.621 298.566 215.806 294.759 216.93 290.8 219.908 282.678 223.455 274.324 226.829 269.68 230.571 264.529 235.124 260.201 239.32 257.808ZM206.338 243.247C207.894 243.247 209.878 245.415 211.393 248.771 213.381 253.174 214.52 259.35 214.52 265.717 214.52 271.45 212.484 280.279 210.124 288.593 208.701 292.469 207.42 296.256 206.344 299.577 206.342 299.582 206.334 299.582 206.332 299.577 205.258 296.264 203.981 292.493 202.565 288.633 200.199 280.308 198.156 271.46 198.156 265.718 198.156 252.209 203.081 243.247 206.338 243.247ZM166.042 256.378C166.436 256.092 166.989 255.952 167.66 255.952 169.135 255.952 171.181 256.623 173.378 257.876 177.574 260.27 182.127 264.597 185.869 269.748 189.239 274.386 192.782 282.727 195.759 290.841 196.886 294.812 198.075 298.629 199.157 301.947 199.159 301.953 199.152 301.958 199.147 301.954 196.329 299.903 193.079 297.602 189.66 295.309 182.855 289.966 176.004 284.01 172.63 279.366 168.887 274.215 166.179 268.548 165.199 263.819 164.453 260.213 164.783 257.291 166.042 256.378ZM160.001 305.411C147.154 301.237 140.153 293.784 141.159 290.686 141.64 289.206 144.316 287.989 147.975 287.585 148.929 287.48 149.939 287.429 150.992 287.429 155.243 287.429 160.206 288.271 165.059 289.849 170.511 291.62 178.279 296.285 185.455 301.099 188.915 303.816 192.327 306.35 195.283 308.484 195.288 308.488 195.285 308.496 195.279 308.496 184.398 308.521 168.18 308.068 160.001 305.411ZM267.903 297.092C264.332 300.342 258.809 303.335 252.754 305.302 244.575 307.96 228.348 308.413 217.477 308.387 217.47 308.387 217.468 308.379 217.473 308.375 220.423 306.244 223.823 303.718 227.269 301.011 234.454 296.189 242.237 291.513 247.697 289.739 253.752 287.771 259.979 286.948 264.779 287.477 268.439 287.88 271.114 289.098 271.595 290.578 272.076 292.057 270.627 294.614 267.903 297.092Z" fill="#0F9ED5"/><path d="M322.075 503.087 185.275 503.071 185.275 411.869 322.076 411.869Z" fill="#F1F1F1"/><path d="M253.675 490.999C253.488 490.999 253.31 490.918 253.186 490.777L189.725 418.196C189.489 417.925 189.517 417.514 189.787 417.279 190.057 417.041 190.468 417.069 190.704 417.34L253.671 489.355C253.674 489.358 253.678 489.358 253.681 489.355L316.646 417.34C316.884 417.068 317.294 417.042 317.564 417.279 317.834 417.514 317.862 417.925 317.625 418.196L254.165 490.777C254.041 490.918 253.863 490.999 253.675 490.999Z" fill="#D1D1D1"/><path d="M192.115 497.839C191.948 497.839 191.782 497.775 191.655 497.648 191.401 497.394 191.401 496.983 191.655 496.729L221.675 466.708C221.929 466.455 222.341 466.455 222.594 466.708 222.849 466.963 222.849 467.374 222.594 467.628L192.574 497.648C192.447 497.775 192.281 497.839 192.115 497.839Z" fill="#D1D1D1"/><path d="M314.261 496.863C314.095 496.863 313.929 496.8 313.802 496.673L284.375 467.247C284.121 466.993 284.121 466.582 284.375 466.328 284.629 466.074 285.04 466.074 285.294 466.328L314.721 495.754C314.974 496.008 314.974 496.419 314.721 496.673 314.593 496.8 314.427 496.863 314.261 496.863Z" fill="#D1D1D1"/><path d="M253.708 437.24 263.284 437.24 253.611 427.567 243.937 437.24 253.513 437.24 243.937 446.816 253.514 446.816 243.937 456.392 263.284 456.392 253.708 446.816 263.284 446.816Z" fill="#0F9ED5"/><path d="M382.949 218.505C367.986 214.509 351.752 216.552 338.091 224.619L332.646 219.173C332.646 219.173 328.061 218.726 319.858 226.929 311.655 235.132 311.966 239.854 311.966 239.854L317.411 245.299C309.343 258.961 307.3 275.195 311.296 290.157L352.657 331.519C372.171 336.73 393.855 331.682 409.165 316.373 424.473 301.064 429.521 279.38 424.31 259.866L382.949 218.505 382.949 218.505Z" fill="#0F9ED5"/><path d="M317.405 304.73C319.859 308.885 322.871 312.803 326.442 316.373 330.012 319.944 333.929 322.956 338.085 325.41 338.085 325.41 352.867 323.083 384.301 291.648 415.736 260.214 418.202 245.294 418.202 245.294 415.747 241.138 412.735 237.221 409.165 233.65 405.594 230.08 401.677 227.068 397.52 224.613 397.52 224.613 382.371 227.217 351.12 258.467 319.87 289.718 317.405 304.73 317.405 304.73Z" fill="#505050"/><path d="M382.949 218.505 311.296 290.157C312.645 295.21 314.68 300.117 317.405 304.73L397.52 224.613C392.908 221.889 388.001 219.853 382.949 218.505Z" fill="#FFFFFF"/><path d="M352.657 331.519 424.311 259.865C422.961 254.814 420.926 249.907 418.202 245.294L338.085 325.41C342.698 328.135 347.605 330.17 352.657 331.519Z" fill="#FFFFFF"/><path d="M364.238 310.859C364.238 311.935 363.365 312.808 362.288 312.808 361.211 312.808 360.338 311.935 360.338 310.859 360.338 309.782 361.211 308.909 362.288 308.909 363.365 308.909 364.238 309.782 364.238 310.859Z" fill="#505050"/><path d="M384.919 290.178C384.919 291.254 384.046 292.127 382.969 292.127 381.892 292.127 381.019 291.254 381.019 290.178 381.019 289.101 381.892 288.228 382.969 288.228 384.046 288.228 384.919 289.101 384.919 290.178Z" fill="#505050"/><path d="M405.599 269.497C405.599 270.574 404.726 271.447 403.649 271.447 402.573 271.447 401.7 270.574 401.7 269.497 401.7 268.42 402.573 267.547 403.649 267.547 404.726 267.547 405.599 268.42 405.599 269.497Z" fill="#505050"/><path d="M369.87 297.762 375.384 297.762 375.384 303.277 369.87 303.277Z" fill="#0F9ED5"/><path d="M349.189 318.442 354.704 318.442 354.704 323.957 349.189 323.957Z" fill="#0F9ED5"/><path d="M390.551 277.081 396.065 277.081 396.065 282.596 390.551 282.596Z" fill="#0F9ED5"/><path d="M411.231 256.401 416.746 256.401 416.746 261.916 411.231 261.916Z" fill="#0F9ED5"/><path d="M349.072 295.693C349.072 296.77 348.199 297.643 347.122 297.643 346.045 297.643 345.172 296.77 345.172 295.693 345.172 294.616 346.045 293.743 347.122 293.743 348.199 293.743 349.072 294.616 349.072 295.693Z" fill="#FFFFFF"/><path d="M369.753 275.012C369.753 276.089 368.88 276.962 367.803 276.962 366.726 276.962 365.853 276.089 365.853 275.012 365.853 273.935 366.726 273.062 367.803 273.062 368.88 273.062 369.753 273.935 369.753 275.012Z" fill="#FFFFFF"/><path d="M390.433 254.331C390.433 255.408 389.56 256.281 388.484 256.281 387.407 256.281 386.534 255.408 386.534 254.331 386.534 253.255 387.407 252.382 388.484 252.382 389.56 252.382 390.433 253.255 390.433 254.331Z" fill="#FFFFFF"/><path d="M334.073 303.324 338.899 298.499 329.15 298.499 329.15 308.248 333.976 303.422 333.976 313.073 338.801 308.248 338.801 317.899 348.55 308.15 338.899 308.15 343.725 303.324Z" fill="#0F9ED5"/><path d="M354.754 282.643 359.58 277.818 349.831 277.818 349.831 287.567 354.656 282.742 354.656 292.393 359.482 287.567 359.482 297.218 369.231 287.469 359.58 287.469 364.405 282.643Z" fill="#0F9ED5"/><path d="M375.533 261.865 380.359 257.039 370.609 257.039 370.609 266.789 375.435 261.963 375.435 271.614 380.26 266.789 380.26 276.44 390.009 266.69 380.359 266.69 385.184 261.865Z" fill="#0F9ED5"/><path d="M396.116 241.282 400.941 236.457 391.192 236.457 391.192 246.206 396.018 241.38 396.018 251.031 400.843 246.206 400.843 255.857 410.592 246.108 400.941 246.108 405.766 241.282Z" fill="#0F9ED5"/><path d="M333.906 280.526C333.906 281.603 333.033 282.476 331.956 282.476 330.879 282.476 330.007 281.603 330.007 280.526 330.007 279.449 330.879 278.577 331.956 278.577 333.033 278.577 333.906 279.449 333.906 280.526Z" fill="#505050"/><path d="M354.587 259.846C354.587 260.923 353.714 261.796 352.637 261.796 351.56 261.796 350.688 260.923 350.688 259.846 350.688 258.769 351.56 257.896 352.637 257.896 353.714 257.896 354.587 258.769 354.587 259.846Z" fill="#505050"/><path d="M375.268 239.166C375.268 240.242 374.395 241.115 373.318 241.115 372.241 241.115 371.368 240.242 371.368 239.166 371.368 238.089 372.241 237.216 373.318 237.216 374.395 237.216 375.268 238.089 375.268 239.166Z" fill="#505050"/><path d="M385.608 228.825C385.608 229.902 384.735 230.774 383.658 230.774 382.581 230.774 381.708 229.902 381.708 228.825 381.708 227.748 382.581 226.875 383.658 226.875 384.735 226.875 385.608 227.748 385.608 228.825Z" fill="#0F9ED5"/><path d="M323.566 290.867C323.566 291.944 322.693 292.817 321.616 292.817 320.539 292.817 319.666 291.944 319.666 290.867 319.666 289.79 320.539 288.917 321.616 288.917 322.693 288.917 323.566 289.79 323.566 290.867Z" fill="#0F9ED5"/><path d="M344.247 270.186C344.247 271.263 343.374 272.136 342.297 272.136 341.22 272.136 340.347 271.263 340.347 270.186 340.347 269.109 341.22 268.236 342.297 268.236 343.374 268.236 344.247 269.109 344.247 270.186Z" fill="#0F9ED5"/><path d="M364.927 249.506C364.927 250.583 364.054 251.456 362.978 251.456 361.901 251.456 361.028 250.583 361.028 249.506 361.028 248.429 361.901 247.556 362.978 247.556 364.054 247.556 364.927 248.429 364.927 249.506Z" fill="#0F9ED5"/><path d="M307.829 235.719 311.965 239.855C313.858 241.108 316.502 240.833 318.169 239.166 319.837 237.498 320.043 234.922 318.789 233.03L318.928 232.892C320.82 234.146 323.395 233.939 325.063 232.272 326.73 230.604 326.937 228.029 325.683 226.137L325.822 225.998C327.714 227.252 330.289 227.046 331.956 225.378 333.624 223.71 333.915 221.051 332.662 219.159L328.525 215.022 307.829 235.719Z" fill="#737373"/><path d="M313.344 220.553C314.104 219.792 315.341 219.792 316.102 220.553 316.861 221.313 316.861 222.55 316.102 223.31 315.341 224.071 314.104 224.071 313.344 223.31 312.584 222.55 312.584 221.313 313.344 220.553M311.276 218.484C309.372 220.388 309.372 223.475 311.276 225.378 313.179 227.282 316.266 227.282 318.169 225.378 320.073 223.475 320.073 220.388 318.169 218.484 316.266 216.581 313.18 216.581 311.276 218.484L311.276 218.484Z" fill="#737474"/></g></svg>