<svg width="624" height="624" xmlns="http://www.w3.org/2000/svg" xmlns:xlink="http://www.w3.org/1999/xlink" xml:space="preserve" overflow="hidden"><g><path d="M272.86 177.025 428.86 177.025 428.86 333.025 272.86 333.025Z" stroke="#196B24" stroke-width="1.33333" fill="#E4E4E4"/><path d="M330.71 216.676 363.86 249.826 385.31 228.376 352.16 195.226 330.741 195.257Z" stroke="#196B24" stroke-width="1.33333" fill="#FFFFFF"/><path d="M428.86 213.425 353.622 213.425 353.622 177.025 348.422 177.025 348.422 213.425 272.86 213.425 272.86 218.625 348.422 218.625 348.422 334.075 353.622 334.075 353.622 218.625 428.86 218.625Z" stroke="#196B24" stroke-width="1.33333" fill="#D1D1D1"/><path d="M399.126 161.361C398.145 158.34 395.041 156.393 390.389 155.88 386.781 155.481 382.453 155.973 378.091 157.249 384.135 148.375 385.282 139.384 380.652 136.02 378.081 134.152 374.427 134.402 370.362 136.722 367.21 138.52 364.003 141.456 361.227 145.045 360.899 134.317 356.533 126.379 350.811 126.379 345.081 126.379 340.71 134.337 340.393 145.088 333.824 136.609 325.63 132.758 321.003 136.119 318.432 137.986 317.541 141.539 318.49 146.123 319.227 149.675 321.028 153.633 323.584 157.382 313.279 154.378 304.38 156.078 302.612 161.52 301.631 164.54 302.997 167.939 306.459 171.089 309.388 173.753 313.619 176.071 318.373 177.616 324.33 179.552 335.324 179.923 342.882 179.923 347.321 179.923 350.576 179.795 350.923 179.78 351.164 179.77 351.398 179.722 351.62 179.65 352.899 179.692 355.547 179.763 358.857 179.763 366.415 179.763 377.409 179.392 383.365 177.456 388.12 175.912 392.35 173.594 395.279 170.929 398.741 167.779 400.107 164.381 399.126 161.361ZM364.679 149.092C367.157 145.683 370.167 142.82 372.938 141.238 374.564 140.311 375.796 139.982 376.62 139.982 377.064 139.982 377.391 140.078 377.595 140.226 379.033 141.272 378.77 147.521 373.155 155.25 370.877 158.385 366.203 162.427 361.601 166.026 359.609 167.368 357.707 168.709 356.021 169.931 356.015 169.935 356.009 169.93 356.011 169.924 356.647 167.953 357.328 165.749 357.983 163.458 359.988 157.955 362.395 152.237 364.679 149.092ZM350.811 131.579C352.589 131.579 356.049 136.79 356.049 146.343 356.049 150.219 354.643 156.237 353.035 161.855 352.213 164.111 351.463 166.313 350.817 168.292 350.815 168.298 350.806 168.298 350.805 168.292 350.161 166.324 349.417 164.142 348.601 161.905 346.988 156.272 345.574 150.23 345.574 146.342 345.573 136.79 349.033 131.579 350.811 131.579ZM324.058 140.326C324.279 140.165 324.604 140.081 325.016 140.081 327.291 140.081 332.222 142.65 336.974 149.191 339.253 152.327 341.654 158.025 343.655 163.516 344.316 165.823 345.002 168.044 345.643 170.024 345.645 170.03 345.638 170.035 345.633 170.032 343.955 168.817 342.07 167.489 340.094 166.158 335.479 162.551 330.784 158.493 328.5 155.349 326.021 151.939 324.23 148.192 323.582 145.068 322.997 142.247 323.473 140.751 324.058 140.326ZM309.958 167.242C307.828 165.305 307.333 163.814 307.557 163.127 307.887 162.107 310.207 161.093 313.986 161.093 316.479 161.093 319.606 161.534 323.216 162.707 326.904 163.905 332.195 167.104 337.043 170.37 339.058 171.946 341.038 173.423 342.804 174.706 342.809 174.71 342.807 174.717 342.8 174.717 335.555 174.719 325.255 174.385 319.979 172.671 315.97 171.368 312.318 169.389 309.958 167.242ZM391.779 167.083C389.419 169.23 385.767 171.209 381.757 172.511 376.486 174.224 366.158 174.557 358.936 174.558 358.93 174.558 358.927 174.55 358.933 174.546 360.691 173.268 362.658 171.8 364.658 170.235 369.515 166.96 374.824 163.749 378.52 162.548 382.53 161.245 386.647 160.699 389.818 161.049 392.68 161.364 393.956 162.28 394.18 162.967 394.404 163.655 393.909 165.145 391.779 167.083Z" stroke="#196B24" stroke-width="1.33333" fill="#D1D1D1"/><path d="M430.16 283.625 116.795 283.625 116.795 303.073C116.795 303.073 118.409 304.914 118.409 309.009 118.409 313.104 116.795 314.708 116.795 314.708L116.795 336.925 430.16 336.925 430.16 314.6C430.16 314.6 428.068 313.43 428.068 308.794 428.068 304.157 430.16 303.139 430.16 303.139L430.16 283.625Z" stroke="#196B24" stroke-width="1.33333" fill="#BF0000"/><path d="M116.795 303.032C120.026 303.032 122.645 305.651 122.645 308.882 122.645 312.113 120.026 314.732 116.795 314.732L116.795 303.032Z" stroke="#196B24" stroke-width="1.33333" fill="#FFFFFF"/><path d="M161.645 308.882C161.645 312.113 159.026 314.732 155.795 314.732 152.564 314.732 149.945 312.113 149.945 308.882 149.945 305.651 152.564 303.032 155.795 303.032 159.026 303.032 161.645 305.651 161.645 308.882Z" stroke="#196B24" stroke-width="1.33333" fill="#FFFFFF"/><path d="M200.645 308.882C200.645 312.113 198.026 314.732 194.795 314.732 191.564 314.732 188.945 312.113 188.945 308.882 188.945 305.651 191.564 303.032 194.795 303.032 198.026 303.032 200.645 305.651 200.645 308.882Z" stroke="#196B24" stroke-width="1.33333" fill="#FFFFFF"/><path d="M239.645 308.882C239.645 312.113 237.026 314.732 233.795 314.732 230.564 314.732 227.945 312.113 227.945 308.882 227.945 305.651 230.564 303.032 233.795 303.032 237.026 303.032 239.645 305.651 239.645 308.882Z" stroke="#196B24" stroke-width="1.33333" fill="#FFFFFF"/><path d="M278.645 308.882C278.645 312.113 276.026 314.732 272.795 314.732 269.564 314.732 266.945 312.113 266.945 308.882 266.945 305.651 269.564 303.032 272.795 303.032 276.026 303.032 278.645 305.651 278.645 308.882Z" stroke="#196B24" stroke-width="1.33333" fill="#FFFFFF"/><path d="M317.645 308.882C317.645 312.113 315.026 314.732 311.795 314.732 308.564 314.732 305.945 312.113 305.945 308.882 305.945 305.651 308.564 303.032 311.795 303.032 315.026 303.032 317.645 305.651 317.645 308.882Z" stroke="#196B24" stroke-width="1.33333" fill="#FFFFFF"/><path d="M143.445 292.632C143.445 295.863 140.826 298.482 137.595 298.482 134.364 298.482 131.745 295.863 131.745 292.632 131.745 289.401 134.364 286.782 137.595 286.782 140.826 286.782 143.445 289.401 143.445 292.632Z" stroke="#196B24" stroke-width="1.33333" fill="#FFFFFF"/><path d="M182.445 292.632C182.445 295.863 179.826 298.482 176.595 298.482 173.364 298.482 170.745 295.863 170.745 292.632 170.745 289.401 173.364 286.782 176.595 286.782 179.826 286.782 182.445 289.401 182.445 292.632Z" stroke="#196B24" stroke-width="1.33333" fill="#FFFFFF"/><path d="M221.445 292.632C221.445 295.863 218.826 298.482 215.595 298.482 212.364 298.482 209.745 295.863 209.745 292.632 209.745 289.401 212.364 286.782 215.595 286.782 218.826 286.782 221.445 289.401 221.445 292.632Z" stroke="#196B24" stroke-width="1.33333" fill="#FFFFFF"/><path d="M260.445 292.632C260.445 295.863 257.826 298.482 254.595 298.482 251.364 298.482 248.745 295.863 248.745 292.632 248.745 289.401 251.364 286.782 254.595 286.782 257.826 286.782 260.445 289.401 260.445 292.632Z" stroke="#196B24" stroke-width="1.33333" fill="#FFFFFF"/><path d="M299.445 292.632C299.445 295.863 296.826 298.482 293.595 298.482 290.364 298.482 287.745 295.863 287.745 292.632 287.745 289.401 290.364 286.782 293.595 286.782 296.826 286.782 299.445 289.401 299.445 292.632Z" stroke="#196B24" stroke-width="1.33333" fill="#FFFFFF"/><path d="M143.445 325.132C143.445 328.363 140.826 330.982 137.595 330.982 134.364 330.982 131.745 328.363 131.745 325.132 131.745 321.901 134.364 319.282 137.595 319.282 140.826 319.282 143.445 321.901 143.445 325.132Z" stroke="#196B24" stroke-width="1.33333" fill="#FFFFFF"/><path d="M182.445 325.132C182.445 328.363 179.826 330.982 176.595 330.982 173.364 330.982 170.745 328.363 170.745 325.132 170.745 321.901 173.364 319.282 176.595 319.282 179.826 319.282 182.445 321.901 182.445 325.132Z" stroke="#196B24" stroke-width="1.33333" fill="#FFFFFF"/><path d="M221.445 325.132C221.445 328.363 218.826 330.982 215.595 330.982 212.364 330.982 209.745 328.363 209.745 325.132 209.745 321.901 212.364 319.282 215.595 319.282 218.826 319.282 221.445 321.901 221.445 325.132Z" stroke="#196B24" stroke-width="1.33333" fill="#FFFFFF"/><path d="M260.445 325.132C260.445 328.363 257.826 330.982 254.595 330.982 251.364 330.982 248.745 328.363 248.745 325.132 248.745 321.901 251.364 319.282 254.595 319.282 257.826 319.282 260.445 321.901 260.445 325.132Z" stroke="#196B24" stroke-width="1.33333" fill="#FFFFFF"/><path d="M299.445 325.132C299.445 328.363 296.826 330.982 293.595 330.982 290.364 330.982 287.745 328.363 287.745 325.132 287.745 321.901 290.364 319.282 293.595 319.282 296.826 319.282 299.445 321.901 299.445 325.132Z" stroke="#196B24" stroke-width="1.33333" fill="#FFFFFF"/><path d="M338.445 292.632C338.445 295.863 335.826 298.482 332.595 298.482 329.364 298.482 326.745 295.863 326.745 292.632 326.745 289.401 329.364 286.782 332.595 286.782 335.826 286.782 338.445 289.401 338.445 292.632Z" stroke="#196B24" stroke-width="1.33333" fill="#FFFFFF"/><path d="M377.445 292.632C377.445 295.863 374.826 298.482 371.595 298.482 368.364 298.482 365.745 295.863 365.745 292.632 365.745 289.401 368.364 286.782 371.595 286.782 374.826 286.782 377.445 289.401 377.445 292.632Z" stroke="#196B24" stroke-width="1.33333" fill="#FFFFFF"/><path d="M338.445 325.132C338.445 328.363 335.826 330.982 332.595 330.982 329.364 330.982 326.745 328.363 326.745 325.132 326.745 321.901 329.364 319.282 332.595 319.282 335.826 319.282 338.445 321.901 338.445 325.132Z" stroke="#196B24" stroke-width="1.33333" fill="#FFFFFF"/><path d="M377.445 325.132C377.445 328.363 374.826 330.982 371.595 330.982 368.364 330.982 365.745 328.363 365.745 325.132 365.745 321.901 368.364 319.282 371.595 319.282 374.826 319.282 377.445 321.901 377.445 325.132Z" stroke="#196B24" stroke-width="1.33333" fill="#FFFFFF"/><path d="M356.645 308.882C356.645 312.113 354.026 314.732 350.795 314.732 347.564 314.732 344.945 312.113 344.945 308.882 344.945 305.651 347.564 303.032 350.795 303.032 354.026 303.032 356.645 305.651 356.645 308.882Z" stroke="#196B24" stroke-width="1.33333" fill="#FFFFFF"/><path d="M395.872 308.882C395.872 312.113 393.253 314.732 390.022 314.732 386.791 314.732 384.172 312.113 384.172 308.882 384.172 305.651 386.791 303.032 390.022 303.032 393.253 303.032 395.872 305.651 395.872 308.882Z" stroke="#196B24" stroke-width="1.33333" fill="#FFFFFF"/><path d="M416.445 292.632C416.445 295.863 413.825 298.482 410.595 298.482 407.364 298.482 404.745 295.863 404.745 292.632 404.745 289.401 407.364 286.782 410.595 286.782 413.825 286.782 416.445 289.401 416.445 292.632Z" stroke="#196B24" stroke-width="1.33333" fill="#FFFFFF"/><path d="M416.445 325.132C416.445 328.363 413.825 330.982 410.595 330.982 407.364 330.982 404.745 328.363 404.745 325.132 404.745 321.901 407.364 319.282 410.595 319.282 413.825 319.282 416.445 321.901 416.445 325.132Z" stroke="#196B24" stroke-width="1.33333" fill="#FFFFFF"/><path d="M430.16 303.124C429.831 303.067 429.496 303.031 429.152 303.031 425.921 303.031 423.302 305.65 423.302 308.881 423.302 312.112 425.921 314.731 429.152 314.731 429.497 314.731 429.832 314.696 430.16 314.638L430.16 303.124Z" stroke="#196B24" stroke-width="1.33333" fill="#FFFFFF"/><path d="M317.791 269.162C317.607 267.572 316.048 266.633 314.612 267.099L287.559 275.889C287.552 275.892 287.548 275.882 287.553 275.878L310.454 259.239C311.522 258.463 311.899 256.968 311.179 255.861 310.412 254.681 308.825 254.398 307.7 255.215L284.688 271.935C284.682 271.939 284.674 271.931 284.679 271.926L301.358 248.968C302.042 248.026 302.026 246.708 301.241 245.851 300.16 244.671 298.344 244.824 297.454 246.048L280.735 269.059C280.73 269.065 280.721 269.06 280.723 269.053L289.494 242.061C289.853 240.957 289.431 239.71 288.42 239.138 287.028 238.35 285.345 239.054 284.877 240.495L276.087 267.547C276.084 267.554 276.074 267.552 276.074 267.545L276.074 239.238C276.074 237.918 275.085 236.735 273.767 236.666 272.361 236.593 271.199 237.711 271.199 239.101L271.199 267.545C271.199 267.552 271.188 267.554 271.186 267.546L262.397 240.495C261.929 239.054 260.244 238.35 258.853 239.138 257.842 239.711 257.421 240.958 257.78 242.062L266.549 269.053C266.552 269.06 266.542 269.065 266.538 269.059L249.818 246.046C249.002 244.923 247.405 244.702 246.31 245.587 245.284 246.417 245.179 247.955 245.955 249.023L262.593 271.925C262.598 271.931 262.59 271.939 262.584 271.934L239.572 255.215C238.45 254.399 236.861 254.682 236.094 255.861 235.374 256.968 235.75 258.463 236.818 259.239L259.719 275.878C259.725 275.883 259.72 275.892 259.713 275.89L232.66 267.1C231.225 266.634 229.665 267.573 229.481 269.162 229.347 270.319 230.108 271.396 231.216 271.757L272.882 285.295 272.99 285.323C273.422 285.434 273.877 285.432 274.308 285.316L274.388 285.295 316.053 271.757C317.162 271.396 317.924 270.318 317.791 269.162Z" stroke="#196B24" stroke-width="1.33333" fill="#BF0000"/><path d="M390.022 255.025 507.022 255.025 507.022 412.325 390.022 412.325Z" stroke="#196B24" stroke-width="1.33333" fill="#737373"/><path d="M485.369 315.576C482.154 313.708 478.304 313.689 475.073 315.528L452.154 328.568 452.154 255.026 447.279 255.026 447.279 328.568 424.359 315.529C421.127 313.688 417.278 313.707 414.063 315.576 410.848 317.446 408.929 320.783 408.929 324.502 408.929 330.195 413.56 334.827 419.253 334.827L444.127 334.827 422.952 356.002 426.399 359.449 447.279 338.568 447.279 412.325 452.154 412.325 452.154 338.571 473.032 359.448 476.479 356.001 455.304 334.826 480.179 334.826C485.872 334.826 490.504 330.195 490.504 324.501 490.504 320.782 488.585 317.446 485.369 315.576ZM439.828 329.952 419.253 329.952C415.885 329.952 413.221 326.88 413.914 323.391 414.164 322.131 414.879 320.986 415.897 320.204 416.905 319.431 418.079 319.043 419.253 319.043 420.178 319.043 421.103 319.284 421.948 319.765L439.831 329.939C439.837 329.943 439.835 329.952 439.828 329.952ZM480.002 329.952 459.605 329.952C459.599 329.952 459.596 329.943 459.602 329.939L477.484 319.765C479.19 318.794 481.222 318.804 482.919 319.79 484.689 320.82 485.715 322.691 485.623 324.756 485.493 327.695 482.943 329.952 480.002 329.952Z" stroke="#196B24" stroke-width="1.33333" fill="#505050"/><path d="M78.1404 333.025 300.16 333.025 300.16 528.025 78.1404 528.025Z" stroke="#196B24" stroke-width="1.33333" fill="#505050"/><path d="M102.225 528.025 78.1404 503.94 78.1404 519.797 86.3687 528.025Z" stroke="#196B24" stroke-width="1.33333" fill="#737373"/><path d="M135.383 528.025 78.1404 470.783 78.1404 486.639 119.527 528.025Z" stroke="#196B24" stroke-width="1.33333" fill="#737373"/><path d="M168.54 528.025 78.1404 437.625 78.1404 453.482 152.684 528.025Z" stroke="#196B24" stroke-width="1.33333" fill="#737373"/><path d="M201.698 528.025 78.1404 404.468 78.1404 420.324 185.841 528.025Z" stroke="#196B24" stroke-width="1.33333" fill="#737373"/><path d="M234.855 528.025 78.1404 371.31 78.1404 387.167 218.999 528.025Z" stroke="#196B24" stroke-width="1.33333" fill="#737373"/><path d="M268.013 528.025 78.1404 338.153 78.1404 354.009 252.156 528.025Z" stroke="#196B24" stroke-width="1.33333" fill="#737373"/><path d="M300.16 528.025 300.16 527.014 106.17 333.025 90.3143 333.025 285.314 528.025Z" stroke="#196B24" stroke-width="1.33333" fill="#737373"/><path d="M300.16 493.857 139.328 333.025 123.471 333.025 300.16 509.713Z" stroke="#196B24" stroke-width="1.33333" fill="#737373"/><path d="M300.16 460.699 172.485 333.025 156.629 333.025 300.16 476.556Z" stroke="#196B24" stroke-width="1.33333" fill="#737373"/><path d="M300.16 427.542 205.643 333.025 189.786 333.025 300.16 443.398Z" stroke="#196B24" stroke-width="1.33333" fill="#737373"/><path d="M300.16 394.384 238.801 333.025 222.944 333.025 300.16 410.241Z" stroke="#196B24" stroke-width="1.33333" fill="#737373"/><path d="M300.16 361.226 271.958 333.025 256.102 333.025 300.16 377.083Z" stroke="#196B24" stroke-width="1.33333" fill="#737373"/><path d="M300.16 333.025 289.259 333.025 300.16 343.925Z" stroke="#196B24" stroke-width="1.33333" fill="#737373"/><path d="M139.568 416.225C138.491 416.225 137.618 415.352 137.618 414.275L137.618 380.414C137.618 361.691 152.851 346.458 171.575 346.458 190.299 346.458 205.531 361.691 205.531 380.414L205.531 413.564C205.531 414.641 204.658 415.514 203.581 415.514 202.504 415.514 201.631 414.641 201.631 413.564L201.631 380.414C201.631 363.841 188.148 350.358 171.575 350.358 155.002 350.358 141.518 363.841 141.518 380.414L141.518 414.275C141.518 415.353 140.645 416.225 139.568 416.225Z" stroke="#196B24" stroke-width="1.33333" fill="#BF0000"/><path d="M147.525 416.225C146.448 416.225 145.575 415.352 145.575 414.275L145.575 380.414C145.575 361.691 160.807 346.458 179.531 346.458 198.255 346.458 213.488 361.691 213.488 380.414L213.488 413.564C213.488 414.641 212.615 415.514 211.538 415.514 210.461 415.514 209.588 414.641 209.588 413.564L209.588 380.414C209.588 363.841 196.104 350.358 179.531 350.358 162.958 350.358 149.475 363.841 149.475 380.414L149.475 414.275C149.475 415.353 148.602 416.225 147.525 416.225Z" stroke="#196B24" stroke-width="1.33333" fill="#BF0000"/><path d="M234.053 411.239 117.053 411.224 117.053 528.224 234.025 527.992Z" stroke="#196B24" stroke-width="1.33333" fill="#BF0000"/><path d="M176.283 458.733 188.548 458.734 175.455 445.641 162.361 458.733 174.626 458.733 162.36 470.997 174.625 470.997 162.36 483.261 174.624 483.261 162.36 495.525 188.546 495.526 176.282 483.261 188.547 483.261 176.283 470.997 188.547 470.997Z" stroke="#196B24" stroke-width="1.33333" fill="#FFFFFF"/><path d="M289.727 332.895 407.116 332.895 407.116 412.1 289.727 412.1Z" stroke="#196B24" stroke-width="1.33333" fill="#F1F1F1"/><path d="M348.422 401.12C348.234 401.12 348.056 401.039 347.933 400.898L293.658 338.823C293.422 338.552 293.449 338.142 293.719 337.906 293.99 337.67 294.401 337.698 294.637 337.967L348.422 399.483 402.208 337.967C402.445 337.696 402.855 337.669 403.125 337.906 403.395 338.142 403.423 338.552 403.187 338.823L348.912 400.898C348.788 401.039 348.609 401.12 348.422 401.12Z" stroke="#196B24" stroke-width="1.33333" fill="#D1D1D1"/><path d="M295.772 406.97C295.606 406.97 295.439 406.906 295.313 406.78 295.058 406.526 295.058 406.115 295.313 405.861L320.988 380.186C321.242 379.931 321.652 379.931 321.907 380.186 322.161 380.44 322.161 380.851 321.907 381.105L296.232 406.78C296.105 406.906 295.939 406.97 295.772 406.97Z" stroke="#196B24" stroke-width="1.33333" fill="#D1D1D1"/><path d="M400.238 406.136C400.072 406.136 399.905 406.072 399.779 405.945L374.612 380.778C374.358 380.524 374.358 380.113 374.612 379.859 374.866 379.605 375.277 379.605 375.531 379.859L400.698 405.026C400.952 405.28 400.952 405.691 400.698 405.945 400.57 406.073 400.404 406.136 400.238 406.136Z" stroke="#196B24" stroke-width="1.33333" fill="#D1D1D1"/><path d="M348.423 357.038C348.421 357.041 348.423 357.041 348.42 357.038 348.271 356.886 337.696 346.059 337.696 355.74 337.696 362.827 348.312 371.254 348.421 371.34 348.423 371.342 348.42 371.342 348.423 371.34 348.531 371.254 359.147 362.827 359.147 355.74 359.147 346.059 348.572 356.886 348.423 357.038Z" stroke="#196B24" stroke-width="1.33333" fill="#BF0000"/><path d="M253.36 411.224 545.86 411.224 545.86 528.223 253.36 528.223Z" stroke="#196B24" stroke-width="1.33333" fill="#D2D2D2"/><path d="M531.667 431.192C531.667 432.987 530.212 434.442 528.417 434.442 526.623 434.442 525.167 432.987 525.167 431.192 525.167 429.397 526.623 427.942 528.417 427.942 530.212 427.942 531.667 429.397 531.667 431.192Z" stroke="#196B24" stroke-width="1.33333" fill="#E6E6E6"/><path d="M516.144 431.192C516.144 432.987 514.689 434.442 512.894 434.442 511.099 434.442 509.644 432.987 509.644 431.192 509.644 429.397 511.099 427.942 512.894 427.942 514.689 427.942 516.144 429.397 516.144 431.192Z" stroke="#196B24" stroke-width="1.33333" fill="#E6E6E6"/><path d="M500.621 431.192C500.621 432.987 499.166 434.442 497.371 434.442 495.576 434.442 494.121 432.987 494.121 431.192 494.121 429.397 495.576 427.942 497.371 427.942 499.166 427.942 500.621 429.397 500.621 431.192Z" stroke="#196B24" stroke-width="1.33333" fill="#E6E6E6"/><path d="M485.097 431.192C485.097 432.987 483.642 434.442 481.847 434.442 480.052 434.442 478.597 432.987 478.597 431.192 478.597 429.397 480.052 427.942 481.847 427.942 483.642 427.942 485.097 429.397 485.097 431.192Z" stroke="#196B24" stroke-width="1.33333" fill="#E6E6E6"/><path d="M469.574 431.192C469.574 432.987 468.119 434.442 466.324 434.442 464.529 434.442 463.074 432.987 463.074 431.192 463.074 429.397 464.529 427.942 466.324 427.942 468.119 427.942 469.574 429.397 469.574 431.192Z" stroke="#196B24" stroke-width="1.33333" fill="#E6E6E6"/><path d="M454.05 431.192C454.05 432.987 452.595 434.442 450.8 434.442 449.005 434.442 447.55 432.987 447.55 431.192 447.55 429.397 449.005 427.942 450.8 427.942 452.595 427.942 454.05 429.397 454.05 431.192Z" stroke="#196B24" stroke-width="1.33333" fill="#E6E6E6"/><path d="M438.527 431.192C438.527 432.987 437.072 434.442 435.277 434.442 433.482 434.442 432.027 432.987 432.027 431.192 432.027 429.397 433.482 427.942 435.277 427.942 437.072 427.942 438.527 429.397 438.527 431.192Z" stroke="#196B24" stroke-width="1.33333" fill="#E6E6E6"/><path d="M423.003 431.192C423.003 432.987 421.548 434.442 419.753 434.442 417.958 434.442 416.503 432.987 416.503 431.192 416.503 429.397 417.958 427.942 419.753 427.942 421.548 427.942 423.003 429.397 423.003 431.192Z" stroke="#196B24" stroke-width="1.33333" fill="#E6E6E6"/><path d="M407.48 431.192C407.48 432.987 406.025 434.442 404.23 434.442 402.435 434.442 400.98 432.987 400.98 431.192 400.98 429.397 402.435 427.942 404.23 427.942 406.025 427.942 407.48 429.397 407.48 431.192Z" stroke="#196B24" stroke-width="1.33333" fill="#E6E6E6"/><path d="M391.956 431.192C391.956 432.987 390.501 434.442 388.706 434.442 386.912 434.442 385.456 432.987 385.456 431.192 385.456 429.397 386.912 427.942 388.706 427.942 390.501 427.942 391.956 429.397 391.956 431.192Z" stroke="#196B24" stroke-width="1.33333" fill="#E6E6E6"/><path d="M376.433 431.192C376.433 432.987 374.978 434.442 373.183 434.442 371.388 434.442 369.933 432.987 369.933 431.192 369.933 429.397 371.388 427.942 373.183 427.942 374.978 427.942 376.433 429.397 376.433 431.192Z" stroke="#196B24" stroke-width="1.33333" fill="#E6E6E6"/><path d="M360.909 431.192C360.909 432.987 359.454 434.442 357.659 434.442 355.864 434.442 354.409 432.987 354.409 431.192 354.409 429.397 355.864 427.942 357.659 427.942 359.454 427.942 360.909 429.397 360.909 431.192Z" stroke="#196B24" stroke-width="1.33333" fill="#E6E6E6"/><path d="M345.386 431.192C345.386 432.987 343.931 434.442 342.136 434.442 340.341 434.442 338.886 432.987 338.886 431.192 338.886 429.397 340.341 427.942 342.136 427.942 343.931 427.942 345.386 429.397 345.386 431.192Z" stroke="#196B24" stroke-width="1.33333" fill="#E6E6E6"/><path d="M329.863 431.192C329.863 432.987 328.408 434.442 326.613 434.442 324.818 434.442 323.363 432.987 323.363 431.192 323.363 429.397 324.818 427.942 326.613 427.942 328.408 427.942 329.863 429.397 329.863 431.192Z" stroke="#196B24" stroke-width="1.33333" fill="#E6E6E6"/><path d="M314.339 431.192C314.339 432.987 312.884 434.442 311.089 434.442 309.294 434.442 307.839 432.987 307.839 431.192 307.839 429.397 309.294 427.942 311.089 427.942 312.884 427.942 314.339 429.397 314.339 431.192Z" stroke="#196B24" stroke-width="1.33333" fill="#E6E6E6"/><path d="M298.815 431.192C298.815 432.987 297.36 434.442 295.565 434.442 293.77 434.442 292.315 432.987 292.315 431.192 292.315 429.397 293.77 427.942 295.565 427.942 297.36 427.942 298.815 429.397 298.815 431.192Z" stroke="#196B24" stroke-width="1.33333" fill="#E6E6E6"/><path d="M283.292 431.192C283.292 432.987 281.837 434.442 280.042 434.442 278.247 434.442 276.792 432.987 276.792 431.192 276.792 429.397 278.247 427.942 280.042 427.942 281.837 427.942 283.292 429.397 283.292 431.192Z" stroke="#196B24" stroke-width="1.33333" fill="#E6E6E6"/><path d="M267.769 431.192C267.769 432.987 266.314 434.442 264.519 434.442 262.724 434.442 261.269 432.987 261.269 431.192 261.269 429.397 262.724 427.942 264.519 427.942 266.314 427.942 267.769 429.397 267.769 431.192Z" stroke="#196B24" stroke-width="1.33333" fill="#E6E6E6"/><path d="M531.667 415.678C531.667 417.473 530.212 418.928 528.417 418.928 526.623 418.928 525.167 417.473 525.167 415.678 525.167 413.883 526.623 412.428 528.417 412.428 530.212 412.428 531.667 413.883 531.667 415.678Z" stroke="#196B24" stroke-width="1.33333" fill="#E6E6E6"/><path d="M516.144 415.678C516.144 417.473 514.689 418.928 512.894 418.928 511.099 418.928 509.644 417.473 509.644 415.678 509.644 413.883 511.099 412.428 512.894 412.428 514.689 412.428 516.144 413.883 516.144 415.678Z" stroke="#196B24" stroke-width="1.33333" fill="#E6E6E6"/><path d="M500.621 415.678C500.621 417.473 499.166 418.928 497.371 418.928 495.576 418.928 494.121 417.473 494.121 415.678 494.121 413.883 495.576 412.428 497.371 412.428 499.166 412.428 500.621 413.883 500.621 415.678Z" stroke="#196B24" stroke-width="1.33333" fill="#E6E6E6"/><path d="M485.097 415.678C485.097 417.473 483.642 418.928 481.847 418.928 480.052 418.928 478.597 417.473 478.597 415.678 478.597 413.883 480.052 412.428 481.847 412.428 483.642 412.428 485.097 413.883 485.097 415.678Z" stroke="#196B24" stroke-width="1.33333" fill="#E6E6E6"/><path d="M469.574 415.678C469.574 417.473 468.119 418.928 466.324 418.928 464.529 418.928 463.074 417.473 463.074 415.678 463.074 413.883 464.529 412.428 466.324 412.428 468.119 412.428 469.574 413.883 469.574 415.678Z" stroke="#196B24" stroke-width="1.33333" fill="#E6E6E6"/><path d="M454.05 415.678C454.05 417.473 452.595 418.928 450.8 418.928 449.005 418.928 447.55 417.473 447.55 415.678 447.55 413.883 449.005 412.428 450.8 412.428 452.595 412.428 454.05 413.883 454.05 415.678Z" stroke="#196B24" stroke-width="1.33333" fill="#E6E6E6"/><path d="M438.527 415.678C438.527 417.473 437.072 418.928 435.277 418.928 433.482 418.928 432.027 417.473 432.027 415.678 432.027 413.883 433.482 412.428 435.277 412.428 437.072 412.428 438.527 413.883 438.527 415.678Z" stroke="#196B24" stroke-width="1.33333" fill="#E6E6E6"/><path d="M423.003 415.678C423.003 417.473 421.548 418.928 419.753 418.928 417.958 418.928 416.503 417.473 416.503 415.678 416.503 413.883 417.958 412.428 419.753 412.428 421.548 412.428 423.003 413.883 423.003 415.678Z" stroke="#196B24" stroke-width="1.33333" fill="#E6E6E6"/><path d="M407.48 415.678C407.48 417.473 406.025 418.928 404.23 418.928 402.435 418.928 400.98 417.473 400.98 415.678 400.98 413.883 402.435 412.428 404.23 412.428 406.025 412.428 407.48 413.883 407.48 415.678Z" stroke="#196B24" stroke-width="1.33333" fill="#E6E6E6"/><path d="M391.956 415.678C391.956 417.473 390.501 418.928 388.706 418.928 386.912 418.928 385.456 417.473 385.456 415.678 385.456 413.883 386.912 412.428 388.706 412.428 390.501 412.428 391.956 413.883 391.956 415.678Z" stroke="#196B24" stroke-width="1.33333" fill="#E6E6E6"/><path d="M376.433 415.678C376.433 417.473 374.978 418.928 373.183 418.928 371.388 418.928 369.933 417.473 369.933 415.678 369.933 413.883 371.388 412.428 373.183 412.428 374.978 412.428 376.433 413.883 376.433 415.678Z" stroke="#196B24" stroke-width="1.33333" fill="#E6E6E6"/><path d="M360.909 415.678C360.909 417.473 359.454 418.928 357.659 418.928 355.864 418.928 354.409 417.473 354.409 415.678 354.409 413.883 355.864 412.428 357.659 412.428 359.454 412.428 360.909 413.883 360.909 415.678Z" stroke="#196B24" stroke-width="1.33333" fill="#E6E6E6"/><path d="M345.386 415.678C345.386 417.473 343.931 418.928 342.136 418.928 340.341 418.928 338.886 417.473 338.886 415.678 338.886 413.883 340.341 412.428 342.136 412.428 343.931 412.428 345.386 413.883 345.386 415.678Z" stroke="#196B24" stroke-width="1.33333" fill="#E6E6E6"/><path d="M329.863 415.678C329.863 417.473 328.408 418.928 326.613 418.928 324.818 418.928 323.363 417.473 323.363 415.678 323.363 413.883 324.818 412.428 326.613 412.428 328.408 412.428 329.863 413.883 329.863 415.678Z" stroke="#196B24" stroke-width="1.33333" fill="#E6E6E6"/><path d="M314.339 415.678C314.339 417.473 312.884 418.928 311.089 418.928 309.294 418.928 307.839 417.473 307.839 415.678 307.839 413.883 309.294 412.428 311.089 412.428 312.884 412.428 314.339 413.883 314.339 415.678Z" stroke="#196B24" stroke-width="1.33333" fill="#E6E6E6"/><path d="M298.815 415.678C298.815 417.473 297.36 418.928 295.565 418.928 293.77 418.928 292.315 417.473 292.315 415.678 292.315 413.883 293.77 412.428 295.565 412.428 297.36 412.428 298.815 413.883 298.815 415.678Z" stroke="#196B24" stroke-width="1.33333" fill="#E6E6E6"/><path d="M283.292 415.678C283.292 417.473 281.837 418.928 280.042 418.928 278.247 418.928 276.792 417.473 276.792 415.678 276.792 413.883 278.247 412.428 280.042 412.428 281.837 412.428 283.292 413.883 283.292 415.678Z" stroke="#196B24" stroke-width="1.33333" fill="#E6E6E6"/><path d="M267.769 415.678C267.769 417.473 266.314 418.928 264.519 418.928 262.724 418.928 261.269 417.473 261.269 415.678 261.269 413.883 262.724 412.428 264.519 412.428 266.314 412.428 267.769 413.883 267.769 415.678Z" stroke="#196B24" stroke-width="1.33333" fill="#E6E6E6"/><path d="M539.874 423.435C539.874 425.23 538.419 426.685 536.624 426.685 534.829 426.685 533.374 425.23 533.374 423.435 533.374 421.64 534.829 420.185 536.624 420.185 538.419 420.185 539.874 421.64 539.874 423.435Z" stroke="#196B24" stroke-width="1.33333" fill="#E6E6E6"/><path d="M524.35 423.435C524.35 425.23 522.895 426.685 521.1 426.685 519.305 426.685 517.85 425.23 517.85 423.435 517.85 421.64 519.305 420.185 521.1 420.185 522.895 420.185 524.35 421.64 524.35 423.435Z" stroke="#196B24" stroke-width="1.33333" fill="#E6E6E6"/><path d="M508.827 423.435C508.827 425.23 507.372 426.685 505.577 426.685 503.782 426.685 502.327 425.23 502.327 423.435 502.327 421.64 503.782 420.185 505.577 420.185 507.372 420.185 508.827 421.64 508.827 423.435Z" stroke="#196B24" stroke-width="1.33333" fill="#E6E6E6"/><path d="M493.303 423.435C493.303 425.23 491.848 426.685 490.053 426.685 488.258 426.685 486.803 425.23 486.803 423.435 486.803 421.64 488.258 420.185 490.053 420.185 491.848 420.185 493.303 421.64 493.303 423.435Z" stroke="#196B24" stroke-width="1.33333" fill="#E6E6E6"/><path d="M477.78 423.435C477.78 425.23 476.325 426.685 474.53 426.685 472.735 426.685 471.28 425.23 471.28 423.435 471.28 421.64 472.735 420.185 474.53 420.185 476.325 420.185 477.78 421.64 477.78 423.435Z" stroke="#196B24" stroke-width="1.33333" fill="#E6E6E6"/><path d="M462.257 423.435C462.257 425.23 460.802 426.685 459.007 426.685 457.212 426.685 455.757 425.23 455.757 423.435 455.757 421.64 457.212 420.185 459.007 420.185 460.802 420.185 462.257 421.64 462.257 423.435Z" stroke="#196B24" stroke-width="1.33333" fill="#E6E6E6"/><path d="M446.733 423.435C446.733 425.23 445.278 426.685 443.483 426.685 441.688 426.685 440.233 425.23 440.233 423.435 440.233 421.64 441.688 420.185 443.483 420.185 445.278 420.185 446.733 421.64 446.733 423.435Z" stroke="#196B24" stroke-width="1.33333" fill="#E6E6E6"/><path d="M431.209 423.435C431.209 425.23 429.754 426.685 427.959 426.685 426.164 426.685 424.709 425.23 424.709 423.435 424.709 421.64 426.164 420.185 427.959 420.185 429.754 420.185 431.209 421.64 431.209 423.435Z" stroke="#196B24" stroke-width="1.33333" fill="#E6E6E6"/><path d="M415.686 423.435C415.686 425.23 414.231 426.685 412.436 426.685 410.641 426.685 409.186 425.23 409.186 423.435 409.186 421.64 410.641 420.185 412.436 420.185 414.231 420.185 415.686 421.64 415.686 423.435Z" stroke="#196B24" stroke-width="1.33333" fill="#E6E6E6"/><path d="M400.163 423.435C400.163 425.23 398.708 426.685 396.913 426.685 395.118 426.685 393.663 425.23 393.663 423.435 393.663 421.64 395.118 420.185 396.913 420.185 398.708 420.185 400.163 421.64 400.163 423.435Z" stroke="#196B24" stroke-width="1.33333" fill="#E6E6E6"/><path d="M384.639 423.435C384.639 425.23 383.184 426.685 381.389 426.685 379.595 426.685 378.139 425.23 378.139 423.435 378.139 421.64 379.595 420.185 381.389 420.185 383.184 420.185 384.639 421.64 384.639 423.435Z" stroke="#196B24" stroke-width="1.33333" fill="#E6E6E6"/><path d="M369.115 423.435C369.115 425.23 367.66 426.685 365.865 426.685 364.071 426.685 362.615 425.23 362.615 423.435 362.615 421.64 364.071 420.185 365.865 420.185 367.66 420.185 369.115 421.64 369.115 423.435Z" stroke="#196B24" stroke-width="1.33333" fill="#E6E6E6"/><path d="M353.592 423.435C353.592 425.23 352.137 426.685 350.342 426.685 348.547 426.685 347.092 425.23 347.092 423.435 347.092 421.64 348.547 420.185 350.342 420.185 352.137 420.185 353.592 421.64 353.592 423.435Z" stroke="#196B24" stroke-width="1.33333" fill="#E6E6E6"/><path d="M338.069 423.435C338.069 425.23 336.614 426.685 334.819 426.685 333.024 426.685 331.569 425.23 331.569 423.435 331.569 421.64 333.024 420.185 334.819 420.185 336.614 420.185 338.069 421.64 338.069 423.435Z" stroke="#196B24" stroke-width="1.33333" fill="#E6E6E6"/><path d="M322.545 423.435C322.545 425.23 321.09 426.685 319.295 426.685 317.5 426.685 316.045 425.23 316.045 423.435 316.045 421.64 317.5 420.185 319.295 420.185 321.09 420.185 322.545 421.64 322.545 423.435Z" stroke="#196B24" stroke-width="1.33333" fill="#E6E6E6"/><path d="M307.022 423.435C307.022 425.23 305.567 426.685 303.772 426.685 301.977 426.685 300.522 425.23 300.522 423.435 300.522 421.64 301.977 420.185 303.772 420.185 305.567 420.185 307.022 421.64 307.022 423.435Z" stroke="#196B24" stroke-width="1.33333" fill="#E6E6E6"/><path d="M291.498 423.435C291.498 425.23 290.043 426.685 288.248 426.685 286.453 426.685 284.998 425.23 284.998 423.435 284.998 421.64 286.453 420.185 288.248 420.185 290.043 420.185 291.498 421.64 291.498 423.435Z" stroke="#196B24" stroke-width="1.33333" fill="#E6E6E6"/><path d="M275.975 423.435C275.975 425.23 274.52 426.685 272.725 426.685 270.93 426.685 269.475 425.23 269.475 423.435 269.475 421.64 270.93 420.185 272.725 420.185 274.52 420.185 275.975 421.64 275.975 423.435Z" stroke="#196B24" stroke-width="1.33333" fill="#E6E6E6"/><path d="M531.667 446.707C531.667 448.502 530.212 449.957 528.417 449.957 526.623 449.957 525.167 448.502 525.167 446.707 525.167 444.912 526.623 443.457 528.417 443.457 530.212 443.457 531.667 444.912 531.667 446.707Z" stroke="#196B24" stroke-width="1.33333" fill="#E6E6E6"/><path d="M516.144 446.707C516.144 448.502 514.689 449.957 512.894 449.957 511.099 449.957 509.644 448.502 509.644 446.707 509.644 444.912 511.099 443.457 512.894 443.457 514.689 443.457 516.144 444.912 516.144 446.707Z" stroke="#196B24" stroke-width="1.33333" fill="#E6E6E6"/><path d="M500.621 446.707C500.621 448.502 499.166 449.957 497.371 449.957 495.576 449.957 494.121 448.502 494.121 446.707 494.121 444.912 495.576 443.457 497.371 443.457 499.166 443.457 500.621 444.912 500.621 446.707Z" stroke="#196B24" stroke-width="1.33333" fill="#E6E6E6"/><path d="M485.097 446.707C485.097 448.502 483.642 449.957 481.847 449.957 480.052 449.957 478.597 448.502 478.597 446.707 478.597 444.912 480.052 443.457 481.847 443.457 483.642 443.457 485.097 444.912 485.097 446.707Z" stroke="#196B24" stroke-width="1.33333" fill="#E6E6E6"/><path d="M469.574 446.707C469.574 448.502 468.119 449.957 466.324 449.957 464.529 449.957 463.074 448.502 463.074 446.707 463.074 444.912 464.529 443.457 466.324 443.457 468.119 443.457 469.574 444.912 469.574 446.707Z" stroke="#196B24" stroke-width="1.33333" fill="#E6E6E6"/><path d="M454.05 446.707C454.05 448.502 452.595 449.957 450.8 449.957 449.005 449.957 447.55 448.502 447.55 446.707 447.55 444.912 449.005 443.457 450.8 443.457 452.595 443.457 454.05 444.912 454.05 446.707Z" stroke="#196B24" stroke-width="1.33333" fill="#E6E6E6"/><path d="M438.527 446.707C438.527 448.502 437.072 449.957 435.277 449.957 433.482 449.957 432.027 448.502 432.027 446.707 432.027 444.912 433.482 443.457 435.277 443.457 437.072 443.457 438.527 444.912 438.527 446.707Z" stroke="#196B24" stroke-width="1.33333" fill="#E6E6E6"/><path d="M423.003 446.707C423.003 448.502 421.548 449.957 419.753 449.957 417.958 449.957 416.503 448.502 416.503 446.707 416.503 444.912 417.958 443.457 419.753 443.457 421.548 443.457 423.003 444.912 423.003 446.707Z" stroke="#196B24" stroke-width="1.33333" fill="#E6E6E6"/><path d="M407.48 446.707C407.48 448.502 406.025 449.957 404.23 449.957 402.435 449.957 400.98 448.502 400.98 446.707 400.98 444.912 402.435 443.457 404.23 443.457 406.025 443.457 407.48 444.912 407.48 446.707Z" stroke="#196B24" stroke-width="1.33333" fill="#E6E6E6"/><path d="M391.956 446.707C391.956 448.502 390.501 449.957 388.706 449.957 386.912 449.957 385.456 448.502 385.456 446.707 385.456 444.912 386.912 443.457 388.706 443.457 390.501 443.457 391.956 444.912 391.956 446.707Z" stroke="#196B24" stroke-width="1.33333" fill="#E6E6E6"/><path d="M376.433 446.707C376.433 448.502 374.978 449.957 373.183 449.957 371.388 449.957 369.933 448.502 369.933 446.707 369.933 444.912 371.388 443.457 373.183 443.457 374.978 443.457 376.433 444.912 376.433 446.707Z" stroke="#196B24" stroke-width="1.33333" fill="#E6E6E6"/><path d="M360.909 446.707C360.909 448.502 359.454 449.957 357.659 449.957 355.864 449.957 354.409 448.502 354.409 446.707 354.409 444.912 355.864 443.457 357.659 443.457 359.454 443.457 360.909 444.912 360.909 446.707Z" stroke="#196B24" stroke-width="1.33333" fill="#E6E6E6"/><path d="M345.386 446.707C345.386 448.502 343.931 449.957 342.136 449.957 340.341 449.957 338.886 448.502 338.886 446.707 338.886 444.912 340.341 443.457 342.136 443.457 343.931 443.457 345.386 444.912 345.386 446.707Z" stroke="#196B24" stroke-width="1.33333" fill="#E6E6E6"/><path d="M329.863 446.707C329.863 448.502 328.408 449.957 326.613 449.957 324.818 449.957 323.363 448.502 323.363 446.707 323.363 444.912 324.818 443.457 326.613 443.457 328.408 443.457 329.863 444.912 329.863 446.707Z" stroke="#196B24" stroke-width="1.33333" fill="#E6E6E6"/><path d="M314.339 446.707C314.339 448.502 312.884 449.957 311.089 449.957 309.294 449.957 307.839 448.502 307.839 446.707 307.839 444.912 309.294 443.457 311.089 443.457 312.884 443.457 314.339 444.912 314.339 446.707Z" stroke="#196B24" stroke-width="1.33333" fill="#E6E6E6"/><path d="M298.815 446.707C298.815 448.502 297.36 449.957 295.565 449.957 293.77 449.957 292.315 448.502 292.315 446.707 292.315 444.912 293.77 443.457 295.565 443.457 297.36 443.457 298.815 444.912 298.815 446.707Z" stroke="#196B24" stroke-width="1.33333" fill="#E6E6E6"/><path d="M283.292 446.707C283.292 448.502 281.837 449.957 280.042 449.957 278.247 449.957 276.792 448.502 276.792 446.707 276.792 444.912 278.247 443.457 280.042 443.457 281.837 443.457 283.292 444.912 283.292 446.707Z" stroke="#196B24" stroke-width="1.33333" fill="#E6E6E6"/><path d="M267.769 446.707C267.769 448.502 266.314 449.957 264.519 449.957 262.724 449.957 261.269 448.502 261.269 446.707 261.269 444.912 262.724 443.457 264.519 443.457 266.314 443.457 267.769 444.912 267.769 446.707Z" stroke="#196B24" stroke-width="1.33333" fill="#E6E6E6"/><path d="M539.874 438.95C539.874 440.745 538.419 442.2 536.624 442.2 534.829 442.2 533.374 440.745 533.374 438.95 533.374 437.155 534.829 435.7 536.624 435.7 538.419 435.7 539.874 437.155 539.874 438.95Z" stroke="#196B24" stroke-width="1.33333" fill="#E6E6E6"/><path d="M524.35 438.95C524.35 440.745 522.895 442.2 521.1 442.2 519.305 442.2 517.85 440.745 517.85 438.95 517.85 437.155 519.305 435.7 521.1 435.7 522.895 435.7 524.35 437.155 524.35 438.95Z" stroke="#196B24" stroke-width="1.33333" fill="#E6E6E6"/><path d="M508.827 438.95C508.827 440.745 507.372 442.2 505.577 442.2 503.782 442.2 502.327 440.745 502.327 438.95 502.327 437.155 503.782 435.7 505.577 435.7 507.372 435.7 508.827 437.155 508.827 438.95Z" stroke="#196B24" stroke-width="1.33333" fill="#E6E6E6"/><path d="M493.303 438.95C493.303 440.745 491.848 442.2 490.053 442.2 488.258 442.2 486.803 440.745 486.803 438.95 486.803 437.155 488.258 435.7 490.053 435.7 491.848 435.7 493.303 437.155 493.303 438.95Z" stroke="#196B24" stroke-width="1.33333" fill="#E6E6E6"/><path d="M477.78 438.95C477.78 440.745 476.325 442.2 474.53 442.2 472.735 442.2 471.28 440.745 471.28 438.95 471.28 437.155 472.735 435.7 474.53 435.7 476.325 435.7 477.78 437.155 477.78 438.95Z" stroke="#196B24" stroke-width="1.33333" fill="#E6E6E6"/><path d="M462.257 438.95C462.257 440.745 460.802 442.2 459.007 442.2 457.212 442.2 455.757 440.745 455.757 438.95 455.757 437.155 457.212 435.7 459.007 435.7 460.802 435.7 462.257 437.155 462.257 438.95Z" stroke="#196B24" stroke-width="1.33333" fill="#E6E6E6"/><path d="M446.733 438.95C446.733 440.745 445.278 442.2 443.483 442.2 441.688 442.2 440.233 440.745 440.233 438.95 440.233 437.155 441.688 435.7 443.483 435.7 445.278 435.7 446.733 437.155 446.733 438.95Z" stroke="#196B24" stroke-width="1.33333" fill="#E6E6E6"/><path d="M431.209 438.95C431.209 440.745 429.754 442.2 427.959 442.2 426.164 442.2 424.709 440.745 424.709 438.95 424.709 437.155 426.164 435.7 427.959 435.7 429.754 435.7 431.209 437.155 431.209 438.95Z" stroke="#196B24" stroke-width="1.33333" fill="#E6E6E6"/><path d="M415.686 438.95C415.686 440.745 414.231 442.2 412.436 442.2 410.641 442.2 409.186 440.745 409.186 438.95 409.186 437.155 410.641 435.7 412.436 435.7 414.231 435.7 415.686 437.155 415.686 438.95Z" stroke="#196B24" stroke-width="1.33333" fill="#E6E6E6"/><path d="M400.163 438.95C400.163 440.745 398.708 442.2 396.913 442.2 395.118 442.2 393.663 440.745 393.663 438.95 393.663 437.155 395.118 435.7 396.913 435.7 398.708 435.7 400.163 437.155 400.163 438.95Z" stroke="#196B24" stroke-width="1.33333" fill="#E6E6E6"/><path d="M384.639 438.95C384.639 440.745 383.184 442.2 381.389 442.2 379.595 442.2 378.139 440.745 378.139 438.95 378.139 437.155 379.595 435.7 381.389 435.7 383.184 435.7 384.639 437.155 384.639 438.95Z" stroke="#196B24" stroke-width="1.33333" fill="#E6E6E6"/><path d="M369.115 438.95C369.115 440.745 367.66 442.2 365.865 442.2 364.071 442.2 362.615 440.745 362.615 438.95 362.615 437.155 364.071 435.7 365.865 435.7 367.66 435.7 369.115 437.155 369.115 438.95Z" stroke="#196B24" stroke-width="1.33333" fill="#E6E6E6"/><path d="M353.592 438.95C353.592 440.745 352.137 442.2 350.342 442.2 348.547 442.2 347.092 440.745 347.092 438.95 347.092 437.155 348.547 435.7 350.342 435.7 352.137 435.7 353.592 437.155 353.592 438.95Z" stroke="#196B24" stroke-width="1.33333" fill="#E6E6E6"/><path d="M338.069 438.95C338.069 440.745 336.614 442.2 334.819 442.2 333.024 442.2 331.569 440.745 331.569 438.95 331.569 437.155 333.024 435.7 334.819 435.7 336.614 435.7 338.069 437.155 338.069 438.95Z" stroke="#196B24" stroke-width="1.33333" fill="#E6E6E6"/><path d="M322.545 438.95C322.545 440.745 321.09 442.2 319.295 442.2 317.5 442.2 316.045 440.745 316.045 438.95 316.045 437.155 317.5 435.7 319.295 435.7 321.09 435.7 322.545 437.155 322.545 438.95Z" stroke="#196B24" stroke-width="1.33333" fill="#E6E6E6"/><path d="M307.022 438.95C307.022 440.745 305.567 442.2 303.772 442.2 301.977 442.2 300.522 440.745 300.522 438.95 300.522 437.155 301.977 435.7 303.772 435.7 305.567 435.7 307.022 437.155 307.022 438.95Z" stroke="#196B24" stroke-width="1.33333" fill="#E6E6E6"/><path d="M291.498 438.95C291.498 440.745 290.043 442.2 288.248 442.2 286.453 442.2 284.998 440.745 284.998 438.95 284.998 437.155 286.453 435.7 288.248 435.7 290.043 435.7 291.498 437.155 291.498 438.95Z" stroke="#196B24" stroke-width="1.33333" fill="#E6E6E6"/><path d="M275.975 438.95C275.975 440.745 274.52 442.2 272.725 442.2 270.93 442.2 269.475 440.745 269.475 438.95 269.475 437.155 270.93 435.7 272.725 435.7 274.52 435.7 275.975 437.155 275.975 438.95Z" stroke="#196B24" stroke-width="1.33333" fill="#E6E6E6"/><path d="M531.667 462.223C531.667 464.018 530.212 465.473 528.417 465.473 526.623 465.473 525.167 464.018 525.167 462.223 525.167 460.428 526.623 458.973 528.417 458.973 530.212 458.973 531.667 460.428 531.667 462.223Z" stroke="#196B24" stroke-width="1.33333" fill="#E6E6E6"/><path d="M516.144 462.223C516.144 464.018 514.689 465.473 512.894 465.473 511.099 465.473 509.644 464.018 509.644 462.223 509.644 460.428 511.099 458.973 512.894 458.973 514.689 458.973 516.144 460.428 516.144 462.223Z" stroke="#196B24" stroke-width="1.33333" fill="#E6E6E6"/><path d="M500.621 462.223C500.621 464.018 499.166 465.473 497.371 465.473 495.576 465.473 494.121 464.018 494.121 462.223 494.121 460.428 495.576 458.973 497.371 458.973 499.166 458.973 500.621 460.428 500.621 462.223Z" stroke="#196B24" stroke-width="1.33333" fill="#E6E6E6"/><path d="M485.097 462.223C485.097 464.018 483.642 465.473 481.847 465.473 480.052 465.473 478.597 464.018 478.597 462.223 478.597 460.428 480.052 458.973 481.847 458.973 483.642 458.973 485.097 460.428 485.097 462.223Z" stroke="#196B24" stroke-width="1.33333" fill="#E6E6E6"/><path d="M469.574 462.223C469.574 464.018 468.119 465.473 466.324 465.473 464.529 465.473 463.074 464.018 463.074 462.223 463.074 460.428 464.529 458.973 466.324 458.973 468.119 458.973 469.574 460.428 469.574 462.223Z" stroke="#196B24" stroke-width="1.33333" fill="#E6E6E6"/><path d="M454.05 462.223C454.05 464.018 452.595 465.473 450.8 465.473 449.005 465.473 447.55 464.018 447.55 462.223 447.55 460.428 449.005 458.973 450.8 458.973 452.595 458.973 454.05 460.428 454.05 462.223Z" stroke="#196B24" stroke-width="1.33333" fill="#E6E6E6"/><path d="M438.527 462.223C438.527 464.018 437.072 465.473 435.277 465.473 433.482 465.473 432.027 464.018 432.027 462.223 432.027 460.428 433.482 458.973 435.277 458.973 437.072 458.973 438.527 460.428 438.527 462.223Z" stroke="#196B24" stroke-width="1.33333" fill="#E6E6E6"/><path d="M423.003 462.223C423.003 464.018 421.548 465.473 419.753 465.473 417.958 465.473 416.503 464.018 416.503 462.223 416.503 460.428 417.958 458.973 419.753 458.973 421.548 458.973 423.003 460.428 423.003 462.223Z" stroke="#196B24" stroke-width="1.33333" fill="#E6E6E6"/><path d="M407.48 462.223C407.48 464.018 406.025 465.473 404.23 465.473 402.435 465.473 400.98 464.018 400.98 462.223 400.98 460.428 402.435 458.973 404.23 458.973 406.025 458.973 407.48 460.428 407.48 462.223Z" stroke="#196B24" stroke-width="1.33333" fill="#E6E6E6"/><path d="M391.956 462.223C391.956 464.018 390.501 465.473 388.706 465.473 386.912 465.473 385.456 464.018 385.456 462.223 385.456 460.428 386.912 458.973 388.706 458.973 390.501 458.973 391.956 460.428 391.956 462.223Z" stroke="#196B24" stroke-width="1.33333" fill="#E6E6E6"/><path d="M376.433 462.223C376.433 464.018 374.978 465.473 373.183 465.473 371.388 465.473 369.933 464.018 369.933 462.223 369.933 460.428 371.388 458.973 373.183 458.973 374.978 458.973 376.433 460.428 376.433 462.223Z" stroke="#196B24" stroke-width="1.33333" fill="#E6E6E6"/><path d="M360.909 462.223C360.909 464.018 359.454 465.473 357.659 465.473 355.864 465.473 354.409 464.018 354.409 462.223 354.409 460.428 355.864 458.973 357.659 458.973 359.454 458.973 360.909 460.428 360.909 462.223Z" stroke="#196B24" stroke-width="1.33333" fill="#E6E6E6"/><path d="M345.386 462.223C345.386 464.018 343.931 465.473 342.136 465.473 340.341 465.473 338.886 464.018 338.886 462.223 338.886 460.428 340.341 458.973 342.136 458.973 343.931 458.973 345.386 460.428 345.386 462.223Z" stroke="#196B24" stroke-width="1.33333" fill="#E6E6E6"/><path d="M329.863 462.223C329.863 464.018 328.408 465.473 326.613 465.473 324.818 465.473 323.363 464.018 323.363 462.223 323.363 460.428 324.818 458.973 326.613 458.973 328.408 458.973 329.863 460.428 329.863 462.223Z" stroke="#196B24" stroke-width="1.33333" fill="#E6E6E6"/><path d="M314.339 462.223C314.339 464.018 312.884 465.473 311.089 465.473 309.294 465.473 307.839 464.018 307.839 462.223 307.839 460.428 309.294 458.973 311.089 458.973 312.884 458.973 314.339 460.428 314.339 462.223Z" stroke="#196B24" stroke-width="1.33333" fill="#E6E6E6"/><path d="M298.815 462.223C298.815 464.018 297.36 465.473 295.565 465.473 293.77 465.473 292.315 464.018 292.315 462.223 292.315 460.428 293.77 458.973 295.565 458.973 297.36 458.973 298.815 460.428 298.815 462.223Z" stroke="#196B24" stroke-width="1.33333" fill="#E6E6E6"/><path d="M283.292 462.223C283.292 464.018 281.837 465.473 280.042 465.473 278.247 465.473 276.792 464.018 276.792 462.223 276.792 460.428 278.247 458.973 280.042 458.973 281.837 458.973 283.292 460.428 283.292 462.223Z" stroke="#196B24" stroke-width="1.33333" fill="#E6E6E6"/><path d="M267.769 462.223C267.769 464.018 266.314 465.473 264.519 465.473 262.724 465.473 261.269 464.018 261.269 462.223 261.269 460.428 262.724 458.973 264.519 458.973 266.314 458.973 267.769 460.428 267.769 462.223Z" stroke="#196B24" stroke-width="1.33333" fill="#E6E6E6"/><path d="M539.874 454.465C539.874 456.26 538.419 457.715 536.624 457.715 534.829 457.715 533.374 456.26 533.374 454.465 533.374 452.67 534.829 451.215 536.624 451.215 538.419 451.215 539.874 452.67 539.874 454.465Z" stroke="#196B24" stroke-width="1.33333" fill="#E6E6E6"/><path d="M524.35 454.465C524.35 456.26 522.895 457.715 521.1 457.715 519.305 457.715 517.85 456.26 517.85 454.465 517.85 452.67 519.305 451.215 521.1 451.215 522.895 451.215 524.35 452.67 524.35 454.465Z" stroke="#196B24" stroke-width="1.33333" fill="#E6E6E6"/><path d="M508.827 454.465C508.827 456.26 507.372 457.715 505.577 457.715 503.782 457.715 502.327 456.26 502.327 454.465 502.327 452.67 503.782 451.215 505.577 451.215 507.372 451.215 508.827 452.67 508.827 454.465Z" stroke="#196B24" stroke-width="1.33333" fill="#E6E6E6"/><path d="M493.303 454.465C493.303 456.26 491.848 457.715 490.053 457.715 488.258 457.715 486.803 456.26 486.803 454.465 486.803 452.67 488.258 451.215 490.053 451.215 491.848 451.215 493.303 452.67 493.303 454.465Z" stroke="#196B24" stroke-width="1.33333" fill="#E6E6E6"/><path d="M477.78 454.465C477.78 456.26 476.325 457.715 474.53 457.715 472.735 457.715 471.28 456.26 471.28 454.465 471.28 452.67 472.735 451.215 474.53 451.215 476.325 451.215 477.78 452.67 477.78 454.465Z" stroke="#196B24" stroke-width="1.33333" fill="#E6E6E6"/><path d="M462.257 454.465C462.257 456.26 460.802 457.715 459.007 457.715 457.212 457.715 455.757 456.26 455.757 454.465 455.757 452.67 457.212 451.215 459.007 451.215 460.802 451.215 462.257 452.67 462.257 454.465Z" stroke="#196B24" stroke-width="1.33333" fill="#E6E6E6"/><path d="M446.733 454.465C446.733 456.26 445.278 457.715 443.483 457.715 441.688 457.715 440.233 456.26 440.233 454.465 440.233 452.67 441.688 451.215 443.483 451.215 445.278 451.215 446.733 452.67 446.733 454.465Z" stroke="#196B24" stroke-width="1.33333" fill="#E6E6E6"/><path d="M431.209 454.465C431.209 456.26 429.754 457.715 427.959 457.715 426.164 457.715 424.709 456.26 424.709 454.465 424.709 452.67 426.164 451.215 427.959 451.215 429.754 451.215 431.209 452.67 431.209 454.465Z" stroke="#196B24" stroke-width="1.33333" fill="#E6E6E6"/><path d="M415.686 454.465C415.686 456.26 414.231 457.715 412.436 457.715 410.641 457.715 409.186 456.26 409.186 454.465 409.186 452.67 410.641 451.215 412.436 451.215 414.231 451.215 415.686 452.67 415.686 454.465Z" stroke="#196B24" stroke-width="1.33333" fill="#E6E6E6"/><path d="M400.163 454.465C400.163 456.26 398.708 457.715 396.913 457.715 395.118 457.715 393.663 456.26 393.663 454.465 393.663 452.67 395.118 451.215 396.913 451.215 398.708 451.215 400.163 452.67 400.163 454.465Z" stroke="#196B24" stroke-width="1.33333" fill="#E6E6E6"/><path d="M384.639 454.465C384.639 456.26 383.184 457.715 381.389 457.715 379.595 457.715 378.139 456.26 378.139 454.465 378.139 452.67 379.595 451.215 381.389 451.215 383.184 451.215 384.639 452.67 384.639 454.465Z" stroke="#196B24" stroke-width="1.33333" fill="#E6E6E6"/><path d="M369.115 454.465C369.115 456.26 367.66 457.715 365.865 457.715 364.071 457.715 362.615 456.26 362.615 454.465 362.615 452.67 364.071 451.215 365.865 451.215 367.66 451.215 369.115 452.67 369.115 454.465Z" stroke="#196B24" stroke-width="1.33333" fill="#E6E6E6"/><path d="M353.592 454.465C353.592 456.26 352.137 457.715 350.342 457.715 348.547 457.715 347.092 456.26 347.092 454.465 347.092 452.67 348.547 451.215 350.342 451.215 352.137 451.215 353.592 452.67 353.592 454.465Z" stroke="#196B24" stroke-width="1.33333" fill="#E6E6E6"/><path d="M338.069 454.465C338.069 456.26 336.614 457.715 334.819 457.715 333.024 457.715 331.569 456.26 331.569 454.465 331.569 452.67 333.024 451.215 334.819 451.215 336.614 451.215 338.069 452.67 338.069 454.465Z" stroke="#196B24" stroke-width="1.33333" fill="#E6E6E6"/><path d="M322.545 454.465C322.545 456.26 321.09 457.715 319.295 457.715 317.5 457.715 316.045 456.26 316.045 454.465 316.045 452.67 317.5 451.215 319.295 451.215 321.09 451.215 322.545 452.67 322.545 454.465Z" stroke="#196B24" stroke-width="1.33333" fill="#E6E6E6"/><path d="M307.022 454.465C307.022 456.26 305.567 457.715 303.772 457.715 301.977 457.715 300.522 456.26 300.522 454.465 300.522 452.67 301.977 451.215 303.772 451.215 305.567 451.215 307.022 452.67 307.022 454.465Z" stroke="#196B24" stroke-width="1.33333" fill="#E6E6E6"/><path d="M291.498 454.465C291.498 456.26 290.043 457.715 288.248 457.715 286.453 457.715 284.998 456.26 284.998 454.465 284.998 452.67 286.453 451.215 288.248 451.215 290.043 451.215 291.498 452.67 291.498 454.465Z" stroke="#196B24" stroke-width="1.33333" fill="#E6E6E6"/><path d="M275.975 454.465C275.975 456.26 274.52 457.715 272.725 457.715 270.93 457.715 269.475 456.26 269.475 454.465 269.475 452.67 270.93 451.215 272.725 451.215 274.52 451.215 275.975 452.67 275.975 454.465Z" stroke="#196B24" stroke-width="1.33333" fill="#E6E6E6"/><path d="M531.667 477.738C531.667 479.533 530.212 480.988 528.417 480.988 526.623 480.988 525.167 479.533 525.167 477.738 525.167 475.943 526.623 474.488 528.417 474.488 530.212 474.488 531.667 475.943 531.667 477.738Z" stroke="#196B24" stroke-width="1.33333" fill="#E6E6E6"/><path d="M516.144 477.738C516.144 479.533 514.689 480.988 512.894 480.988 511.099 480.988 509.644 479.533 509.644 477.738 509.644 475.943 511.099 474.488 512.894 474.488 514.689 474.488 516.144 475.943 516.144 477.738Z" stroke="#196B24" stroke-width="1.33333" fill="#E6E6E6"/><path d="M500.621 477.738C500.621 479.533 499.166 480.988 497.371 480.988 495.576 480.988 494.121 479.533 494.121 477.738 494.121 475.943 495.576 474.488 497.371 474.488 499.166 474.488 500.621 475.943 500.621 477.738Z" stroke="#196B24" stroke-width="1.33333" fill="#E6E6E6"/><path d="M485.097 477.738C485.097 479.533 483.642 480.988 481.847 480.988 480.052 480.988 478.597 479.533 478.597 477.738 478.597 475.943 480.052 474.488 481.847 474.488 483.642 474.488 485.097 475.943 485.097 477.738Z" stroke="#196B24" stroke-width="1.33333" fill="#E6E6E6"/><path d="M469.574 477.738C469.574 479.533 468.119 480.988 466.324 480.988 464.529 480.988 463.074 479.533 463.074 477.738 463.074 475.943 464.529 474.488 466.324 474.488 468.119 474.488 469.574 475.943 469.574 477.738Z" stroke="#196B24" stroke-width="1.33333" fill="#E6E6E6"/><path d="M454.05 477.738C454.05 479.533 452.595 480.988 450.8 480.988 449.005 480.988 447.55 479.533 447.55 477.738 447.55 475.943 449.005 474.488 450.8 474.488 452.595 474.488 454.05 475.943 454.05 477.738Z" stroke="#196B24" stroke-width="1.33333" fill="#E6E6E6"/><path d="M438.527 477.738C438.527 479.533 437.072 480.988 435.277 480.988 433.482 480.988 432.027 479.533 432.027 477.738 432.027 475.943 433.482 474.488 435.277 474.488 437.072 474.488 438.527 475.943 438.527 477.738Z" stroke="#196B24" stroke-width="1.33333" fill="#E6E6E6"/><path d="M423.003 477.738C423.003 479.533 421.548 480.988 419.753 480.988 417.958 480.988 416.503 479.533 416.503 477.738 416.503 475.943 417.958 474.488 419.753 474.488 421.548 474.488 423.003 475.943 423.003 477.738Z" stroke="#196B24" stroke-width="1.33333" fill="#E6E6E6"/><path d="M407.48 477.738C407.48 479.533 406.025 480.988 404.23 480.988 402.435 480.988 400.98 479.533 400.98 477.738 400.98 475.943 402.435 474.488 404.23 474.488 406.025 474.488 407.48 475.943 407.48 477.738Z" stroke="#196B24" stroke-width="1.33333" fill="#E6E6E6"/><path d="M391.956 477.738C391.956 479.533 390.501 480.988 388.706 480.988 386.912 480.988 385.456 479.533 385.456 477.738 385.456 475.943 386.912 474.488 388.706 474.488 390.501 474.488 391.956 475.943 391.956 477.738Z" stroke="#196B24" stroke-width="1.33333" fill="#E6E6E6"/><path d="M376.433 477.738C376.433 479.533 374.978 480.988 373.183 480.988 371.388 480.988 369.933 479.533 369.933 477.738 369.933 475.943 371.388 474.488 373.183 474.488 374.978 474.488 376.433 475.943 376.433 477.738Z" stroke="#196B24" stroke-width="1.33333" fill="#E6E6E6"/><path d="M360.909 477.738C360.909 479.533 359.454 480.988 357.659 480.988 355.864 480.988 354.409 479.533 354.409 477.738 354.409 475.943 355.864 474.488 357.659 474.488 359.454 474.488 360.909 475.943 360.909 477.738Z" stroke="#196B24" stroke-width="1.33333" fill="#E6E6E6"/><path d="M345.386 477.738C345.386 479.533 343.931 480.988 342.136 480.988 340.341 480.988 338.886 479.533 338.886 477.738 338.886 475.943 340.341 474.488 342.136 474.488 343.931 474.488 345.386 475.943 345.386 477.738Z" stroke="#196B24" stroke-width="1.33333" fill="#E6E6E6"/><path d="M329.863 477.738C329.863 479.533 328.408 480.988 326.613 480.988 324.818 480.988 323.363 479.533 323.363 477.738 323.363 475.943 324.818 474.488 326.613 474.488 328.408 474.488 329.863 475.943 329.863 477.738Z" stroke="#196B24" stroke-width="1.33333" fill="#E6E6E6"/><path d="M314.339 477.738C314.339 479.533 312.884 480.988 311.089 480.988 309.294 480.988 307.839 479.533 307.839 477.738 307.839 475.943 309.294 474.488 311.089 474.488 312.884 474.488 314.339 475.943 314.339 477.738Z" stroke="#196B24" stroke-width="1.33333" fill="#E6E6E6"/><path d="M298.815 477.738C298.815 479.533 297.36 480.988 295.565 480.988 293.77 480.988 292.315 479.533 292.315 477.738 292.315 475.943 293.77 474.488 295.565 474.488 297.36 474.488 298.815 475.943 298.815 477.738Z" stroke="#196B24" stroke-width="1.33333" fill="#E6E6E6"/><path d="M283.292 477.738C283.292 479.533 281.837 480.988 280.042 480.988 278.247 480.988 276.792 479.533 276.792 477.738 276.792 475.943 278.247 474.488 280.042 474.488 281.837 474.488 283.292 475.943 283.292 477.738Z" stroke="#196B24" stroke-width="1.33333" fill="#E6E6E6"/><path d="M267.769 477.738C267.769 479.533 266.314 480.988 264.519 480.988 262.724 480.988 261.269 479.533 261.269 477.738 261.269 475.943 262.724 474.488 264.519 474.488 266.314 474.488 267.769 475.943 267.769 477.738Z" stroke="#196B24" stroke-width="1.33333" fill="#E6E6E6"/><path d="M531.667 493.252C531.667 495.047 530.212 496.502 528.417 496.502 526.623 496.502 525.167 495.047 525.167 493.252 525.167 491.458 526.623 490.002 528.417 490.002 530.212 490.002 531.667 491.458 531.667 493.252Z" stroke="#196B24" stroke-width="1.33333" fill="#E6E6E6"/><path d="M516.144 493.252C516.144 495.047 514.689 496.502 512.894 496.502 511.099 496.502 509.644 495.047 509.644 493.252 509.644 491.458 511.099 490.002 512.894 490.002 514.689 490.002 516.144 491.458 516.144 493.252Z" stroke="#196B24" stroke-width="1.33333" fill="#E6E6E6"/><path d="M500.621 493.252C500.621 495.047 499.166 496.502 497.371 496.502 495.576 496.502 494.121 495.047 494.121 493.252 494.121 491.458 495.576 490.002 497.371 490.002 499.166 490.002 500.621 491.458 500.621 493.252Z" stroke="#196B24" stroke-width="1.33333" fill="#E6E6E6"/><path d="M469.574 493.252C469.574 495.047 468.119 496.502 466.324 496.502 464.529 496.502 463.074 495.047 463.074 493.252 463.074 491.458 464.529 490.002 466.324 490.002 468.119 490.002 469.574 491.458 469.574 493.252Z" stroke="#196B24" stroke-width="1.33333" fill="#E6E6E6"/><path d="M454.05 493.252C454.05 495.047 452.595 496.502 450.8 496.502 449.005 496.502 447.55 495.047 447.55 493.252 447.55 491.458 449.005 490.002 450.8 490.002 452.595 490.002 454.05 491.458 454.05 493.252Z" stroke="#196B24" stroke-width="1.33333" fill="#E6E6E6"/><path d="M438.527 493.252C438.527 495.047 437.072 496.502 435.277 496.502 433.482 496.502 432.027 495.047 432.027 493.252 432.027 491.458 433.482 490.002 435.277 490.002 437.072 490.002 438.527 491.458 438.527 493.252Z" stroke="#196B24" stroke-width="1.33333" fill="#E6E6E6"/><path d="M423.003 493.252C423.003 495.047 421.548 496.502 419.753 496.502 417.958 496.502 416.503 495.047 416.503 493.252 416.503 491.458 417.958 490.002 419.753 490.002 421.548 490.002 423.003 491.458 423.003 493.252Z" stroke="#196B24" stroke-width="1.33333" fill="#E6E6E6"/><path d="M407.48 493.252C407.48 495.047 406.025 496.502 404.23 496.502 402.435 496.502 400.98 495.047 400.98 493.252 400.98 491.458 402.435 490.002 404.23 490.002 406.025 490.002 407.48 491.458 407.48 493.252Z" stroke="#196B24" stroke-width="1.33333" fill="#E6E6E6"/><path d="M391.956 493.252C391.956 495.047 390.501 496.502 388.706 496.502 386.912 496.502 385.456 495.047 385.456 493.252 385.456 491.458 386.912 490.002 388.706 490.002 390.501 490.002 391.956 491.458 391.956 493.252Z" stroke="#196B24" stroke-width="1.33333" fill="#E6E6E6"/><path d="M376.433 493.252C376.433 495.047 374.978 496.502 373.183 496.502 371.388 496.502 369.933 495.047 369.933 493.252 369.933 491.458 371.388 490.002 373.183 490.002 374.978 490.002 376.433 491.458 376.433 493.252Z" stroke="#196B24" stroke-width="1.33333" fill="#E6E6E6"/><path d="M360.909 493.252C360.909 495.047 359.454 496.502 357.659 496.502 355.864 496.502 354.409 495.047 354.409 493.252 354.409 491.458 355.864 490.002 357.659 490.002 359.454 490.002 360.909 491.458 360.909 493.252Z" stroke="#196B24" stroke-width="1.33333" fill="#E6E6E6"/><path d="M345.386 493.252C345.386 495.047 343.931 496.502 342.136 496.502 340.341 496.502 338.886 495.047 338.886 493.252 338.886 491.458 340.341 490.002 342.136 490.002 343.931 490.002 345.386 491.458 345.386 493.252Z" stroke="#196B24" stroke-width="1.33333" fill="#E6E6E6"/><path d="M329.863 493.252C329.863 495.047 328.408 496.502 326.613 496.502 324.818 496.502 323.363 495.047 323.363 493.252 323.363 491.458 324.818 490.002 326.613 490.002 328.408 490.002 329.863 491.458 329.863 493.252Z" stroke="#196B24" stroke-width="1.33333" fill="#E6E6E6"/><path d="M314.339 493.252C314.339 495.047 312.884 496.502 311.089 496.502 309.294 496.502 307.839 495.047 307.839 493.252 307.839 491.458 309.294 490.002 311.089 490.002 312.884 490.002 314.339 491.458 314.339 493.252Z" stroke="#196B24" stroke-width="1.33333" fill="#E6E6E6"/><path d="M298.815 493.252C298.815 495.047 297.36 496.502 295.565 496.502 293.77 496.502 292.315 495.047 292.315 493.252 292.315 491.458 293.77 490.002 295.565 490.002 297.36 490.002 298.815 491.458 298.815 493.252Z" stroke="#196B24" stroke-width="1.33333" fill="#E6E6E6"/><path d="M283.292 493.252C283.292 495.047 281.837 496.502 280.042 496.502 278.247 496.502 276.792 495.047 276.792 493.252 276.792 491.458 278.247 490.002 280.042 490.002 281.837 490.002 283.292 491.458 283.292 493.252Z" stroke="#196B24" stroke-width="1.33333" fill="#E6E6E6"/><path d="M267.769 493.252C267.769 495.047 266.314 496.502 264.519 496.502 262.724 496.502 261.269 495.047 261.269 493.252 261.269 491.458 262.724 490.002 264.519 490.002 266.314 490.002 267.769 491.458 267.769 493.252Z" stroke="#196B24" stroke-width="1.33333" fill="#E6E6E6"/><path d="M485.097 493.252C485.097 495.047 483.642 496.502 481.847 496.502 480.052 496.502 478.597 495.047 478.597 493.252 478.597 491.458 480.052 490.002 481.847 490.002 483.642 490.002 485.097 491.458 485.097 493.252Z" stroke="#196B24" stroke-width="1.33333" fill="#E6E6E6"/><path d="M539.874 485.495C539.874 487.29 538.419 488.745 536.624 488.745 534.829 488.745 533.374 487.29 533.374 485.495 533.374 483.7 534.829 482.245 536.624 482.245 538.419 482.245 539.874 483.7 539.874 485.495Z" stroke="#196B24" stroke-width="1.33333" fill="#E6E6E6"/><path d="M524.35 485.495C524.35 487.29 522.895 488.745 521.1 488.745 519.305 488.745 517.85 487.29 517.85 485.495 517.85 483.7 519.305 482.245 521.1 482.245 522.895 482.245 524.35 483.7 524.35 485.495Z" stroke="#196B24" stroke-width="1.33333" fill="#E6E6E6"/><path d="M508.827 485.495C508.827 487.29 507.372 488.745 505.577 488.745 503.782 488.745 502.327 487.29 502.327 485.495 502.327 483.7 503.782 482.245 505.577 482.245 507.372 482.245 508.827 483.7 508.827 485.495Z" stroke="#196B24" stroke-width="1.33333" fill="#E6E6E6"/><path d="M493.303 485.495C493.303 487.29 491.848 488.745 490.053 488.745 488.258 488.745 486.803 487.29 486.803 485.495 486.803 483.7 488.258 482.245 490.053 482.245 491.848 482.245 493.303 483.7 493.303 485.495Z" stroke="#196B24" stroke-width="1.33333" fill="#E6E6E6"/><path d="M477.78 485.495C477.78 487.29 476.325 488.745 474.53 488.745 472.735 488.745 471.28 487.29 471.28 485.495 471.28 483.7 472.735 482.245 474.53 482.245 476.325 482.245 477.78 483.7 477.78 485.495Z" stroke="#196B24" stroke-width="1.33333" fill="#E6E6E6"/><path d="M462.257 485.495C462.257 487.29 460.802 488.745 459.007 488.745 457.212 488.745 455.757 487.29 455.757 485.495 455.757 483.7 457.212 482.245 459.007 482.245 460.802 482.245 462.257 483.7 462.257 485.495Z" stroke="#196B24" stroke-width="1.33333" fill="#E6E6E6"/><path d="M446.733 485.495C446.733 487.29 445.278 488.745 443.483 488.745 441.688 488.745 440.233 487.29 440.233 485.495 440.233 483.7 441.688 482.245 443.483 482.245 445.278 482.245 446.733 483.7 446.733 485.495Z" stroke="#196B24" stroke-width="1.33333" fill="#E6E6E6"/><path d="M431.209 485.495C431.209 487.29 429.754 488.745 427.959 488.745 426.164 488.745 424.709 487.29 424.709 485.495 424.709 483.7 426.164 482.245 427.959 482.245 429.754 482.245 431.209 483.7 431.209 485.495Z" stroke="#196B24" stroke-width="1.33333" fill="#E6E6E6"/><path d="M415.686 485.495C415.686 487.29 414.231 488.745 412.436 488.745 410.641 488.745 409.186 487.29 409.186 485.495 409.186 483.7 410.641 482.245 412.436 482.245 414.231 482.245 415.686 483.7 415.686 485.495Z" stroke="#196B24" stroke-width="1.33333" fill="#E6E6E6"/><path d="M400.163 485.495C400.163 487.29 398.708 488.745 396.913 488.745 395.118 488.745 393.663 487.29 393.663 485.495 393.663 483.7 395.118 482.245 396.913 482.245 398.708 482.245 400.163 483.7 400.163 485.495Z" stroke="#196B24" stroke-width="1.33333" fill="#E6E6E6"/><path d="M384.639 485.495C384.639 487.29 383.184 488.745 381.389 488.745 379.595 488.745 378.139 487.29 378.139 485.495 378.139 483.7 379.595 482.245 381.389 482.245 383.184 482.245 384.639 483.7 384.639 485.495Z" stroke="#196B24" stroke-width="1.33333" fill="#E6E6E6"/><path d="M369.115 485.495C369.115 487.29 367.66 488.745 365.865 488.745 364.071 488.745 362.615 487.29 362.615 485.495 362.615 483.7 364.071 482.245 365.865 482.245 367.66 482.245 369.115 483.7 369.115 485.495Z" stroke="#196B24" stroke-width="1.33333" fill="#E6E6E6"/><path d="M353.592 485.495C353.592 487.29 352.137 488.745 350.342 488.745 348.547 488.745 347.092 487.29 347.092 485.495 347.092 483.7 348.547 482.245 350.342 482.245 352.137 482.245 353.592 483.7 353.592 485.495Z" stroke="#196B24" stroke-width="1.33333" fill="#E6E6E6"/><path d="M338.069 485.495C338.069 487.29 336.614 488.745 334.819 488.745 333.024 488.745 331.569 487.29 331.569 485.495 331.569 483.7 333.024 482.245 334.819 482.245 336.614 482.245 338.069 483.7 338.069 485.495Z" stroke="#196B24" stroke-width="1.33333" fill="#E6E6E6"/><path d="M322.545 485.495C322.545 487.29 321.09 488.745 319.295 488.745 317.5 488.745 316.045 487.29 316.045 485.495 316.045 483.7 317.5 482.245 319.295 482.245 321.09 482.245 322.545 483.7 322.545 485.495Z" stroke="#196B24" stroke-width="1.33333" fill="#E6E6E6"/><path d="M307.022 485.495C307.022 487.29 305.567 488.745 303.772 488.745 301.977 488.745 300.522 487.29 300.522 485.495 300.522 483.7 301.977 482.245 303.772 482.245 305.567 482.245 307.022 483.7 307.022 485.495Z" stroke="#196B24" stroke-width="1.33333" fill="#E6E6E6"/><path d="M291.498 485.495C291.498 487.29 290.043 488.745 288.248 488.745 286.453 488.745 284.998 487.29 284.998 485.495 284.998 483.7 286.453 482.245 288.248 482.245 290.043 482.245 291.498 483.7 291.498 485.495Z" stroke="#196B24" stroke-width="1.33333" fill="#E6E6E6"/><path d="M275.975 485.495C275.975 487.29 274.52 488.745 272.725 488.745 270.93 488.745 269.475 487.29 269.475 485.495 269.475 483.7 270.93 482.245 272.725 482.245 274.52 482.245 275.975 483.7 275.975 485.495Z" stroke="#196B24" stroke-width="1.33333" fill="#E6E6E6"/><path d="M531.667 508.767C531.667 510.562 530.212 512.017 528.417 512.017 526.623 512.017 525.167 510.562 525.167 508.767 525.167 506.972 526.623 505.517 528.417 505.517 530.212 505.517 531.667 506.972 531.667 508.767Z" stroke="#196B24" stroke-width="1.33333" fill="#E6E6E6"/><path d="M516.144 508.767C516.144 510.562 514.689 512.017 512.894 512.017 511.099 512.017 509.644 510.562 509.644 508.767 509.644 506.972 511.099 505.517 512.894 505.517 514.689 505.517 516.144 506.972 516.144 508.767Z" stroke="#196B24" stroke-width="1.33333" fill="#E6E6E6"/><path d="M500.621 508.767C500.621 510.562 499.166 512.017 497.371 512.017 495.576 512.017 494.121 510.562 494.121 508.767 494.121 506.972 495.576 505.517 497.371 505.517 499.166 505.517 500.621 506.972 500.621 508.767Z" stroke="#196B24" stroke-width="1.33333" fill="#E6E6E6"/><path d="M485.097 508.767C485.097 510.562 483.642 512.017 481.847 512.017 480.052 512.017 478.597 510.562 478.597 508.767 478.597 506.972 480.052 505.517 481.847 505.517 483.642 505.517 485.097 506.972 485.097 508.767Z" stroke="#196B24" stroke-width="1.33333" fill="#E6E6E6"/><path d="M469.574 508.767C469.574 510.562 468.119 512.017 466.324 512.017 464.529 512.017 463.074 510.562 463.074 508.767 463.074 506.972 464.529 505.517 466.324 505.517 468.119 505.517 469.574 506.972 469.574 508.767Z" stroke="#196B24" stroke-width="1.33333" fill="#E6E6E6"/><path d="M454.05 508.767C454.05 510.562 452.595 512.017 450.8 512.017 449.005 512.017 447.55 510.562 447.55 508.767 447.55 506.972 449.005 505.517 450.8 505.517 452.595 505.517 454.05 506.972 454.05 508.767Z" stroke="#196B24" stroke-width="1.33333" fill="#E6E6E6"/><path d="M438.527 508.767C438.527 510.562 437.072 512.017 435.277 512.017 433.482 512.017 432.027 510.562 432.027 508.767 432.027 506.972 433.482 505.517 435.277 505.517 437.072 505.517 438.527 506.972 438.527 508.767Z" stroke="#196B24" stroke-width="1.33333" fill="#E6E6E6"/><path d="M423.003 508.767C423.003 510.562 421.548 512.017 419.753 512.017 417.958 512.017 416.503 510.562 416.503 508.767 416.503 506.972 417.958 505.517 419.753 505.517 421.548 505.517 423.003 506.972 423.003 508.767Z" stroke="#196B24" stroke-width="1.33333" fill="#E6E6E6"/><path d="M407.48 508.767C407.48 510.562 406.025 512.017 404.23 512.017 402.435 512.017 400.98 510.562 400.98 508.767 400.98 506.972 402.435 505.517 404.23 505.517 406.025 505.517 407.48 506.972 407.48 508.767Z" stroke="#196B24" stroke-width="1.33333" fill="#E6E6E6"/><path d="M391.956 508.767C391.956 510.562 390.501 512.017 388.706 512.017 386.912 512.017 385.456 510.562 385.456 508.767 385.456 506.972 386.912 505.517 388.706 505.517 390.501 505.517 391.956 506.972 391.956 508.767Z" stroke="#196B24" stroke-width="1.33333" fill="#E6E6E6"/><path d="M376.433 508.767C376.433 510.562 374.978 512.017 373.183 512.017 371.388 512.017 369.933 510.562 369.933 508.767 369.933 506.972 371.388 505.517 373.183 505.517 374.978 505.517 376.433 506.972 376.433 508.767Z" stroke="#196B24" stroke-width="1.33333" fill="#E6E6E6"/><path d="M360.909 508.767C360.909 510.562 359.454 512.017 357.659 512.017 355.864 512.017 354.409 510.562 354.409 508.767 354.409 506.972 355.864 505.517 357.659 505.517 359.454 505.517 360.909 506.972 360.909 508.767Z" stroke="#196B24" stroke-width="1.33333" fill="#E6E6E6"/><path d="M345.386 508.767C345.386 510.562 343.931 512.017 342.136 512.017 340.341 512.017 338.886 510.562 338.886 508.767 338.886 506.972 340.341 505.517 342.136 505.517 343.931 505.517 345.386 506.972 345.386 508.767Z" stroke="#196B24" stroke-width="1.33333" fill="#E6E6E6"/><path d="M329.863 508.767C329.863 510.562 328.408 512.017 326.613 512.017 324.818 512.017 323.363 510.562 323.363 508.767 323.363 506.972 324.818 505.517 326.613 505.517 328.408 505.517 329.863 506.972 329.863 508.767Z" stroke="#196B24" stroke-width="1.33333" fill="#E6E6E6"/><path d="M314.339 508.767C314.339 510.562 312.884 512.017 311.089 512.017 309.294 512.017 307.839 510.562 307.839 508.767 307.839 506.972 309.294 505.517 311.089 505.517 312.884 505.517 314.339 506.972 314.339 508.767Z" stroke="#196B24" stroke-width="1.33333" fill="#E6E6E6"/><path d="M298.815 508.767C298.815 510.562 297.36 512.017 295.565 512.017 293.77 512.017 292.315 510.562 292.315 508.767 292.315 506.972 293.77 505.517 295.565 505.517 297.36 505.517 298.815 506.972 298.815 508.767Z" stroke="#196B24" stroke-width="1.33333" fill="#E6E6E6"/><path d="M283.292 508.767C283.292 510.562 281.837 512.017 280.042 512.017 278.247 512.017 276.792 510.562 276.792 508.767 276.792 506.972 278.247 505.517 280.042 505.517 281.837 505.517 283.292 506.972 283.292 508.767Z" stroke="#196B24" stroke-width="1.33333" fill="#E6E6E6"/><path d="M267.769 508.767C267.769 510.562 266.314 512.017 264.519 512.017 262.724 512.017 261.269 510.562 261.269 508.767 261.269 506.972 262.724 505.517 264.519 505.517 266.314 505.517 267.769 506.972 267.769 508.767Z" stroke="#196B24" stroke-width="1.33333" fill="#E6E6E6"/><path d="M539.874 501.01C539.874 502.805 538.419 504.26 536.624 504.26 534.829 504.26 533.374 502.805 533.374 501.01 533.374 499.215 534.829 497.76 536.624 497.76 538.419 497.76 539.874 499.215 539.874 501.01Z" stroke="#196B24" stroke-width="1.33333" fill="#E6E6E6"/><path d="M524.35 501.01C524.35 502.805 522.895 504.26 521.1 504.26 519.305 504.26 517.85 502.805 517.85 501.01 517.85 499.215 519.305 497.76 521.1 497.76 522.895 497.76 524.35 499.215 524.35 501.01Z" stroke="#196B24" stroke-width="1.33333" fill="#E6E6E6"/><path d="M508.827 501.01C508.827 502.805 507.372 504.26 505.577 504.26 503.782 504.26 502.327 502.805 502.327 501.01 502.327 499.215 503.782 497.76 505.577 497.76 507.372 497.76 508.827 499.215 508.827 501.01Z" stroke="#196B24" stroke-width="1.33333" fill="#E6E6E6"/><path d="M493.303 501.01C493.303 502.805 491.848 504.26 490.053 504.26 488.258 504.26 486.803 502.805 486.803 501.01 486.803 499.215 488.258 497.76 490.053 497.76 491.848 497.76 493.303 499.215 493.303 501.01Z" stroke="#196B24" stroke-width="1.33333" fill="#E6E6E6"/><path d="M477.78 501.01C477.78 502.805 476.325 504.26 474.53 504.26 472.735 504.26 471.28 502.805 471.28 501.01 471.28 499.215 472.735 497.76 474.53 497.76 476.325 497.76 477.78 499.215 477.78 501.01Z" stroke="#196B24" stroke-width="1.33333" fill="#E6E6E6"/><path d="M462.257 501.01C462.257 502.805 460.802 504.26 459.007 504.26 457.212 504.26 455.757 502.805 455.757 501.01 455.757 499.215 457.212 497.76 459.007 497.76 460.802 497.76 462.257 499.215 462.257 501.01Z" stroke="#196B24" stroke-width="1.33333" fill="#E6E6E6"/><path d="M446.733 501.01C446.733 502.805 445.278 504.26 443.483 504.26 441.688 504.26 440.233 502.805 440.233 501.01 440.233 499.215 441.688 497.76 443.483 497.76 445.278 497.76 446.733 499.215 446.733 501.01Z" stroke="#196B24" stroke-width="1.33333" fill="#E6E6E6"/><path d="M431.209 501.01C431.209 502.805 429.754 504.26 427.959 504.26 426.164 504.26 424.709 502.805 424.709 501.01 424.709 499.215 426.164 497.76 427.959 497.76 429.754 497.76 431.209 499.215 431.209 501.01Z" stroke="#196B24" stroke-width="1.33333" fill="#E6E6E6"/><path d="M415.686 501.01C415.686 502.805 414.231 504.26 412.436 504.26 410.641 504.26 409.186 502.805 409.186 501.01 409.186 499.215 410.641 497.76 412.436 497.76 414.231 497.76 415.686 499.215 415.686 501.01Z" stroke="#196B24" stroke-width="1.33333" fill="#E6E6E6"/><path d="M400.163 501.01C400.163 502.805 398.708 504.26 396.913 504.26 395.118 504.26 393.663 502.805 393.663 501.01 393.663 499.215 395.118 497.76 396.913 497.76 398.708 497.76 400.163 499.215 400.163 501.01Z" stroke="#196B24" stroke-width="1.33333" fill="#E6E6E6"/><path d="M384.639 501.01C384.639 502.805 383.184 504.26 381.389 504.26 379.595 504.26 378.139 502.805 378.139 501.01 378.139 499.215 379.595 497.76 381.389 497.76 383.184 497.76 384.639 499.215 384.639 501.01Z" stroke="#196B24" stroke-width="1.33333" fill="#E6E6E6"/><path d="M369.115 501.01C369.115 502.805 367.66 504.26 365.865 504.26 364.071 504.26 362.615 502.805 362.615 501.01 362.615 499.215 364.071 497.76 365.865 497.76 367.66 497.76 369.115 499.215 369.115 501.01Z" stroke="#196B24" stroke-width="1.33333" fill="#E6E6E6"/><path d="M353.592 501.01C353.592 502.805 352.137 504.26 350.342 504.26 348.547 504.26 347.092 502.805 347.092 501.01 347.092 499.215 348.547 497.76 350.342 497.76 352.137 497.76 353.592 499.215 353.592 501.01Z" stroke="#196B24" stroke-width="1.33333" fill="#E6E6E6"/><path d="M338.069 501.01C338.069 502.805 336.614 504.26 334.819 504.26 333.024 504.26 331.569 502.805 331.569 501.01 331.569 499.215 333.024 497.76 334.819 497.76 336.614 497.76 338.069 499.215 338.069 501.01Z" stroke="#196B24" stroke-width="1.33333" fill="#E6E6E6"/><path d="M322.545 501.01C322.545 502.805 321.09 504.26 319.295 504.26 317.5 504.26 316.045 502.805 316.045 501.01 316.045 499.215 317.5 497.76 319.295 497.76 321.09 497.76 322.545 499.215 322.545 501.01Z" stroke="#196B24" stroke-width="1.33333" fill="#E6E6E6"/><path d="M307.022 501.01C307.022 502.805 305.567 504.26 303.772 504.26 301.977 504.26 300.522 502.805 300.522 501.01 300.522 499.215 301.977 497.76 303.772 497.76 305.567 497.76 307.022 499.215 307.022 501.01Z" stroke="#196B24" stroke-width="1.33333" fill="#E6E6E6"/><path d="M291.498 501.01C291.498 502.805 290.043 504.26 288.248 504.26 286.453 504.26 284.998 502.805 284.998 501.01 284.998 499.215 286.453 497.76 288.248 497.76 290.043 497.76 291.498 499.215 291.498 501.01Z" stroke="#196B24" stroke-width="1.33333" fill="#E6E6E6"/><path d="M275.975 501.01C275.975 502.805 274.52 504.26 272.725 504.26 270.93 504.26 269.475 502.805 269.475 501.01 269.475 499.215 270.93 497.76 272.725 497.76 274.52 497.76 275.975 499.215 275.975 501.01Z" stroke="#196B24" stroke-width="1.33333" fill="#E6E6E6"/><path d="M531.667 524.282C531.667 526.077 530.212 527.532 528.417 527.532 526.623 527.532 525.167 526.077 525.167 524.282 525.167 522.487 526.623 521.032 528.417 521.032 530.212 521.032 531.667 522.487 531.667 524.282Z" stroke="#196B24" stroke-width="1.33333" fill="#E6E6E6"/><path d="M545.824 434.442C544.029 434.442 542.574 432.987 542.574 431.192 542.574 429.398 544.029 427.942 545.824 427.942L545.824 434.442Z" stroke="#196B24" stroke-width="1.33333" fill="#E6E6E6"/><path d="M545.824 418.928C544.029 418.928 542.574 417.472 542.574 415.678 542.574 413.883 544.029 412.428 545.824 412.428L545.824 418.928Z" stroke="#196B24" stroke-width="1.33333" fill="#E6E6E6"/><path d="M545.824 449.957C544.029 449.957 542.574 448.502 542.574 446.707 542.574 444.913 544.029 443.457 545.824 443.457L545.824 449.957Z" stroke="#196B24" stroke-width="1.33333" fill="#E6E6E6"/><path d="M545.824 465.473C544.029 465.473 542.574 464.017 542.574 462.223 542.574 460.428 544.029 458.973 545.824 458.973L545.824 465.473Z" stroke="#196B24" stroke-width="1.33333" fill="#E6E6E6"/><path d="M545.824 480.988C544.029 480.988 542.574 479.532 542.574 477.738 542.574 475.943 544.029 474.488 545.824 474.488L545.824 480.988Z" stroke="#196B24" stroke-width="1.33333" fill="#E6E6E6"/><path d="M545.824 496.502C544.029 496.502 542.574 495.047 542.574 493.252 542.574 491.458 544.029 490.002 545.824 490.002L545.824 496.502Z" stroke="#196B24" stroke-width="1.33333" fill="#E6E6E6"/><path d="M545.824 512.017C544.029 512.017 542.574 510.562 542.574 508.767 542.574 506.973 544.029 505.517 545.824 505.517L545.824 512.017Z" stroke="#196B24" stroke-width="1.33333" fill="#E6E6E6"/><path d="M545.824 527.532C544.029 527.532 542.574 526.077 542.574 524.282 542.574 522.488 544.029 521.032 545.824 521.032L545.824 527.532Z" stroke="#196B24" stroke-width="1.33333" fill="#E6E6E6"/><path d="M516.144 524.282C516.144 526.077 514.689 527.532 512.894 527.532 511.099 527.532 509.644 526.077 509.644 524.282 509.644 522.487 511.099 521.032 512.894 521.032 514.689 521.032 516.144 522.487 516.144 524.282Z" stroke="#196B24" stroke-width="1.33333" fill="#E6E6E6"/><path d="M500.621 524.282C500.621 526.077 499.166 527.532 497.371 527.532 495.576 527.532 494.121 526.077 494.121 524.282 494.121 522.487 495.576 521.032 497.371 521.032 499.166 521.032 500.621 522.487 500.621 524.282Z" stroke="#196B24" stroke-width="1.33333" fill="#E6E6E6"/><path d="M485.097 524.282C485.097 526.077 483.642 527.532 481.847 527.532 480.052 527.532 478.597 526.077 478.597 524.282 478.597 522.487 480.052 521.032 481.847 521.032 483.642 521.032 485.097 522.487 485.097 524.282Z" stroke="#196B24" stroke-width="1.33333" fill="#E6E6E6"/><path d="M469.574 524.282C469.574 526.077 468.119 527.532 466.324 527.532 464.529 527.532 463.074 526.077 463.074 524.282 463.074 522.487 464.529 521.032 466.324 521.032 468.119 521.032 469.574 522.487 469.574 524.282Z" stroke="#196B24" stroke-width="1.33333" fill="#E6E6E6"/><path d="M454.05 524.282C454.05 526.077 452.595 527.532 450.8 527.532 449.005 527.532 447.55 526.077 447.55 524.282 447.55 522.487 449.005 521.032 450.8 521.032 452.595 521.032 454.05 522.487 454.05 524.282Z" stroke="#196B24" stroke-width="1.33333" fill="#E6E6E6"/><path d="M438.527 524.282C438.527 526.077 437.072 527.532 435.277 527.532 433.482 527.532 432.027 526.077 432.027 524.282 432.027 522.487 433.482 521.032 435.277 521.032 437.072 521.032 438.527 522.487 438.527 524.282Z" stroke="#196B24" stroke-width="1.33333" fill="#E6E6E6"/><path d="M423.003 524.282C423.003 526.077 421.548 527.532 419.753 527.532 417.958 527.532 416.503 526.077 416.503 524.282 416.503 522.487 417.958 521.032 419.753 521.032 421.548 521.032 423.003 522.487 423.003 524.282Z" stroke="#196B24" stroke-width="1.33333" fill="#E6E6E6"/><path d="M407.48 524.282C407.48 526.077 406.025 527.532 404.23 527.532 402.435 527.532 400.98 526.077 400.98 524.282 400.98 522.487 402.435 521.032 404.23 521.032 406.025 521.032 407.48 522.487 407.48 524.282Z" stroke="#196B24" stroke-width="1.33333" fill="#E6E6E6"/><path d="M391.956 524.282C391.956 526.077 390.501 527.532 388.706 527.532 386.912 527.532 385.456 526.077 385.456 524.282 385.456 522.487 386.912 521.032 388.706 521.032 390.501 521.032 391.956 522.487 391.956 524.282Z" stroke="#196B24" stroke-width="1.33333" fill="#E6E6E6"/><path d="M376.433 524.282C376.433 526.077 374.978 527.532 373.183 527.532 371.388 527.532 369.933 526.077 369.933 524.282 369.933 522.487 371.388 521.032 373.183 521.032 374.978 521.032 376.433 522.487 376.433 524.282Z" stroke="#196B24" stroke-width="1.33333" fill="#E6E6E6"/><path d="M360.909 524.282C360.909 526.077 359.454 527.532 357.659 527.532 355.864 527.532 354.409 526.077 354.409 524.282 354.409 522.487 355.864 521.032 357.659 521.032 359.454 521.032 360.909 522.487 360.909 524.282Z" stroke="#196B24" stroke-width="1.33333" fill="#E6E6E6"/><path d="M345.386 524.282C345.386 526.077 343.931 527.532 342.136 527.532 340.341 527.532 338.886 526.077 338.886 524.282 338.886 522.487 340.341 521.032 342.136 521.032 343.931 521.032 345.386 522.487 345.386 524.282Z" stroke="#196B24" stroke-width="1.33333" fill="#E6E6E6"/><path d="M329.863 524.282C329.863 526.077 328.408 527.532 326.613 527.532 324.818 527.532 323.363 526.077 323.363 524.282 323.363 522.487 324.818 521.032 326.613 521.032 328.408 521.032 329.863 522.487 329.863 524.282Z" stroke="#196B24" stroke-width="1.33333" fill="#E6E6E6"/><path d="M314.339 524.282C314.339 526.077 312.884 527.532 311.089 527.532 309.294 527.532 307.839 526.077 307.839 524.282 307.839 522.487 309.294 521.032 311.089 521.032 312.884 521.032 314.339 522.487 314.339 524.282Z" stroke="#196B24" stroke-width="1.33333" fill="#E6E6E6"/><path d="M298.815 524.282C298.815 526.077 297.36 527.532 295.565 527.532 293.77 527.532 292.315 526.077 292.315 524.282 292.315 522.487 293.77 521.032 295.565 521.032 297.36 521.032 298.815 522.487 298.815 524.282Z" stroke="#196B24" stroke-width="1.33333" fill="#E6E6E6"/><path d="M283.292 524.282C283.292 526.077 281.837 527.532 280.042 527.532 278.247 527.532 276.792 526.077 276.792 524.282 276.792 522.487 278.247 521.032 280.042 521.032 281.837 521.032 283.292 522.487 283.292 524.282Z" stroke="#196B24" stroke-width="1.33333" fill="#E6E6E6"/><path d="M267.769 524.282C267.769 526.077 266.314 527.532 264.519 527.532 262.724 527.532 261.269 526.077 261.269 524.282 261.269 522.487 262.724 521.032 264.519 521.032 266.314 521.032 267.769 522.487 267.769 524.282Z" stroke="#196B24" stroke-width="1.33333" fill="#E6E6E6"/><path d="M539.874 516.525C539.874 518.32 538.419 519.775 536.624 519.775 534.829 519.775 533.374 518.32 533.374 516.525 533.374 514.73 534.829 513.275 536.624 513.275 538.419 513.275 539.874 514.73 539.874 516.525Z" stroke="#196B24" stroke-width="1.33333" fill="#E6E6E6"/><path d="M524.35 516.525C524.35 518.32 522.895 519.775 521.1 519.775 519.305 519.775 517.85 518.32 517.85 516.525 517.85 514.73 519.305 513.275 521.1 513.275 522.895 513.275 524.35 514.73 524.35 516.525Z" stroke="#196B24" stroke-width="1.33333" fill="#E6E6E6"/><path d="M508.827 516.525C508.827 518.32 507.372 519.775 505.577 519.775 503.782 519.775 502.327 518.32 502.327 516.525 502.327 514.73 503.782 513.275 505.577 513.275 507.372 513.275 508.827 514.73 508.827 516.525Z" stroke="#196B24" stroke-width="1.33333" fill="#E6E6E6"/><path d="M493.303 516.525C493.303 518.32 491.848 519.775 490.053 519.775 488.258 519.775 486.803 518.32 486.803 516.525 486.803 514.73 488.258 513.275 490.053 513.275 491.848 513.275 493.303 514.73 493.303 516.525Z" stroke="#196B24" stroke-width="1.33333" fill="#E6E6E6"/><path d="M477.78 516.525C477.78 518.32 476.325 519.775 474.53 519.775 472.735 519.775 471.28 518.32 471.28 516.525 471.28 514.73 472.735 513.275 474.53 513.275 476.325 513.275 477.78 514.73 477.78 516.525Z" stroke="#196B24" stroke-width="1.33333" fill="#E6E6E6"/><path d="M462.257 516.525C462.257 518.32 460.802 519.775 459.007 519.775 457.212 519.775 455.757 518.32 455.757 516.525 455.757 514.73 457.212 513.275 459.007 513.275 460.802 513.275 462.257 514.73 462.257 516.525Z" stroke="#196B24" stroke-width="1.33333" fill="#E6E6E6"/><path d="M446.733 516.525C446.733 518.32 445.278 519.775 443.483 519.775 441.688 519.775 440.233 518.32 440.233 516.525 440.233 514.73 441.688 513.275 443.483 513.275 445.278 513.275 446.733 514.73 446.733 516.525Z" stroke="#196B24" stroke-width="1.33333" fill="#E6E6E6"/><path d="M431.209 516.525C431.209 518.32 429.754 519.775 427.959 519.775 426.164 519.775 424.709 518.32 424.709 516.525 424.709 514.73 426.164 513.275 427.959 513.275 429.754 513.275 431.209 514.73 431.209 516.525Z" stroke="#196B24" stroke-width="1.33333" fill="#E6E6E6"/><path d="M415.686 516.525C415.686 518.32 414.231 519.775 412.436 519.775 410.641 519.775 409.186 518.32 409.186 516.525 409.186 514.73 410.641 513.275 412.436 513.275 414.231 513.275 415.686 514.73 415.686 516.525Z" stroke="#196B24" stroke-width="1.33333" fill="#E6E6E6"/><path d="M400.163 516.525C400.163 518.32 398.708 519.775 396.913 519.775 395.118 519.775 393.663 518.32 393.663 516.525 393.663 514.73 395.118 513.275 396.913 513.275 398.708 513.275 400.163 514.73 400.163 516.525Z" stroke="#196B24" stroke-width="1.33333" fill="#E6E6E6"/><path d="M384.639 516.525C384.639 518.32 383.184 519.775 381.389 519.775 379.595 519.775 378.139 518.32 378.139 516.525 378.139 514.73 379.595 513.275 381.389 513.275 383.184 513.275 384.639 514.73 384.639 516.525Z" stroke="#196B24" stroke-width="1.33333" fill="#E6E6E6"/><path d="M369.115 516.525C369.115 518.32 367.66 519.775 365.865 519.775 364.071 519.775 362.615 518.32 362.615 516.525 362.615 514.73 364.071 513.275 365.865 513.275 367.66 513.275 369.115 514.73 369.115 516.525Z" stroke="#196B24" stroke-width="1.33333" fill="#E6E6E6"/><path d="M353.592 516.525C353.592 518.32 352.137 519.775 350.342 519.775 348.547 519.775 347.092 518.32 347.092 516.525 347.092 514.73 348.547 513.275 350.342 513.275 352.137 513.275 353.592 514.73 353.592 516.525Z" stroke="#196B24" stroke-width="1.33333" fill="#E6E6E6"/><path d="M338.069 516.525C338.069 518.32 336.614 519.775 334.819 519.775 333.024 519.775 331.569 518.32 331.569 516.525 331.569 514.73 333.024 513.275 334.819 513.275 336.614 513.275 338.069 514.73 338.069 516.525Z" stroke="#196B24" stroke-width="1.33333" fill="#E6E6E6"/><path d="M322.545 516.525C322.545 518.32 321.09 519.775 319.295 519.775 317.5 519.775 316.045 518.32 316.045 516.525 316.045 514.73 317.5 513.275 319.295 513.275 321.09 513.275 322.545 514.73 322.545 516.525Z" stroke="#196B24" stroke-width="1.33333" fill="#E6E6E6"/><path d="M307.022 516.525C307.022 518.32 305.567 519.775 303.772 519.775 301.977 519.775 300.522 518.32 300.522 516.525 300.522 514.73 301.977 513.275 303.772 513.275 305.567 513.275 307.022 514.73 307.022 516.525Z" stroke="#196B24" stroke-width="1.33333" fill="#E6E6E6"/><path d="M291.498 516.525C291.498 518.32 290.043 519.775 288.248 519.775 286.453 519.775 284.998 518.32 284.998 516.525 284.998 514.73 286.453 513.275 288.248 513.275 290.043 513.275 291.498 514.73 291.498 516.525Z" stroke="#196B24" stroke-width="1.33333" fill="#E6E6E6"/><path d="M275.975 516.525C275.975 518.32 274.52 519.775 272.725 519.775 270.93 519.775 269.475 518.32 269.475 516.525 269.475 514.73 270.93 513.275 272.725 513.275 274.52 513.275 275.975 514.73 275.975 516.525Z" stroke="#196B24" stroke-width="1.33333" fill="#E6E6E6"/><path d="M253.36 420.185C255.154 420.185 256.61 421.641 256.61 423.435 256.61 425.23 255.154 426.685 253.36 426.685L253.36 420.185Z" stroke="#196B24" stroke-width="1.33333" fill="#E6E6E6"/><path d="M253.36 435.7C255.154 435.7 256.61 437.156 256.61 438.95 256.61 440.745 255.154 442.2 253.36 442.2L253.36 435.7Z" stroke="#196B24" stroke-width="1.33333" fill="#E6E6E6"/><path d="M253.36 451.215C255.154 451.215 256.61 452.67 256.61 454.465 256.61 456.26 255.154 457.715 253.36 457.715L253.36 451.215Z" stroke="#196B24" stroke-width="1.33333" fill="#E6E6E6"/><path d="M253.36 482.245C255.154 482.245 256.61 483.7 256.61 485.495 256.61 487.289 255.154 488.745 253.36 488.745L253.36 482.245Z" stroke="#196B24" stroke-width="1.33333" fill="#E6E6E6"/><path d="M253.36 497.76C255.154 497.76 256.61 499.215 256.61 501.01 256.61 502.804 255.154 504.26 253.36 504.26L253.36 497.76Z" stroke="#196B24" stroke-width="1.33333" fill="#E6E6E6"/><path d="M253.36 513.275C255.154 513.275 256.61 514.73 256.61 516.525 256.61 518.32 255.154 519.775 253.36 519.775L253.36 513.275Z" stroke="#196B24" stroke-width="1.33333" fill="#E6E6E6"/><path d="M488.083 497.023 321.87 517.811 312.435 442.426 478.648 421.625Z" stroke="#196B24" stroke-width="1.33333" fill="#F1F1F1"/><path d="M545.86 467.124 412.404 467.124C412.398 467.124 412.395 467.115 412.401 467.113 417.975 464.101 424.236 460.335 427.489 457.083 434.978 449.593 437.67 440.988 433.751 437.068 429.832 433.148 421.226 435.84 413.737 443.331 409.576 447.491 404.573 456.577 401.387 462.844 401.384 462.849 401.376 462.847 401.376 462.84L401.376 411.225 396.176 411.225 396.176 462.124C396.176 462.131 396.167 462.134 396.164 462.127 392.977 455.863 387.994 446.826 383.848 442.681 376.358 435.191 367.754 432.499 363.834 436.418 361.739 438.512 361.436 441.912 362.978 445.99 364.279 449.436 366.808 453.145 370.096 456.433 373.586 459.922 380.544 464.006 386.396 467.113 386.402 467.116 386.399 467.124 386.392 467.124L253.36 467.124 253.36 472.324 387.304 472.324C387.311 472.324 387.314 472.334 387.308 472.336 381.284 475.493 373.768 479.825 370.096 483.498 366.807 486.786 364.279 490.495 362.977 493.94 361.435 498.018 361.739 501.418 363.834 503.512 365.046 504.726 366.709 505.305 368.648 505.305 372.973 505.305 378.676 502.421 383.848 497.25 387.993 493.104 392.976 484.067 396.163 477.803 396.167 477.797 396.175 477.8 396.175 477.807L396.175 528.224 401.375 528.224 401.375 477.09C401.375 477.084 401.384 477.08 401.387 477.087 404.572 483.354 409.575 492.44 413.736 496.6 418.908 501.772 424.61 504.655 428.936 504.655 430.874 504.655 432.537 504.076 433.75 502.862 437.67 498.943 434.978 490.338 427.488 482.848 424.059 479.419 417.287 475.421 411.501 472.336 411.495 472.333 411.498 472.324 411.505 472.324L545.859 472.324 545.859 467.124ZM417.183 446.777C422.066 441.895 426.594 440.114 428.908 440.114 429.567 440.114 430.046 440.258 430.303 440.515 431.467 441.679 430.312 447.364 424.041 453.636 420.341 457.335 411.719 462.058 405.725 465.102 405.719 465.105 405.713 465.099 405.716 465.094 408.761 459.098 413.484 450.477 417.183 446.777ZM367.537 444.267C366.655 441.932 366.772 440.374 367.281 439.865 367.538 439.608 368.018 439.464 368.675 439.464 370.99 439.464 375.518 441.245 380.401 446.127 384.101 449.828 388.823 458.45 391.868 464.445 391.871 464.451 391.865 464.457 391.86 464.454 385.865 461.41 377.245 456.687 373.543 452.986 370.774 450.216 368.584 447.038 367.537 444.267ZM380.401 493.804C374.13 500.075 368.444 501.23 367.281 500.066 366.772 499.558 366.654 497.999 367.537 495.665 368.584 492.892 370.774 489.715 373.543 486.946 377.242 483.246 385.864 478.523 391.859 475.479 391.865 475.476 391.871 475.482 391.867 475.487 388.823 481.483 384.101 490.104 380.401 493.804ZM430.304 499.416C429.14 500.581 423.455 499.426 417.183 493.154 413.483 489.454 408.76 480.833 405.716 474.838 405.714 474.832 405.72 474.826 405.725 474.83 411.72 477.874 420.341 482.596 424.041 486.296 430.312 492.566 431.467 498.252 430.304 499.416Z" stroke="#196B24" stroke-width="1.33333" fill="#BF0000"/><path d="M166.26 205.626C166.26 207.42 164.805 208.876 163.01 208.876 161.215 208.876 159.76 207.42 159.76 205.626 159.76 203.831 161.215 202.376 163.01 202.376 164.805 202.376 166.26 203.831 166.26 205.626Z" stroke="#196B24" stroke-width="1.33333" fill="#BF0000"/><path d="M190.27 257.761C190.606 259.957 188.742 261.821 186.546 261.486 185.177 261.277 184.059 260.158 183.849 258.79 183.512 256.593 185.377 254.728 187.574 255.065 188.942 255.274 190.061 256.393 190.27 257.761Z" stroke="#196B24" stroke-width="1.33333" fill="#505050"/><path d="M168.821 268.161C169.157 270.357 167.293 272.221 165.097 271.886 163.728 271.677 162.609 270.558 162.399 269.19 162.063 266.993 163.927 265.128 166.124 265.465 167.493 265.674 168.611 266.793 168.821 268.161Z" stroke="#196B24" stroke-width="1.33333" fill="#FFFFFF"/><path d="M144.63 231.796C144.227 232.673 142.366 231.899 140.912 230.248 140.005 229.219 139.539 228.103 139.79 227.555 140.191 226.677 142.054 227.453 143.509 229.104 144.415 230.132 144.88 231.249 144.63 231.796Z" stroke="#196B24" stroke-width="1.33333" fill="#D1D1D1"/><path d="M237.11 130.226C237.446 132.421 235.582 134.285 233.386 133.95 232.017 133.741 230.898 132.622 230.688 131.254 230.352 129.057 232.216 127.192 234.413 127.529 235.782 127.738 236.9 128.857 237.11 130.226Z" stroke="#196B24" stroke-width="1.33333" fill="#505050"/><path d="M212.37 221.361C212.706 223.557 210.842 225.421 208.646 225.086 207.277 224.877 206.159 223.758 205.949 222.39 205.612 220.193 207.477 218.328 209.674 218.665 211.042 218.874 212.161 219.993 212.37 221.361Z" stroke="#196B24" stroke-width="1.33333" fill="#505050"/><path d="M192.293 175.361C191.89 176.238 190.028 175.463 188.573 173.812 187.667 172.783 187.202 171.666 187.453 171.12 187.855 170.242 189.717 171.018 191.172 172.669 192.079 173.697 192.544 174.814 192.293 175.361Z" stroke="#196B24" stroke-width="1.33333" fill="#D1D1D1"/><path d="M316.191 121.995C318.84 125.474 314.906 129.406 311.429 126.756 308.779 123.276 312.712 119.345 316.191 121.995Z" stroke="#196B24" stroke-width="1.33333" fill="#505050"/><path d="M190.27 159.612C190.606 161.808 188.741 163.673 186.545 163.336 185.177 163.126 184.058 162.007 183.849 160.639 183.513 158.443 185.377 156.578 187.574 156.915 188.943 157.124 190.061 158.243 190.27 159.612Z" stroke="#196B24" stroke-width="1.33333" fill="#505050"/><path d="M156.5 216.039C156.836 218.236 154.971 220.1 152.775 219.763 151.406 219.553 150.288 218.434 150.078 217.066 149.742 214.87 151.607 213.006 153.804 213.342 155.173 213.552 156.291 214.671 156.5 216.039Z" stroke="#196B24" stroke-width="1.33333" fill="#505050"/><path d="M239.403 110.983C239.926 111.505 239.321 112.958 238.052 114.227 236.783 115.497 235.33 116.102 234.807 115.579 234.284 115.056 234.889 113.603 236.158 112.334 237.427 111.065 238.88 110.46 239.403 110.983Z" stroke="#196B24" stroke-width="1.33332" fill="#BF0000"/><path d="M187.108 230.323C187.631 230.846 187.026 232.299 185.757 233.568 184.488 234.837 183.035 235.442 182.512 234.919 181.989 234.396 182.594 232.943 183.864 231.674 185.133 230.405 186.586 229.8 187.108 230.323Z" stroke="#196B24" stroke-width="1.33332" fill="#BF0000"/><path d="M245.606 145.174C246.129 145.697 245.524 147.15 244.255 148.419 242.986 149.688 241.533 150.293 241.01 149.77 240.487 149.247 241.092 147.795 242.362 146.525 243.631 145.256 245.084 144.651 245.606 145.174Z" stroke="#196B24" stroke-width="1.33332" fill="#D1D1D1"/><path d="M242.31 183.526C242.31 185.32 240.855 186.776 239.06 186.776 237.265 186.776 235.81 185.32 235.81 183.526 235.81 181.731 237.265 180.276 239.06 180.276 240.855 180.276 242.31 181.731 242.31 183.526Z" stroke="#196B24" stroke-width="1.33333" fill="#BF0000"/><path d="M296.91 139.326C296.91 141.12 295.454 142.576 293.66 142.576 291.865 142.576 290.41 141.12 290.41 139.326 290.41 137.531 291.865 136.076 293.66 136.076 295.454 136.076 296.91 137.531 296.91 139.326Z" stroke="#196B24" stroke-width="1.33333" fill="#D1D1D1"/><path d="M218.371 196.651C218.371 198.446 216.916 199.901 215.121 199.901 213.326 199.901 211.871 198.446 211.871 196.651 211.871 194.856 213.326 193.401 215.121 193.401 216.916 193.401 218.371 194.856 218.371 196.651Z" stroke="#196B24" stroke-width="1.33333" fill="#D1D1D1"/><path d="M328.11 99.0255C328.11 100.82 326.655 102.276 324.86 102.276 323.065 102.276 321.61 100.82 321.61 99.0255 321.61 97.2306 323.065 95.7755 324.86 95.7755 326.655 95.7755 328.11 97.2306 328.11 99.0255Z" stroke="#196B24" stroke-width="1.33333" fill="#D1D1D1"/><path d="M297.52 114.762C297.856 116.958 295.992 118.821 293.797 118.486 292.428 118.277 291.309 117.159 291.099 115.79 290.762 113.593 292.627 111.728 294.824 112.065 296.193 112.275 297.311 113.394 297.52 114.762Z" stroke="#196B24" stroke-width="1.33333" fill="#BF0000"/></g></svg>