<svg width="624" height="624" xmlns="http://www.w3.org/2000/svg" xmlns:xlink="http://www.w3.org/1999/xlink" xml:space="preserve" overflow="hidden"><g><path d="M436.825 461.915C437.328 460.459 438.129 459.079 439.249 457.882 439.311 457.815 439.373 457.748 439.435 457.679 445.066 451.444 444.558 441.793 438.617 435.853L433.531 430.767C429.53 426.766 429.745 420.364 433.757 416.375 434.507 415.629 435.105 414.765 436.069 414.039 441.245 410.138 442.03 402.703 437.447 398.12L428.308 388.983C424.308 384.982 424.521 378.58 428.534 374.591 429.283 373.846 429.882 372.981 430.846 372.255 436.023 368.354 436.806 360.919 432.223 356.336L423.76 347.873C419.582 343.695 419.398 336.904 423.481 332.634 423.571 332.539 423.66 332.444 423.748 332.347 429.37 326.136 429.011 316.564 423.088 310.64L418.467 306.021C414.261 301.814 414.296 295.091 418.358 290.744 418.419 290.679 418.48 290.613 418.541 290.546 424.174 284.312 423.668 274.659 417.726 268.718L413.245 264.236C409.038 260.029 409.074 253.306 413.135 248.96 413.197 248.894 413.258 248.828 413.318 248.761 418.952 242.527 418.445 232.875 412.504 226.933L408.022 222.451C403.816 218.245 403.849 211.523 407.911 207.177 407.973 207.11 408.036 207.043 408.097 206.974 413.728 200.739 413.221 191.088 407.28 185.148L402.704 180.573C398.531 176.4 398.586 169.721 402.645 165.437 402.721 165.357 402.797 165.275 402.872 165.192 408.505 158.958 407.999 149.306 402.057 143.364L370.839 112.145C366.61 112.591 350.936 95.2952 343.6 95.431 335.191 95.5864 321.5 113.761 315.819 113.942L286.397 143.363C280.456 149.304 279.95 158.957 285.583 165.192 285.643 165.259 285.704 165.325 285.765 165.39 289.827 169.736 289.862 176.459 285.656 180.666L278.465 187.858C273.446 192.876 273.87 200.983 279.153 205.724 279.775 206.282 280.185 206.804 280.652 207.291 284.731 211.535 284.594 218.288 280.432 222.45L269.805 233.078C265.296 237.587 267.236 244.981 273.198 247.244 274.711 247.819 275.136 249.114 276.288 249.766 280.558 252.184 281.666 257.778 278.197 261.247L266.458 272.985C261.986 277.457 262.759 284.742 267.855 288.487 268.845 289.215 269.456 290.071 270.164 290.815 274.214 295.06 274.316 301.688 270.167 305.837L265.504 310.5C259.563 316.441 259.057 326.093 264.69 332.327 264.75 332.394 264.811 332.459 264.872 332.525 268.935 336.872 268.97 343.595 264.763 347.801L260.657 351.907C255.807 356.758 254.303 364.101 257.057 370.383 257.887 372.275 258.799 373.414 259.793 374.461 263.832 378.717 263.689 385.437 259.54 389.585L255.059 394.066C249.117 400.007 248.611 409.661 254.244 415.895 254.305 415.962 254.366 416.027 254.427 416.093 258.489 420.439 258.525 427.162 254.318 431.369L249.835 435.852C245.161 440.526 243.852 447.498 246.251 453.294 246.325 453.474 261.518 448.887 311.958 448.887 328.005 448.887 344.708 450.254 359.906 451.227 361.067 451.301 385.223 453.506 395.721 454.748 395.979 454.778 396.194 455.629 396.451 455.659 405.786 456.775 414.861 458.073 423.64 459.54 423.896 459.582 424.25 459.157 424.505 459.2 428.59 459.889 432.162 460.581 436.108 461.367 436.227 461.394 436.704 461.891 436.825 461.915Z" fill="#D8D8D8"/><path d="M331.36 119.337C341.305 117.679 343.102 106.493 351.51 106.337 358.846 106.202 361.492 114.641 367.76 113.487 368.864 113.284 369.89 112.806 370.839 112.148L355.306 96.6153C349.187 90.4963 339.266 90.4963 333.147 96.6153L315.818 113.944C318.86 118.067 325.843 120.257 331.36 119.337Z" fill="#E8E8E8"/><path d="M423.647 432.392 423.647 459.544C432.151 460.965 440.376 462.545 448.288 464.27L448.288 432.845C464.361 451.295 486.385 466.12 510.177 471.931 524.692 472.215 529.236 451.151 515.551 445.576 494.191 437.927 474.73 424.965 462.312 405.995 462.3 405.977 462.304 405.973 462.321 405.986 474.876 415.662 489.657 424.349 505.11 427.879 518.903 428.15 523.291 408.177 510.333 402.778 488.879 394.971 469.397 381.47 457.93 361.578 457.92 361.56 457.924 361.557 457.94 361.57 466.85 369.119 476.985 375.251 487.805 379.571 496.104 384.071 506.287 387.001 511.445 376.401 520.027 352.509 476.007 362.275 454.081 317.594 454.072 317.576 454.077 317.573 454.091 317.586 464.198 326.966 477.313 333.341 490.145 338.733 504.346 344.867 513.952 323.793 499.825 317.152 478.642 309.257 459.755 295.131 450.871 274.054 450.864 274.039 450.869 274.035 450.881 274.046 458.349 280.931 466.989 286.602 476.53 290.739 479.591 291.87 486.58 296.05 489.913 295.719 501.479 296.137 505.459 278.857 494.545 274.329 475.262 267.018 457.788 254.13 449.722 234.79 449.716 234.775 449.721 234.772 449.732 234.783 455.981 240.428 463.095 245.157 470.886 248.728 478.477 252.448 489.182 258.615 494.456 247.911 502.437 226.738 460.305 236.411 446.176 191.579 443.472 181.935 428.735 181.912 426.031 191.58 419.961 212.283 402.615 226.552 382.952 233.907 370.448 239.707 379.148 258.818 391.755 253.112 402.51 248.455 413.93 242.874 422.417 234.836 422.429 234.824 422.434 234.827 422.427 234.844 404.542 276.474 363.797 267.199 371.734 289.043 377.231 299.839 387.248 294.692 395.372 290.651 405.042 286.517 413.789 280.812 421.341 273.868 421.353 273.857 421.358 273.861 421.351 273.876 412.341 295.144 393.119 309.099 371.721 316.96 357.625 323.505 367.002 344.648 381.319 338.578 394.368 333.142 407.768 326.826 418.049 317.326 418.064 317.312 418.068 317.316 418.059 317.334 395.364 362.295 351.253 351.99 359.678 376.071 364.916 386.807 374.943 383.796 383.488 379.301 394.688 374.986 405.174 368.743 414.363 360.984 414.379 360.971 414.383 360.975 414.373 360.992 389.361 405.021 345.181 394.668 353.636 419.549 358.565 430.168 368.917 428.277 377.541 423.626 389.435 419.227 400.407 412.914 410.101 405.085 410.118 405.07 410.123 405.074 410.11 405.093 397.357 424.586 377.11 437.521 355.046 445.08 351.488 446.616 349.169 448.968 347.883 451.649 347.881 451.654 347.884 451.658 347.888 451.659 364.675 452.452 380.921 453.807 396.451 455.664 406.624 449.268 415.875 441.571 423.647 432.392Z" fill="#737373"/><path d="M453.645 243.309C453.945 243.045 454.372 243.097 454.601 243.424 455.888 245.264 460.606 251.378 472.41 261.037 478.801 266.265 486.832 270.529 491.317 272.483 491.649 272.628 491.796 273.013 491.647 273.343 490.652 275.537 487.013 282.581 480.21 283.787 472.311 285.186 462.426 274.321 460.06 263.637 459.25 263.55 453.314 263.875 449.66 257.137 446.155 250.674 451.784 244.952 453.645 243.309Z" fill="#F1F1F1"/><path d="M469.81 376.087C473.916 380.382 478.498 383.874 484.76 388.437 489.254 391.712 496.124 397.215 505.593 400.573 505.931 400.693 506.117 401.066 505.991 401.402 504.581 405.16 502.838 406.257 501.66 406.638 495.039 408.779 488.265 394.112 478.91 395.588 474.374 396.304 474.092 400.048 469.81 400.138 463.499 400.27 457.185 392.258 455.51 384.538 453.541 375.464 458.465 368.428 460.193 366.294 460.471 365.952 460.923 365.955 461.2 366.298 463.338 368.943 466.218 372.33 469.81 376.087Z" fill="#F1F1F1"/><path d="M360.705 448.763 356.544 444.602C352.723 440.78 352.724 434.641 356.445 430.721 356.661 430.492 356.864 430.26 357.105 429.996 361.997 424.66 361.879 416.441 356.76 411.322L351.816 406.377C347.962 402.523 347.994 396.363 351.716 392.382 351.772 392.321 351.827 392.261 351.883 392.2 357.044 386.488 356.58 377.645 351.137 372.201L347.03 368.095C343.177 364.242 343.207 358.082 346.929 354.101 346.986 354.04 347.043 353.978 347.099 353.915 352.258 348.204 351.793 339.361 346.351 333.919L342.246 329.814C338.391 325.96 338.424 319.801 342.145 315.819 342.201 315.758 342.257 315.698 342.312 315.637 347.473 309.925 347.01 301.082 341.566 295.639L337.532 291.605C333.698 287.771 333.541 281.546 337.281 277.621 337.591 277.296 337.878 276.963 338.192 276.545 342.591 270.712 341.922 262.499 336.756 257.332L332.711 253.287C328.855 249.431 328.838 243.244 332.566 239.266 332.785 239.032 332.989 238.794 333.232 238.526 338.066 233.177 337.919 225 332.821 219.901L327.89 214.97C324.035 211.116 324.068 204.957 327.789 200.975 327.845 200.914 327.901 200.854 327.956 200.793 333.117 195.081 332.654 186.238 327.211 180.795L316.958 170.542 316.958 170.542 312.14 169.922 284.248 142.773C278.643 137.167 269.553 137.167 263.947 142.773L225.429 180.322C225.198 180.554 220.804 181.272 220.59 181.516L220.59 181.516C215.786 186.993 215.558 195.324 220.499 200.793 220.554 200.854 220.61 200.914 220.667 200.975 224.388 204.957 224.42 211.116 220.566 214.97L216.459 219.077C211.016 224.52 210.553 233.362 215.714 239.073 215.769 239.134 215.825 239.195 215.881 239.255 219.602 243.238 219.635 249.397 215.78 253.251L211.506 257.525C206.075 262.957 205.796 271.729 210.973 277.404 211.03 277.466 211.087 277.527 211.145 277.588 214.867 281.518 214.859 287.669 211.031 291.496L206.889 295.638C201.446 301.081 200.983 309.925 206.144 315.636 206.199 315.697 206.255 315.758 206.311 315.818 210.033 319.8 210.064 325.959 206.211 329.813L202.104 333.92C196.661 339.363 196.197 348.206 201.358 353.917 201.414 353.978 201.469 354.038 201.525 354.099 205.247 358.081 205.279 364.24 201.425 368.094L195.068 374.451C190.354 379.165 190.716 386.786 195.66 391.258 196.154 391.704 196.464 392.092 196.815 392.458 200.555 396.364 200.465 402.551 196.641 406.375 195.272 407.743 193.885 409.131 192.559 410.456 187.393 415.622 186.724 423.835 191.123 429.669 191.437 430.086 191.724 430.419 192.034 430.745 195.774 434.67 195.617 440.894 191.783 444.729L187.749 448.763C183.95 452.562 182.586 458.013 183.856 462.903 183.857 462.907 183.861 462.909 183.864 462.909 221.445 455.25 265.604 450.836 312.851 450.836 330.184 450.836 347.102 451.431 363.433 452.561 363.438 452.562 363.441 452.556 363.439 452.551 362.744 451.183 361.839 449.897 360.705 448.763Z" fill="#C6C6C6"/><path d="M229.31 189.537C242.03 193.515 255.468 173.282 268.31 178.487 273.308 180.513 275.008 185.091 279.36 184.337 284.346 183.474 284.906 176.98 290.41 175.887 294.794 175.017 296.602 178.706 301.46 179.137 307.218 179.649 313.54 175.257 316.958 170.544L284.378 137.965C278.773 132.359 269.683 132.359 264.077 137.965L221.245 180.797C221.014 181.028 220.804 181.274 220.59 181.518 223.485 186.628 226.645 188.704 229.31 189.537Z" fill="#E8E8E8"/><path d="M195.933 419.209C210.319 435.413 229.28 447.861 249.894 453.771 252.927 453.506 255.981 453.26 259.057 453.033 267.552 448.31 268.651 433.896 257.979 429.453L251.274 426.539C251.098 426.463 250.922 426.391 250.744 426.323 231.774 419.05 215.842 405.404 205.534 388.19 205.523 388.171 205.527 388.167 205.544 388.181 217.8 398.659 232.328 406.518 247.69 410.5 260.802 410.772 264.96 391.825 252.735 386.645L245.314 383.363C245.166 383.298 245.017 383.235 244.867 383.176 225.984 375.693 210.809 361.845 201.685 344.193 201.675 344.176 201.68 344.172 201.695 344.185 213.405 354.619 227.588 362.512 242.624 366.448 255.036 366.709 259.02 348.789 247.471 343.828 247.471 343.828 239.335 340.179 239.336 340.177 214.485 330.243 205.436 314.182 199.557 301.612 199.549 301.596 199.554 301.593 199.567 301.605 210.438 311.35 223.645 318.743 237.559 322.395 249.147 322.824 253.077 305.523 242.191 301.005 242.191 301.005 233.34 296.988 233.342 296.987 193.449 280.544 200.007 245.33 183.748 245.749 165.192 246.423 178.159 281.226 124.977 300.909 111.636 307.005 120.856 327.272 134.191 321.313 146.502 316.487 158.264 309.916 168.108 301.309 168.12 301.299 168.124 301.302 168.117 301.317 162.155 314.404 152.119 331.74 119.368 343.636 105.242 350.201 114.687 371.314 128.965 365.254 142.459 360.111 155.245 353.02 165.963 343.722 165.977 343.71 165.982 343.713 165.973 343.73 155.226 364.118 135.779 378.767 113.781 386.354 98.8474 393.155 108.632 415.476 123.718 409.202 137.649 404.06 150.944 396.824 162.3 387.338 162.316 387.324 162.321 387.328 162.31 387.346 150.319 407.19 130.593 421.589 108.22 429.061 101.564 431.885 98.4587 439.57 101.283 446.224 106.176 456.854 116.632 454.931 125.187 450.302 143.034 443.7 158.809 432.797 171.292 418.909L171.292 465.882C171.292 465.887 171.295 465.889 171.3 465.889 179.189 464.054 187.413 462.369 195.933 460.845L195.933 419.209Z" fill="#E8E8E8"/><path d="M418.377 476.814C418.377 474.546 422.932 475.992 429.058 475.992 435.183 475.992 440.56 474.546 440.56 476.814 440.56 479.082 436.398 479.974 430.273 479.974 424.147 479.974 418.377 479.082 418.377 476.814Z" fill="#E5E5E5"/><path d="M283.827 528.814C283.827 526.545 288.382 527.992 294.508 527.992 300.633 527.992 306.01 526.545 306.01 528.814 306.01 531.082 301.848 531.974 295.723 531.974 289.597 531.974 283.827 531.082 283.827 528.814Z" fill="#E5E5E5"/><path d="M187.71 478.114C187.71 475.845 192.265 477.292 198.391 477.292 204.517 477.292 209.893 475.845 209.893 478.114 209.893 480.382 205.732 481.274 199.606 481.274 193.48 481.274 187.71 480.382 187.71 478.114Z" fill="#E5E5E5"/><path d="M251.41 520.477C251.41 518.209 255.965 519.655 262.091 519.655 268.217 519.655 273.593 518.209 273.593 520.477 273.593 522.746 269.431 523.637 263.306 523.637 257.18 523.637 251.41 522.746 251.41 520.477Z" fill="#E5E5E5"/><path d="M272.21 230.487C272.21 231.923 271.046 233.087 269.61 233.087 268.174 233.087 267.01 231.923 267.01 230.487 267.01 229.051 268.174 227.887 269.61 227.887 271.046 227.887 272.21 229.051 272.21 230.487Z" fill="#FFFFFF"/><path d="M242.96 212.937C242.96 214.373 241.796 215.537 240.36 215.537 238.924 215.537 237.76 214.373 237.76 212.937 237.76 211.501 238.924 210.337 240.36 210.337 241.796 210.337 242.96 211.501 242.96 212.937Z" fill="#FFFFFF"/><path d="M273.51 296.787C273.51 298.223 272.346 299.387 270.91 299.387 269.474 299.387 268.31 298.223 268.31 296.787 268.31 295.351 269.474 294.187 270.91 294.187 272.346 294.187 273.51 295.351 273.51 296.787Z" fill="#FFFFFF"/><path d="M236.46 268.837C236.46 270.273 235.296 271.437 233.86 271.437 232.424 271.437 231.26 270.273 231.26 268.837 231.26 267.401 232.424 266.237 233.86 266.237 235.296 266.237 236.46 267.401 236.46 268.837Z" fill="#FFFFFF"/><path d="M239.06 231.462C239.06 233.796 237.169 235.687 234.835 235.687 232.502 235.687 230.61 233.796 230.61 231.462 230.61 229.129 232.502 227.237 234.835 227.237 237.169 227.237 239.06 229.129 239.06 231.462Z" fill="#FFFFFF"/><path d="M259.86 263.312C259.86 265.646 257.969 267.537 255.635 267.537 253.302 267.537 251.41 265.646 251.41 263.312 251.41 260.979 253.302 259.087 255.635 259.087 257.969 259.087 259.86 260.979 259.86 263.312Z" fill="#FFFFFF"/><path d="M356.71 211.637C356.71 213.073 355.546 214.237 354.11 214.237 352.674 214.237 351.51 213.073 351.51 211.637 351.51 210.201 352.674 209.037 354.11 209.037 355.546 209.037 356.71 210.201 356.71 211.637Z" fill="#FFFFFF"/><path d="M357.36 134.287C357.36 135.723 356.196 136.887 354.76 136.887 353.324 136.887 352.16 135.723 352.16 134.287 352.16 132.851 353.324 131.687 354.76 131.687 356.196 131.687 357.36 132.851 357.36 134.287Z" fill="#FFFFFF"/><path d="M347.61 174.587C347.61 176.023 346.446 177.187 345.01 177.187 343.574 177.187 342.41 176.023 342.41 174.587 342.41 173.151 343.574 171.987 345.01 171.987 346.446 171.987 347.61 173.151 347.61 174.587Z" fill="#FFFFFF"/><path d="M349.56 189.212C349.56 191.546 347.669 193.437 345.335 193.437 343.002 193.437 341.11 191.546 341.11 189.212 341.11 186.879 343.002 184.987 345.335 184.987 347.669 184.987 349.56 186.879 349.56 189.212Z" fill="#FFFFFF"/><path d="M378.81 216.512C378.81 218.846 376.919 220.737 374.585 220.737 372.252 220.737 370.36 218.846 370.36 216.512 370.36 214.179 372.252 212.287 374.585 212.287 376.919 212.287 378.81 214.179 378.81 216.512Z" fill="#FFFFFF"/><path d="M185.11 339.037C185.11 340.473 183.946 341.637 182.51 341.637 181.074 341.637 179.91 340.473 179.91 339.037 179.91 337.601 181.074 336.437 182.51 336.437 183.946 336.437 185.11 337.601 185.11 339.037Z" fill="#FFFFFF"/><path d="M181.21 386.487C181.21 387.923 180.046 389.087 178.61 389.087 177.174 389.087 176.01 387.923 176.01 386.487 176.01 385.051 177.174 383.887 178.61 383.887 180.046 383.887 181.21 385.051 181.21 386.487Z" fill="#FFFFFF"/><path d="M164.31 419.312C164.31 421.646 162.419 423.537 160.085 423.537 157.752 423.537 155.86 421.646 155.86 419.312 155.86 416.979 157.752 415.087 160.085 415.087 162.419 415.087 164.31 416.979 164.31 419.312Z" fill="#FFFFFF"/><path d="M197.46 390.062C197.46 392.396 195.569 394.287 193.235 394.287 190.902 394.287 189.01 392.396 189.01 390.062 189.01 387.729 190.902 385.837 193.235 385.837 195.569 385.837 197.46 387.729 197.46 390.062Z" fill="#FFFFFF"/><path d="M432.76 251.937C432.76 253.373 431.596 254.537 430.16 254.537 428.724 254.537 427.56 253.373 427.56 251.937 427.56 250.501 428.724 249.337 430.16 249.337 431.596 249.337 432.76 250.501 432.76 251.937Z" fill="#FFFFFF"/><path d="M431.46 302.637C431.46 304.073 430.296 305.237 428.86 305.237 427.424 305.237 426.26 304.073 426.26 302.637 426.26 301.201 427.424 300.037 428.86 300.037 430.296 300.037 431.46 301.201 431.46 302.637Z" fill="#FFFFFF"/><path d="M434.06 324.737C434.06 326.173 432.896 327.337 431.46 327.337 430.024 327.337 428.86 326.173 428.86 324.737 428.86 323.301 430.024 322.137 431.46 322.137 432.896 322.137 434.06 323.301 434.06 324.737Z" fill="#FFFFFF"/><path d="M445.76 392.337C445.76 393.773 444.596 394.937 443.16 394.937 441.724 394.937 440.56 393.773 440.56 392.337 440.56 390.901 441.724 389.737 443.16 389.737 444.596 389.737 445.76 390.901 445.76 392.337Z" fill="#FFFFFF"/><path d="M423.01 347.162C423.01 349.496 421.119 351.387 418.785 351.387 416.452 351.387 414.56 349.496 414.56 347.162 414.56 344.829 416.452 342.937 418.785 342.937 421.119 342.937 423.01 344.829 423.01 347.162Z" fill="#FFFFFF"/><path d="M420.017 391.687C420.017 445.535 376.365 489.187 322.517 489.187 268.669 489.187 225.017 445.535 225.017 391.687 225.017 337.84 268.669 294.187 322.517 294.187 376.365 294.187 420.017 337.84 420.017 391.687Z" fill="#FFFFFF"/><path d="M364.551 251.374C364.551 274.708 345.635 293.624 322.301 293.624 298.966 293.624 280.051 274.708 280.051 251.374 280.051 228.04 298.966 209.124 322.301 209.124 345.635 209.124 364.551 228.04 364.551 251.374Z" fill="#FFFFFF"/><path d="M311.104 248.233 258.42 248.233C257.428 248.233 256.624 249.037 256.624 250.029L256.624 250.029C256.624 250.877 257.217 251.609 258.045 251.785L309.574 262.759C314.177 263.739 318.501 260.197 318.447 255.491L318.447 255.491C318.4 251.469 315.126 248.233 311.104 248.233Z" fill="#0E9DD4"/><path d="M308.047 242.492C308.047 244.286 306.592 245.741 304.797 245.741 303.003 245.741 301.548 244.286 301.548 242.492 301.548 240.697 303.003 239.242 304.797 239.242 306.592 239.242 308.047 240.697 308.047 242.492Z" fill="#505050"/><path d="M326.245 242.492C326.245 244.286 324.791 245.741 322.996 245.741 321.201 245.741 319.747 244.286 319.747 242.492 319.747 240.697 321.201 239.242 322.996 239.242 324.791 239.242 326.245 240.697 326.245 242.492Z" fill="#505050"/><path d="M296.278 432.275C295.92 432.275 295.628 431.985 295.628 431.625L295.628 418.625C295.628 418.266 295.92 417.975 296.278 417.975 296.637 417.975 296.928 418.266 296.928 418.625L296.928 431.625C296.928 431.985 296.637 432.275 296.278 432.275Z" fill="#0E9DD4"/><path d="M335.278 432.275C334.919 432.275 334.628 431.985 334.628 431.625L334.628 418.625C334.628 418.266 334.919 417.975 335.278 417.975 335.638 417.975 335.928 418.266 335.928 418.625L335.928 431.625C335.928 431.985 335.637 432.275 335.278 432.275Z" fill="#0E9DD4"/><path d="M322.278 432.275C321.92 432.275 321.628 431.985 321.628 431.625L321.628 418.625C321.628 418.266 321.92 417.975 322.278 417.975 322.637 417.975 322.928 418.266 322.928 418.625L322.928 431.625C322.928 431.985 322.637 432.275 322.278 432.275Z" fill="#0E9DD4"/><path d="M309.278 432.275C308.92 432.275 308.628 431.985 308.628 431.625L308.628 418.625C308.628 418.266 308.92 417.975 309.278 417.975 309.637 417.975 309.928 418.266 309.928 418.625L309.928 431.625C309.928 431.985 309.637 432.275 309.278 432.275Z" fill="#0E9DD4"/><path d="M302.778 432.275C302.42 432.275 302.128 431.985 302.128 431.625L302.128 418.625C302.128 418.266 302.42 417.975 302.778 417.975 303.137 417.975 303.428 418.266 303.428 418.625L303.428 431.625C303.428 431.985 303.137 432.275 302.778 432.275Z" fill="#0E9DD4"/><path d="M315.778 432.275C315.42 432.275 315.128 431.985 315.128 431.625L315.128 418.625C315.128 418.266 315.42 417.975 315.778 417.975 316.137 417.975 316.428 418.266 316.428 418.625L316.428 431.625C316.428 431.985 316.137 432.275 315.778 432.275Z" fill="#0E9DD4"/><path d="M328.778 432.275C328.42 432.275 328.128 431.985 328.128 431.625L328.128 418.625C328.128 418.266 328.42 417.975 328.778 417.975 329.137 417.975 329.428 418.266 329.428 418.625L329.428 431.625C329.428 431.985 329.137 432.275 328.778 432.275Z" fill="#0E9DD4"/><path d="M347.628 405.625C347.269 405.625 346.978 405.335 346.978 404.975L346.978 391.975C346.978 391.616 347.269 391.325 347.628 391.325 347.988 391.325 348.278 391.616 348.278 391.975L348.278 404.975C348.278 405.335 347.987 405.625 347.628 405.625Z" fill="#505050"/><path d="M341.128 405.625C340.769 405.625 340.478 405.335 340.478 404.975L340.478 391.975C340.478 391.616 340.769 391.325 341.128 391.325 341.488 391.325 341.778 391.616 341.778 391.975L341.778 404.975C341.778 405.335 341.487 405.625 341.128 405.625Z" fill="#505050"/><path d="M348.278 297.726 348.278 310.726C348.278 310.726 346.281 312.297 346.281 317.269 346.281 322.241 348.278 323.728 348.278 323.728L348.278 336.725C348.278 336.725 346.281 338.133 346.281 343.281 346.281 348.43 348.278 349.727 348.278 349.727L348.278 362.724C348.278 362.724 346.281 364.011 346.281 369.116 346.281 374.221 348.278 375.725 348.278 375.725L348.278 388.637 328.62 388.637 328.62 288.452C328.62 287.951 329.154 287.63 329.597 287.864L348.278 297.726Z" fill="#505050"/><path d="M296.279 284.727 296.279 297.727C296.279 297.727 298.277 299.002 298.277 303.929 298.277 308.857 296.279 310.726 296.279 310.726L296.279 323.726C296.279 323.726 298.277 325.104 298.277 330.031 298.277 334.959 296.279 336.726 296.279 336.726L296.279 349.726C296.279 349.726 298.277 351.872 298.277 356.466 298.277 361.06 296.279 362.725 296.279 362.725L296.279 375.726C296.279 375.726 298.277 377.773 298.277 382.235 298.277 386.697 296.279 388.726 296.279 388.726L296.279 401.726 309.279 414.726 322.279 414.726 335.279 401.726 335.279 388.726C335.279 388.726 333.282 386.83 333.282 382.302 333.282 377.774 335.279 375.726 335.279 375.726L335.279 362.726C335.279 362.726 333.282 361.393 333.282 356.4 333.282 351.406 335.279 349.726 335.279 349.726L335.279 336.726C335.279 336.726 333.282 335.025 333.282 330.164 333.282 325.302 335.279 323.725 335.279 323.725L335.279 310.725C335.279 310.725 333.424 308.456 333.424 304.128 333.424 299.799 335.279 297.725 335.279 297.725L348.279 297.725 348.279 284.725 296.279 284.725Z" fill="#0E9DD4"/><path d="M335.279 310.727 348.279 310.727 348.279 323.727 335.279 323.727Z" fill="#737373"/><path d="M335.278 336.727 348.278 336.727 348.278 349.727 335.278 349.727Z" fill="#737373"/><path d="M335.278 362.726 348.278 362.726 348.278 375.726 335.278 375.726Z" fill="#737373"/><path d="M296.278 297.727 309.278 297.727 309.278 310.727 296.278 310.727Z" fill="#FFFFFF"/><path d="M322.278 297.727 335.278 297.727 335.278 310.727 322.278 310.727Z" fill="#FFFFFF"/><path d="M296.279 323.727 309.279 323.727 309.279 336.727 296.279 336.727Z" fill="#FFFFFF"/><path d="M322.278 323.726 335.278 323.726 335.278 336.726 322.278 336.726Z" fill="#FFFFFF"/><path d="M296.279 349.727 309.279 349.727 309.279 362.727 296.279 362.727Z" fill="#FFFFFF"/><path d="M322.279 349.726 335.279 349.726 335.279 362.726 322.279 362.726Z" fill="#FFFFFF"/><path d="M296.278 375.726 309.278 375.726 309.278 388.726 296.278 388.726Z" fill="#FFFFFF"/><path d="M322.278 375.726 335.278 375.726 335.278 388.726 322.278 388.726Z" fill="#FFFFFF"/><path d="M296.279 401.726 309.279 401.726 309.279 414.726 296.279 414.726Z" fill="#FFFFFF"/><path d="M322.278 401.726 335.278 401.726 335.278 414.726 322.278 414.726Z" fill="#FFFFFF"/><path d="M309.279 310.727 322.279 310.727 322.279 323.727 309.279 323.727Z" fill="#505050"/><path d="M309.278 336.727 322.278 336.727 322.278 349.727 309.278 349.727Z" fill="#505050"/><path d="M309.279 362.727 322.279 362.727 322.279 375.727 309.279 375.727Z" fill="#505050"/><path d="M309.279 388.726 322.279 388.726 322.279 401.726 309.279 401.726Z" fill="#505050"/><path d="M436.089 281.827C435.327 281.065 434.093 281.065 433.332 281.827L420.992 294.167 420.992 287.037C420.992 285.96 420.119 285.087 419.042 285.087 417.965 285.087 417.092 285.96 417.092 287.037L417.178 297.981 379.313 335.845C378.552 336.606 378.552 337.841 379.313 338.603 379.694 338.983 380.193 339.174 380.692 339.174 381.191 339.174 381.69 338.983 382.071 338.603L401.786 318.887 430.16 318.887C431.237 318.887 432.11 318.014 432.11 316.937 432.11 315.86 431.237 314.987 430.16 314.987L405.686 314.987 436.089 284.584C436.851 283.823 436.851 282.588 436.089 281.827Z" fill="#505050"/><path d="M267.671 335.845 229.806 297.98C229.856 297.807 229.892 276.641 229.892 276.641 229.892 275.564 229.019 274.691 227.942 274.691 226.865 274.691 225.992 275.564 225.992 276.641L225.992 294.166 213.652 281.826C212.891 281.065 211.656 281.065 210.895 281.826 210.133 282.587 210.133 283.822 210.895 284.584L241.298 314.987 216.31 314.987C215.233 314.987 214.36 315.86 214.36 316.937 214.36 318.014 215.233 318.887 216.31 318.887L245.198 318.887 264.913 338.602C265.294 338.983 265.793 339.173 266.292 339.173 266.791 339.173 267.29 338.983 267.671 338.602 268.432 337.841 268.432 336.606 267.671 335.845Z" fill="#505050"/></g></svg>