<svg width="480" height="480" xmlns="http://www.w3.org/2000/svg" xmlns:xlink="http://www.w3.org/1999/xlink" xml:space="preserve" overflow="hidden"><g><path d="M353.95 381.986C353.95 381.986 344.91 378.152 344.635 378.049 317.39 367.892 294.225 349.278 278.246 325.601 278.24 325.591 278.252 325.58 278.261 325.588 291.508 336.351 306.441 345.113 322.59 351.354L331.743 355.332C334.155 356.38 336.665 356.877 339.137 356.877 346.308 356.877 353.14 352.699 356.181 345.703 360.268 336.295 355.958 325.355 346.55 321.266 346.55 321.266 336.536 316.92 336.283 316.824 309.463 306.538 286.946 287.298 272.331 263.061 272.325 263.051 272.337 263.041 272.346 263.048 284.789 273.544 298.995 282.117 314.589 288.339L324.813 292.86C327.138 293.887 329.565 294.375 331.952 294.374 338.925 294.374 345.569 290.223 348.363 283.282 351.949 274.377 347.497 264.236 338.718 260.354 338.718 260.354 328.158 255.69 327.946 255.606 301.18 244.996 279.7 225.412 266.738 200.407 266.733 200.397 266.745 200.387 266.754 200.395 278.4 210.726 291.802 219.195 306.59 225.323L317.906 230.399C320.136 231.399 322.468 231.873 324.764 231.873 331.463 231.873 337.845 227.84 340.443 221.093 343.67 212.713 339.444 203.279 331.25 199.603 331.25 199.603 319.782 194.463 319.624 194.397 293.788 183.745 273.413 163.797 262.186 138.634 262.182 138.624 262.194 138.615 262.202 138.623 272.797 148.388 285.055 156.435 298.59 162.304L311.024 167.946C313.153 168.911 315.383 169.369 317.577 169.369 323.902 169.369 329.935 165.57 332.406 159.2 335.475 151.286 331.512 142.359 323.783 138.852 323.783 138.852 311.417 133.243 311.331 133.205 285.027 121.833 265.064 99.625 256.536 72.26L256.497 72.119C254.555 65.371 248.415 60.697 241.393 60.625 241.339 60.624 241.285 60.624 241.229 60.624 234.276 60.624 228.121 65.153 226.058 71.809 217.515 99.398 197.383 121.71 170.826 133.024 170.722 133.068 157.84 138.886 157.84 138.886 149.846 142.496 146.292 151.905 149.903 159.899 153.516 167.893 162.92 171.449 170.917 167.835L183.44 162.178C197.158 156.312 209.568 148.219 220.282 138.368 220.29 138.361 220.302 138.37 220.298 138.38 208.924 163.652 188.331 183.561 162.216 194.044 162.03 194.119 149.885 199.505 149.885 199.505 141.416 203.265 137.597 213.179 141.357 221.649 145.116 230.121 155.031 233.939 163.502 230.178L175.007 225.072C190.096 218.977 203.761 210.468 215.612 200.029 215.62 200.022 215.633 200.031 215.627 200.041 202.356 225.018 180.27 244.881 153.574 255.083 153.325 255.178 141.957 260.114 141.957 260.114 133.005 264.007 128.904 274.421 132.796 283.373 136.69 292.325 147.099 296.426 156.056 292.535L166.578 287.959C182.703 281.745 197.525 272.815 210.499 261.773 210.508 261.766 210.52 261.776 210.514 261.786 195.597 286.578 172.488 306.026 144.905 316.136 144.613 316.243 134.065 320.712 134.065 320.712 124.624 324.719 120.216 335.622 124.224 345.065 128.233 354.51 139.142 358.912 148.578 354.905L158.138 350.848C175.011 344.607 190.576 335.653 204.328 324.546 204.337 324.539 204.349 324.55 204.343 324.559 187.977 348.619 164.208 367.298 136.219 377.199 135.91 377.308 126.659 381.108 126.659 381.108 116.896 385.128 111.705 396.143 115.375 406.043 119.227 416.436 130.891 421.478 141.048 417.294L149.682 413.739C178.529 403.441 203.866 385.867 223.553 363.284L223.553 419.382 258.515 419.382 258.515 363.802C277.745 386.198 302.476 403.807 330.612 414.38L338.716 417.826C341.202 418.882 343.783 419.383 346.324 419.383 353.898 419.382 361.102 414.935 364.251 407.524 368.457 397.624 363.845 386.193 353.95 381.986Z" fill="#0E9DD4"/><path d="M247.459 106.323C247.459 110.53 244.049 113.94 239.842 113.94 235.635 113.94 232.225 110.53 232.225 106.323 232.225 102.116 235.635 98.706 239.842 98.706 244.049 98.706 247.459 102.116 247.459 106.323Z" fill="#FFFFFF"/><path d="M281.735 239.621C281.735 243.828 278.325 247.238 274.118 247.238 269.911 247.238 266.501 243.828 266.501 239.621 266.501 235.414 269.911 232.004 274.118 232.004 278.325 232.004 281.735 235.414 281.735 239.621Z" fill="#FFFFFF"/><path d="M285.544 357.684C285.544 361.891 282.134 365.301 277.927 365.301 273.72 365.301 270.31 361.891 270.31 357.684 270.31 353.477 273.72 350.067 277.927 350.067 282.134 350.067 285.544 353.477 285.544 357.684Z" fill="#FFFFFF"/><path d="M228.417 228.195C228.417 230.299 226.712 232.004 224.608 232.004 222.504 232.004 220.799 230.299 220.799 228.195 220.799 226.091 222.504 224.386 224.608 224.386 226.712 224.386 228.417 226.091 228.417 228.195Z" fill="#FFFFFF"/><path d="M186.523 323.408C186.523 325.512 184.818 327.217 182.714 327.217 180.61 327.217 178.905 325.512 178.905 323.408 178.905 321.304 180.61 319.599 182.714 319.599 184.818 319.599 186.523 321.304 186.523 323.408Z" fill="#FFFFFF"/><path d="M319.821 323.408C319.821 325.512 318.116 327.217 316.012 327.217 313.908 327.217 312.203 325.512 312.203 323.408 312.203 321.304 313.908 319.599 316.012 319.599 318.116 319.599 319.821 321.304 319.821 323.408Z" fill="#FFFFFF"/><path d="M258.885 266.28C258.885 268.384 257.18 270.089 255.076 270.089 252.972 270.089 251.267 268.384 251.267 266.28 251.267 264.176 252.972 262.471 255.076 262.471 257.18 262.471 258.885 264.176 258.885 266.28Z" fill="#FFFFFF"/><path d="M228.417 110.131C228.417 112.235 226.712 113.94 224.608 113.94 222.504 113.94 220.799 112.235 220.799 110.131 220.799 108.027 222.504 106.322 224.608 106.322 226.712 106.322 228.417 108.027 228.417 110.131Z" fill="#FFFFFF"/><path d="M255.076 163.45C255.076 165.554 253.371 167.259 251.267 167.259 249.163 167.259 247.458 165.554 247.458 163.45 247.458 161.346 249.163 159.641 251.267 159.641 253.371 159.641 255.076 161.346 255.076 163.45Z" fill="#FFFFFF"/><path d="M216.991 247.238C216.991 251.445 213.581 254.855 209.374 254.855 205.167 254.855 201.757 251.445 201.757 247.238 201.757 243.031 205.167 239.621 209.374 239.621 213.581 239.621 216.991 243.031 216.991 247.238Z" fill="#FFFFFF"/><path d="M232.225 327.216C232.225 329.32 230.52 331.025 228.416 331.025 226.312 331.025 224.607 329.32 224.607 327.216 224.607 325.112 226.312 323.407 228.416 323.407 230.52 323.407 232.225 325.112 232.225 327.216Z" fill="#FFFFFF"/><path d="M220.799 346.259C220.799 350.466 217.389 353.876 213.182 353.876 208.975 353.876 205.565 350.466 205.565 346.259 205.565 342.052 208.975 338.642 213.182 338.642 217.389 338.642 220.799 342.052 220.799 346.259Z" fill="#FFFFFF"/></g></svg>